<svg width="24" height="24" viewBox="0 0 24 24" fill="none" xmlns="http://www.w3.org/2000/svg">
<g id="Frame 121">
<path id="Vector" d="M24 10.8H18.996L22.884 6.912L21.192 5.208L15.6 10.8H13.2V8.4L18.792 2.808L17.088 1.116L13.2 5.004V0H10.8V5.004L6.912 1.116L5.208 2.808L10.8 8.4V10.8H8.4L2.808 5.208L1.116 6.912L5.004 10.8H0V13.2H5.004L1.116 17.088L2.808 18.792L8.4 13.2H10.8V15.6L5.208 21.192L6.912 22.884L10.8 18.996V24H13.2V18.996L17.088 22.884L18.792 21.192L13.2 15.6V13.2H15.6L21.192 18.792L22.884 17.088L18.996 13.2H24V10.8Z" fill="#787878"/>
</g>
</svg>
