<svg width="24" height="24" viewBox="0 0 24 24" fill="none" xmlns="http://www.w3.org/2000/svg">
<g id="Frame 127">
<path id="Vector" d="M22.48 8.45762H21.9422L14.2254 2.6133C14.2546 2.47416 14.2703 2.33019 14.2703 2.18268C14.2701 0.979196 13.2518 0 11.9999 0C10.748 0 9.72966 0.979148 9.72966 2.18268C9.72966 2.33019 9.74552 2.47379 9.77454 2.61311L2.05776 8.45743H1.52042C0.682222 8.45743 0 9.11258 0 9.91858V22.5387C0 23.3443 0.682073 24 1.52042 24H22.4799C23.3179 24 24 23.3445 24 22.5387V9.91811C24 9.1123 23.3181 8.45715 22.4801 8.45715L22.48 8.45762ZM12.0003 1.50329C12.39 1.50329 12.7073 1.80835 12.7073 2.18297C12.7073 2.5576 12.39 2.86264 12.0003 2.86264C11.6106 2.86264 11.2933 2.55758 11.2933 2.18297C11.2933 1.80833 11.6106 1.50329 12.0003 1.50329ZM10.3704 3.69878C10.7835 4.10913 11.3608 4.36545 12.0003 4.36545C12.6396 4.36545 13.2171 4.10894 13.6302 3.69859L19.9135 8.45757L4.08667 8.45739L10.3704 3.69878ZM22.0805 22.1556H1.91949V10.3031H22.0805V22.1556Z" fill="#787878"/>
</g>
</svg>
