<svg width="680" height="484" viewBox="0 0 680 484" fill="none" xmlns="http://www.w3.org/2000/svg">
<path d="M679.097 424.777H0V425.102H679.097V424.777Z" fill="#E6E6E6"/>
<path d="M605.548 436H558.826V436.324H605.548V436Z" fill="#E6E6E6"/>
<path d="M352.654 436H338.691V436.324H352.654V436Z" fill="#E6E6E6"/>
<path d="M544.636 442.383H518.342V442.707H544.636V442.383Z" fill="#E6E6E6"/>
<path d="M157.047 436.766H98.3867V437.09H157.047V436.766Z" fill="#E6E6E6"/>
<path d="M174.758 432.145H150.936V432.469H174.758V432.145Z" fill="#E6E6E6"/>
<path d="M433.726 445.887H306.49V446.211H433.726V445.887Z" fill="#E6E6E6"/>
<path d="M321.892 366.912H59.6382C57.5837 366.908 55.6146 366.126 54.1632 364.737C52.7117 363.348 51.8965 361.466 51.8965 359.503V7.34342C51.9144 5.39213 52.7375 3.52637 54.187 2.15141C55.6365 0.776454 57.5954 0.00334267 59.6382 0H321.892C323.949 0 325.921 0.780514 327.376 2.16984C328.83 3.55916 329.647 5.44349 329.647 7.40829V359.503C329.647 361.468 328.83 363.352 327.376 364.742C325.921 366.131 323.949 366.912 321.892 366.912V366.912ZM59.6382 0.259486C57.6738 0.262923 55.791 1.01078 54.4032 2.3389C53.0155 3.66702 52.236 5.46689 52.236 7.34342V359.503C52.236 361.38 53.0155 363.18 54.4032 364.508C55.791 365.836 57.6738 366.584 59.6382 366.587H321.892C323.857 366.584 325.742 365.836 327.132 364.509C328.521 363.181 329.304 361.381 329.308 359.503V7.34342C329.304 5.4657 328.521 3.66586 327.132 2.33811C325.742 1.01036 323.857 0.262915 321.892 0.259486H59.6382Z" fill="#E6E6E6"/>
<path d="M615.683 366.912H353.415C351.36 366.908 349.389 366.126 347.936 364.738C346.482 363.349 345.664 361.467 345.66 359.503V7.34342C345.682 5.39094 346.508 3.5252 347.959 2.1506C349.411 0.776001 351.371 0.00330621 353.415 0H615.683C617.723 0.00675244 619.678 0.781373 621.125 2.15597C622.572 3.53056 623.393 5.39437 623.411 7.34342V359.503C623.411 361.464 622.597 363.344 621.149 364.733C619.7 366.121 617.735 366.905 615.683 366.912V366.912ZM353.415 0.259486C351.45 0.262915 349.566 1.01036 348.176 2.33811C346.786 3.66586 346.003 5.4657 346 7.34342V359.503C346.003 361.381 346.786 363.181 348.176 364.509C349.566 365.836 351.45 366.584 353.415 366.587H615.683C617.648 366.584 619.532 365.836 620.922 364.509C622.312 363.181 623.095 361.381 623.098 359.503V7.34342C623.095 5.4657 622.312 3.66586 620.922 2.33811C619.532 1.01036 617.648 0.262915 615.683 0.259486H353.415Z" fill="#E6E6E6"/>
<path d="M277.452 424.775H392.654C381.368 384.113 388.131 340.325 412.919 299.664H297.717C272.916 340.325 266.206 384.113 277.452 424.775Z" fill="#FAFAFA"/>
<path d="M273.527 358.091H389.979C393.978 337.498 401.733 317.736 412.892 299.707H296.454C285.295 317.738 277.536 337.499 273.527 358.091V358.091Z" fill="#E6E6E6"/>
<path d="M101.728 342.699L567.371 342.699C575.022 342.699 581.225 336.774 581.225 329.465V55.5274C581.225 48.2186 575.022 42.2937 567.371 42.2937L101.728 42.2937C94.0769 42.2937 87.8745 48.2186 87.8745 55.5274L87.8745 329.465C87.8745 336.774 94.0769 342.699 101.728 342.699Z" fill="#E6E6E6"/>
<path d="M108.261 342.699L573.904 342.699C581.555 342.699 587.758 336.774 587.758 329.465V55.5274C587.758 48.2186 581.555 42.2937 573.904 42.2937L108.261 42.2937C100.61 42.2937 94.4076 48.2186 94.4076 55.5274L94.4076 329.465C94.4076 336.774 100.61 342.699 108.261 342.699Z" fill="#F5F5F5"/>
<path d="M94.4076 299.68L587.758 299.68V57.5155L94.4076 57.5155L94.4076 299.68Z" fill="white"/>
<path d="M341.098 330.753C346.311 330.753 350.537 326.716 350.537 321.736C350.537 316.756 346.311 312.719 341.098 312.719C335.884 312.719 331.658 316.756 331.658 321.736C331.658 326.716 335.884 330.753 341.098 330.753Z" fill="#E6E6E6"/>
<path d="M298.803 416.07H430.317C432.734 416.07 435.052 416.988 436.761 418.62C438.47 420.253 439.43 422.467 439.43 424.776H289.717C289.717 422.472 290.673 420.261 292.376 418.629C294.08 416.997 296.391 416.077 298.803 416.07V416.07Z" fill="#F5F5F5"/>
<path d="M267.564 416.07H291.115C293.53 416.074 295.845 416.993 297.551 418.625C299.257 420.257 300.215 422.47 300.215 424.776H258.383C258.385 423.628 258.624 422.491 259.087 421.432C259.55 420.372 260.227 419.41 261.08 418.601C261.933 417.792 262.945 417.152 264.058 416.718C265.171 416.284 266.362 416.064 267.564 416.07V416.07Z" fill="#E6E6E6"/>
<path d="M386.407 22.9008C386.404 20.9577 385.594 19.0951 384.156 17.7211C382.717 16.3472 380.768 15.5737 378.733 15.5703H139.691C137.658 15.5772 135.711 16.3517 134.273 17.7249C132.836 19.0981 132.025 20.9587 132.018 22.9008V46.4879H386.407V22.9008Z" fill="#E6E6E6"/>
<path d="M324.378 36.5761C327.581 36.5761 330.177 34.0957 330.177 31.0361C330.177 27.9764 327.581 25.4961 324.378 25.4961C321.175 25.4961 318.578 27.9764 318.578 31.0361C318.578 34.0957 321.175 36.5761 324.378 36.5761Z" fill="white"/>
<path d="M344.926 36.5761C348.129 36.5761 350.726 34.0957 350.726 31.0361C350.726 27.9764 348.129 25.4961 344.926 25.4961C341.723 25.4961 339.127 27.9764 339.127 31.0361C339.127 34.0957 341.723 36.5761 344.926 36.5761Z" fill="white"/>
<path d="M365.491 36.5761C368.694 36.5761 371.29 34.0957 371.29 31.0361C371.29 27.9764 368.694 25.4961 365.491 25.4961C362.288 25.4961 359.691 27.9764 359.691 31.0361C359.691 34.0957 362.288 36.5761 365.491 36.5761Z" fill="white"/>
<path d="M139.758 205.358H378.8C380.832 205.354 382.779 204.583 384.217 203.212C385.655 201.84 386.466 199.981 386.474 198.04V46.4883H132.084V198.04C132.095 199.98 132.907 201.837 134.344 203.208C135.781 204.578 137.727 205.351 139.758 205.358V205.358Z" fill="#FAFAFA"/>
<path d="M403.521 47.4229C403.514 45.4843 402.705 43.6271 401.27 42.2563C399.834 40.8854 397.89 40.1123 395.861 40.1055H156.887C154.855 40.1089 152.907 40.8805 151.469 42.2517C150.031 43.6229 149.22 45.4821 149.213 47.4229V71.0231H403.521V47.4229Z" fill="#F5F5F5"/>
<path d="M341.489 61.0956C344.692 61.0956 347.288 58.6153 347.288 55.5556C347.288 52.496 344.692 50.0156 341.489 50.0156C338.286 50.0156 335.689 52.496 335.689 55.5556C335.689 58.6153 338.286 61.0956 341.489 61.0956Z" fill="#E6E6E6"/>
<path d="M362.053 61.0956C365.256 61.0956 367.853 58.6153 367.853 55.5556C367.853 52.496 365.256 50.0156 362.053 50.0156C358.85 50.0156 356.254 52.496 356.254 55.5556C356.254 58.6153 358.85 61.0956 362.053 61.0956Z" fill="#E6E6E6"/>
<path d="M388.445 55.5556C388.445 56.6513 388.105 57.7224 387.467 58.6335C386.83 59.5445 385.924 60.2546 384.865 60.6739C383.805 61.0932 382.639 61.2029 381.514 60.9892C380.389 60.7754 379.355 60.2478 378.544 59.473C377.733 58.6982 377.181 57.7111 376.957 56.6364C376.733 55.5618 376.848 54.4479 377.287 53.4356C377.726 52.4233 378.469 51.558 379.423 50.9493C380.377 50.3405 381.498 50.0156 382.645 50.0156C384.183 50.0156 385.658 50.5993 386.746 51.6382C387.834 52.6772 388.445 54.0863 388.445 55.5556V55.5556Z" fill="#E6E6E6"/>
<path d="M156.887 229.889H395.929C397.96 229.882 399.907 229.107 401.342 227.734C402.778 226.36 403.585 224.5 403.589 222.559V71.0195H149.213V222.559C149.216 224.502 150.026 226.364 151.464 227.738C152.903 229.112 154.853 229.886 156.887 229.889V229.889Z" fill="white"/>
<path d="M420.646 71.9554C420.642 70.0123 419.833 68.1498 418.394 66.7758C416.956 65.4018 415.006 64.6284 412.972 64.625H173.998C171.964 64.6284 170.014 65.4018 168.576 66.7758C167.137 68.1498 166.328 70.0123 166.324 71.9554V95.5426H420.646V71.9554Z" fill="#FAFAFA"/>
<path d="M358.618 85.6308C361.821 85.6308 364.417 83.1504 364.417 80.0908C364.417 77.0311 361.821 74.5508 358.618 74.5508C355.415 74.5508 352.818 77.0311 352.818 80.0908C352.818 83.1504 355.415 85.6308 358.618 85.6308Z" fill="#F0F0F0"/>
<path d="M379.169 85.6308C382.372 85.6308 384.968 83.1504 384.968 80.0908C384.968 77.0311 382.372 74.5508 379.169 74.5508C375.966 74.5508 373.369 77.0311 373.369 80.0908C373.369 83.1504 375.966 85.6308 379.169 85.6308Z" fill="#F0F0F0"/>
<path d="M405.528 80.0908C405.531 81.1896 405.192 82.2645 404.555 83.1794C403.918 84.0943 403.011 84.808 401.949 85.2303C400.887 85.6526 399.718 85.7644 398.59 85.5516C397.461 85.3388 396.424 84.811 395.61 84.0349C394.795 83.2588 394.24 82.2694 394.015 81.1919C393.79 80.1143 393.904 78.9972 394.344 77.9817C394.783 76.9663 395.528 76.0983 396.484 75.4875C397.441 74.8768 398.565 74.5508 399.715 74.5508C401.255 74.5508 402.731 75.134 403.821 76.1726C404.911 77.2112 405.525 78.6203 405.528 80.0908Z" fill="#F0F0F0"/>
<path d="M173.998 254.426H413.04C415.073 254.419 417.021 253.644 418.458 252.271C419.896 250.898 420.707 249.037 420.714 247.095V95.543H166.324V247.095C166.331 249.037 167.142 250.898 168.58 252.271C170.017 253.644 171.965 254.419 173.998 254.426V254.426Z" fill="#E6E6E6"/>
<path opacity="0.5" d="M484.875 160.102H397.285V285.044H528.093V160.102H484.875ZM441.617 161.075H483.843V201.425H441.576L441.617 161.075ZM483.843 242.747H441.576V202.398H483.802L483.843 242.747ZM398.358 161.075H440.584V201.425H398.317L398.358 161.075ZM398.358 202.398H440.584V242.747H398.317L398.358 202.398ZM440.544 284.135H398.317V243.785H440.544V284.135ZM483.802 284.135H441.576V243.785H483.802V284.135ZM527.061 284.135H484.875V243.785H527.101L527.061 284.135ZM527.061 242.812H484.875V202.398H527.101L527.061 242.812ZM484.875 201.425V161.075H527.101V201.425H484.875Z" fill="#E6E6E6"/>
<path d="M449.534 140.859L602.209 140.859V74.5351L449.534 74.5351V140.859Z" fill="#F5F5F5"/>
<path d="M602.208 100.393V140.873H449.561V90.5977C474.891 90.5977 488.405 112.784 519.738 112.784C551.072 112.784 560.511 100.393 602.208 100.393Z" fill="white"/>
<path d="M602.21 119.738C567.902 119.738 556.574 105.246 537.302 105.246C518.029 105.246 508.562 120.465 484.549 120.465C459.531 120.465 449.535 108.503 449.535 108.503V140.938H602.21V119.738Z" fill="#E6E6E6"/>
<path d="M339.549 483.37C484.988 483.37 602.889 476.794 602.889 468.683C602.889 460.572 484.988 453.996 339.549 453.996C194.11 453.996 76.209 460.572 76.209 468.683C76.209 476.794 194.11 483.37 339.549 483.37Z" fill="#F5F5F5"/>
<path d="M274.352 203.07C268.664 183.628 270.927 162.848 280.683 144.941C290.438 127.033 306.955 113.339 326.887 106.633L332.008 122.124C316.397 127.551 303.486 138.377 295.828 152.46C288.17 166.543 286.322 182.858 290.651 198.179L274.352 203.07Z" fill="#2B2E51"/>
<path d="M315.9 252.008C309.497 248.85 303.561 244.898 298.243 240.253C288.154 231.418 280.499 220.345 275.955 208.012L292.172 203.121C295.962 213.155 302.347 222.11 310.733 229.154C319.118 236.197 329.232 241.102 340.134 243.41C351.036 245.718 362.372 245.356 373.087 242.356C383.803 239.357 393.551 233.818 401.425 226.254L413.961 237.23C401.422 249.393 385.13 257.392 367.479 260.052C349.828 262.712 331.749 259.892 315.9 252.008V252.008Z" fill="#2B2E51"/>
<path opacity="0.7" d="M315.9 252.008C309.497 248.85 303.561 244.898 298.243 240.253C288.154 231.418 280.499 220.345 275.955 208.012L292.172 203.121C295.962 213.155 302.347 222.11 310.733 229.154C319.118 236.197 329.232 241.102 340.134 243.41C351.036 245.718 362.372 245.356 373.087 242.356C383.803 239.357 393.551 233.818 401.425 226.254L413.961 237.23C401.422 249.393 385.13 257.392 367.479 260.052C349.828 262.712 331.749 259.892 315.9 252.008V252.008Z" fill="white"/>
<path d="M405.159 222.428C414.259 212.124 419.675 199.312 420.618 185.861C421.561 172.41 417.981 159.023 410.4 147.652C402.819 136.281 391.634 127.521 378.475 122.649C365.316 117.777 350.872 117.047 337.249 120.567L332.129 104.998C352.941 99.4303 375.204 101.81 394.213 111.635C413.221 121.46 427.487 137.96 433.993 157.648C438.224 170.543 438.955 184.255 436.119 197.494C433.282 210.734 426.971 223.068 417.777 233.339L405.159 222.428Z" fill="#2B2E51"/>
<path opacity="0.3" d="M405.159 222.428C414.259 212.124 419.675 199.312 420.618 185.861C421.561 172.41 417.981 159.023 410.4 147.652C402.819 136.281 391.634 127.521 378.475 122.649C365.316 117.777 350.872 117.047 337.249 120.567L332.129 104.998C352.941 99.4303 375.204 101.81 394.213 111.635C413.221 121.46 427.487 137.96 433.993 157.648C438.224 170.543 438.955 184.255 436.119 197.494C433.282 210.734 426.971 223.068 417.777 233.339L405.159 222.428Z" fill="black"/>
<path d="M370.037 162.436C368.118 160.601 365.84 159.146 363.332 158.153C360.824 157.16 358.136 156.649 355.421 156.648C352.707 156.648 350.018 157.158 347.51 158.15C345.002 159.142 342.722 160.596 340.802 162.429C338.882 164.262 337.359 166.439 336.32 168.835C335.28 171.23 334.745 173.798 334.744 176.391C334.744 178.985 335.278 181.553 336.316 183.949C337.354 186.345 338.876 188.522 340.796 190.356L355.41 204.316L370.037 190.356C373.912 186.653 376.089 181.632 376.089 176.396C376.089 171.16 373.912 166.139 370.037 162.436V162.436Z" fill="#2B2E51"/>
<path opacity="0.3" d="M370.037 162.436C368.118 160.601 365.84 159.146 363.332 158.153C360.824 157.16 358.136 156.649 355.421 156.648C352.707 156.648 350.018 157.158 347.51 158.15C345.002 159.142 342.722 160.596 340.802 162.429C338.882 164.262 337.359 166.439 336.32 168.835C335.28 171.23 334.745 173.798 334.744 176.391C334.744 178.985 335.278 181.553 336.316 183.949C337.354 186.345 338.876 188.522 340.796 190.356L355.41 204.316L370.037 190.356C373.912 186.653 376.089 181.632 376.089 176.396C376.089 171.16 373.912 166.139 370.037 162.436V162.436Z" fill="black"/>
<path d="M356.239 208.453H354.609V214.681H356.239V208.453Z" fill="#2B2E51"/>
<path opacity="0.3" d="M356.239 208.453H354.609V214.681H356.239V208.453Z" fill="black"/>
<path d="M356.239 219.496H354.609V225.724H356.239V219.496Z" fill="#2B2E51"/>
<path opacity="0.3" d="M356.239 219.496H354.609V225.724H356.239V219.496Z" fill="black"/>
<path d="M299.005 269.887H243.686V461.231H299.005V269.887Z" fill="#2B2E51"/>
<path opacity="0.7" d="M299.005 269.887H243.686V461.231H299.005V269.887Z" fill="white"/>
<path d="M325.559 269.887H299.006V461.231H325.559V269.887Z" fill="#2B2E51"/>
<path opacity="0.5" d="M325.559 269.887H299.006V461.231H325.559V269.887Z" fill="white"/>
<path d="M401.289 340.312H399.877V370.101H401.289V340.312Z" fill="#263238"/>
<path d="M401.289 322.797H399.877V334.772H401.289V322.797Z" fill="#263238"/>
<path d="M440.583 388.574H385.264V461.23H440.583V388.574Z" fill="#2B2E51"/>
<path opacity="0.5" d="M440.583 388.574H385.264V461.23H440.583V388.574Z" fill="black"/>
<path d="M467.135 388.574H440.582V461.23H467.135V388.574Z" fill="#2B2E51"/>
<path opacity="0.6" d="M467.135 388.574H440.582V461.23H467.135V388.574Z" fill="black"/>
<path d="M369.794 229.434H314.475V461.231H369.794V229.434Z" fill="#2B2E51"/>
<path opacity="0.7" d="M369.794 229.434H314.475V461.231H369.794V229.434Z" fill="black"/>
<path d="M396.348 229.434H369.795V461.231H396.348V229.434Z" fill="#2B2E51"/>
<path opacity="0.8" d="M396.348 229.434H369.795V461.231H396.348V229.434Z" fill="black"/>
<path d="M478.398 175.97C476.496 190.32 474.106 204.708 471.973 218.941C471.709 221.02 471.314 223.082 470.792 225.117C470.181 227.2 469.4 229.235 468.456 231.202C466.654 234.901 464.402 238.385 461.746 241.581C459.216 244.652 456.427 247.52 453.407 250.157C451.94 251.454 450.378 252.752 448.803 253.881C447.227 255.009 445.665 256.177 443.859 257.306L439.037 251.558C440.164 250.365 441.441 248.963 442.596 247.666C443.75 246.368 444.891 244.967 446.005 243.592C448.182 240.903 450.174 238.082 451.967 235.146C453.695 232.392 455.12 229.474 456.218 226.44C456.723 225.036 457.11 223.596 457.373 222.133C457.611 220.597 457.765 219.051 457.835 217.501C458.337 210.131 459.098 202.84 459.94 195.561C460.782 188.283 461.787 181.095 462.982 173.855L478.398 175.97Z" fill="#E58A7B"/>
<path d="M481.78 171.039C485.244 179.822 467.71 205.68 467.71 205.68L447.16 195.028C450.252 186.981 454.246 179.277 459.071 172.051C466.297 161.697 477.991 161.399 481.78 171.039Z" fill="#2B2E51"/>
<path opacity="0.2" d="M481.78 171.039C485.244 179.822 467.71 205.68 467.71 205.68L447.16 195.028C450.252 186.981 454.246 179.277 459.071 172.051C466.297 161.697 477.991 161.399 481.78 171.039Z" fill="black"/>
<path d="M469.582 164.32C469.582 164.32 457.453 193.966 468.971 249.158H523.937C524.317 241.101 519.007 201.789 527.142 163.827C521.07 162.702 514.927 161.956 508.752 161.595C500.972 161.166 493.172 161.166 485.392 161.595C480.055 162.108 474.77 163.019 469.582 164.32V164.32Z" fill="#2B2E51"/>
<path opacity="0.2" d="M469.582 164.32C469.582 164.32 457.453 193.966 468.971 249.158H523.937C524.317 241.101 519.007 201.789 527.142 163.827C521.07 162.702 514.927 161.956 508.752 161.595C500.972 161.166 493.172 161.166 485.392 161.595C480.055 162.108 474.77 163.019 469.582 164.32V164.32Z" fill="black"/>
<path d="M476.875 456.59H466.607L463.863 433.859H474.145L476.875 456.59Z" fill="#E58A7B"/>
<path d="M549.186 456.59H538.918L530.904 433.859H541.186L549.186 456.59Z" fill="#E58A7B"/>
<path d="M537.546 455.395H550.068C550.273 455.394 550.471 455.46 550.629 455.583C550.788 455.706 550.897 455.878 550.938 456.069L552.975 464.801C553.019 465.013 553.014 465.232 552.958 465.442C552.903 465.651 552.799 465.847 552.655 466.013C552.51 466.18 552.329 466.314 552.123 466.405C551.918 466.496 551.694 466.542 551.467 466.539C547.393 466.475 544.5 466.254 539.42 466.254C536.296 466.254 529.913 466.565 525.553 466.565C521.193 466.565 520.677 462.491 522.443 462.115C530.361 460.467 533.308 458.223 535.875 456.004C536.334 455.61 536.929 455.393 537.546 455.395V455.395Z" fill="#263238"/>
<path d="M466.674 455.395H477.893C478.098 455.395 478.297 455.463 478.457 455.585C478.618 455.707 478.73 455.878 478.776 456.069L480.8 464.801C480.849 465.011 480.848 465.23 480.796 465.44C480.744 465.65 480.643 465.846 480.501 466.013C480.358 466.18 480.178 466.315 479.973 466.406C479.768 466.497 479.545 466.543 479.319 466.539C475.245 466.475 469.418 466.254 464.379 466.254C458.43 466.254 453.296 466.565 446.315 466.565C442.091 466.565 440.882 462.491 442.689 462.115C450.729 460.442 457.289 460.26 464.243 456.16C464.965 455.698 465.806 455.433 466.674 455.395Z" fill="#263238"/>
<path d="M442.771 247.809L434.16 254.685L445.474 261.029C447.142 259.799 448.354 258.092 448.933 256.157C449.512 254.221 449.428 252.16 448.693 250.274L442.771 247.809Z" fill="#E58A7B"/>
<path d="M463.877 433.871L465.276 445.587H475.557L474.145 433.871H463.877Z" fill="#CF6F64"/>
<path d="M541.186 433.871H530.904L535.033 445.587H545.315L541.186 433.871Z" fill="#CF6F64"/>
<path opacity="0.2" d="M515.951 181.964C517.744 173.297 521.234 174.802 524.548 179.071C523.132 190.558 522.479 202.12 522.593 213.686C520.338 210.014 512.949 196.482 515.951 181.964Z" fill="black"/>
<path d="M506.43 136.477C504.963 143.651 503.496 156.807 508.752 161.595C508.752 161.595 506.701 168.886 492.725 168.886C477.364 168.886 485.391 161.608 485.391 161.608C493.771 159.687 493.54 153.745 492.087 148.166L506.43 136.477Z" fill="#E58A7B"/>
<path d="M500.59 141.25L492.102 148.165C492.464 149.461 492.705 150.786 492.821 152.122C496.027 151.681 500.427 148.321 500.767 145.116C500.951 143.828 500.891 142.518 500.59 141.25V141.25Z" fill="#CF6F64"/>
<path d="M482.539 114.382C477.486 116.432 474.743 129.951 481.18 133.078C487.618 136.205 492.114 110.516 482.539 114.382Z" fill="#263238"/>
<path d="M507.327 125.67C506.702 135.388 506.851 141.109 501.717 146.104C493.989 153.603 481.412 149.153 478.995 139.448C476.808 130.717 478.193 116.276 488.163 112.41C490.355 111.548 492.742 111.236 495.096 111.503C497.451 111.77 499.694 112.608 501.614 113.936C503.535 115.265 505.067 117.04 506.067 119.094C507.067 121.147 507.5 123.411 507.327 125.67Z" fill="#E58A7B"/>
<path d="M475.936 108.283C482.089 99.37 483.053 103.664 482.958 107.907C488.391 103.003 498.428 96.7492 503.331 102.458C503.912 103.047 504.289 103.792 504.413 104.592C504.537 105.392 504.401 106.21 504.024 106.934C510.339 105.325 516.709 104.871 515.555 111.384C514.536 117.145 510.231 119.259 504.2 119.298C493.389 120.726 467.216 120.868 475.936 108.283Z" fill="#263238"/>
<path d="M506.606 135.194C501.173 137.309 490.239 118.25 506.687 116.005C523.135 113.761 515.312 131.782 506.606 135.194Z" fill="#263238"/>
<path d="M511.932 136.385C510.557 138.452 508.386 139.92 505.888 140.472C502.574 141.172 501.094 138.292 502.18 135.386C503.158 132.791 506.051 129.275 509.311 129.872C510.02 130.017 510.68 130.328 511.232 130.778C511.783 131.229 512.208 131.803 512.469 132.45C512.729 133.097 512.816 133.795 512.723 134.482C512.629 135.169 512.357 135.823 511.932 136.385V136.385Z" fill="#E58A7B"/>
<path d="M517.296 118.948C516.54 118.145 515.587 117.534 514.522 117.172C513.457 116.809 512.314 116.706 511.197 116.872C511.197 116.872 516.508 112.876 517.296 118.948Z" fill="#263238"/>
<path d="M468.971 249.105C468.971 249.105 440.055 319.296 441.114 349.241C442.269 380.379 461.487 443.317 461.487 443.317H478.899C478.899 443.317 471.769 382.182 472.543 351.615C473.385 318.271 505.14 249.118 505.14 249.118L468.971 249.105Z" fill="#2B2E51"/>
<path opacity="0.2" d="M492.062 272.344L493.733 275.964C487.638 290.964 482.343 306.25 477.869 321.763C477.394 304.066 481.224 284.553 492.062 272.344Z" fill="black"/>
<path d="M488.475 249.105C488.475 249.105 482.621 320.879 489.019 349.007C496.027 379.782 530.199 443.291 530.199 443.291H549.024C549.024 443.291 523.843 382.312 519.836 351.797C515.503 318.725 523.911 249.131 523.911 249.131L488.475 249.105Z" fill="#2B2E51"/>
<path d="M491.897 128.447C491.897 129.238 491.449 129.887 490.906 129.887C490.362 129.887 489.928 129.238 489.928 128.447C489.928 127.655 490.362 127.02 490.906 127.02C491.449 127.02 491.897 127.59 491.897 128.447Z" fill="#263238"/>
<path d="M482.528 128.447C482.528 129.238 482.08 129.887 481.55 129.887C481.02 129.887 480.559 129.238 480.559 128.447C480.559 127.655 481.007 127.02 481.55 127.02C482.093 127.02 482.528 127.59 482.528 128.447Z" fill="#263238"/>
<path d="M485.499 128.781C484.511 131.196 483.181 133.471 481.547 135.541C482.111 135.929 482.757 136.193 483.44 136.317C484.123 136.44 484.826 136.419 485.499 136.254V128.781Z" fill="#DF5753"/>
<path d="M487.916 138.449C487.852 138.449 487.789 138.425 487.743 138.381C487.698 138.337 487.672 138.278 487.672 138.216C487.672 138.154 487.698 138.094 487.743 138.051C487.789 138.007 487.852 137.982 487.916 137.982C488.947 138.004 489.969 137.793 490.899 137.367C491.829 136.941 492.64 136.312 493.268 135.53C493.285 135.504 493.308 135.482 493.335 135.465C493.362 135.448 493.392 135.436 493.423 135.43C493.455 135.424 493.487 135.424 493.519 135.43C493.55 135.436 493.58 135.448 493.607 135.465C493.658 135.499 493.693 135.55 493.705 135.608C493.718 135.666 493.707 135.726 493.675 135.777C493.013 136.633 492.143 137.324 491.14 137.79C490.137 138.255 489.031 138.481 487.916 138.449V138.449Z" fill="#263238"/>
<path d="M494.709 125.501C494.635 125.499 494.563 125.482 494.497 125.45C494.432 125.419 494.374 125.374 494.328 125.319C493.974 124.842 493.506 124.452 492.963 124.182C492.42 123.911 491.817 123.767 491.204 123.762C491.14 123.768 491.075 123.76 491.013 123.741C490.952 123.721 490.895 123.69 490.847 123.648C490.798 123.607 490.759 123.557 490.732 123.5C490.705 123.444 490.69 123.383 490.688 123.321C490.681 123.199 490.724 123.08 490.807 122.987C490.891 122.895 491.009 122.838 491.137 122.828C491.91 122.824 492.673 122.996 493.363 123.33C494.052 123.664 494.649 124.15 495.102 124.748C495.18 124.849 495.213 124.974 495.195 125.098C495.177 125.221 495.11 125.333 495.007 125.41C494.918 125.465 494.815 125.497 494.709 125.501Z" fill="#263238"/>
<path d="M478.423 125.304C478.351 125.316 478.278 125.316 478.206 125.304C478.148 125.277 478.096 125.24 478.053 125.194C478.011 125.148 477.978 125.095 477.958 125.037C477.938 124.978 477.93 124.917 477.935 124.856C477.94 124.795 477.959 124.735 477.989 124.681C478.31 124.012 478.794 123.428 479.402 122.976C480.01 122.524 480.722 122.219 481.479 122.086C481.6 122.084 481.717 122.125 481.808 122.2C481.899 122.275 481.957 122.38 481.972 122.494C481.988 122.608 481.958 122.724 481.89 122.818C481.821 122.913 481.719 122.98 481.601 123.007V123.007C481.008 123.13 480.454 123.385 479.982 123.75C479.51 124.115 479.134 124.58 478.885 125.109C478.835 125.18 478.765 125.235 478.683 125.27C478.602 125.304 478.512 125.316 478.423 125.304Z" fill="#263238"/>
<path d="M531.055 171.457C531.938 173.273 532.685 174.895 533.391 176.647C534.097 178.398 534.749 180.059 535.469 181.836C536.827 185.288 537.955 188.791 538.987 192.359C540.019 195.926 540.875 199.572 541.581 203.283L542.07 206.072L542.423 208.927C542.559 209.874 542.613 210.847 542.695 211.82L542.79 213.273V213.636V214.246C542.79 214.7 542.79 215.115 542.79 215.544C542.521 218.099 541.747 220.582 540.508 222.861C539.543 224.694 538.449 226.462 537.235 228.154C534.985 231.249 532.521 234.196 529.86 236.977C524.741 242.362 519.187 247.355 513.249 251.91L507.816 246.721C512.258 241.297 516.685 235.693 520.719 230.127C522.683 227.417 524.496 224.611 526.152 221.719C526.91 220.421 527.568 219.073 528.121 217.684C528.524 216.797 528.755 215.848 528.8 214.882C528.8 214.882 528.8 214.882 528.8 214.882C528.8 214.882 528.8 214.96 528.8 214.882V214.583L528.61 213.416C528.488 212.624 528.379 211.846 528.189 211.054L527.7 208.68L527.116 206.293C526.288 203.101 525.351 199.897 524.264 196.705C523.178 193.513 522.023 190.335 520.787 187.156C519.551 183.977 518.193 180.773 516.93 177.84L531.055 171.457Z" fill="#E58A7B"/>
<path d="M534.138 457.173C533.44 457.224 532.745 457.045 532.168 456.667C531.974 456.511 531.826 456.309 531.738 456.082C531.65 455.855 531.625 455.609 531.666 455.37C531.665 455.236 531.702 455.105 531.774 454.991C531.846 454.876 531.949 454.783 532.073 454.721C533.228 454.163 536.528 456.109 536.908 456.33C536.948 456.355 536.98 456.39 536.999 456.431C537.018 456.473 537.025 456.519 537.017 456.564C537.008 456.61 536.985 456.653 536.952 456.687C536.918 456.722 536.875 456.746 536.827 456.758C535.949 456.989 535.047 457.128 534.138 457.173ZM532.616 455.136C532.508 455.128 532.399 455.151 532.304 455.201C532.236 455.201 532.155 455.292 532.141 455.474C532.124 455.63 532.146 455.788 532.205 455.934C532.264 456.081 532.359 456.212 532.481 456.317C533.628 456.81 534.928 456.87 536.121 456.486C535.054 455.824 533.865 455.366 532.616 455.136V455.136Z" fill="#2B2E51"/>
<path d="M536.771 456.822H536.663C535.59 456.264 533.539 454.123 533.756 453.021C533.793 452.85 533.89 452.697 534.031 452.586C534.172 452.475 534.348 452.413 534.53 452.411C534.715 452.391 534.901 452.407 535.079 452.458C535.256 452.509 535.421 452.595 535.563 452.709C536.758 453.643 537.002 456.472 537.016 456.601C537.017 456.642 537.008 456.682 536.989 456.718C536.97 456.754 536.942 456.786 536.907 456.809C536.864 456.826 536.817 456.831 536.771 456.822ZM534.707 452.8H534.585C534.272 452.8 534.245 452.969 534.232 453.034C534.109 453.682 535.413 455.304 536.473 456.07C536.399 454.953 535.978 453.882 535.264 452.995C535.108 452.868 534.911 452.799 534.707 452.8Z" fill="#2B2E51"/>
<path d="M462.396 457.173C461.518 457.247 460.641 457.032 459.91 456.563C459.743 456.425 459.613 456.25 459.533 456.053C459.452 455.857 459.423 455.644 459.448 455.434C459.456 455.308 459.496 455.185 459.564 455.076C459.633 454.968 459.728 454.877 459.842 454.811C461.105 454.15 465.275 456.109 465.696 456.381C465.743 456.403 465.781 456.438 465.806 456.482C465.83 456.526 465.839 456.577 465.832 456.626C465.824 456.675 465.8 456.721 465.764 456.756C465.727 456.791 465.68 456.815 465.628 456.822C464.564 457.031 463.482 457.148 462.396 457.173V457.173ZM460.535 455.136C460.379 455.126 460.224 455.157 460.087 455.227C460.038 455.248 459.998 455.283 459.971 455.327C459.944 455.371 459.932 455.422 459.937 455.473C459.917 455.609 459.932 455.748 459.982 455.877C460.032 456.006 460.114 456.122 460.222 456.213C460.861 456.758 462.558 456.848 464.813 456.485C463.478 455.805 462.031 455.349 460.535 455.136V455.136Z" fill="#2B2E51"/>
<path d="M465.59 456.822C465.555 456.834 465.516 456.834 465.481 456.822C464.245 456.29 461.787 454.228 461.977 453.06C461.977 452.8 462.208 452.476 462.887 452.411C463.13 452.388 463.376 452.411 463.609 452.48C463.842 452.549 464.059 452.663 464.245 452.813C465.604 453.838 465.834 456.485 465.834 456.589C465.841 456.63 465.835 456.673 465.819 456.712C465.802 456.75 465.775 456.784 465.739 456.809C465.692 456.828 465.64 456.832 465.59 456.822V456.822ZM463.145 452.8H462.996C462.561 452.8 462.534 453.008 462.52 453.06C462.412 453.722 464.082 455.395 465.346 456.122C465.23 455.004 464.756 453.948 463.987 453.099C463.754 452.904 463.455 452.798 463.145 452.8V452.8Z" fill="#2B2E51"/>
<path d="M510.191 245.277L500.113 247.872L508.466 257.551C508.466 257.551 516.547 253.542 514.809 249.222L510.191 245.277Z" fill="#E58A7B"/>
<path d="M494.898 254.345L502.192 262.026L508.467 257.511L500.114 247.832L494.898 254.345Z" fill="#E58A7B"/>
<path d="M526.87 443.706H551.48V437.375L523.977 436.973L526.87 443.706Z" fill="#2B2E51"/>
<path opacity="0.4" d="M526.87 443.706H551.48V437.375L523.977 436.973L526.87 443.706Z" fill="black"/>
<path d="M457.536 443.706H482.146V437.31L454.643 436.973L457.536 443.706Z" fill="#2B2E51"/>
<path opacity="0.4" d="M457.536 443.706H482.146V437.31L454.643 436.973L457.536 443.706Z" fill="black"/>
<path d="M529.287 164.462C538.455 167.835 547.623 198.896 547.623 198.896L523.175 208.081C523.175 208.081 515.882 192.019 513.396 180.083C510.843 167.563 518.897 160.647 529.287 164.462Z" fill="#2B2E51"/>
<path opacity="0.2" d="M529.287 164.462C538.455 167.835 547.623 198.896 547.623 198.896L523.175 208.081C523.175 208.081 515.882 192.019 513.396 180.083C510.843 167.563 518.897 160.647 529.287 164.462Z" fill="black"/>
<path d="M430.179 213.752C427.575 222.425 427.836 231.654 430.926 240.18C433.752 248.116 438.911 255.106 445.785 260.316C454.941 267.241 466.509 270.586 478.148 269.674C489.787 268.762 500.63 263.661 508.482 255.403C516.335 247.145 520.611 236.347 520.447 225.192C520.282 214.037 515.689 203.358 507.596 195.315V195.315C502.036 189.785 495.046 185.757 487.332 183.638C480.198 181.668 472.673 181.366 465.392 182.759C458.111 184.153 451.288 187.2 445.499 191.644C444.445 192.455 443.439 193.322 442.484 194.238C436.655 199.594 432.41 206.326 430.179 213.752V213.752Z" fill="#2B2E51"/>
<path opacity="0.6" d="M430.179 213.752C427.575 222.425 427.836 231.654 430.926 240.18C433.752 248.116 438.911 255.106 445.785 260.316C454.941 267.241 466.509 270.586 478.148 269.674C489.787 268.762 500.63 263.661 508.482 255.403C516.335 247.145 520.611 236.347 520.447 225.192C520.282 214.037 515.689 203.358 507.596 195.315V195.315C502.036 189.785 495.046 185.757 487.332 183.638C480.198 181.668 472.673 181.366 465.392 182.759C458.111 184.153 451.288 187.2 445.499 191.644C444.445 192.455 443.439 193.322 442.484 194.238C436.655 199.594 432.41 206.326 430.179 213.752V213.752Z" fill="black"/>
<path d="M501.812 193.59L468.672 224.144L455.973 266.44C465.719 269.113 476.116 268.639 485.552 265.091C494.987 261.544 502.933 255.12 508.157 246.818C513.381 238.516 515.591 228.799 514.443 219.175C513.296 209.551 508.856 200.557 501.812 193.59V193.59Z" fill="#2B2E51"/>
<path opacity="0.9" d="M501.812 193.59L468.672 224.144L455.973 266.44C465.719 269.113 476.116 268.639 485.552 265.091C494.987 261.544 502.933 255.12 508.157 246.818C513.381 238.516 515.591 228.799 514.443 219.175C513.296 209.551 508.856 200.557 501.812 193.59V193.59Z" fill="white"/>
<g opacity="0.7">
<path opacity="0.7" d="M468.674 224.142L501.813 193.574C496.197 188.016 489.147 183.968 481.373 181.838C473.598 179.708 465.374 179.571 457.527 181.441C449.68 183.311 442.487 187.122 436.671 192.491C430.855 197.859 426.622 204.596 424.396 212.024L468.674 224.142Z" fill="#2B2E51"/>
<path opacity="0.44" d="M468.674 224.142L501.813 193.574C496.197 188.016 489.147 183.968 481.373 181.838C473.598 179.708 465.374 179.571 457.527 181.441C449.68 183.311 442.487 187.122 436.671 192.491C430.855 197.859 426.622 204.596 424.396 212.024L468.674 224.142Z" fill="white"/>
</g>
<path d="M433.453 260.522L443.436 263.532L445.432 261.067L434.119 254.723L433.453 260.522Z" fill="#E58A7B"/>
<path d="M468.672 224.141L424.409 212.023C421.047 223.239 422.485 235.271 428.406 245.475C434.328 255.678 444.248 263.218 455.987 266.437L468.672 224.141Z" fill="#2B2E51"/>
<path opacity="0.6" d="M468.672 224.141L424.409 212.023C421.047 223.239 422.485 235.271 428.406 245.475C434.328 255.678 444.248 263.218 455.987 266.437L468.672 224.141Z" fill="black"/>
<path d="M214.922 164.592C212.545 166.914 209.991 169.483 207.642 172.052C205.292 174.621 202.929 177.242 200.715 179.927C198.501 182.613 196.41 185.377 194.399 188.166L192.933 190.281L191.574 192.422C191.113 193.135 190.678 193.862 190.216 194.588L189.089 196.573C188.631 197.706 188.369 198.902 188.315 200.115C188.206 201.679 188.206 203.248 188.315 204.812C188.569 208.177 189.022 211.525 189.673 214.841C190.284 218.24 191.031 221.653 191.914 225.039C192.797 228.425 193.666 231.876 194.63 235.224L189.401 237.092C186.233 230.483 183.587 223.656 181.483 216.67C180.399 213.082 179.568 209.428 178.997 205.733C178.711 203.76 178.566 201.77 178.563 199.778C178.525 197.429 178.94 195.094 179.785 192.889C180.111 192.136 180.288 191.825 180.505 191.384L181.143 190.086C181.564 189.23 182.013 188.387 182.502 187.569L183.86 185.091L185.354 182.678C187.351 179.504 189.522 176.433 191.86 173.479C194.169 170.534 196.559 167.654 199.085 164.89C201.611 162.127 204.178 159.48 207.099 156.82L214.922 164.592Z" fill="#E58A7B"/>
<path d="M193.191 233.109L202.481 235.704L196.301 241.698C196.301 241.698 189.605 239.726 188.668 235.367L193.191 233.109Z" fill="#E58A7B"/>
<path d="M208.115 242.582L206.54 248.304L196.299 241.739L202.479 235.758L208.115 242.582Z" fill="#E58A7B"/>
<path d="M124.955 403.436L132.561 411.234L153.206 397.118L145.586 389.32L124.955 403.436Z" fill="#E58A7B"/>
<path d="M225.881 432.005L224.061 445.42L213.182 443.682L214.866 431.227L225.881 432.005Z" fill="#CF6F64"/>
<path d="M145.584 389.32L153.19 397.131L144.647 402.969L136.77 395.34L145.584 389.32Z" fill="#CF6F64"/>
<path d="M244.938 218.447C244.938 218.447 223.424 287.276 212.911 326.951C201.829 368.767 148.9 402.863 148.9 402.863L137.6 392.133C137.6 392.133 172.981 363.59 183.778 324.577C205.591 245.343 195.106 228.567 212.49 212.453L244.938 218.447Z" fill="#2B2E51"/>
<path opacity="0.6" d="M244.938 218.447C244.938 218.447 223.424 287.276 212.911 326.951C201.829 368.767 148.9 402.863 148.9 402.863L137.6 392.133C137.6 392.133 172.981 363.59 183.778 324.577C205.591 245.343 195.106 228.567 212.49 212.453L244.938 218.447Z" fill="black"/>
<path d="M135.888 409.988L129.545 399.608C129.441 399.428 129.272 399.291 129.069 399.221C128.867 399.152 128.644 399.156 128.445 399.232L119.399 402.709C119.175 402.811 118.975 402.956 118.813 403.136C118.651 403.317 118.53 403.527 118.458 403.754C118.387 403.982 118.366 404.221 118.397 404.457C118.428 404.692 118.51 404.919 118.638 405.122C120.92 408.69 122.197 410.312 124.995 414.866C126.72 417.668 128.934 421.924 131.297 425.79C133.66 429.656 137.694 427.684 137.056 425.881C134.203 417.772 135.697 415.424 136.254 411.817C136.355 411.185 136.226 410.539 135.888 409.988V409.988Z" fill="#263238"/>
<path d="M149.862 404.397L135.764 390.994L139.594 386.934L156.761 400.894L149.862 404.397Z" fill="#F5F5F5"/>
<path opacity="0.3" d="M234.832 233.111C220.72 243.49 219.769 283.14 220.095 301.044C227.28 276.017 235.769 248.161 240.726 232.06C239.368 230.944 237.426 231.191 234.832 233.111Z" fill="black"/>
<path d="M138.167 415.645C138.033 415.642 137.901 415.62 137.773 415.58C136.415 415.191 135.478 412.843 135.057 411.48C135.041 411.432 135.041 411.381 135.055 411.333C135.07 411.284 135.099 411.241 135.138 411.208C135.18 411.179 135.23 411.164 135.281 411.164C135.332 411.164 135.382 411.179 135.424 411.208C135.831 411.403 139.403 413.18 139.498 414.529C139.513 414.675 139.488 414.822 139.426 414.956C139.364 415.09 139.268 415.207 139.145 415.295C138.87 415.513 138.525 415.637 138.167 415.645V415.645ZM135.736 411.922C136.402 413.725 137.203 414.893 137.923 415.113C138.083 415.152 138.25 415.151 138.41 415.11C138.569 415.069 138.715 414.99 138.833 414.88C138.89 414.847 138.937 414.799 138.966 414.741C138.995 414.683 139.005 414.619 138.996 414.555C138.914 413.881 137.176 412.674 135.736 411.922Z" fill="#2B2E51"/>
<path d="M138.535 412.36C137.36 412.357 136.2 412.105 135.139 411.621C135.103 411.596 135.073 411.563 135.053 411.524C135.032 411.486 135.021 411.443 135.021 411.4C135.021 411.357 135.032 411.315 135.053 411.277C135.073 411.238 135.103 411.205 135.139 411.18C135.261 411.18 137.937 409.636 139.458 410.116C139.655 410.17 139.837 410.265 139.99 410.396C140.143 410.526 140.263 410.688 140.341 410.868C140.446 411.042 140.485 411.245 140.453 411.443C140.421 411.641 140.319 411.823 140.165 411.958C139.685 412.265 139.11 412.407 138.535 412.36V412.36ZM135.818 411.387C137.068 411.867 139.227 412.062 139.798 411.582C139.893 411.504 139.974 411.374 139.798 411.076C139.747 410.959 139.669 410.853 139.571 410.768C139.472 410.683 139.355 410.62 139.227 410.583C138.032 410.518 136.844 410.798 135.818 411.387V411.387Z" fill="#2B2E51"/>
<path d="M211.607 455.373L222.622 456.151L225.882 431.993L214.881 431.215L211.607 455.373Z" fill="#E58A7B"/>
<path d="M255.937 220.563C255.937 220.563 258.653 303.845 252.528 335.217C246.117 367.847 226.6 442.059 226.6 442.059L210.723 440.1C210.723 440.1 220.773 365.122 225.024 332.712C229.683 297.371 223.585 214.582 223.585 214.582L255.937 220.563Z" fill="#2B2E51"/>
<path opacity="0.6" d="M255.937 220.563C255.937 220.563 258.653 303.845 252.528 335.217C246.117 367.847 226.6 442.059 226.6 442.059L210.723 440.1C210.723 440.1 220.773 365.122 225.024 332.712C229.683 297.371 223.585 214.582 223.585 214.582L255.937 220.563Z" fill="black"/>
<path d="M268.163 121.492C268.014 122.336 268.367 123.088 268.937 123.205C269.508 123.322 270.092 122.712 270.296 121.907C270.499 121.103 270.092 120.312 269.521 120.208C268.951 120.104 268.313 120.662 268.163 121.492Z" fill="#263238"/>
<path d="M269.193 120.183L271.407 119.988C271.407 119.988 270.049 121.364 269.193 120.183Z" fill="#263238"/>
<path d="M268.761 122.438C269.216 124.492 269.961 126.478 270.975 128.341C270.467 128.562 269.916 128.677 269.358 128.677C268.801 128.677 268.249 128.562 267.742 128.341L268.761 122.438Z" fill="#DF5753"/>
<path d="M270.279 118.068C270.178 118.069 270.079 118.041 269.995 117.988C269.91 117.934 269.844 117.859 269.804 117.77C269.548 117.182 269.154 116.657 268.652 116.237C268.151 115.816 267.555 115.511 266.911 115.344C266.844 115.333 266.78 115.309 266.723 115.275C266.665 115.24 266.616 115.195 266.577 115.142C266.537 115.089 266.51 115.029 266.495 114.966C266.48 114.902 266.478 114.837 266.49 114.773C266.517 114.643 266.595 114.528 266.71 114.453C266.824 114.377 266.965 114.348 267.101 114.371C267.914 114.562 268.667 114.933 269.302 115.453C269.937 115.974 270.434 116.63 270.755 117.368C270.811 117.489 270.815 117.625 270.767 117.749C270.718 117.872 270.622 117.973 270.497 118.03L270.279 118.068Z" fill="#263238"/>
<path d="M240.29 128.445C240.494 134.803 239.815 146.272 234.6 149.528C234.6 149.528 235.279 156.016 247.272 158.286C260.46 160.725 254.66 153.239 254.66 153.239C247.733 150.268 248.806 145.234 250.884 140.706L240.29 128.445Z" fill="#E58A7B"/>
<path d="M274.246 162.465C276.962 164.437 279.951 166.526 282.898 168.433C285.845 170.34 288.86 172.325 291.93 174.051C294.999 175.776 298.11 177.476 301.233 179.072C304.346 180.609 307.542 181.986 310.809 183.198C311.094 183.301 310.999 183.198 311.067 183.289H311.243C311.419 183.313 311.597 183.313 311.773 183.289C312.316 183.291 312.858 183.239 313.389 183.133C314.831 182.797 316.229 182.309 317.559 181.68C320.635 180.188 323.575 178.452 326.346 176.49C329.253 174.531 332.092 172.39 334.876 170.159C337.66 167.927 340.431 165.605 343.093 163.295L347.168 166.863C342.51 172.661 337.309 178.042 331.63 182.938C328.651 185.481 325.427 187.749 322 189.711C320.072 190.792 318.021 191.663 315.888 192.306C314.63 192.665 313.33 192.875 312.017 192.928C311.265 192.968 310.51 192.937 309.763 192.838C309.36 192.792 308.961 192.723 308.568 192.63C308.215 192.539 307.658 192.396 307.508 192.332C300.11 190 292.99 186.93 286.266 183.172C282.952 181.329 279.679 179.422 276.501 177.372C273.323 175.322 270.28 173.233 267.17 170.807L274.246 162.465Z" fill="#E58A7B"/>
<path d="M342.264 164.281L345.496 156.328L352.287 162.815C352.287 162.815 349.068 168.731 344.45 168.744L342.264 164.281Z" fill="#E58A7B"/>
<path d="M352.194 154.031L358.646 155.964L352.344 162.802L345.525 156.328L352.194 154.031Z" fill="#E58A7B"/>
<path d="M223.301 454.645H210.928C210.712 454.643 210.503 454.715 210.338 454.848C210.173 454.982 210.065 455.168 210.032 455.371L208.361 464.726C208.328 464.96 208.348 465.198 208.42 465.424C208.492 465.65 208.613 465.859 208.777 466.036C208.941 466.214 209.142 466.355 209.368 466.451C209.594 466.548 209.839 466.596 210.086 466.594C214.405 466.529 216.483 466.283 221.93 466.283C225.271 466.283 232.198 466.62 236.87 466.62C241.542 466.62 241.854 462.248 239.939 461.846C231.355 460.081 228.028 457.629 225.176 455.294C224.655 454.865 223.988 454.634 223.301 454.645V454.645Z" fill="#263238"/>
<path d="M239.206 113.786C238.106 124.165 237.4 128.486 241.923 134.752C248.714 144.159 262.296 143.575 266.683 133.831C270.581 125.074 271.749 109.608 261.902 103.588C259.808 102.23 257.38 101.416 254.857 101.226C252.333 101.037 249.802 101.478 247.511 102.508C245.221 103.537 243.251 105.118 241.794 107.096C240.338 109.073 239.446 111.379 239.206 113.786Z" fill="#E58A7B"/>
<path d="M240.402 136.359C235.24 134.348 230.419 126.407 230.609 113.991C230.799 101.575 240.483 94.3741 257.773 99.6027C275.063 104.831 257.27 142.95 240.402 136.359Z" fill="#263238"/>
<path d="M255.041 100.745C260.134 98.838 271.407 101.199 271.407 111.332L260.447 119.83L255.041 100.745Z" fill="#263238"/>
<path d="M253.617 100.654C260.408 100.278 263.043 100.304 269.196 101.951C265.148 97.3066 257.57 98.8375 253.617 100.654Z" fill="#263238"/>
<path d="M259.495 119.181C259.285 121.108 259.697 123.05 260.677 124.747C262.035 127.134 264.086 126.81 264.846 124.877C265.539 123.138 265.661 119.804 263.76 118.013C261.858 116.223 259.821 117.04 259.495 119.181Z" fill="#E58A7B"/>
<path d="M231.682 104.821C235.62 107.13 249.012 105.223 251.905 100.306C254.798 95.3883 244.802 87.1626 235.743 87.461C226.684 87.7594 222.908 99.6568 231.682 104.821Z" fill="#2B2E51"/>
<path d="M229.983 442.966L207.342 440.177L207.627 435.039L232.251 436.064L229.983 442.966Z" fill="#F5F5F5"/>
<path d="M227.404 456.486C226.239 456.466 225.08 456.34 223.94 456.11C223.887 456.102 223.838 456.077 223.802 456.039C223.765 456.002 223.742 455.954 223.737 455.902C223.73 455.851 223.739 455.799 223.763 455.753C223.787 455.707 223.825 455.668 223.872 455.643C224.375 455.396 228.83 453.243 230.161 453.969C230.286 454.034 230.391 454.129 230.465 454.246C230.539 454.362 230.58 454.495 230.582 454.631C230.609 454.856 230.577 455.084 230.489 455.295C230.401 455.505 230.261 455.692 230.079 455.838C229.294 456.345 228.347 456.574 227.404 456.486V456.486ZM224.81 455.76C227.241 456.149 229.047 456.045 229.74 455.474C229.857 455.374 229.948 455.249 230.004 455.11C230.061 454.97 230.082 454.819 230.066 454.67C230.066 454.615 230.052 454.561 230.023 454.513C229.994 454.465 229.953 454.425 229.903 454.397C229.183 454.008 226.643 454.929 224.81 455.76Z" fill="#2B2E51"/>
<path d="M223.995 456.109C223.941 456.121 223.885 456.121 223.832 456.109C223.797 456.081 223.769 456.045 223.753 456.004C223.736 455.963 223.731 455.919 223.737 455.876C223.737 455.694 224.266 451.387 226.725 451.387H226.942C227.648 451.452 227.852 451.802 227.906 452.074C228.11 453.268 225.435 455.551 224.103 456.122L223.995 456.109ZM226.711 451.854C225.122 451.854 224.497 454.345 224.294 455.422C225.652 454.63 227.485 452.827 227.363 452.126C227.363 452.126 227.363 451.906 226.861 451.854H226.711Z" fill="#2B2E51"/>
<path d="M215.532 148.347C207.885 148.684 200.592 160.789 200.592 160.789L210.683 180.484C210.683 180.484 224.36 169.599 224.537 158.895C224.686 151.941 223.043 148.022 215.532 148.347Z" fill="#2B2E51"/>
<path opacity="0.8" d="M215.532 148.347C207.885 148.684 200.592 160.789 200.592 160.789L210.683 180.484C210.683 180.484 224.36 169.599 224.537 158.895C224.686 151.941 223.043 148.022 215.532 148.347Z" fill="white"/>
<path d="M212.436 212.428L256.604 220.602C277.466 161.906 272.481 160.012 272.481 160.012C269.236 158.338 265.889 156.852 262.458 155.562L261.847 155.342C259.035 154.368 258.438 154.213 254.648 153.162C248.142 151.696 242.085 150.502 234.588 149.464L233.162 149.27C231.803 149.114 230.445 148.971 229.155 148.854C228.286 148.764 227.403 148.712 226.574 148.647L223.722 148.504C218.887 148.271 215.437 148.348 215.437 148.348C217.963 184.975 216.116 195.497 212.436 212.428Z" fill="#2B2E51"/>
<path opacity="0.6" d="M212.436 212.428L256.604 220.602C277.466 161.906 272.481 160.012 272.481 160.012C269.236 158.338 265.889 156.852 262.458 155.562L261.847 155.342C259.035 154.368 258.438 154.213 254.648 153.162C248.142 151.696 242.085 150.502 234.588 149.464L233.162 149.27C231.803 149.114 230.445 148.971 229.155 148.854C228.286 148.764 227.403 148.712 226.574 148.647L223.722 148.504C218.887 148.271 215.437 148.348 215.437 148.348C217.963 184.975 216.116 195.497 212.436 212.428Z" fill="white"/>
<path opacity="0.2" d="M261.711 174.129C263.463 177.424 265.541 181.797 268.325 184.82C269.127 182.043 269.792 179.63 270.363 177.385L261.711 174.129Z" fill="#2B2E51"/>
<path d="M226.302 182.938C237.317 174.622 239.639 166.889 238.104 160.129C236.57 153.37 234.804 141.576 236.067 137.632C237.33 133.688 241.731 125.501 240.834 118.508C239.938 111.515 237.846 101.797 239.856 97.5936C241.866 93.39 248.25 90.8989 243.075 84.9308C240.563 82.0375 229.914 81.5964 227.13 89.6664C224.346 97.7363 212.91 101.226 208.414 102.031C203.919 102.835 196 107.662 194.629 115.524C193.257 123.386 187.729 126.487 180.137 130.522C172.544 134.557 161.624 150.373 165.971 164.411C171.838 183.626 209.895 195.368 226.302 182.938Z" fill="#263238"/>
<path d="M259.415 156.46C262.837 153.865 277.574 162.402 282.083 165.97L279.448 184.471C279.448 184.471 258.396 176.142 256.956 170.446C255.408 164.517 256.698 158.445 259.415 156.46Z" fill="#2B2E51"/>
<path opacity="0.6" d="M259.415 156.46C262.837 153.865 277.574 162.402 282.083 165.97L279.448 184.471C279.448 184.471 258.396 176.142 256.956 170.446C255.408 164.517 256.698 158.445 259.415 156.46Z" fill="white"/>
<path d="M212.19 209.846L209.555 213.232C209.352 213.492 209.664 213.855 210.166 213.959L256.494 222.522C256.888 222.599 257.255 222.522 257.323 222.236L258.369 218.552C258.437 218.305 258.138 218.02 257.703 217.942L212.964 209.664C212.83 209.626 212.688 209.623 212.551 209.655C212.415 209.686 212.291 209.752 212.19 209.846Z" fill="#2B2E51"/>
<path d="M217.379 215.712L216.184 215.491C215.953 215.491 215.79 215.296 215.83 215.154L217.189 210.379C217.189 210.236 217.46 210.159 217.705 210.197L218.9 210.418C219.131 210.418 219.294 210.613 219.253 210.755L217.895 215.53C217.854 215.673 217.623 215.75 217.379 215.712Z" fill="#2B2E51"/>
<path d="M247.64 221.367L246.432 221.146C246.201 221.146 246.038 220.951 246.079 220.809L247.437 216.034C247.437 215.904 247.708 215.827 247.953 215.866L249.148 216.086C249.393 216.086 249.556 216.281 249.515 216.423L248.157 221.198C248.102 221.341 247.871 221.418 247.64 221.367Z" fill="#2B2E51"/>
<path opacity="0.6" d="M217.379 215.712L216.184 215.491C215.953 215.491 215.79 215.296 215.83 215.154L217.189 210.379C217.189 210.236 217.46 210.159 217.705 210.197L218.9 210.418C219.131 210.418 219.294 210.613 219.253 210.755L217.895 215.53C217.854 215.673 217.623 215.75 217.379 215.712Z" fill="black"/>
<path opacity="0.6" d="M247.64 221.367L246.432 221.146C246.201 221.146 246.038 220.951 246.079 220.809L247.437 216.034C247.437 215.904 247.708 215.827 247.953 215.866L249.148 216.086C249.393 216.086 249.556 216.281 249.515 216.423L248.157 221.198C248.102 221.341 247.871 221.418 247.64 221.367Z" fill="black"/>
</svg>
