<svg width="373" height="356" viewBox="0 0 373 356" fill="none" xmlns="http://www.w3.org/2000/svg">
<mask id="mask0_633_9742" style="mask-type:alpha" maskUnits="userSpaceOnUse" x="0" y="0" width="373" height="356">
<path d="M373 0H0V356H373V0Z" fill="white"/>
</mask>
<g mask="url(#mask0_633_9742)">
<path d="M-6.19253 45.5575C-22.1025 29.6475 -22.1025 3.85226 -6.1925 -12.0577L157.208 -175.458C173.118 -191.368 198.913 -191.368 214.823 -175.458L378.224 -12.0577C394.134 3.85229 394.134 29.6475 378.224 45.5575L214.823 208.958C198.913 224.868 173.118 224.868 157.208 208.958L-6.19253 45.5575Z" fill="#FA8615"/>
<path d="M162.403 -213.387L-11.3872 -39.5971C-24.4282 -26.5562 -24.4282 -5.41258 -11.3872 7.6284L162.403 181.418C175.444 194.459 196.587 194.459 209.628 181.418L383.418 7.62841C396.459 -5.41256 396.459 -26.5562 383.418 -39.5971L209.628 -213.387C196.587 -226.428 175.444 -226.428 162.403 -213.387Z" fill="#08192B"/>
</g>
</svg>
