<svg width="373" height="356" viewBox="0 0 373 356" fill="none" xmlns="http://www.w3.org/2000/svg">
<mask id="mask0_633_9740" style="mask-type:alpha" maskUnits="userSpaceOnUse" x="0" y="0" width="373" height="356">
<path d="M373 0H0V356H373V0Z" fill="white"/>
</mask>
<g mask="url(#mask0_633_9740)">
<path d="M157.208 -175.458L-6.1924 -12.0576C-22.1024 3.8524 -22.1024 29.6476 -6.1924 45.5576L157.208 208.958C173.118 224.868 198.913 224.868 214.823 208.958L378.223 45.5576C394.133 29.6476 394.133 3.8524 378.223 -12.0576L214.823 -175.458C198.913 -191.368 173.118 -191.368 157.208 -175.458Z" fill="#2990FD"/>
<path d="M162.403 -213.387L-11.3872 -39.5971C-24.4282 -26.5562 -24.4282 -5.41258 -11.3872 7.6284L162.403 181.418C175.444 194.459 196.587 194.459 209.628 181.418L383.418 7.62841C396.459 -5.41256 396.459 -26.5562 383.418 -39.5971L209.628 -213.387C196.587 -226.428 175.444 -226.428 162.403 -213.387Z" fill="#08192B"/>
</g>
</svg>
