<svg width="22" height="22" viewBox="0 0 22 22" fill="none" xmlns="http://www.w3.org/2000/svg">
<path d="M21.8535 3.84095L9.55769 16.1476L4.98851 11.5784L6.50798 10.0589L9.55769 13.1086L20.3341 2.33226L21.8535 3.84095ZM19.472 9.27225C19.6121 9.8865 19.6983 10.5331 19.6983 11.1904C19.6983 15.9536 15.8403 19.8116 11.0772 19.8116C6.314 19.8116 2.45606 15.9536 2.45606 11.1904C2.45606 6.42728 6.314 2.56934 11.0772 2.56934C12.7798 2.56934 14.3532 3.06505 15.6895 3.91639L17.2413 2.36459C15.4955 1.13608 13.3725 0.414062 11.0772 0.414062C5.1286 0.414062 0.300781 5.24188 0.300781 11.1904C0.300781 17.139 5.1286 21.9668 11.0772 21.9668C17.0257 21.9668 21.8535 17.139 21.8535 11.1904C21.8535 9.90805 21.6165 8.67955 21.207 7.53725L19.472 9.27225Z" fill="black"/>
</svg>
