<svg width="25" height="25" viewBox="0 0 25 25" fill="none" xmlns="http://www.w3.org/2000/svg">
<path d="M9.375 11.4609H7.29167V13.5443H9.375V11.4609ZM13.5417 11.4609H11.4583V13.5443H13.5417V11.4609ZM17.7083 11.4609H15.625V13.5443H17.7083V11.4609ZM19.7917 4.16927H18.75V2.08594H16.6667V4.16927H8.33333V2.08594H6.25V4.16927H5.20833C4.05208 4.16927 3.13542 5.10677 3.13542 6.2526L3.125 20.8359C3.125 21.9818 4.05208 22.9193 5.20833 22.9193H19.7917C20.9375 22.9193 21.875 21.9818 21.875 20.8359V6.2526C21.875 5.10677 20.9375 4.16927 19.7917 4.16927ZM19.7917 20.8359H5.20833V9.3776H19.7917V20.8359Z" fill="black"/>
</svg>
