<svg width="643" height="479" viewBox="0 0 643 479" fill="none" xmlns="http://www.w3.org/2000/svg">
<path d="M643 421.977H0V422.291H643V421.977Z" fill="#E0E0E0"/>
<path d="M487.817 433.562H443.578V433.877H487.817V433.562Z" fill="#E0E0E0"/>
<path d="M539.862 432.672H514.965V432.986H539.862V432.672Z" fill="#E0E0E0"/>
<path d="M318.079 433.406H285.055V433.721H318.079V433.406Z" fill="#E0E0E0"/>
<path d="M341.935 437.867H319.379V438.182H341.935V437.867Z" fill="#E0E0E0"/>
<path d="M186.047 430.234H117.902V430.549H186.047V430.234Z" fill="#E0E0E0"/>
<path d="M304.781 365.965H56.4669C54.5216 365.962 52.6572 365.204 51.2829 363.86C49.9086 362.515 49.1367 360.693 49.1367 358.793V17.8899C49.1537 16.001 49.933 14.1949 51.3055 12.8639C52.678 11.5329 54.5327 10.7845 56.4669 10.7812H304.781C306.728 10.7813 308.596 11.5368 309.973 12.8817C311.35 14.2266 312.124 16.0507 312.124 17.9527V358.793C312.124 360.695 311.35 362.519 309.973 363.864C308.596 365.209 306.728 365.965 304.781 365.965ZM56.4669 11.0324C54.6069 11.0358 52.8243 11.7597 51.5102 13.0454C50.1962 14.3311 49.4582 16.0734 49.4582 17.8899V358.793C49.4582 360.61 50.1962 362.352 51.5102 363.638C52.8243 364.924 54.6069 365.648 56.4669 365.651H304.781C306.642 365.648 308.426 364.924 309.742 363.639C311.058 362.353 311.799 360.611 311.802 358.793V17.8899C311.799 16.0722 311.058 14.3299 309.742 13.0446C308.426 11.7593 306.642 11.0358 304.781 11.0324H56.4669Z" fill="#E0E0E0"/>
<path d="M582.955 365.965H334.628C332.682 365.962 330.816 365.205 329.44 363.861C328.063 362.517 327.289 360.694 327.285 358.793V17.8899C327.305 15.9999 328.088 14.1938 329.462 12.8631C330.837 11.5324 332.693 10.7845 334.628 10.7812H582.955C584.887 10.7878 586.738 11.5376 588.108 12.8683C589.478 14.199 590.255 16.0032 590.272 17.8899V358.793C590.272 360.691 589.502 362.511 588.131 363.855C586.759 365.2 584.898 365.958 582.955 365.965ZM334.628 11.0324C332.767 11.0358 330.983 11.7593 329.667 13.0446C328.351 14.3299 327.61 16.0722 327.607 17.8899V358.793C327.61 360.611 328.351 362.353 329.667 363.639C330.983 364.924 332.767 365.648 334.628 365.651H582.955C584.816 365.648 586.6 364.924 587.916 363.639C589.232 362.353 589.973 360.611 589.976 358.793V17.8899C589.973 16.0722 589.232 14.3299 587.916 13.0446C586.6 11.7593 584.816 11.0358 582.955 11.0324H334.628Z" fill="#E0E0E0"/>
<path d="M558.164 41.2656H364.363V203.987H558.164V41.2656Z" fill="#E0E0E0"/>
<path d="M562.472 41.2656H368.672V203.987H562.472V41.2656Z" fill="#F0F0F0"/>
<path d="M554.742 196.347V48.8984L376.4 48.8984V196.347H554.742Z" fill="#FAFAFA"/>
<path d="M497.746 196.347V48.8984H486.095V196.347H497.746Z" fill="#E0E0E0"/>
<path d="M436.457 196.347V48.8984H424.806V196.347H436.457Z" fill="#E0E0E0"/>
<path d="M501.848 201.185V43.2109H490.196V201.185H501.848Z" fill="#F0F0F0"/>
<path d="M440.547 201.193V43.2188H428.896V201.193H440.547Z" fill="#F0F0F0"/>
<path d="M554.742 196.339V48.8906H551.489V196.339H554.742Z" fill="#E0E0E0"/>
<path d="M228.06 169.774C228.06 169.774 204.475 130.098 237.204 98.4609C237.204 98.4609 245.743 103.899 245.614 111.209C245.486 118.519 236.458 120.365 238.4 126.469C240.342 132.573 248.842 138.539 243.261 143.587C237.68 148.636 244.161 153.108 243.788 159.287C243.415 165.466 228.06 169.774 228.06 169.774Z" fill="#E0E0E0"/>
<path d="M231.762 176.263C231.762 176.263 241.33 131.326 200.075 111.406C200.075 111.406 193.722 119.193 196.217 126.088C198.712 132.983 207.856 131.954 207.984 138.346C208.113 144.739 201.979 153.028 208.897 156.093C215.816 159.157 211.122 165.412 213.475 171.164C215.829 176.916 231.762 176.263 231.762 176.263Z" fill="#E6E6E6"/>
<path d="M210.762 164.852C210.762 164.852 211.173 203.648 227.055 203.648C242.937 203.648 243.336 164.852 243.336 164.852H210.762Z" fill="#F0F0F0"/>
<path d="M115.34 189.055C115.34 189.055 116.227 203.649 150.139 203.649C184.051 203.649 184.951 189.055 184.951 189.055H115.34Z" fill="#E6E6E6"/>
<path d="M472.861 277.047H454.96C452.73 277.047 450.922 278.813 450.922 280.991V309.903C450.922 312.081 452.73 313.846 454.96 313.846H472.861C475.091 313.846 476.899 312.081 476.899 309.903V280.991C476.899 278.813 475.091 277.047 472.861 277.047Z" fill="#F0F0F0"/>
<path d="M520.341 289.078H508.292C506.793 289.078 505.578 290.265 505.578 291.728V311.195C505.578 312.659 506.793 313.845 508.292 313.845H520.341C521.84 313.845 523.055 312.659 523.055 311.195V291.728C523.055 290.265 521.84 289.078 520.341 289.078Z" fill="#E6E6E6"/>
<path d="M522.142 286.68H506.491C505.987 286.68 505.578 287.079 505.578 287.571V288.576C505.578 289.069 505.987 289.468 506.491 289.468H522.142C522.646 289.468 523.055 289.069 523.055 288.576V287.571C523.055 287.079 522.646 286.68 522.142 286.68Z" fill="#F0F0F0"/>
<path d="M409.488 293.367C409.488 293.367 410.131 313.839 434.681 313.839C459.231 313.839 459.887 293.367 459.887 293.367H409.488Z" fill="#E6E6E6"/>
<path d="M348.43 266.328H385.582V259.169H348.43V266.328Z" fill="#E0E0E0"/>
<path d="M570.29 259.188H385.582V266.346H570.29V259.188Z" fill="#F0F0F0"/>
<path d="M348.43 321H385.582V313.841H348.43V321Z" fill="#E0E0E0"/>
<path d="M570.29 313.844H385.582V321.002H570.29V313.844Z" fill="#F0F0F0"/>
<path d="M361.815 266.328H354.961V421.966H361.815V266.328Z" fill="#E0E0E0"/>
<path d="M392.436 266.328H385.582V421.966H392.436V266.328Z" fill="#F0F0F0"/>
<path d="M546.522 266.328H539.668V421.966H546.522V266.328Z" fill="#E0E0E0"/>
<path d="M570.288 266.328H563.434V421.966H570.288V266.328Z" fill="#F0F0F0"/>
<path d="M115.341 212.75H80.207V412.56H115.341V212.75Z" fill="#E6E6E6"/>
<path d="M260.211 412.547H86.9609V421.979H260.211V412.547Z" fill="#E6E6E6"/>
<path d="M115.343 412.547H266.949V212.737L115.343 212.737L115.343 412.547Z" fill="#F0F0F0"/>
<path d="M129.153 337.055H253.137V288.248H129.153V337.055Z" fill="#E6E6E6"/>
<path d="M129.153 394.75H253.137V345.944H129.153V394.75Z" fill="#E6E6E6"/>
<path d="M205.067 293.6H177.225C176.319 293.597 175.451 293.244 174.81 292.618C174.17 291.992 173.808 291.145 173.805 290.26C173.805 289.372 174.165 288.521 174.806 287.893C175.447 287.264 176.317 286.91 177.225 286.906H205.067C205.976 286.91 206.846 287.264 207.487 287.893C208.128 288.521 208.488 289.372 208.488 290.26C208.485 291.145 208.123 291.992 207.482 292.618C206.842 293.244 205.974 293.597 205.067 293.6Z" fill="#F0F0F0"/>
<path d="M129.153 279.344H253.137V230.538H129.153V279.344Z" fill="#E6E6E6"/>
<path d="M205.067 235.897H177.225C176.317 235.894 175.447 235.539 174.806 234.91C174.165 234.282 173.805 233.431 173.805 232.544C173.808 231.659 174.17 230.811 174.81 230.185C175.451 229.559 176.319 229.206 177.225 229.203H205.067C205.974 229.206 206.842 229.559 207.482 230.185C208.123 230.811 208.485 231.659 208.488 232.544C208.488 233.431 208.128 234.282 207.487 234.91C206.846 235.539 205.976 235.894 205.067 235.897Z" fill="#F0F0F0"/>
<path d="M205.067 351.296H177.225C176.319 351.292 175.451 350.939 174.81 350.314C174.17 349.688 173.808 348.84 173.805 347.955C173.805 347.068 174.165 346.217 174.806 345.588C175.447 344.96 176.317 344.605 177.225 344.602H205.067C205.976 344.605 206.846 344.96 207.487 345.588C208.128 346.217 208.488 347.068 208.488 347.955C208.485 348.84 208.123 349.688 207.482 350.314C206.842 350.939 205.974 351.292 205.067 351.296Z" fill="#F0F0F0"/>
<path d="M271.627 203.648H115.34V212.754H271.627V203.648Z" fill="#E6E6E6"/>
<path d="M75.2938 212.742H115.34V203.636H75.2938V212.742Z" fill="#E0E0E0"/>
<path d="M154.501 48.8984H97.6602V109.863H154.501V48.8984Z" fill="#E6E6E6"/>
<path d="M160.66 48.8984H101.941V109.863H160.66V48.8984Z" fill="#F0F0F0"/>
<path d="M155.734 105.052V53.6953H106.854V105.052H155.734Z" fill="#FAFAFA"/>
<path d="M143.891 92.6035V66.1406H118.711V92.6035H143.891Z" fill="#F0F0F0"/>
<path d="M214.427 30.8984H171.32V76.125H214.427V30.8984Z" fill="#E6E6E6"/>
<path d="M219.006 30.8984H175.449V76.125H219.006V30.8984Z" fill="#F0F0F0"/>
<path d="M215.355 72.5618V34.4688H179.103V72.5618H215.355Z" fill="#FAFAFA"/>
<path d="M197.22 43.875L187.305 60.6543H207.135L197.22 43.875Z" fill="#F0F0F0"/>
<path d="M321.499 478.7C459.207 478.7 570.841 472.335 570.841 464.483C570.841 456.631 459.207 450.266 321.499 450.266C183.791 450.266 72.1562 456.631 72.1562 464.483C72.1562 472.335 183.791 478.7 321.499 478.7Z" fill="#F5F5F5"/>
<path d="M539.863 124.852H413.706C407.051 124.852 401.656 130.12 401.656 136.62V170.128C401.656 176.628 407.051 181.896 413.706 181.896H539.863C546.518 181.896 551.913 176.628 551.913 170.128V136.62C551.913 130.12 546.518 124.852 539.863 124.852Z" fill="#2B2E51"/>
<path d="M514.835 134.469H416.289C415.124 134.469 414.18 135.391 414.18 136.528V138.789C414.18 139.927 415.124 140.849 416.289 140.849H514.835C516 140.849 516.944 139.927 516.944 138.789V136.528C516.944 135.391 516 134.469 514.835 134.469Z" fill="#2B2E51"/>
<path d="M483.624 149.844H416.289C415.124 149.844 414.18 150.766 414.18 151.903V154.164C414.18 155.301 415.124 156.224 416.289 156.224H483.624C484.788 156.224 485.733 155.301 485.733 154.164V151.903C485.733 150.766 484.788 149.844 483.624 149.844Z" fill="#2B2E51"/>
<path d="M465.568 165.219H416.289C415.124 165.219 414.18 166.141 414.18 167.278V169.539C414.18 170.677 415.124 171.599 416.289 171.599H465.568C466.733 171.599 467.677 170.677 467.677 169.539V167.278C467.677 166.141 466.733 165.219 465.568 165.219Z" fill="#2B2E51"/>
<path d="M526.642 165.219H477.363C476.198 165.219 475.254 166.141 475.254 167.278V169.539C475.254 170.677 476.198 171.599 477.363 171.599H526.642C527.807 171.599 528.752 170.677 528.752 169.539V167.278C528.752 166.141 527.807 165.219 526.642 165.219Z" fill="#2B2E51"/>
<g opacity="0.5">
<path opacity="0.5" d="M514.839 134.469H416.293C415.128 134.469 414.184 135.391 414.184 136.529V138.789C414.184 139.927 415.128 140.849 416.293 140.849H514.839C516.004 140.849 516.948 139.927 516.948 138.789V136.529C516.948 135.391 516.004 134.469 514.839 134.469Z" fill="white"/>
<path opacity="0.5" d="M483.628 149.844H416.293C415.128 149.844 414.184 150.766 414.184 151.904V154.164C414.184 155.302 415.128 156.224 416.293 156.224H483.628C484.792 156.224 485.737 155.302 485.737 154.164V151.904C485.737 150.766 484.792 149.844 483.628 149.844Z" fill="white"/>
<path opacity="0.5" d="M465.572 165.219H416.293C415.128 165.219 414.184 166.141 414.184 167.278V169.539C414.184 170.677 415.128 171.599 416.293 171.599H465.572C466.737 171.599 467.681 170.677 467.681 169.539V167.278C467.681 166.141 466.737 165.219 465.572 165.219Z" fill="white"/>
<path opacity="0.5" d="M526.642 165.219H477.363C476.198 165.219 475.254 166.141 475.254 167.278V169.539C475.254 170.677 476.198 171.599 477.363 171.599H526.642C527.807 171.599 528.752 170.677 528.752 169.539V167.278C528.752 166.141 527.807 165.219 526.642 165.219Z" fill="white"/>
</g>
<path d="M438.807 111.547H295.611C285.852 111.547 277.941 119.273 277.941 128.804V177.936C277.941 187.467 285.852 195.193 295.611 195.193H438.807C448.566 195.193 456.477 187.467 456.477 177.936V128.804C456.477 119.273 448.566 111.547 438.807 111.547Z" fill="#2B2E51"/>
<path d="M443.873 125.656H299.404C297.692 125.656 296.305 127.011 296.305 128.683V131.986C296.305 133.658 297.692 135.013 299.404 135.013H443.873C445.585 135.013 446.972 133.658 446.972 131.986V128.683C446.972 127.011 445.585 125.656 443.873 125.656Z" fill="#2B2E51"/>
<path d="M398.104 148.195H299.404C297.692 148.195 296.305 149.55 296.305 151.222V154.525C296.305 156.197 297.692 157.552 299.404 157.552H398.104C399.816 157.552 401.204 156.197 401.204 154.525V151.222C401.204 149.55 399.816 148.195 398.104 148.195Z" fill="#2B2E51"/>
<path d="M371.639 170.742H299.404C297.692 170.742 296.305 172.097 296.305 173.769V177.072C296.305 178.744 297.692 180.099 299.404 180.099H371.639C373.35 180.099 374.738 178.744 374.738 177.072V173.769C374.738 172.097 373.35 170.742 371.639 170.742Z" fill="#2B2E51"/>
<path d="M449.136 170.742H388.951C387.239 170.742 385.852 172.097 385.852 173.769V177.072C385.852 178.744 387.239 180.099 388.951 180.099H449.136C450.847 180.099 452.235 178.744 452.235 177.072V173.769C452.235 172.097 450.847 170.742 449.136 170.742Z" fill="#2B2E51"/>
<g opacity="0.5">
<path opacity="0.5" d="M443.873 125.656H299.404C297.692 125.656 296.305 127.011 296.305 128.683V131.986C296.305 133.658 297.692 135.013 299.404 135.013H443.873C445.585 135.013 446.972 133.658 446.972 131.986V128.683C446.972 127.011 445.585 125.656 443.873 125.656Z" fill="white"/>
<path opacity="0.5" d="M398.104 148.203H299.404C297.692 148.203 296.305 149.558 296.305 151.23V154.533C296.305 156.205 297.692 157.56 299.404 157.56H398.104C399.816 157.56 401.204 156.205 401.204 154.533V151.23C401.204 149.558 399.816 148.203 398.104 148.203Z" fill="white"/>
<path opacity="0.5" d="M371.639 170.742H299.404C297.692 170.742 296.305 172.097 296.305 173.769V177.072C296.305 178.744 297.692 180.099 299.404 180.099H371.639C373.35 180.099 374.738 178.744 374.738 177.072V173.769C374.738 172.097 373.35 170.742 371.639 170.742Z" fill="white"/>
<path opacity="0.5" d="M449.132 170.742H388.947C387.235 170.742 385.848 172.097 385.848 173.769V177.072C385.848 178.744 387.235 180.099 388.947 180.099H449.132C450.843 180.099 452.231 178.744 452.231 177.072V173.769C452.231 172.097 450.843 170.742 449.132 170.742Z" fill="white"/>
</g>
<path d="M349.779 210.359H280.811C276.251 210.359 272.555 213.969 272.555 218.423V319.326C272.555 323.779 276.251 327.389 280.811 327.389H349.779C354.339 327.389 358.035 323.779 358.035 319.326V218.423C358.035 213.969 354.339 210.359 349.779 210.359Z" fill="#2B2E51"/>
<path opacity="0.4" d="M349.779 210.359H280.811C276.251 210.359 272.555 213.969 272.555 218.423V319.326C272.555 323.779 276.251 327.389 280.811 327.389H349.779C354.339 327.389 358.035 323.779 358.035 319.326V218.423C358.035 213.969 354.339 210.359 349.779 210.359Z" fill="black"/>
<path d="M346.617 222.562H283.963C283.125 222.562 282.445 223.226 282.445 224.045V226.268C282.445 227.086 283.125 227.75 283.963 227.75H346.617C347.455 227.75 348.134 227.086 348.134 226.268V224.045C348.134 223.226 347.455 222.562 346.617 222.562Z" fill="#FAFAFA"/>
<path d="M326.671 235.047H283.963C283.125 235.047 282.445 235.71 282.445 236.529V238.752C282.445 239.571 283.125 240.234 283.963 240.234H326.671C327.509 240.234 328.188 239.571 328.188 238.752V236.529C328.188 235.71 327.509 235.047 326.671 235.047Z" fill="#FAFAFA"/>
<path d="M346.617 247.547H283.963C283.125 247.547 282.445 248.21 282.445 249.029V251.252C282.445 252.071 283.125 252.734 283.963 252.734H346.617C347.455 252.734 348.134 252.071 348.134 251.252V249.029C348.134 248.21 347.455 247.547 346.617 247.547Z" fill="#FAFAFA"/>
<path d="M307.252 260.031H283.963C283.125 260.031 282.445 260.695 282.445 261.513V263.736C282.445 264.555 283.125 265.219 283.963 265.219H307.252C308.09 265.219 308.77 264.555 308.77 263.736V261.513C308.77 260.695 308.09 260.031 307.252 260.031Z" fill="#FAFAFA"/>
<path d="M339.838 260.031H316.549C315.711 260.031 315.031 260.695 315.031 261.513V263.736C315.031 264.555 315.711 265.219 316.549 265.219H339.838C340.676 265.219 341.356 264.555 341.356 263.736V261.513C341.356 260.695 340.676 260.031 339.838 260.031Z" fill="#FAFAFA"/>
<path d="M346.617 272.523H283.963C283.125 272.523 282.445 273.187 282.445 274.005V276.228C282.445 277.047 283.125 277.71 283.963 277.71H346.617C347.455 277.71 348.134 277.047 348.134 276.228V274.005C348.134 273.187 347.455 272.523 346.617 272.523Z" fill="#FAFAFA"/>
<path d="M346.617 285.008H283.963C283.125 285.008 282.445 285.671 282.445 286.49V288.713C282.445 289.531 283.125 290.195 283.963 290.195H346.617C347.455 290.195 348.134 289.531 348.134 288.713V286.49C348.134 285.671 347.455 285.008 346.617 285.008Z" fill="#FAFAFA"/>
<path d="M335.506 297.508H283.963C283.125 297.508 282.445 298.171 282.445 298.99V301.213C282.445 302.031 283.125 302.695 283.963 302.695H335.506C336.344 302.695 337.023 302.031 337.023 301.213V298.99C337.023 298.171 336.344 297.508 335.506 297.508Z" fill="#FAFAFA"/>
<path d="M308.011 309.992H283.963C283.125 309.992 282.445 310.656 282.445 311.474V313.697C282.445 314.515 283.125 315.179 283.963 315.179H308.011C308.849 315.179 309.528 314.515 309.528 313.697V311.474C309.528 310.656 308.849 309.992 308.011 309.992Z" fill="#FAFAFA"/>
<path d="M368.439 209.641H272.773L315.07 242.509L379.923 266.372V220.831C379.916 217.861 378.703 215.015 376.55 212.917C374.397 210.819 371.48 209.641 368.439 209.641Z" fill="#2B2E51"/>
<path opacity="0.4" d="M368.439 209.641H272.773L315.07 242.509L379.923 266.372V220.831C379.916 217.861 378.703 215.015 376.55 212.917C374.397 210.819 371.48 209.641 368.439 209.641Z" fill="black"/>
<path d="M364.26 226.57H294.263C293.212 226.57 292.359 227.403 292.359 228.429V231.896C292.359 232.922 293.212 233.754 294.263 233.754H364.26C365.311 233.754 366.163 232.922 366.163 231.896V228.429C366.163 227.403 365.311 226.57 364.26 226.57Z" fill="#FAFAFA"/>
<path d="M533.883 298.611V232.899C533.883 227.864 529.703 223.781 524.546 223.781H407.713C402.557 223.781 398.377 227.864 398.377 232.899V298.611C398.377 303.647 402.557 307.729 407.713 307.729H524.546C529.703 307.729 533.883 303.647 533.883 298.611Z" fill="#2B2E51"/>
<path d="M555.219 277.791V212.079C555.219 207.043 551.039 202.961 545.882 202.961H429.049C423.893 202.961 419.713 207.043 419.713 212.079V277.791C419.713 282.827 423.893 286.909 429.049 286.909H545.882C551.039 286.909 555.219 282.827 555.219 277.791Z" fill="#2B2E51"/>
<path opacity="0.5" d="M555.219 277.791V212.079C555.219 207.043 551.039 202.961 545.882 202.961H429.049C423.893 202.961 419.713 207.043 419.713 212.079V277.791C419.713 282.827 423.893 286.909 429.049 286.909H545.882C551.039 286.909 555.219 282.827 555.219 277.791Z" fill="white"/>
<path d="M543.359 255.269V214.814C543.359 212.574 541.5 210.758 539.206 210.758H501.024C498.73 210.758 496.87 212.574 496.87 214.814V255.269C496.87 257.509 498.73 259.325 501.024 259.325H539.206C541.5 259.325 543.359 257.509 543.359 255.269Z" fill="#2B2E51"/>
<path opacity="0.7" d="M543.359 255.269V214.814C543.359 212.574 541.5 210.758 539.206 210.758H501.024C498.73 210.758 496.87 212.574 496.87 214.814V255.269C496.87 257.509 498.73 259.325 501.024 259.325H539.206C541.5 259.325 543.359 257.509 543.359 255.269Z" fill="white"/>
<path d="M489.594 274.838V243.841C489.594 242.121 488.166 240.727 486.404 240.727H457.148C455.387 240.727 453.959 242.121 453.959 243.841V274.838C453.959 276.559 455.387 277.953 457.148 277.953H486.404C488.166 277.953 489.594 276.559 489.594 274.838Z" fill="#2B2E51"/>
<path opacity="0.3" d="M489.594 274.838V243.841C489.594 242.121 488.166 240.727 486.404 240.727H457.148C455.387 240.727 453.959 242.121 453.959 243.841V274.838C453.959 276.559 455.387 277.953 457.148 277.953H486.404C488.166 277.953 489.594 276.559 489.594 274.838Z" fill="white"/>
<path d="M471.77 78.3075V61.5658C471.77 56.4467 467.52 52.2969 462.279 52.2969L148.328 52.2969C143.086 52.2969 138.837 56.4467 138.837 61.5658V78.3075C138.837 83.4266 143.086 87.5764 148.328 87.5764L462.279 87.5764C467.52 87.5764 471.77 83.4266 471.77 78.3075Z" fill="#2B2E51"/>
<path opacity="0.5" d="M471.77 78.3075V61.5658C471.77 56.4467 467.52 52.2969 462.279 52.2969L148.328 52.2969C143.086 52.2969 138.837 56.4467 138.837 61.5658V78.3075C138.837 83.4266 143.086 87.5764 148.328 87.5764L462.279 87.5764C467.52 87.5764 471.77 83.4266 471.77 78.3075Z" fill="white"/>
<path d="M412.367 93.4731V81.3281H322.026V93.4731H412.367Z" fill="#2B2E51"/>
<path opacity="0.5" d="M412.367 93.4731V81.3281H322.026V93.4731H412.367Z" fill="white"/>
<path d="M504.164 26.1829V9.44089C504.164 4.32176 499.915 0.171875 494.673 0.171875L180.722 0.171875C175.481 0.171875 171.231 4.32176 171.231 9.44089V26.1829C171.231 31.302 175.481 35.4519 180.722 35.4519L494.673 35.4519C499.915 35.4519 504.164 31.302 504.164 26.1829Z" fill="#2B2E51"/>
<path d="M167.642 185.689C166.51 188.201 165.263 190.914 164.17 193.564C163.076 196.214 161.945 198.939 160.955 201.652C158.923 206.941 157.294 212.368 156.081 217.891L155.708 219.901L155.579 220.654C155.579 220.868 155.579 221.144 155.502 221.396C155.453 222.618 155.479 223.843 155.579 225.063C155.823 227.713 156.261 230.551 156.865 233.39C157.945 239.079 159.321 244.945 160.723 250.722L154.126 253.234C151.051 247.759 148.432 242.051 146.294 236.165C145.168 233.102 144.257 229.968 143.568 226.784C143.182 225.022 142.941 223.233 142.848 221.433C142.848 220.931 142.848 220.454 142.848 219.913C142.848 219.373 142.848 218.771 142.938 218.419L143.195 215.907C143.579 212.672 144.168 209.463 144.957 206.299C145.677 203.159 146.603 200.107 147.529 197.093C148.455 194.079 149.612 191.114 150.834 188.201C151.438 186.744 152.12 185.299 152.711 183.855C153.303 182.411 153.997 181.029 154.82 179.484L167.642 185.689Z" fill="#E4897B"/>
<path d="M160.377 249.031L165.392 253.816L154.448 258.84C154.448 258.84 151.799 254.306 153.638 250.212L160.377 249.031Z" fill="#E4897B"/>
<path d="M169.443 260.934L160.196 264.626L154.461 258.786L165.392 253.812L169.443 260.934Z" fill="#E4897B"/>
<path opacity="0.4" d="M356.749 255.785C338.553 253.79 321.372 246.57 307.377 235.04C293.381 223.509 283.201 208.185 278.122 191.005C273.043 173.824 273.293 155.559 278.842 138.517C284.391 121.476 294.988 106.424 309.295 95.2638C323.602 84.1038 340.975 77.337 359.219 75.8187C377.463 74.3005 395.758 78.0991 411.792 86.7343C427.826 95.3694 440.878 108.453 449.299 124.332C457.72 140.211 461.131 158.172 459.102 175.944C457.753 187.752 454.036 199.184 448.161 209.588C442.287 219.992 434.371 229.163 424.866 236.578C415.36 243.993 404.452 249.505 392.764 252.801C381.076 256.097 368.838 257.111 356.749 255.785Z" fill="#FAFAFA"/>
<path opacity="0.4" d="M424.11 94.6751L283.293 204.559C282.702 203.303 282.123 202.047 281.583 200.791C278.053 192.59 275.794 183.92 274.883 175.069L396.513 80.1562C406.498 83.4094 415.835 88.3211 424.11 94.6751Z" fill="#FAFAFA"/>
<path opacity="0.4" d="M456.607 142.812L324.214 246.115C311.636 239.711 300.737 230.566 292.359 219.388L436.919 106.578C446.237 117.024 452.973 129.421 456.607 142.812Z" fill="#FAFAFA"/>
<path d="M262.847 131.357L261.625 130.955C263.741 124.858 266.4 118.953 269.572 113.309L270.691 113.912C267.561 119.493 264.936 125.33 262.847 131.357ZM278.459 102.043L277.417 101.302C287.986 87.3458 301.817 76.0592 317.759 68.3835L318.338 69.5138C302.577 77.1103 288.904 88.2763 278.459 102.081V102.043ZM419.391 71.2345C415.189 69.0331 410.841 67.1073 406.377 65.4697L406.84 64.2891C411.348 65.9651 415.739 67.9286 419.983 70.1669L419.391 71.2345Z" fill="#2B2E51"/>
<path opacity="0.3" d="M262.847 131.357L261.625 130.955C263.741 124.858 266.4 118.953 269.572 113.309L270.691 113.912C267.561 119.493 264.936 125.33 262.847 131.357ZM278.459 102.043L277.417 101.302C287.986 87.3458 301.817 76.0592 317.759 68.3835L318.338 69.5138C302.577 77.1103 288.904 88.2763 278.459 102.081V102.043ZM419.391 71.2345C415.189 69.0331 410.841 67.1073 406.377 65.4697L406.84 64.2891C411.348 65.9651 415.739 67.9286 419.983 70.1669L419.391 71.2345Z" fill="black"/>
<path d="M462.792 119.728C450.884 95.6075 429.929 76.8876 404.27 67.4487C378.612 58.0099 350.219 58.576 324.976 69.0298C299.734 79.4835 279.578 99.0231 268.688 123.598C257.798 148.173 257.009 175.898 266.484 201.026C257.893 203.965 249.406 207.117 240.97 210.37C228.804 215.084 216.75 220.007 204.807 225.14C192.873 230.302 180.991 235.564 169.224 241.065C163.321 243.766 157.495 246.617 151.618 249.38C148.561 250.663 145.791 252.519 143.465 254.843C142.206 256.13 141.098 257.55 140.16 259.076C139.016 260.881 138.149 262.84 137.588 264.891C136.62 268.587 137.039 272.499 138.768 275.92C140.497 279.34 143.422 282.044 147.014 283.542C149.009 284.359 151.114 284.892 153.264 285.124C155.08 285.325 156.914 285.325 158.73 285.124C162.03 284.733 165.22 283.713 168.118 282.123C173.943 279.246 179.807 276.471 185.594 273.519C197.168 267.754 208.742 261.738 220.175 255.634C231.608 249.531 243.053 243.138 254.215 236.582C261.931 232.023 269.725 227.363 277.363 222.49C292.032 245.105 315.047 261.342 341.64 267.837C368.232 274.331 396.364 270.585 420.205 257.374C444.047 244.163 461.77 222.501 469.703 196.875C477.636 171.25 475.171 143.626 462.817 119.728H462.792ZM404.33 239.709C389.385 246.913 372.588 249.628 356.064 247.51C339.539 245.392 324.028 238.536 311.493 227.809C298.958 217.082 289.961 202.965 285.64 187.245C281.319 171.524 281.868 154.905 287.218 139.49C292.567 124.074 302.477 110.553 315.695 100.638C328.912 90.7224 344.843 84.8571 361.473 83.7838C378.103 82.7104 394.686 86.4771 409.124 94.6075C423.563 102.738 435.208 114.867 442.589 129.461C447.49 139.153 450.388 149.694 451.118 160.48C451.848 171.266 450.395 182.087 446.843 192.325C443.29 202.563 437.707 212.017 430.413 220.147C423.118 228.277 414.255 234.924 404.33 239.709Z" fill="#2B2E51"/>
<path opacity="0.3" d="M462.792 119.728C450.884 95.6075 429.929 76.8876 404.27 67.4487C378.612 58.0099 350.219 58.576 324.976 69.0298C299.734 79.4835 279.578 99.0231 268.688 123.598C257.798 148.173 257.009 175.898 266.484 201.026C257.893 203.965 249.406 207.117 240.97 210.37C228.804 215.084 216.75 220.007 204.807 225.14C192.873 230.302 180.991 235.564 169.224 241.065C163.321 243.766 157.495 246.617 151.618 249.38C148.561 250.663 145.791 252.519 143.465 254.843C142.206 256.13 141.098 257.55 140.16 259.076C139.016 260.881 138.149 262.84 137.588 264.891C136.62 268.587 137.039 272.499 138.768 275.92C140.497 279.34 143.422 282.044 147.014 283.542C149.009 284.359 151.114 284.892 153.264 285.124C155.08 285.325 156.914 285.325 158.73 285.124C162.03 284.733 165.22 283.713 168.118 282.123C173.943 279.246 179.807 276.471 185.594 273.519C197.168 267.754 208.742 261.738 220.175 255.634C231.608 249.531 243.053 243.138 254.215 236.582C261.931 232.023 269.725 227.363 277.363 222.49C292.032 245.105 315.047 261.342 341.64 267.837C368.232 274.331 396.364 270.585 420.205 257.374C444.047 244.163 461.77 222.501 469.703 196.875C477.636 171.25 475.171 143.626 462.817 119.728H462.792ZM404.33 239.709C389.385 246.913 372.588 249.628 356.064 247.51C339.539 245.392 324.028 238.536 311.493 227.809C298.958 217.082 289.961 202.965 285.64 187.245C281.319 171.524 281.868 154.905 287.218 139.49C292.567 124.074 302.477 110.553 315.695 100.638C328.912 90.7224 344.843 84.8571 361.473 83.7838C378.103 82.7104 394.686 86.4771 409.124 94.6075C423.563 102.738 435.208 114.867 442.589 129.461C447.49 139.153 450.388 149.694 451.118 160.48C451.848 171.266 450.395 182.087 446.843 192.325C443.29 202.563 437.707 212.017 430.413 220.147C423.118 228.277 414.255 234.924 404.33 239.709Z" fill="black"/>
<path d="M203.188 140.844C203.188 141.585 203.586 142.188 204.088 142.188C204.589 142.188 204.988 141.585 204.988 140.844C204.988 140.103 204.589 139.5 204.088 139.5C203.586 139.5 203.188 140.153 203.188 140.844Z" fill="#263238"/>
<path d="M203.547 142.188C204.457 144.462 205.682 146.605 207.186 148.555C206.666 148.919 206.071 149.167 205.442 149.282C204.813 149.397 204.166 149.376 203.547 149.221V142.188Z" fill="#DE5753"/>
<path d="M200.528 136.706C200.456 136.706 200.385 136.69 200.321 136.659C200.256 136.629 200.199 136.585 200.155 136.53C200.088 136.434 200.061 136.317 200.08 136.202C200.099 136.087 200.163 135.984 200.258 135.914C200.824 135.495 201.486 135.215 202.187 135.1C202.888 134.984 203.607 135.035 204.283 135.249C204.344 135.265 204.4 135.293 204.449 135.332C204.498 135.371 204.538 135.419 204.566 135.474C204.595 135.529 204.611 135.589 204.614 135.651C204.617 135.712 204.607 135.773 204.585 135.831C204.562 135.888 204.527 135.94 204.483 135.984C204.438 136.027 204.385 136.061 204.326 136.083C204.268 136.105 204.205 136.115 204.142 136.112C204.079 136.109 204.018 136.093 203.961 136.065C203.424 135.904 202.855 135.872 202.303 135.97C201.75 136.068 201.23 136.295 200.785 136.63C200.709 136.68 200.619 136.706 200.528 136.706Z" fill="#263238"/>
<path d="M177.213 146.43C178.499 153.174 179.913 165.545 175.078 170.054C175.078 170.054 176.969 176.899 189.816 176.899C203.962 176.899 196.554 170.054 196.554 170.054C188.838 168.245 189.057 162.669 190.394 157.419L177.213 146.43Z" fill="#E4897B"/>
<path d="M169.303 173.611C170.834 171.288 168.262 165.649 168.262 165.649C168.262 165.649 190.998 160.06 200.296 168.638C202.225 170.409 200.09 173.021 200.09 173.021L169.303 173.611Z" fill="#2B2E51"/>
<path opacity="0.1" d="M169.303 173.611C170.834 171.288 168.262 165.649 168.262 165.649C168.262 165.649 190.998 160.06 200.296 168.638C202.225 170.409 200.09 173.021 200.09 173.021L169.303 173.611Z" fill="black"/>
<path d="M131.688 429.863C130.492 429.863 128.576 427.916 128.01 427.188C127.986 427.152 127.973 427.111 127.973 427.068C127.973 427.026 127.986 426.984 128.01 426.949C128.031 426.914 128.061 426.885 128.097 426.865C128.133 426.845 128.174 426.835 128.216 426.836C128.357 426.836 131.508 427.112 132.37 428.205C132.463 428.32 132.53 428.454 132.566 428.597C132.601 428.741 132.604 428.89 132.575 429.034C132.564 429.221 132.494 429.4 132.374 429.546C132.254 429.692 132.091 429.799 131.907 429.85L131.688 429.863ZM128.704 427.351C129.643 428.406 131.148 429.599 131.791 429.449C131.791 429.449 132.048 429.386 132.125 428.984C132.142 428.9 132.139 428.813 132.117 428.731C132.095 428.648 132.054 428.571 131.997 428.507C131.044 427.802 129.898 427.391 128.704 427.326V427.351Z" fill="#2B2E51"/>
<path d="M128.843 427.322C128.613 427.345 128.38 427.345 128.149 427.322C128.108 427.319 128.069 427.305 128.037 427.28C128.005 427.256 127.982 427.222 127.969 427.184C127.951 427.149 127.941 427.111 127.941 427.071C127.941 427.032 127.951 426.993 127.969 426.958C128.059 426.883 129.949 424.961 131.377 424.961C131.548 424.957 131.717 424.989 131.875 425.054C132.032 425.119 132.174 425.216 132.29 425.338C132.418 425.443 132.506 425.587 132.538 425.747C132.571 425.907 132.547 426.073 132.47 426.217C132.097 426.921 130.129 427.322 128.843 427.322ZM128.676 426.883C129.962 426.883 131.827 426.494 132.136 425.941C132.136 425.941 132.226 425.778 132.02 425.577C131.945 425.497 131.853 425.435 131.751 425.393C131.649 425.352 131.539 425.333 131.428 425.338C130.374 425.574 129.416 426.112 128.676 426.883Z" fill="#2B2E51"/>
<path d="M216.549 458.375C215.574 458.368 214.602 458.28 213.643 458.111C213.595 458.102 213.552 458.077 213.522 458.04C213.491 458.003 213.475 457.957 213.476 457.91C213.468 457.866 213.474 457.822 213.493 457.782C213.511 457.742 213.541 457.708 213.579 457.684C213.72 457.608 217.012 455.762 218.594 456.189C218.741 456.221 218.879 456.283 219.001 456.369C219.122 456.455 219.224 456.565 219.301 456.691C219.402 456.831 219.456 456.998 219.456 457.169C219.456 457.34 219.402 457.506 219.301 457.646C218.928 458.211 217.758 458.375 216.549 458.375ZM214.376 457.784C216.125 458.035 218.517 458.023 218.954 457.42C219.018 457.345 219.07 457.206 218.954 456.943C218.856 456.786 218.699 456.674 218.517 456.629C217.514 456.377 215.52 457.206 214.376 457.784Z" fill="#2B2E51"/>
<path d="M213.696 458.118C213.654 458.13 213.61 458.13 213.568 458.118C213.532 458.096 213.504 458.063 213.488 458.025C213.472 457.987 213.468 457.945 213.478 457.904C213.565 456.597 214.079 455.351 214.944 454.35C215.119 454.203 215.324 454.094 215.546 454.031C215.768 453.968 216.001 453.953 216.23 453.986C216.847 453.986 217.027 454.35 217.066 454.589C217.233 455.631 214.982 457.628 213.838 458.13L213.696 458.118ZM215.998 454.35C215.715 454.348 215.441 454.446 215.227 454.626C214.499 455.42 214.049 456.418 213.941 457.477C215.098 456.787 216.641 455.229 216.513 454.601C216.513 454.601 216.513 454.388 216.075 454.35H215.998Z" fill="#2B2E51"/>
<path d="M203.305 457.895H212.757L213.696 436.531H204.243L203.305 457.895Z" fill="#E4897B"/>
<path d="M119.137 421.221L127.033 426.27L144.471 411.89L136.562 406.828L119.137 421.221Z" fill="#E4897B"/>
<path d="M128.33 425.788L120.126 419.219C119.981 419.103 119.799 419.039 119.611 419.039C119.424 419.039 119.242 419.103 119.097 419.219L112.333 424.406C112.169 424.533 112.037 424.695 111.946 424.878C111.856 425.062 111.809 425.263 111.809 425.467C111.809 425.671 111.856 425.873 111.946 426.056C112.037 426.24 112.169 426.402 112.333 426.529C115.239 428.777 116.769 429.731 120.383 432.62C122.608 434.391 128.099 439.817 131.198 442.266C134.297 444.715 137.139 442.077 136.111 440.809C131.494 435.094 129.681 430.209 129.153 427.182C129.062 426.635 128.77 426.139 128.33 425.788Z" fill="#263238"/>
<path d="M212.693 456.828H202.405C202.218 456.829 202.036 456.891 201.889 457.005C201.742 457.119 201.638 457.278 201.595 457.456L199.73 465.658C199.684 465.856 199.684 466.063 199.731 466.262C199.778 466.46 199.87 466.646 200.002 466.805C200.133 466.963 200.3 467.09 200.489 467.177C200.678 467.263 200.885 467.306 201.094 467.303C204.81 467.24 210.186 467.027 214.867 467.027C220.332 467.027 225.065 467.315 231.469 467.315C235.327 467.315 236.433 463.485 234.8 463.146C227.418 461.563 221.374 461.4 214.995 457.544C214.311 457.101 213.514 456.854 212.693 456.828Z" fill="#263238"/>
<path d="M156.454 172.808C148.262 176.576 143.594 201.82 143.594 201.82L163.617 209.62C166.548 202.63 168.917 195.429 170.703 188.08C173.455 176.45 164.838 168.914 156.454 172.808Z" fill="#263238"/>
<path d="M167.076 187.038C162.125 191.936 159.861 201.532 158.871 207.774L163.668 209.645C166.515 202.854 168.837 195.864 170.612 188.734C170.188 186.071 169.133 185.004 167.076 187.038Z" fill="#203048"/>
<path d="M211.083 172.626C211.083 172.626 221.139 183.729 211.649 252.379H161.122C160.775 244.844 165.649 207.856 158.164 172.162C163.748 171.104 169.397 170.408 175.075 170.077C182.227 169.662 189.399 169.662 196.551 170.077C201.455 170.559 206.314 171.411 211.083 172.626Z" fill="#263238"/>
<path d="M215.702 199.284L207.189 184.953C205.545 191.639 204.874 198.518 205.195 205.387C205.427 210.311 210.043 228.547 214.197 231.21C215.299 220.603 215.802 209.944 215.702 199.284Z" fill="#203048"/>
<path d="M216.883 182.438C218.169 188.541 219.455 194.796 220.831 200.925C222.207 207.054 223.634 213.208 225.293 219.149C225.718 220.619 226.116 222.126 226.579 223.532L226.927 224.613L227.094 225.153V225.09C227.004 224.977 226.901 224.964 226.978 225.09C227.507 225.654 228.182 226.066 228.933 226.283C230.149 226.725 231.4 227.065 232.675 227.3C238.755 228.241 244.911 228.632 251.065 228.468L252.287 235.301C250.563 235.841 248.956 236.23 247.258 236.619C245.561 237.009 243.889 237.335 242.179 237.587C238.64 238.162 235.052 238.397 231.466 238.29C229.473 238.237 227.491 237.985 225.551 237.536C223.084 237.009 220.765 235.959 218.761 234.459C217.451 233.427 216.37 232.145 215.584 230.691C215.378 230.315 215.198 229.888 215.031 229.523L214.8 228.933L214.324 227.677C213.668 226.082 213.128 224.512 212.536 222.942C210.363 216.662 208.55 210.32 206.955 203.99C205.36 197.66 203.984 191.342 202.84 184.849L216.883 182.438Z" fill="#E4897B"/>
<path d="M198.469 179.363C195.807 187.791 206.597 212.922 206.597 212.922L228.086 207.647C228.086 207.647 227.263 194.585 222.363 184.224C214.982 168.6 201.659 169.253 198.469 179.363Z" fill="#263238"/>
<path d="M250.885 228.467L261.585 228.203L256.441 239.08C256.441 239.08 252.081 239.645 248.506 233.905L244.738 229.509L249.072 228.668C249.669 228.545 250.276 228.478 250.885 228.467Z" fill="#E4897B"/>
<path d="M268.337 230.225L262.216 239.243L256.441 239.08L261.585 228.203L268.337 230.225Z" fill="#E4897B"/>
<path d="M213.695 436.531L213.206 447.546H203.754L204.243 436.531H213.695Z" fill="#CE6F64"/>
<path d="M136.559 406.828L144.468 411.89L135.466 419.3L127.57 414.251L136.559 406.828Z" fill="#CE6F64"/>
<path d="M177.803 139.246C178.369 148.376 178.227 153.765 182.947 158.449C190.046 165.52 201.607 161.338 203.844 152.169C205.863 143.956 204.603 130.391 195.447 126.749C193.427 125.952 191.232 125.67 189.07 125.929C186.907 126.188 184.847 126.979 183.084 128.228C181.32 129.477 179.91 131.144 178.986 133.071C178.063 134.998 177.655 137.123 177.803 139.246Z" fill="#E4897B"/>
<path d="M166.795 137.642C169.122 145.968 174.601 155.564 181.687 156.179C190.483 156.933 194.457 148.053 195.614 138.885C200.887 135.356 198.122 131.475 203.407 130.985C210.197 130.357 208.024 118.225 199.086 116.278C199.086 116.278 202.083 121.741 195.794 118.978C189.814 116.202 183.169 115.077 176.581 115.725C176.581 115.725 184.606 119.644 176.761 121.39C168.917 123.135 166.576 127.858 170.19 130.709C170.19 130.721 165.264 132.166 166.795 137.642Z" fill="#263238"/>
<path d="M190.252 140.767C190.425 143.037 191.361 145.187 192.914 146.884C194.972 149.107 197.119 147.725 197.479 145.025C197.814 142.601 197.132 138.519 194.611 137.288C192.091 136.058 190.085 138.029 190.252 140.767Z" fill="#E4897B"/>
<path d="M193.723 252.38C193.723 252.38 202.93 317.501 195.677 343.6C184.181 384.921 140.225 419.798 140.225 419.798L125.32 410.253C125.32 410.253 162.756 380.801 167.334 346.199C171.449 315.14 161.123 277.574 161.123 252.367L193.723 252.38Z" fill="#2B2E51"/>
<path opacity="0.1" d="M193.723 252.38C193.723 252.38 202.93 317.501 195.677 343.6C184.181 384.921 140.225 419.798 140.225 419.798L125.32 410.253C125.32 410.253 162.756 380.801 167.334 346.199C171.449 315.14 161.123 277.574 161.123 252.367L193.723 252.38Z" fill="black"/>
<path d="M197.532 289.606C195.081 286.863 192.382 284.341 189.469 282.07C191.038 303.208 192.324 334.519 190.896 356.762C192.815 352.498 194.414 348.103 195.68 343.612C199.217 330.864 198.844 308.847 197.532 289.606Z" fill="#2B2E51"/>
<path opacity="0.3" d="M197.532 289.606C195.081 286.863 192.382 284.341 189.469 282.07C191.038 303.208 192.324 334.519 190.896 356.762C192.815 352.498 194.414 348.103 195.68 343.612C199.217 330.864 198.844 308.847 197.532 289.606Z" fill="black"/>
<path d="M146.231 416.548C146.295 416.548 140.457 420.316 140.457 420.316L124.176 409.892L129.32 405.734L146.231 416.548Z" fill="#2B2E51"/>
<path opacity="0.3" d="M146.231 416.548C146.295 416.548 140.457 420.316 140.457 420.316L124.176 409.892L129.32 405.734L146.231 416.548Z" fill="black"/>
<path d="M211.651 252.383C211.651 252.383 225.874 311.287 226.877 339.433C228.009 370.983 216.731 445.41 216.731 445.41H200.72C200.72 445.41 198.752 370.405 198.045 341.669C197.261 310.333 178.434 252.383 178.434 252.383H211.651Z" fill="#2B2E51"/>
<path opacity="0.1" d="M211.651 252.383C211.651 252.383 225.874 311.287 226.877 339.433C228.009 370.983 216.731 445.41 216.731 445.41H200.72C200.72 445.41 198.752 370.405 198.045 341.669C197.261 310.333 178.434 252.383 178.434 252.383H211.651Z" fill="black"/>
<path d="M219.804 439.195C219.881 439.195 218.904 445.676 218.904 445.676H199.434L198.906 439.886L219.804 439.195Z" fill="#2B2E51"/>
<path opacity="0.3" d="M219.804 439.195C219.881 439.195 218.904 445.676 218.904 445.676H199.434L198.906 439.886L219.804 439.195Z" fill="black"/>
<path d="M457.817 195.773C458.91 196.778 459.771 197.632 460.672 198.587C461.572 199.541 462.421 200.471 463.244 201.438C464.915 203.359 466.484 205.381 468.002 207.416C471.033 211.498 473.729 215.806 476.065 220.302L476.541 221.219C476.773 221.663 476.967 222.125 477.12 222.601C477.43 223.52 477.62 224.473 477.685 225.439C477.769 227.142 477.529 228.845 476.978 230.463C476.039 233.15 474.643 235.663 472.85 237.898C469.619 241.951 465.807 245.53 461.533 248.523L458.331 244.931C459.836 243.211 461.405 241.365 462.806 239.518C464.233 237.729 465.522 235.84 466.664 233.866C467.731 232.144 468.521 230.272 469.005 228.315C469.171 227.615 469.202 226.891 469.095 226.18C469.049 225.941 468.971 225.709 468.863 225.489C468.815 225.393 468.759 225.301 468.696 225.213L468.285 224.535C465.805 220.585 463.113 216.766 460.222 213.093C458.794 211.247 457.264 209.476 455.721 207.73C454.962 206.851 454.177 205.997 453.393 205.143C452.608 204.289 451.76 203.435 451.078 202.769L457.817 195.773Z" fill="#E4897B"/>
<path d="M459.567 243.876L449.961 242.344L454.989 250.558C454.989 250.558 461.175 250.344 462.937 246.79L459.567 243.876Z" fill="#E4897B"/>
<path d="M442.859 246.137L447.438 252.806L454.986 250.558L449.958 242.344L442.859 246.137Z" fill="#E4897B"/>
<path d="M459.101 458.256C458.448 458.311 457.796 458.137 457.262 457.766C457.101 457.618 456.982 457.431 456.917 457.224C456.851 457.017 456.842 456.797 456.889 456.586C456.898 456.451 456.945 456.321 457.024 456.211C457.104 456.1 457.213 456.012 457.339 455.958C458.458 455.468 461.39 457.302 461.724 457.515C461.763 457.538 461.792 457.573 461.808 457.613C461.824 457.654 461.827 457.699 461.814 457.741C461.81 457.784 461.791 457.825 461.761 457.856C461.73 457.888 461.691 457.909 461.647 457.917C460.814 458.124 459.96 458.237 459.101 458.256ZM457.815 456.309C457.721 456.295 457.626 456.295 457.532 456.309C457.475 456.335 457.427 456.376 457.393 456.427C457.359 456.478 457.34 456.537 457.339 456.598C457.305 456.739 457.308 456.885 457.349 457.023C457.39 457.162 457.466 457.288 457.571 457.39C458.059 457.817 459.32 457.879 461.004 457.553C460.039 456.93 458.954 456.507 457.815 456.309Z" fill="#2B2E51"/>
<path d="M461.673 457.9H461.557C460.644 457.385 458.882 455.388 459.101 454.296C459.142 454.124 459.24 453.969 459.379 453.856C459.518 453.743 459.691 453.677 459.872 453.668C460.046 453.643 460.223 453.658 460.39 453.71C460.557 453.762 460.71 453.851 460.837 453.969C461.891 454.873 461.904 457.586 461.904 457.737C461.902 457.775 461.89 457.812 461.87 457.845C461.85 457.878 461.822 457.905 461.788 457.925L461.673 457.9ZM460.027 454.132H459.924C459.641 454.132 459.576 454.283 459.551 454.396C459.422 455.037 460.515 456.569 461.428 457.285C461.451 456.231 461.141 455.197 460.541 454.321C460.464 454.251 460.372 454.198 460.273 454.165C460.173 454.133 460.067 454.121 459.962 454.132H460.027Z" fill="#2B2E51"/>
<path d="M415.276 458.25C414.455 458.327 413.632 458.123 412.948 457.673C412.794 457.539 412.675 457.371 412.601 457.183C412.527 456.995 412.501 456.793 412.524 456.593C412.532 456.471 412.572 456.353 412.639 456.249C412.707 456.146 412.8 456.061 412.909 456.003C414.105 455.35 417.938 457.258 418.375 457.497C418.415 457.522 418.447 457.558 418.468 457.6C418.488 457.642 418.496 457.689 418.491 457.736C418.483 457.78 418.462 457.82 418.43 457.852C418.397 457.883 418.356 457.904 418.311 457.911C417.312 458.118 416.296 458.232 415.276 458.25ZM413.565 456.304C413.418 456.294 413.271 456.325 413.141 456.392C413.095 456.413 413.056 456.447 413.028 456.489C413.001 456.532 412.987 456.58 412.987 456.63C412.967 456.761 412.98 456.895 413.025 457.019C413.07 457.144 413.145 457.256 413.244 457.346C413.835 457.861 415.417 457.949 417.552 457.597C416.307 456.95 414.959 456.513 413.565 456.304Z" fill="#2B2E51"/>
<path d="M418.272 457.898H418.169C417.024 457.396 414.748 455.386 414.928 454.294C414.928 454.043 415.16 453.729 415.79 453.666C416.02 453.642 416.253 453.664 416.474 453.731C416.695 453.798 416.9 453.908 417.076 454.055C418.285 455.035 418.516 457.572 418.516 457.685C418.521 457.723 418.515 457.762 418.499 457.797C418.484 457.833 418.458 457.863 418.426 457.886C418.377 457.906 418.323 457.91 418.272 457.898ZM415.97 454.13H415.828C415.417 454.13 415.391 454.331 415.378 454.382C415.275 455.022 416.818 456.617 417.95 457.308C417.839 456.234 417.389 455.221 416.664 454.407C416.469 454.244 416.226 454.147 415.97 454.13Z" fill="#2B2E51"/>
<path d="M433.472 166.898C433.099 172.575 432.096 184.105 436.558 187.295C436.558 187.295 435.748 193.11 425.216 194.467C413.642 195.936 418.927 189.556 418.927 189.556C425.061 187.27 424.277 182.711 422.605 178.541L433.472 166.898Z" fill="#E4897B"/>
<path d="M409.516 156.864C409.452 156.864 409.39 156.85 409.332 156.824C409.274 156.798 409.223 156.76 409.182 156.713C408.814 156.287 408.349 155.951 407.824 155.733C407.299 155.515 406.729 155.421 406.159 155.457C406.099 155.468 406.038 155.467 405.978 155.453C405.918 155.44 405.862 155.415 405.813 155.38C405.764 155.344 405.722 155.3 405.691 155.248C405.66 155.197 405.64 155.14 405.632 155.08C405.618 154.962 405.651 154.843 405.726 154.749C405.801 154.655 405.91 154.594 406.031 154.578C406.757 154.518 407.487 154.631 408.159 154.906C408.831 155.182 409.424 155.612 409.889 156.16C409.945 156.226 409.98 156.305 409.992 156.39C410.003 156.474 409.99 156.56 409.954 156.637C409.918 156.715 409.86 156.781 409.787 156.827C409.714 156.874 409.629 156.9 409.542 156.901L409.516 156.864Z" fill="#263238"/>
<path d="M407.506 162.422C407.05 164.223 406.345 165.956 405.41 167.571C405.839 167.797 406.314 167.928 406.801 167.954C407.288 167.98 407.775 167.901 408.227 167.722L407.506 162.422Z" fill="#DE5753"/>
<path d="M408.024 161.046C408.127 161.799 407.805 162.452 407.304 162.528C406.802 162.603 406.301 162.025 406.211 161.272C406.121 160.518 406.429 159.865 406.931 159.802C407.433 159.739 407.934 160.242 408.024 161.046Z" fill="#263238"/>
<path d="M407.162 159.812L405.246 159.523C405.246 159.523 406.378 160.816 407.162 159.812Z" fill="#263238"/>
<path d="M428.87 457.697H419.225L418.582 435.906H428.227L428.87 457.697Z" fill="#E4897B"/>
<path d="M472.658 457.697H463.013L459.914 435.906H469.559L472.658 457.697Z" fill="#E4897B"/>
<path d="M462.42 456.648H473.249C473.433 456.647 473.612 456.711 473.752 456.829C473.891 456.947 473.982 457.11 474.007 457.289L475.293 465.667C475.317 465.878 475.294 466.091 475.228 466.294C475.161 466.496 475.051 466.682 474.905 466.84C474.759 466.997 474.581 467.123 474.382 467.209C474.183 467.295 473.968 467.338 473.75 467.337C469.982 467.274 468.156 467.061 463.398 467.061C460.466 467.061 456.183 467.35 452.145 467.35C448.107 467.35 447.889 463.443 449.573 463.092C457.122 461.509 458.318 459.324 460.852 457.226C461.294 456.868 461.846 456.664 462.42 456.648Z" fill="#263238"/>
<path d="M418.903 456.648H429.719C429.905 456.646 430.085 456.71 430.227 456.828C430.369 456.946 430.462 457.109 430.49 457.289L431.776 465.667C431.8 465.878 431.777 466.091 431.71 466.294C431.643 466.496 431.534 466.682 431.388 466.84C431.242 466.997 431.064 467.123 430.865 467.209C430.666 467.295 430.451 467.338 430.233 467.337C426.465 467.274 424.639 467.061 419.881 467.061C416.949 467.061 410.879 467.35 406.841 467.35C402.803 467.35 402.584 463.443 404.269 463.092C411.817 461.509 414.788 459.324 417.334 457.226C417.777 456.868 418.329 456.664 418.903 456.648Z" fill="#263238"/>
<path d="M418.582 435.906L418.916 447.147H428.561L428.227 435.906H418.582Z" fill="#CE6F64"/>
<path d="M469.559 435.906H459.914L461.522 447.147H471.154L469.559 435.906Z" fill="#CE6F64"/>
<path d="M433.603 155.144C434.258 164.464 434.734 168.395 430.593 173.758C424.356 181.808 412.499 180.565 409.001 171.623C405.851 163.572 405.31 149.694 414.081 144.82C416.01 143.741 418.19 143.16 420.414 143.134C422.638 143.108 424.831 143.637 426.787 144.671C428.742 145.705 430.395 147.21 431.588 149.043C432.781 150.876 433.474 152.976 433.603 155.144Z" fill="#E4897B"/>
<path d="M439.155 163.795C444.505 166.708 448.479 159.524 448.479 159.524C448.479 159.524 438.885 160.542 439.747 154.965C440.878 147.568 435.451 138.575 421.846 139.731C421.087 139.793 420.367 139.881 419.659 139.994C418.235 139.335 416.624 139.165 415.088 139.511C413.552 139.858 412.181 140.701 411.197 141.903C407.339 142.217 402.131 146.714 405.668 152.654C405.916 151.972 406.301 151.344 406.799 150.808C407.095 154.287 410.207 159.813 414.091 160.177C414.927 164.938 411.686 170.451 412.805 175.425C414.464 182.596 426.848 184.216 426.848 184.216C426.421 183.321 426.262 182.325 426.389 181.345C426.517 180.365 426.926 179.44 427.568 178.678C435.979 182.445 441.521 178.765 441.521 178.765C435.786 176.681 437.522 172.963 437.522 172.963C439.502 173.822 441.746 173.897 443.782 173.173C445.819 172.45 447.488 170.983 448.44 169.082C446.535 169.17 444.644 168.718 442.997 167.78C441.349 166.842 440.015 165.457 439.155 163.795Z" fill="#263238"/>
<path d="M417.449 161.608C417.471 162.502 417.313 163.392 416.982 164.226C416.65 165.06 416.154 165.822 415.52 166.468C413.822 168.189 411.739 166.983 411.173 164.785C410.672 162.801 410.954 159.523 413.166 158.619C413.653 158.432 414.18 158.367 414.699 158.429C415.218 158.492 415.713 158.681 416.139 158.978C416.564 159.275 416.907 159.671 417.136 160.13C417.365 160.589 417.472 161.097 417.449 161.608Z" fill="#E4897B"/>
<path d="M425.461 248.434C425.461 248.434 427.904 310.428 433.717 346.826C438.398 376.24 459.193 444.966 459.193 444.966H472.336C472.336 444.966 461.495 378.589 459.116 349.513C453.097 275.927 468.722 260.127 453.972 244.805L425.461 248.434Z" fill="#263238"/>
<path d="M436.445 268.039C436.445 268.039 430.503 267.035 427.031 278.087C428.317 299.024 430.516 326.805 433.718 346.825C434.426 351.284 435.506 356.659 436.831 362.55C434.323 327.182 436.445 268.039 436.445 268.039Z" fill="#161F33"/>
<path d="M415.213 249.737C415.213 249.737 404.385 318.325 405.015 347.023C405.671 376.877 416.872 444.988 416.872 444.988H429.899C429.899 444.988 427.841 378.648 428.986 349.334C430.272 317.37 443.633 246.133 443.633 246.133L415.213 249.737Z" fill="#263238"/>
<path d="M474.238 445.571H456.762L455.398 439.844L474.11 439.969L474.238 445.571Z" fill="#2B2E51"/>
<path opacity="0.2" d="M474.238 445.571H456.762L455.398 439.844L474.11 439.969L474.238 445.571Z" fill="black"/>
<path d="M453.314 187.308C458.342 187.785 465.981 201.739 465.981 201.739L453.288 211.246C453.288 211.246 442.781 202.241 444.029 197.18C445.328 191.917 448.491 186.868 453.314 187.308Z" fill="#2B2E51"/>
<path opacity="0.1" d="M453.314 187.308C458.342 187.785 465.981 201.739 465.981 201.739L453.288 211.246C453.288 211.246 442.781 202.241 444.029 197.18C445.328 191.917 448.491 186.868 453.314 187.308Z" fill="black"/>
<path d="M449.522 193.313C448.24 192.976 446.913 192.832 445.587 192.886C444.912 194.259 444.39 195.699 444.031 197.181C442.745 202.205 453.29 211.248 453.29 211.248L454.229 210.545L449.522 193.313Z" fill="#2B2E51"/>
<path opacity="0.3" d="M449.522 193.313C448.24 192.976 446.913 192.832 445.587 192.886C444.912 194.259 444.39 195.699 444.031 197.181C442.745 202.205 453.29 211.248 453.29 211.248L454.229 210.545L449.522 193.313Z" fill="black"/>
<path d="M410.903 206.713C407.238 215.769 403.38 224.975 400.307 234.055C400.101 234.633 399.934 235.186 399.754 235.751L399.316 237.145C399.197 237.556 399.197 237.99 399.316 238.401C400.042 239.971 401.194 241.318 402.647 242.294C406.492 244.989 410.681 247.18 415.108 248.813L413.951 253.435C408.505 252.733 403.238 251.056 398.416 248.486C395.448 246.938 393.032 244.547 391.485 241.629C390.596 239.764 390.288 237.685 390.597 235.65C390.627 235.401 390.669 235.154 390.726 234.909L390.854 234.382L391.073 233.427C391.227 232.787 391.382 232.171 391.549 231.543C392.835 226.52 394.481 221.747 396.217 217.012C397.953 212.277 399.766 207.605 401.811 202.945L410.903 206.713Z" fill="#E4897B"/>
<path d="M403.097 194.002C403.097 194.002 398.751 196.149 415.211 249.741L454.023 244.793C451.297 229.445 450.011 219.937 453.316 187.308C447.75 186.918 442.163 186.918 436.598 187.308C430.672 187.644 424.78 188.4 418.967 189.568C411.521 191.188 403.097 194.002 403.097 194.002Z" fill="#2B2E51"/>
<path opacity="0.1" d="M403.097 194.002C403.097 194.002 398.751 196.149 415.211 249.741L454.023 244.793C451.297 229.445 450.011 219.937 453.316 187.308C447.75 186.918 442.163 186.918 436.598 187.308C430.672 187.644 424.78 188.4 418.967 189.568C411.521 191.188 403.097 194.002 403.097 194.002Z" fill="black"/>
<path d="M454.307 242.493L456.531 245.645C456.699 245.896 456.416 246.197 455.979 246.26L415.277 251.46C414.929 251.46 414.608 251.372 414.556 251.158L413.759 247.805C413.695 247.579 413.978 247.34 414.364 247.29L453.664 242.266C453.782 242.248 453.903 242.259 454.015 242.299C454.127 242.338 454.228 242.405 454.307 242.493Z" fill="#2B2E51"/>
<path opacity="0.2" d="M454.307 242.493L456.531 245.645C456.699 245.896 456.416 246.197 455.979 246.26L415.277 251.46C414.929 251.46 414.608 251.372 414.556 251.158L413.759 247.805C413.695 247.579 413.978 247.34 414.364 247.29L453.664 242.266C453.782 242.248 453.903 242.259 454.015 242.299C454.127 242.338 454.228 242.405 454.307 242.493Z" fill="black"/>
<path d="M449.598 247.452L450.653 247.314C450.858 247.314 451 247.163 450.974 247.038L449.894 242.692C449.853 242.618 449.787 242.559 449.707 242.527C449.628 242.495 449.539 242.491 449.457 242.516L448.402 242.641C448.183 242.641 448.042 242.792 448.081 242.93L449.161 247.264C449.187 247.402 449.392 247.477 449.598 247.452Z" fill="#263238"/>
<path d="M424.086 250.669L425.14 250.531C425.346 250.531 425.501 250.38 425.462 250.254L424.382 245.909C424.339 245.836 424.274 245.778 424.195 245.744C424.116 245.71 424.028 245.702 423.944 245.721L422.89 245.859C422.684 245.859 422.53 246.01 422.568 246.135L423.649 250.481C423.674 250.669 423.88 250.744 424.086 250.669Z" fill="#263238"/>
<path d="M404.91 212.184C405.978 217.032 407.482 223.174 409.681 230.948L410.157 211.242L404.91 212.184Z" fill="#2B2E51"/>
<path opacity="0.3" d="M404.91 212.184C405.978 217.032 407.482 223.174 409.681 230.948L410.157 211.242L404.91 212.184Z" fill="black"/>
<path d="M403.096 193.999C398.273 195.895 394.094 212.009 394.094 212.009L410.683 219.896C410.683 219.896 418.695 200.19 415.107 196.347C411.519 192.504 408.651 191.826 403.096 193.999Z" fill="#2B2E51"/>
<path opacity="0.1" d="M403.096 193.999C398.273 195.895 394.094 212.009 394.094 212.009L410.683 219.896C410.683 219.896 418.695 200.19 415.107 196.347C411.519 192.504 408.651 191.826 403.096 193.999Z" fill="black"/>
<path d="M432.121 445.571H414.644L413.281 439.844L432.738 439.969L432.121 445.571Z" fill="#2B2E51"/>
<path opacity="0.2" d="M432.121 445.571H414.644L413.281 439.844L432.738 439.969L432.121 445.571Z" fill="black"/>
<path d="M415.379 247.256L413.978 246.691C413.633 246.554 413.258 246.509 412.889 246.559C412.521 246.61 412.173 246.755 411.88 246.979C411.588 247.204 411.361 247.5 411.224 247.837C411.086 248.175 411.042 248.542 411.097 248.901L412.113 255.445C412.162 255.772 412.284 256.085 412.472 256.361C412.66 256.636 412.908 256.868 413.198 257.038C413.488 257.209 413.814 257.315 414.151 257.347C414.488 257.38 414.829 257.339 415.148 257.228C415.658 257.047 416.135 256.789 416.563 256.462C417.028 256.085 417.396 255.607 417.637 255.066C417.878 254.525 417.986 253.936 417.951 253.347L417.81 250.634C417.786 249.901 417.543 249.191 417.111 248.591C416.679 247.991 416.077 247.527 415.379 247.256Z" fill="#E4897B"/>
</svg>
