<svg width="649" height="545" viewBox="0 0 649 545" fill="none" xmlns="http://www.w3.org/2000/svg">
<path d="M101.191 495.908C226.437 561.341 429.51 561.341 554.771 495.908C680.032 430.474 680.017 324.393 554.771 258.96C429.525 193.526 226.438 193.511 101.177 258.96C-24.0844 324.408 -24.0695 430.474 101.191 495.908Z" fill="#FAFAFA"/>
<path d="M432.785 507.927C458.107 507.927 478.635 498.142 478.635 486.071C478.635 474 458.107 464.215 432.785 464.215C407.463 464.215 386.936 474 386.936 486.071C386.936 498.142 407.463 507.927 432.785 507.927Z" fill="#F0F0F0"/>
<path d="M74.2539 108.12V183.316C74.2539 185.783 75.988 186.799 78.1407 185.558L252.72 84.7545C253.849 84.0162 254.79 83.0228 255.465 81.8542C256.14 80.6857 256.531 79.3748 256.607 78.0273V2.77206C256.607 0.305412 254.858 -0.711147 252.72 0.529653L78.1407 101.333C77.0006 102.075 76.0534 103.077 75.3775 104.257C74.7016 105.438 74.3165 106.762 74.2539 108.12V108.12Z" fill="#F0F0F0"/>
<path d="M86.4076 106.939L138.73 76.7416C141.137 75.3513 143.066 76.4725 143.066 79.2381V131.815C142.984 133.315 142.548 134.773 141.795 136.073C141.041 137.372 139.991 138.474 138.73 139.29L86.4076 169.503C84.0157 170.878 82.0723 169.757 82.0723 166.991V114.444C82.1533 112.94 82.5881 111.477 83.3415 110.173C84.0948 108.869 85.1453 107.761 86.4076 106.939V106.939Z" fill="#FAFAFA"/>
<path d="M128.774 102.977L113.212 135.238L105.289 130.664C104.528 130.248 103.635 130.143 102.799 130.371C101.962 130.6 101.247 131.144 100.804 131.89L82.0723 164.195V167.021C82.0723 169.786 84.0157 170.907 86.4076 169.532L138.73 139.319C139.989 138.501 141.037 137.398 141.79 136.099C142.543 134.801 142.98 133.343 143.066 131.845V113.352L132.601 102.379C132.368 102.053 132.048 101.797 131.677 101.642C131.307 101.486 130.9 101.437 130.503 101.499C130.106 101.561 129.734 101.732 129.429 101.993C129.124 102.254 128.897 102.595 128.774 102.977V102.977Z" fill="#2B2E51"/>
<path d="M89.9357 126.177C93.1686 124.068 95.8591 121.227 97.7889 117.884C99.7188 114.541 100.834 110.791 101.043 106.937C101.043 103.693 99.9966 101.346 98.2774 100.09L86.4076 106.937C85.1493 107.755 84.1012 108.858 83.348 110.157C82.5949 111.455 82.1579 112.913 82.0723 114.411V126.924C84.1203 128.12 86.871 127.941 89.9357 126.177Z" fill="#2B2E51"/>
<path d="M162.59 67.8764L241.209 22.4751C243.002 21.4436 244.453 22.1761 244.453 24.1195C244.374 25.2086 244.039 26.2636 243.475 27.1988C242.911 28.134 242.135 28.9229 241.209 29.5013L162.59 74.8876C160.796 75.9191 159.346 75.1866 159.346 73.2432C159.427 72.1567 159.763 71.1047 160.327 70.1723C160.89 69.2399 161.666 68.4533 162.59 67.8764Z" fill="#FAFAFA"/>
<path d="M162.59 83.4115L241.209 38.0102C243.002 36.9787 244.453 37.7112 244.453 39.6547C244.374 40.7437 244.039 41.7988 243.475 42.734C242.911 43.6691 242.135 44.458 241.209 45.0364L162.59 90.4228C160.796 91.4543 159.346 90.7218 159.346 88.7933C159.425 87.7042 159.76 86.6492 160.323 85.714C160.887 84.7788 161.664 83.9899 162.59 83.4115V83.4115Z" fill="#FAFAFA"/>
<path d="M162.59 98.94L241.209 53.5536C243.002 52.5221 244.453 53.2546 244.453 55.1831C244.374 56.2722 244.039 57.3272 243.475 58.2624C242.911 59.1976 242.135 59.9865 241.209 60.5649L162.59 105.951C160.796 106.998 159.346 106.265 159.346 104.322C159.425 103.233 159.76 102.178 160.323 101.242C160.887 100.307 161.664 99.5184 162.59 98.94Z" fill="#FAFAFA"/>
<path d="M162.59 114.475L241.209 69.0883C243.002 68.0568 244.453 68.7894 244.453 70.7328C244.371 71.8193 244.035 72.8713 243.472 73.8037C242.908 74.7361 242.133 75.5227 241.209 76.0996L162.59 121.576C160.796 122.607 159.346 121.875 159.346 119.931C159.413 118.829 159.743 117.759 160.307 116.81C160.871 115.861 161.654 115.06 162.59 114.475V114.475Z" fill="#FAFAFA"/>
<path d="M37.7773 344.71V234.369C37.8492 233.02 38.2387 231.708 38.9142 230.539C39.5897 229.37 40.532 228.377 41.6642 227.641L173.697 151.4C175.835 150.159 177.584 151.16 177.584 153.642V263.983C177.509 265.331 177.118 266.642 176.443 267.81C175.767 268.979 174.827 269.972 173.697 270.711L41.6642 346.953C39.5115 348.193 37.7773 347.192 37.7773 344.71Z" fill="#F0F0F0"/>
<path d="M37.7773 339.191V344.707C37.7773 347.189 39.5115 348.19 41.6642 346.95L173.697 270.708C174.827 269.969 175.767 268.976 176.443 267.807C177.118 266.639 177.509 265.328 177.584 263.98V258.449L37.7773 339.191Z" fill="#2B2E51"/>
<path d="M101.657 239.123L115.111 238.42C116.755 238.33 117.204 239.257 116.113 240.513L100.655 258.093C99.5637 259.334 98.6816 258.99 98.6816 257.346V242.277C98.6875 241.473 98.9974 240.7 99.5493 240.115C100.101 239.53 100.854 239.176 101.657 239.123Z" fill="#2B2E51"/>
<path d="M98.1865 267.734C96.5742 267.755 94.9852 267.347 93.582 266.553C90.2633 264.624 88.4395 260.573 88.4395 255.281C88.4395 244.487 96.0487 231.362 105.407 225.905C110.026 223.229 114.377 222.826 117.725 224.739C121.074 226.653 122.883 230.719 122.883 235.996C122.883 246.804 115.259 259.915 105.915 265.372C103.59 266.821 100.925 267.635 98.1865 267.734V267.734ZM113.136 224.575C110.581 224.676 108.097 225.444 105.93 226.802C96.856 232.034 89.4859 244.816 89.4859 255.281C89.4859 260.244 91.1303 263.936 94.1202 265.656C97.1101 267.375 101.117 266.971 105.407 264.49C114.481 259.242 121.851 246.55 121.851 235.996C121.851 231.033 120.207 227.355 117.217 225.621C115.966 224.921 114.554 224.56 113.121 224.575H113.136Z" fill="#2B2E51"/>
<path d="M45.0575 131.831L36.8802 127.137C32.9784 124.521 27.5517 124.626 21.557 128.094C9.59751 134.971 0 152.416 0 167.067V170.401C0 185.051 19.7033 200.957 19.7033 200.957L27.7461 205.517C27.7461 205.517 22.9174 200 23.4705 198.864C28.8075 188.041 43.0842 157.454 43.0842 145.495V142.161C43.1144 139.748 42.8075 137.343 42.1722 135.015L43.0842 135.539L45.0575 131.831ZM21.5421 165.422C15.5623 168.861 10.7636 166.065 10.7636 159.204C13.9627 158.695 22.0205 144.942 21.5421 140.532C27.5218 137.093 32.3056 139.889 32.3206 146.751C32.118 150.491 31.0365 154.131 29.1637 157.375C27.291 160.619 24.6798 163.376 21.5421 165.422Z" fill="#2B2E51"/>
<g opacity="0.2">
<path opacity="0.2" d="M45.0575 131.831L36.8802 127.137C32.9784 124.521 27.5517 124.626 21.557 128.094C9.59751 134.971 0 152.416 0 167.067V170.401C0 185.051 19.7033 200.957 19.7033 200.957L27.7461 205.517C27.7461 205.517 22.9174 200 23.4705 198.864C28.8075 188.041 43.0842 157.454 43.0842 145.495V142.161C43.1144 139.748 42.8075 137.343 42.1722 135.015L43.0842 135.539L45.0575 131.831ZM21.5421 165.422C15.5623 168.861 10.7636 166.065 10.7636 159.204C13.9627 158.695 22.0205 144.942 21.5421 140.532C27.5218 137.093 32.3056 139.889 32.3206 146.751C32.118 150.491 31.0365 154.131 29.1637 157.375C27.291 160.619 24.6798 163.376 21.5421 165.422Z" fill="black"/>
</g>
<path d="M45.0579 131.831C44.9685 131.767 44.8734 131.712 44.7738 131.666C40.9318 129.514 35.8042 129.813 30.1533 133.072C21.6322 138.005 14.2621 148.335 10.7191 159.203C9.34902 163.338 8.62296 167.659 8.56641 172.015V175.393C8.56641 186.68 21.3481 199.776 27.2232 205.202C27.3504 205.316 27.4852 205.421 27.6269 205.516C27.6269 205.516 27.6269 205.516 27.6269 205.516C27.9723 205.728 28.3583 205.865 28.7599 205.918C29.1615 205.972 29.5698 205.94 29.9585 205.826C30.3472 205.712 30.7077 205.518 31.0168 205.256C31.3258 204.994 31.5766 204.67 31.7529 204.305C36.8357 193.841 51.6207 162.627 51.6207 150.488V147.154C51.7104 139.619 49.154 134.297 45.0579 131.831ZM19.5692 166.334C19.445 165.623 19.385 164.903 19.3898 164.181C19.5872 160.439 20.6649 156.797 22.5352 153.55C24.4054 150.303 27.0156 147.543 30.1533 145.495C30.7801 145.133 31.4351 144.824 32.1117 144.568C37.1347 142.744 40.9318 145.629 40.9318 151.714C40.7305 155.452 39.6494 159.091 37.7764 162.332C35.9035 165.574 33.2916 168.328 30.1533 170.37C24.8762 173.45 20.4811 171.596 19.5692 166.334Z" fill="#2B2E51"/>
<path d="M40.931 151.73C40.7297 155.469 39.6486 159.107 37.7756 162.349C35.9027 165.591 33.2908 168.345 30.1525 170.387C24.8754 173.377 20.4803 171.598 19.5684 166.336C20.2534 166.095 20.9141 165.789 21.5417 165.424C24.6775 163.377 27.2864 160.619 29.1566 157.375C31.0267 154.131 32.1055 150.491 32.3052 146.752C32.3121 146.025 32.247 145.299 32.1109 144.584C37.1339 142.76 40.931 145.646 40.931 151.73Z" fill="#2B2E51"/>
<g opacity="0.2">
<path opacity="0.2" d="M40.933 151.73C40.7316 155.469 39.6505 159.107 37.7776 162.349C35.9046 165.591 33.2927 168.345 30.1545 170.387C24.8773 173.377 20.4822 171.598 19.5703 166.336C20.2553 166.095 20.9161 165.789 21.5436 165.424C24.6794 163.377 27.2883 160.619 29.1585 157.375C31.0287 154.131 32.1075 150.491 32.3072 146.752C32.314 146.025 32.2489 145.299 32.1129 144.584C37.1358 142.76 40.933 145.646 40.933 151.73Z" fill="black"/>
</g>
<path d="M198.005 337.338C198.005 337.338 203.401 302.954 191.412 273.384C179.422 243.814 163.262 241.99 154.89 246.191C146.519 250.392 151.901 266.792 159.375 277.809C169.332 292.265 185.776 323.39 185.238 351.345L198.005 337.338Z" fill="#2B2E51"/>
<path opacity="0.2" d="M198.005 337.338C198.005 337.338 203.401 302.954 191.412 273.384C179.422 243.814 163.262 241.99 154.89 246.191C146.519 250.392 151.901 266.792 159.375 277.809C169.332 292.265 185.776 323.39 185.238 351.345L198.005 337.338Z" fill="black"/>
<path d="M192.624 339.52C192.49 339.516 192.358 339.485 192.236 339.43C192.114 339.374 192.004 339.294 191.913 339.195C191.823 339.096 191.753 338.98 191.708 338.853C191.663 338.727 191.644 338.592 191.652 338.458C193.626 291.383 170.11 256.237 159.96 249.39C159.849 249.315 159.754 249.22 159.68 249.108C159.606 248.997 159.554 248.872 159.529 248.741C159.503 248.61 159.503 248.475 159.53 248.344C159.556 248.213 159.608 248.088 159.683 247.977C159.758 247.866 159.853 247.771 159.965 247.697C160.076 247.623 160.201 247.572 160.332 247.546C160.463 247.521 160.598 247.521 160.729 247.548C160.86 247.574 160.985 247.626 161.096 247.701C173.055 255.684 195.659 291.622 193.67 338.548C193.667 338.681 193.636 338.812 193.582 338.933C193.527 339.054 193.448 339.163 193.351 339.253C193.253 339.344 193.139 339.414 193.014 339.46C192.889 339.505 192.757 339.526 192.624 339.52Z" fill="white"/>
<path d="M195.882 378.162C193.834 373.02 188.542 367.279 174.953 361.15C161.364 355.021 151.138 346.843 149.255 340.923C148.688 339.288 148.614 337.522 149.042 335.845C149.47 334.169 150.381 332.654 151.662 331.49C151.662 331.49 138.85 329.995 137.235 322.147C135.217 312.251 146.414 311.608 146.414 311.608C146.414 311.608 131.719 290.918 127.817 281.709C123.916 272.5 128.415 271.947 137.893 275.46C147.371 278.973 165.43 296.658 168.226 302.055C168.226 302.055 173.114 296.075 178.376 300.007C183.638 303.939 183.893 315.704 180.783 319.949C182.88 319.559 185.045 319.784 187.017 320.599C188.988 321.413 190.681 322.782 191.89 324.539C197.242 331.55 199.006 349.086 199.006 349.086L195.882 378.162Z" fill="#2B2E51"/>
<path d="M196.839 373.379C196.612 373.376 196.392 373.299 196.213 373.158C196.035 373.018 195.908 372.822 195.852 372.602C188.587 342.329 154.098 294.013 132.676 278.645C132.567 278.567 132.474 278.469 132.403 278.356C132.332 278.242 132.284 278.116 132.262 277.984C132.24 277.853 132.244 277.718 132.274 277.587C132.304 277.457 132.359 277.334 132.437 277.225C132.514 277.116 132.613 277.023 132.726 276.952C132.839 276.881 132.965 276.833 133.097 276.811C133.229 276.789 133.364 276.793 133.494 276.823C133.625 276.853 133.748 276.908 133.857 276.986C155.548 292.548 190.47 341.477 197.84 372.123C197.899 372.387 197.852 372.663 197.709 372.892C197.567 373.121 197.34 373.285 197.078 373.349L196.839 373.379Z" fill="white"/>
<path d="M467.439 68.5494C467.262 68.5473 467.087 68.5011 466.931 68.4149L462.73 65.9781C462.615 65.9114 462.513 65.8225 462.432 65.7165C462.35 65.6105 462.29 65.4895 462.256 65.3604C462.221 65.2313 462.212 65.0966 462.229 64.964C462.247 64.8315 462.29 64.7037 462.357 64.5878C462.423 64.472 462.512 64.3705 462.618 64.289C462.724 64.2075 462.845 64.1477 462.974 64.113C463.104 64.0783 463.238 64.0694 463.371 64.0867C463.503 64.1041 463.631 64.1473 463.747 64.2141L467.948 66.6508C468.064 66.7175 468.165 66.8063 468.247 66.9123C468.329 67.0183 468.388 67.1393 468.423 67.2684C468.458 67.3976 468.467 67.5323 468.449 67.6649C468.432 67.7975 468.388 67.9254 468.321 68.0411C468.232 68.1959 468.104 68.3244 467.949 68.4136C467.794 68.5029 467.618 68.5497 467.439 68.5494V68.5494Z" fill="white"/>
<path d="M195.883 157.182V379.599C195.883 382.081 197.617 383.082 199.755 381.842L459.187 232.064C460.316 231.325 461.257 230.332 461.932 229.163C462.607 227.995 462.998 226.684 463.073 225.336V2.91928C463.073 0.437679 461.324 -0.563931 459.187 0.676869L199.755 150.455C198.626 151.193 197.687 152.187 197.015 153.356C196.342 154.524 195.954 155.835 195.883 157.182V157.182Z" fill="#2B2E51"/>
<path d="M226.246 198.264C226.246 206.023 232.031 208.953 239.192 204.827L444.851 86.0841V58.0391L239.192 176.767C232.031 180.908 226.246 190.521 226.246 198.264Z" fill="#F5F5F5"/>
<path d="M462.34 47.9753C469.486 43.8493 475.286 46.7794 475.286 54.5232C475.286 62.267 469.486 71.8944 462.34 76.0204L444.924 86.0813V58.0363L462.34 47.9753Z" fill="#2B2E51"/>
<path d="M456.062 71.6117C455.317 71.6223 454.584 71.4312 453.939 71.0586C453.145 70.527 452.509 69.7908 452.098 68.9278C451.688 68.0647 451.518 67.1068 451.607 66.1552C451.714 63.8154 452.381 61.5354 453.552 59.5065C454.722 57.4776 456.362 55.759 458.334 54.4947C459.087 53.8807 460.009 53.5104 460.977 53.4331C461.946 53.3559 462.915 53.5752 463.755 54.0621C464.596 54.549 465.268 55.2802 465.683 56.1587C466.098 57.0371 466.236 58.021 466.078 58.9795C465.967 61.3185 465.298 63.5971 464.128 65.6254C462.958 67.6537 461.32 69.373 459.351 70.64C458.358 71.2464 457.224 71.5815 456.062 71.6117V71.6117ZM461.608 55.5411C460.806 55.5808 460.028 55.828 459.351 56.2587C457.7 57.3556 456.325 58.8199 455.334 60.5368C454.343 62.2538 453.764 64.1768 453.64 66.1552C453.486 66.7506 453.531 67.3801 453.769 67.9472C454.007 68.5143 454.424 68.9877 454.957 69.2949C455.49 69.602 456.109 69.7259 456.719 69.6475C457.329 69.5692 457.896 69.2929 458.334 68.8611C459.987 67.7658 461.363 66.302 462.354 64.5847C463.345 62.8674 463.924 60.9435 464.045 58.9646C464.121 58.3718 464.04 57.7693 463.809 57.218C463.578 56.6667 463.206 56.1862 462.729 55.8252C462.388 55.63 462.001 55.5318 461.608 55.5411V55.5411Z" fill="white"/>
<path d="M465.331 109.357L266.504 224.078C265.37 224.812 264.427 225.805 263.751 226.974C263.075 228.143 262.687 229.457 262.617 230.805V291.993C262.617 294.475 264.351 295.477 266.504 294.236L465.331 179.469C466.463 178.734 467.405 177.741 468.081 176.572C468.756 175.402 469.146 174.09 469.218 172.742V111.599C469.143 109.117 467.409 108.116 465.331 109.357Z" fill="#2B2E51"/>
<path opacity="0.2" d="M465.331 109.357L266.504 224.078C265.37 224.812 264.427 225.805 263.751 226.974C263.075 228.143 262.687 229.457 262.617 230.805V291.993C262.617 294.475 264.351 295.477 266.504 294.236L465.331 179.469C466.463 178.734 467.405 177.741 468.081 176.572C468.756 175.402 469.146 174.09 469.218 172.742V111.599C469.143 109.117 467.409 108.116 465.331 109.357Z" fill="white"/>
<path d="M338.783 192.55L374.811 171.741C376.605 170.709 378.055 171.442 378.055 173.385C377.974 174.472 377.638 175.524 377.074 176.456C376.511 177.388 375.735 178.175 374.811 178.752L338.783 199.562C336.989 200.593 335.539 199.861 335.539 197.917C335.62 196.831 335.956 195.779 336.52 194.846C337.084 193.914 337.859 193.127 338.783 192.55V192.55Z" fill="white"/>
<path d="M335.539 211.942C335.539 213.886 337.034 214.618 338.783 213.587L447.689 150.709C448.612 150.128 449.385 149.339 449.946 148.404C450.507 147.469 450.84 146.415 450.918 145.328C450.918 143.399 449.424 142.667 447.689 143.698L338.783 206.575C337.859 207.152 337.084 207.939 336.52 208.871C335.956 209.804 335.62 210.856 335.539 211.942Z" fill="white"/>
<path d="M335.539 225.962C335.539 227.905 337.034 228.638 338.783 227.606L447.689 164.729C448.612 164.148 449.385 163.358 449.946 162.423C450.507 161.488 450.84 160.435 450.918 159.347C450.918 157.419 449.424 156.686 447.689 157.718L338.783 220.595C337.859 221.172 337.084 221.958 336.52 222.891C335.956 223.823 335.62 224.875 335.539 225.962Z" fill="white"/>
<path d="M335.539 239.985C335.539 241.929 337.034 242.661 338.783 241.63L447.689 178.752C448.612 178.171 449.385 177.382 449.946 176.447C450.507 175.512 450.84 174.458 450.918 173.371C450.918 171.442 449.424 170.71 447.689 171.741L338.783 234.618C337.859 235.195 337.084 235.982 336.52 236.914C335.956 237.847 335.62 238.899 335.539 239.985V239.985Z" fill="white"/>
<path d="M272.633 227.581L319.514 200.507C321.667 199.282 323.401 200.283 323.401 202.75V249.885C323.328 251.233 322.938 252.545 322.263 253.714C321.587 254.883 320.646 255.876 319.514 256.613L272.633 283.671C270.495 284.912 268.746 283.91 268.746 281.443V234.308C268.818 232.96 269.207 231.648 269.883 230.478C270.558 229.309 271.501 228.316 272.633 227.581V227.581Z" fill="white"/>
<path d="M310.604 224.034L296.657 252.947L289.556 248.85C288.87 248.455 288.054 248.347 287.289 248.552C286.524 248.756 285.871 249.256 285.474 249.942L268.746 278.899V281.425C268.746 283.907 270.495 284.908 272.633 283.668L319.514 256.609C320.646 255.873 321.589 254.881 322.264 253.712C322.94 252.542 323.329 251.23 323.401 249.882V233.333L313.968 223.496C313.754 223.221 313.471 223.009 313.147 222.882C312.823 222.754 312.471 222.716 312.127 222.771C311.783 222.826 311.461 222.972 311.193 223.194C310.925 223.416 310.722 223.707 310.604 224.034V224.034Z" fill="#2B2E51"/>
<path d="M275.787 244.829C278.686 242.938 281.098 240.391 282.827 237.394C284.557 234.396 285.556 231.033 285.744 227.578C285.843 226.431 285.67 225.276 285.239 224.208C284.808 223.141 284.13 222.19 283.262 221.434L272.633 227.578C271.501 228.313 270.558 229.306 269.883 230.475C269.207 231.645 268.818 232.957 268.746 234.305V245.517C270.555 246.564 273.037 246.414 275.787 244.829Z" fill="#2B2E51"/>
<path d="M465.331 200.506L266.504 315.228C265.372 315.963 264.43 316.956 263.754 318.125C263.079 319.294 262.689 320.607 262.617 321.955V383.188C262.617 385.654 264.351 386.656 266.504 385.43L465.331 270.634C466.463 269.898 467.405 268.905 468.081 267.736C468.756 266.567 469.146 265.255 469.218 263.906V202.748C469.143 200.282 467.409 199.31 465.331 200.506Z" fill="#2B2E51"/>
<path opacity="0.2" d="M465.331 200.506L266.504 315.228C265.372 315.963 264.43 316.956 263.754 318.125C263.079 319.294 262.689 320.607 262.617 321.955V383.188C262.617 385.654 264.351 386.656 266.504 385.43L465.331 270.634C466.463 269.898 467.405 268.905 468.081 267.736C468.756 266.567 469.146 265.255 469.218 263.906V202.748C469.143 200.282 467.409 199.31 465.331 200.506Z" fill="white"/>
<path d="M338.783 283.7L374.811 262.905C376.605 261.874 378.055 262.606 378.055 264.535C377.976 265.624 377.641 266.679 377.078 267.614C376.514 268.549 375.737 269.338 374.811 269.916L338.783 290.711C336.989 291.743 335.539 291.01 335.539 289.082C335.618 287.992 335.953 286.937 336.517 286.002C337.08 285.067 337.857 284.278 338.783 283.7Z" fill="white"/>
<path d="M335.539 303.101C335.539 305.03 337.034 305.762 338.783 304.731L447.689 241.854C448.61 241.274 449.382 240.487 449.943 239.554C450.503 238.622 450.838 237.572 450.918 236.487C450.918 234.543 449.424 233.811 447.689 234.842L338.783 297.719C337.857 298.298 337.08 299.087 336.517 300.022C335.953 300.957 335.618 302.012 335.539 303.101Z" fill="white"/>
<path d="M335.539 317.125C335.539 319.053 337.034 319.786 338.783 318.754L447.689 255.877C448.61 255.297 449.382 254.51 449.943 253.578C450.503 252.646 450.838 251.595 450.918 250.51C450.918 248.567 449.424 247.834 447.689 248.866L338.783 311.743C337.857 312.321 337.08 313.11 336.517 314.045C335.953 314.981 335.618 316.036 335.539 317.125Z" fill="white"/>
<path d="M335.539 331.148C335.539 333.077 337.034 333.809 338.783 332.778L447.689 269.9C448.61 269.321 449.382 268.533 449.943 267.601C450.503 266.669 450.838 265.618 450.918 264.534C450.918 262.59 449.424 261.858 447.689 262.889L338.783 325.766C337.857 326.345 337.08 327.134 336.517 328.069C335.953 329.004 335.618 330.059 335.539 331.148Z" fill="white"/>
<path d="M272.633 318.739L319.514 291.665C321.667 290.424 323.401 291.426 323.401 293.908V341.028C323.332 342.377 322.943 343.69 322.267 344.859C321.592 346.029 320.648 347.021 319.514 347.755L272.633 374.829C270.495 376.069 268.746 375.068 268.746 372.586V325.466C268.818 324.117 269.207 322.805 269.883 321.636C270.558 320.467 271.501 319.474 272.633 318.739V318.739Z" fill="white"/>
<path d="M310.604 315.199L296.657 344.111L289.556 340C289.215 339.805 288.839 339.678 288.45 339.628C288.06 339.578 287.665 339.605 287.286 339.708C286.907 339.811 286.552 339.987 286.241 340.227C285.93 340.467 285.67 340.766 285.474 341.106L268.746 370.063V372.59C268.746 375.071 270.495 376.073 272.633 374.832L319.514 347.759C320.646 347.026 321.588 346.036 322.264 344.87C322.94 343.703 323.329 342.393 323.401 341.046V324.483L313.968 314.661C313.757 314.381 313.474 314.165 313.149 314.034C312.824 313.903 312.47 313.863 312.124 313.919C311.779 313.974 311.455 314.122 311.187 314.348C310.919 314.574 310.718 314.868 310.604 315.199V315.199Z" fill="#2B2E51"/>
<path d="M275.787 335.979C278.685 334.091 281.097 331.546 282.827 328.551C284.557 325.556 285.556 322.195 285.744 318.742C285.843 317.595 285.67 316.44 285.239 315.372C284.808 314.305 284.13 313.354 283.262 312.598L272.633 318.742C271.501 319.478 270.558 320.47 269.883 321.639C269.207 322.809 268.818 324.121 268.746 325.469V336.681C270.555 337.713 273.037 337.563 275.787 335.979Z" fill="#2B2E51"/>
<path d="M463.073 12.442V2.91928C463.073 0.437678 461.324 -0.563931 459.187 0.676869L199.77 150.455C198.637 151.19 197.695 152.183 197.02 153.352C196.344 154.522 195.955 155.834 195.883 157.182V166.72L463.073 12.442Z" fill="#2B2E51"/>
<path d="M431.245 20.455C430.409 21.0041 429.714 21.7421 429.215 22.6094C428.716 23.4767 428.429 24.4491 428.375 25.4481C428.375 27.2868 429.661 28.0343 431.245 27.1074C432.086 26.5659 432.787 25.832 433.288 24.9665C433.79 24.1009 434.079 23.1284 434.131 22.1293C434.131 20.2905 432.845 19.5431 431.245 20.455Z" fill="#F5F5F5"/>
<path d="M442.682 13.9384C441.843 14.4858 441.145 15.2231 440.643 16.0905C440.142 16.9579 439.852 17.9312 439.797 18.9314C439.797 20.7702 441.097 21.5027 442.682 20.5908C443.524 20.046 444.224 19.3094 444.725 18.4414C445.227 17.5734 445.516 16.5989 445.567 15.5977C445.567 13.6842 444.282 12.9517 442.682 13.9384Z" fill="#F5F5F5"/>
<path d="M454.12 7.26926C453.278 7.81082 452.578 8.54466 452.076 9.41024C451.575 10.2758 451.286 11.2483 451.234 12.2474C451.234 14.0862 452.52 14.8336 454.12 13.9217C454.956 13.3726 455.651 12.6346 456.15 11.7673C456.648 10.9 456.936 9.92761 456.99 8.92864C456.99 7.08987 455.704 6.3424 454.12 7.26926Z" fill="#F5F5F5"/>
<path d="M467.212 476.204C467.664 477.353 467.975 478.553 468.139 479.777C468.56 481.043 468.658 482.395 468.423 483.709C467.416 485.386 465.815 486.624 463.938 487.177C462.603 487.484 461.217 487.51 459.871 487.253C458.525 486.995 457.247 486.46 456.12 485.682C453.384 484.052 451.336 482.064 447.449 480.973C444.677 480.376 442.066 479.188 439.795 477.49C437.642 475.77 434.772 470.987 438.883 469.88C442.994 468.774 451.949 472.676 460.096 473.035L467.212 476.204Z" fill="#263238"/>
<path d="M466.824 470.824C466.824 470.824 467.302 476.535 467.302 477.238C467.302 479.166 460.186 481.722 458.87 477.238L457.734 471.168L466.824 470.824Z" fill="#F28F8F"/>
<path d="M458.092 345.531C460.539 349.129 462.78 352.862 464.804 356.713C464.804 356.713 465.507 365.025 465.507 370.557C465.507 380.722 463.937 388.571 462.517 408.603C464.83 412.543 466.153 416.985 466.374 421.549C466.972 430.623 466.987 430.519 467.047 472.377C465.685 473.112 464.19 473.567 462.65 473.716C461.109 473.865 459.555 473.704 458.077 473.244L444.623 414.627L443.128 391.62L438.912 363.022L458.092 345.531Z" fill="#37474F"/>
<path d="M426.25 486.685C426.729 487.179 426.564 488.18 426.788 489.825C427.037 491.089 427.102 492.383 426.983 493.667C426.198 495.444 424.781 496.867 423.006 497.658C421.716 498.124 420.344 498.317 418.975 498.227C417.606 498.137 416.271 497.765 415.053 497.135C412.153 495.849 409.866 494.145 405.874 493.532C403.049 493.289 400.311 492.437 397.846 491.036C395.499 489.541 392.046 485.205 395.993 483.561C399.939 481.917 409.836 484.862 417.953 484.204L426.25 486.685Z" fill="#263238"/>
<path d="M428.118 479.511C428.118 479.511 426.623 486.029 426.22 487.479C425.323 490.962 417.594 491.142 417.594 487.12L418.117 477.852L428.118 479.511Z" fill="#F28F8F"/>
<path d="M440.646 347.312C444.518 354.922 448.255 361.634 448.375 369.737C448.659 386.884 441.543 405.765 438.927 418.158C439.706 422.643 439.927 427.207 439.585 431.747C439.062 436.934 427.237 484.07 427.237 484.07C427.237 484.07 420.659 485.445 417.863 482.47L421.182 391.712L422.079 365.356L440.646 347.312Z" fill="#37474F"/>
<path d="M435.324 300.832L437.761 314.331L449.96 313.434L447.403 298.141L435.324 300.832Z" fill="#FFA8A7"/>
<path d="M462.831 312.45C461.62 308.787 456.971 304.796 452.366 305.663C445.45 306.838 438.634 308.538 431.975 310.746C427.715 312.241 423.828 315.963 423.469 329.986L422.139 365.266C423.981 366.904 426.191 368.073 428.582 368.675C435.055 370.454 439.331 371.515 449.167 369.362C461.979 366.567 465.028 358.808 465.028 358.808C465.028 358.808 464.535 340.136 464.146 329.986C463.833 321.36 463.653 314.976 462.831 312.45Z" fill="#455A64"/>
<path d="M430.122 283.6L368.007 266.752C362.386 265.781 360.039 279.504 365.66 280.461L429.449 286.904L430.122 283.6Z" fill="#263238"/>
<path d="M412.258 312.06L399.566 312.449C399.566 312.449 401.479 293.568 402.66 291.086C403.841 288.605 406.667 288.096 409.477 287.304C412.288 286.512 412.273 285.166 412.273 285.166L409.747 284.912C407.534 284.688 406.652 281.922 407.609 280.053C408.072 279.186 408.82 277.811 410.165 278.185L413.514 279.097C413.566 277.619 413.198 276.158 412.452 274.881C411.331 273.64 410.584 274.029 408.341 273.251C406.682 272.668 403.288 271.637 400.553 272.758C397.817 273.879 395.739 279.022 395.036 282.655C394.325 286.855 393.173 290.969 391.598 294.928C389.161 301.655 385.618 315.469 385.244 321C385.08 323.556 385.319 325.081 388.16 325.754C391 326.426 411.899 326.471 411.899 326.471L412.258 312.06Z" fill="#FFA8A7"/>
<path d="M426.295 284.852C426.295 284.852 423.305 289.217 423.724 289.695C424.399 290.145 425.148 290.474 425.936 290.667L426.295 284.852Z" fill="#FFA8A7"/>
<path d="M435.309 271.07C432.469 272.564 427.565 275.151 426.205 285.556C424.815 296.229 426.653 299.668 428.089 301.088C429.075 302.045 434.367 302.104 437.058 301.297C440.377 300.311 447.867 297.455 451.29 291.969C455.311 285.511 456.208 276.87 451.679 273.432C449.374 271.683 446.662 270.549 443.799 270.136C440.936 269.723 438.014 270.044 435.309 271.07V271.07Z" fill="#FFA8A7"/>
<path d="M443.666 399.888L450.139 381.59C455.157 379.811 459.652 376.811 463.22 372.859C463.22 372.859 461.725 378.077 451.499 383.429L444.399 400.74V410.367L443.666 399.888Z" fill="#263238"/>
<path d="M425.624 274.583C426.551 277.14 428.12 283.418 434.668 286.035C434.668 286.035 435.61 282.043 438.958 282.462C442.307 282.88 442.89 287.171 440.827 289.832C438.764 292.493 436.761 291.536 436.761 291.536C436.761 291.536 436.312 297.262 440.14 299.863C441.564 300.703 443.164 301.201 444.814 301.318C446.464 301.434 448.119 301.167 449.647 300.535C451.845 299.534 454.969 294.257 456.793 289.921C460.65 280.772 461.203 273.477 455.298 271.115C454.566 266.959 452.697 265.389 448.93 264.612C440.827 262.953 434.698 268.275 427.896 267.333C424.413 266.84 424.547 271.653 425.624 274.583Z" fill="#263238"/>
<path d="M455.491 272.567L459.318 270.19C458.984 269.724 458.486 269.402 457.924 269.29C457.362 269.178 456.778 269.283 456.291 269.586C455.804 269.888 455.45 270.365 455.302 270.918C455.153 271.472 455.221 272.061 455.491 272.567V272.567Z" fill="#263238"/>
<path d="M409.418 311.808C409.418 311.808 427.282 310.776 431.842 310.746C436.401 310.716 441.245 318.505 438.404 323.812C436.521 327.295 430.646 328.491 423.246 328.85C415.846 329.209 408.386 329.209 408.386 329.209C408.386 329.209 401.734 321.629 409.418 311.808Z" fill="#455A64"/>
<path d="M423.471 328.85C423.471 328.85 434.788 328.701 438.495 323.812C438.495 323.812 437.628 326.802 433.233 328.641C430.083 329.852 426.765 330.568 423.396 330.764L423.471 328.85Z" fill="#37474F"/>
<path d="M368.007 266.752C362.386 265.781 360.039 279.504 365.66 280.461L374.63 281.358C370.982 280.984 373.509 268.232 376.289 268.98L368.007 266.752Z" fill="#455A64"/>
<path d="M594.222 263.082C594.223 265.865 593.386 268.584 591.819 270.883C590.251 273.183 588.028 274.957 585.437 275.974C582.847 276.99 580.01 277.203 577.297 276.583C574.584 275.964 572.121 274.541 570.229 272.5L569.317 271.394C567.189 268.556 566.231 265.01 566.642 261.487C567.052 257.964 568.799 254.733 571.522 252.461C574.246 250.188 577.737 249.048 581.277 249.274C584.816 249.501 588.134 251.078 590.545 253.679L591.487 254.815C593.262 257.206 594.221 260.104 594.222 263.082V263.082Z" fill="#455A64"/>
<path d="M594.222 263.084C594.224 265.867 593.386 268.585 591.819 270.885C590.252 273.185 588.028 274.959 585.437 275.975C582.847 276.992 580.01 277.205 577.297 276.585C574.584 275.965 572.121 274.543 570.229 272.502L569.317 271.396L511.672 201.776L535.965 187.754L590.545 253.651L591.487 254.787C593.268 257.186 594.228 260.096 594.222 263.084V263.084Z" fill="#455A64"/>
<path d="M546.533 243.872C548.954 246.411 552.249 247.937 555.751 248.14C559.254 248.343 562.702 247.208 565.4 244.966C568.099 242.724 569.845 239.54 570.286 236.06C570.727 232.58 569.83 229.061 567.776 226.217V226.217L560.645 217.621C562.777 220.46 563.736 224.009 563.325 227.535C562.914 231.062 561.164 234.295 558.436 236.567C555.709 238.84 552.213 239.978 548.67 239.746C545.128 239.514 541.81 237.93 539.402 235.321L546.533 243.872Z" fill="#2B2E51"/>
<path d="M535.038 78.3097C539.39 78.794 543.597 80.1624 547.401 82.331L529.866 72.1356C518.101 64.0479 501.163 64.5263 482.342 75.3796C446.807 95.9051 417.984 145.821 417.984 186.872C417.984 207.039 424.846 221.45 436.163 228.297L436.402 228.446L455.119 239.225C451.8 237.065 448.906 234.314 446.583 231.107C451.194 231.612 455.857 231.344 460.381 230.315C462.025 229.956 463.685 229.523 465.374 228.985C465.153 228.918 464.938 228.833 464.731 228.73C463.832 228.309 462.971 227.809 462.16 227.235C460.688 226.21 459.378 224.97 458.273 223.558C456.762 221.624 455.534 219.485 454.625 217.204C453.407 217.381 452.178 217.471 450.948 217.474C448.038 217.532 445.151 216.955 442.486 215.784C441.864 215.499 441.259 215.174 440.678 214.813C440.154 214.484 439.631 214.095 439.183 213.706C438.101 208.646 437.575 203.483 437.613 198.308C437.613 157.272 466.435 107.341 502 86.8159C506.541 84.167 511.352 82.012 516.351 80.3876C517.699 80.9381 518.966 81.6671 520.119 82.5553C521.34 83.4918 522.439 84.5765 523.393 85.7843C524.909 87.7232 526.142 89.8674 527.055 92.1528C528.279 91.9815 529.512 91.8965 530.748 91.8986C534.128 91.8079 537.471 92.618 540.435 94.2457C541.185 94.6544 541.9 95.1244 542.573 95.651C542.304 94.455 542.02 93.274 541.676 92.1528C540.325 87.1725 538.076 82.481 535.038 78.3097V78.3097Z" fill="#263238"/>
<path d="M547.402 82.3319L546.385 81.7787C542.851 79.9279 539.003 78.7517 535.038 78.3105C530.783 77.836 526.48 78.0327 522.287 78.8935C520.266 79.2764 518.27 79.7755 516.307 80.3884C511.307 82.0128 506.496 84.1678 501.955 86.8167C466.391 107.342 437.568 157.273 437.568 198.309C437.53 203.484 438.057 208.647 439.138 213.707C439.332 214.619 439.557 215.486 439.781 216.353C441.113 221.644 443.425 226.639 446.598 231.078C448.014 233.032 449.644 234.822 451.456 236.415C452.612 237.431 453.841 238.361 455.134 239.196C466.869 246.775 483.538 246.117 501.925 235.473C537.49 214.948 566.313 165.032 566.313 123.981C566.298 103.455 559.077 89.0292 547.402 82.3319ZM540.375 94.2914C541.125 94.7001 541.84 95.1701 542.513 95.6966C543.64 96.6122 544.668 97.6444 545.578 98.7762C550.063 104.397 552.439 113.143 552.439 124.026C552.439 159.904 526.129 205.53 494.989 223.514C487.141 227.999 479.591 230.45 473.178 230.45C470.503 230.482 467.848 229.973 465.374 228.956C465.153 228.889 464.938 228.804 464.731 228.701C463.832 228.28 462.971 227.78 462.16 227.206C461.151 226.498 460.219 225.687 459.379 224.785V224.785C459.006 224.396 458.647 223.962 458.288 223.529C456.777 221.595 455.549 219.455 454.641 217.175C452.363 211.143 451.277 204.726 451.441 198.279C451.441 197.801 451.441 197.338 451.441 196.784C452.099 161.055 478.126 116.461 508.862 98.7313C509.565 98.3277 510.282 97.9241 511 97.5503C515.956 94.7816 521.369 92.9235 526.981 92.0639C528.204 91.8926 529.438 91.8077 530.673 91.8098C533.333 91.7868 535.971 92.2951 538.432 93.3047C539.106 93.5726 539.756 93.8977 540.375 94.2764V94.2914Z" fill="#455A64"/>
<path opacity="0.6" d="M546.43 119.87C546.43 155.749 520.12 201.374 488.98 219.358C481.132 223.843 473.597 226.295 467.169 226.295C464.498 226.326 461.849 225.818 459.38 224.8V224.8C459.006 224.411 458.648 223.978 458.289 223.544C456.778 221.61 455.55 219.471 454.641 217.191C452.364 211.158 451.278 204.741 451.442 198.295C451.442 197.816 451.442 197.353 451.442 196.8C452.1 161.071 478.127 116.476 508.863 98.7465C509.565 98.3429 510.283 97.9393 511 97.5655C515.957 94.7968 521.369 92.9387 526.981 92.0791C528.205 91.9078 529.439 91.8228 530.674 91.825C533.334 91.802 535.972 92.3103 538.433 93.3199C538.836 93.7235 539.21 94.1571 539.569 94.5906C544.054 100.241 546.43 108.987 546.43 119.87Z" fill="white"/>
</svg>
