<svg width="24" height="24" viewBox="0 0 24 24" fill="none" xmlns="http://www.w3.org/2000/svg">
<g id="Frame 117">
<g id="Frame 118">
<path id="Vector" d="M9.59426 23.9629C8.14522 23.9629 6.69611 23.4402 5.6425 22.5067C5.20328 22.1332 5.24738 21.5359 5.6425 21.1996C6.08173 20.8261 6.78409 20.8636 7.17951 21.1996C7.83804 21.7596 8.71652 22.1331 9.59465 22.0959C10.1215 22.0959 10.8679 21.9466 11.5268 21.3863C11.6147 21.3116 11.6585 21.2743 11.7464 21.2371L19.2989 14.6654C22.6801 11.7901 22.6801 6.89867 19.2989 4.0235C15.9178 1.14827 10.3852 1.14827 6.96018 4.0235C6.52095 4.39701 5.8186 4.39701 5.42317 4.0235C4.98394 3.65 4.98394 3.05273 5.42317 2.71647C9.68245 -0.905491 16.5763 -0.905491 20.8356 2.71647C25.0512 6.30123 25.0512 12.3875 20.8356 15.9721L13.1075 22.6933C13.0637 22.7305 12.9758 22.8053 12.8879 22.8425C12.0098 23.5893 10.8241 24 9.55082 24C9.63811 23.9628 9.63811 23.9628 9.59431 23.9628L9.59426 23.9629Z" fill="#787878"/>
<path id="Vector_2" d="M1.11742 14.4075C0.941901 14.4075 0.722276 14.3702 0.546461 14.2955C0.0196043 14.0339 -0.156211 13.4739 0.151318 13.0259C0.414746 12.6151 0.414746 12.0551 0.151318 11.6443C-0.156219 11.1963 0.0196043 10.636 0.546461 10.3748C1.07332 10.1133 1.73218 10.2628 2.03941 10.7108C2.74208 11.7191 2.74208 12.9514 2.03941 13.9595C1.86389 14.2582 1.51287 14.4075 1.1174 14.4075L1.11742 14.4075Z" fill="#787878"/>
<path id="Vector_3" d="M4.84886 16.1629C4.67335 16.1629 4.49752 16.1256 4.32201 16.0509C3.79516 15.7894 3.61935 15.2294 3.88276 14.7813C4.89266 13.213 4.89266 11.3832 3.88276 9.81488C3.57523 9.36685 3.79485 8.80658 4.32201 8.54532C4.84886 8.2838 5.50771 8.47057 5.81494 8.91885C7.17614 11.0475 7.17614 13.5493 5.81494 15.6777C5.59532 15.9762 5.24399 16.163 4.84887 16.163L4.84886 16.1629Z" fill="#787878"/>
<path id="Vector_4" d="M8.6721 17.9816C8.49659 17.9816 8.32077 17.9444 8.14525 17.8696C7.6184 17.6081 7.44259 17.0481 7.706 16.6001C9.46234 13.9487 9.46234 10.6628 7.706 8.0115C7.39847 7.56348 7.57429 7.00321 8.10114 6.74196C8.628 6.48044 9.28685 6.62995 9.59408 7.07797C11.7018 10.2521 11.7018 14.2476 9.59408 17.4589C9.41856 17.7949 9.06723 17.9817 8.67208 17.9817L8.6721 17.9816Z" fill="#787878"/>
</g>
</g>
</svg>
