<svg width="461" height="380" viewBox="0 0 461 380" fill="none" xmlns="http://www.w3.org/2000/svg">
<path d="M67.5107 344.984C157.53 391.66 303.47 391.67 393.489 344.984C483.509 298.298 483.498 222.628 393.489 175.952C303.48 129.276 157.53 129.276 67.5107 175.952C-22.5089 222.628 -22.4982 298.319 67.5107 344.984Z" fill="#F0F0F0"/>
<path d="M412.599 253.604C412.599 253.604 413.727 247.974 422.88 243.623C431.787 239.357 436.922 240.349 443.035 237.907C449.148 235.465 444.754 223.991 427.994 229.088C412.642 233.759 411.084 246.95 411.084 246.95L412.599 253.604Z" fill="#FF0A54"/>
<path opacity="0.2" d="M412.599 253.604C412.599 253.604 413.727 247.974 422.88 243.623C431.787 239.357 436.922 240.349 443.035 237.907C449.148 235.465 444.754 223.991 427.994 229.088C412.642 233.759 411.084 246.95 411.084 246.95L412.599 253.604Z" fill="black"/>
<path d="M410.991 251.495C410.93 251.505 410.868 251.505 410.808 251.495C410.735 251.47 410.667 251.43 410.609 251.379C410.551 251.328 410.503 251.266 410.47 251.197C410.436 251.127 410.416 251.052 410.411 250.975C410.407 250.898 410.417 250.821 410.443 250.748C412.591 244.649 417.963 239.018 424.968 235.584C433.95 231.223 440.342 232.609 440.61 232.673C440.761 232.707 440.893 232.799 440.975 232.929C441.058 233.059 441.085 233.216 441.051 233.366C441.017 233.516 440.924 233.646 440.793 233.728C440.662 233.81 440.504 233.837 440.353 233.803C440.288 233.803 434.068 232.46 425.484 236.629C418.769 239.893 413.558 245.31 411.517 251.132C411.473 251.236 411.4 251.325 411.307 251.389C411.213 251.453 411.104 251.49 410.991 251.495V251.495Z" fill="#FAFAFA"/>
<path d="M411.279 246.588C411.279 246.588 412.353 243.389 416.489 237.129C423.623 226.273 435.258 221.528 440.351 215.321C445.83 208.625 436.354 204.487 427.834 206.79C422.957 208.134 418.509 212.549 416.178 215.524C411.239 221.994 408.409 229.808 408.066 237.918L411.279 246.588Z" fill="#FF0A54"/>
<path d="M409.677 246.837C409.522 246.831 409.376 246.765 409.269 246.654C409.163 246.542 409.105 246.393 409.108 246.239C409.606 239.195 411.625 232.34 415.027 226.138C421.473 214.653 431.035 210.569 431.443 210.398C431.579 210.367 431.722 210.384 431.846 210.447C431.971 210.51 432.069 210.614 432.123 210.742C432.177 210.87 432.184 211.013 432.142 211.145C432.1 211.277 432.012 211.39 431.894 211.465C425.165 214.809 419.633 220.125 416.048 226.693C412.733 232.729 410.765 239.403 410.279 246.261C410.277 246.338 410.261 246.414 410.23 246.484C410.199 246.555 410.154 246.619 410.098 246.672C410.042 246.726 409.976 246.768 409.904 246.796C409.832 246.824 409.755 246.838 409.677 246.837V246.837Z" fill="#FAFAFA"/>
<path d="M97.2802 256.199C89.5556 251.048 89.2118 237.185 90.3291 228.473C92.1018 214.61 84.9574 211.41 81.3153 217.532C79.5534 220.507 77.3403 226.969 77.5874 234.498C77.9849 246.292 83.131 260.4 95.5934 265.519L97.2802 256.199Z" fill="#FF0A54"/>
<path opacity="0.2" d="M97.2802 256.199C89.5556 251.048 89.2118 237.185 90.3291 228.473C92.1018 214.61 84.9574 211.41 81.3153 217.532C79.5534 220.507 77.3403 226.969 77.5874 234.498C77.9849 246.292 83.131 260.4 95.5934 265.519L97.2802 256.199Z" fill="black"/>
<path d="M95.6897 264.715C95.5633 264.715 95.4413 264.669 95.3459 264.587C82.2711 253.486 80.2191 233.662 83.8504 219.916C83.868 219.846 83.8994 219.78 83.9427 219.722C83.9859 219.664 84.0403 219.615 84.1027 219.578C84.165 219.541 84.2341 219.517 84.306 219.506C84.378 219.495 84.4513 219.499 84.5218 219.516C84.5924 219.534 84.6587 219.565 84.7172 219.608C84.7756 219.651 84.8249 219.705 84.8623 219.767C84.8997 219.829 84.9245 219.897 84.9352 219.969C84.9459 220.04 84.9423 220.113 84.9247 220.183C81.3794 233.609 83.3454 252.974 96.0764 263.777C96.1301 263.822 96.1742 263.877 96.206 263.939C96.2379 264.001 96.2569 264.069 96.2619 264.139C96.2669 264.208 96.2578 264.278 96.2352 264.344C96.2126 264.41 96.1769 264.471 96.1302 264.523C96.078 264.588 96.0106 264.64 95.9339 264.673C95.8571 264.707 95.7733 264.721 95.6897 264.715Z" fill="#FAFAFA"/>
<path d="M108.894 281.786C102.168 286.584 86.7084 290.733 81.6805 282.511C77.007 274.865 80.1334 271.527 70.6469 272.849C61.1604 274.172 58.9795 266.856 61.2249 260.671C63.4703 254.486 54.1234 245.539 60.9455 238.565C67.7676 231.591 71.689 246.094 75.6426 247.661C79.5962 249.229 82.0135 245.849 86.5687 248.312C91.124 250.775 91.5644 260.853 96.0015 261.045C103.264 261.375 115.49 261.322 116.414 267.752C117.338 274.182 108.894 281.786 108.894 281.786Z" fill="#FF0A54"/>
<path d="M111.676 278.948H111.622C76.4371 275.301 62.8251 244.824 61.9871 240.388C61.9745 240.318 61.9758 240.246 61.991 240.176C62.0063 240.107 62.0352 240.041 62.0761 239.983C62.117 239.924 62.1691 239.874 62.2294 239.836C62.2897 239.797 62.3571 239.771 62.4276 239.759C62.4982 239.746 62.5705 239.747 62.6406 239.762C62.7106 239.778 62.7769 239.806 62.8358 239.847C62.8946 239.887 62.9449 239.939 62.9836 239.999C63.0223 240.059 63.0488 240.126 63.0615 240.196C63.878 244.557 77.2107 274.32 111.751 277.892C111.822 277.899 111.89 277.92 111.953 277.953C112.016 277.986 112.071 278.031 112.116 278.086C112.161 278.14 112.194 278.203 112.215 278.27C112.235 278.338 112.242 278.409 112.234 278.479C112.216 278.612 112.149 278.733 112.046 278.82C111.942 278.906 111.811 278.952 111.676 278.948V278.948Z" fill="#FAFAFA"/>
<path d="M73.1998 265.308C70.9793 265.308 68.7625 265.13 66.571 264.775C66.4317 264.749 66.3083 264.669 66.2278 264.553C66.1473 264.438 66.1162 264.295 66.1413 264.156C66.1529 264.087 66.1784 264.021 66.2162 263.962C66.2541 263.903 66.3036 263.852 66.3617 263.812C66.4199 263.772 66.4855 263.744 66.5547 263.73C66.6239 263.716 66.6952 263.716 66.7644 263.73C70.777 264.386 74.8705 264.386 78.8831 263.73C79.024 263.701 79.1706 263.729 79.2912 263.807C79.4118 263.884 79.4967 264.006 79.5277 264.146C79.5418 264.214 79.5422 264.285 79.5288 264.354C79.5153 264.422 79.4884 264.488 79.4495 264.546C79.4106 264.605 79.3605 264.655 79.302 264.694C79.2435 264.733 79.1778 264.761 79.1087 264.775C77.1627 265.154 75.1826 265.332 73.1998 265.308V265.308Z" fill="#FAFAFA"/>
<path d="M83.6999 268.502H83.5817C83.444 268.471 83.3241 268.388 83.2477 268.27C83.1713 268.152 83.1446 268.009 83.1734 267.872C84.2586 263.124 84.5165 258.226 83.9362 253.391C83.9134 253.25 83.9482 253.105 84.0328 252.989C84.1174 252.873 84.245 252.795 84.3874 252.772C84.5299 252.75 84.6756 252.784 84.7925 252.868C84.9093 252.952 84.9878 253.079 85.0106 253.22C85.6332 258.203 85.3714 263.256 84.237 268.15C84.1978 268.258 84.1243 268.351 84.0274 268.414C83.9306 268.478 83.8157 268.508 83.6999 268.502V268.502Z" fill="#FAFAFA"/>
<path d="M17.8558 226.754L34.723 217.093C35.5347 216.688 36.4306 216.477 37.3391 216.477C38.2476 216.477 39.1435 216.688 39.9551 217.093L42.1038 218.319C42.8674 218.811 43.503 219.475 43.9586 220.257C44.4142 221.039 44.6769 221.917 44.7252 222.819V242.142C44.6752 243.044 44.4118 243.921 43.9563 244.703C43.5009 245.485 42.8662 246.149 42.1038 246.642L25.2473 256.304C24.4356 256.709 23.5398 256.92 22.6313 256.92C21.7228 256.92 20.8269 256.709 20.0152 256.304L17.8665 255.077C17.1049 254.584 16.4714 253.92 16.0177 253.138C15.5641 252.356 15.303 251.478 15.2559 250.577V231.254C15.3043 230.355 15.5648 229.479 16.0164 228.697C16.4679 227.916 17.0979 227.25 17.8558 226.754Z" fill="#FF0A54"/>
<path opacity="0.5" d="M17.8558 226.754L34.723 217.093C35.5347 216.688 36.4306 216.477 37.3391 216.477C38.2476 216.477 39.1435 216.688 39.9551 217.093L42.1038 218.319C42.8674 218.811 43.503 219.475 43.9586 220.257C44.4142 221.039 44.6769 221.917 44.7252 222.819V242.142C44.6752 243.044 44.4118 243.921 43.9563 244.703C43.5009 245.485 42.8662 246.149 42.1038 246.642L25.2473 256.304C24.4356 256.709 23.5398 256.92 22.6313 256.92C21.7228 256.92 20.8269 256.709 20.0152 256.304L17.8665 255.077C17.1049 254.584 16.4714 253.92 16.0177 253.138C15.5641 252.356 15.303 251.478 15.2559 250.577V231.254C15.3043 230.355 15.5648 229.479 16.0164 228.697C16.4679 227.916 17.0979 227.25 17.8558 226.754Z" fill="#FAFAFA"/>
<path d="M44.7028 222.814C44.7028 221.15 43.5318 220.478 42.0814 221.31L25.2249 230.971C24.4625 231.464 23.8279 232.129 23.3724 232.91C22.917 233.692 22.6535 234.57 22.6035 235.471V254.794C22.6035 256.447 23.7746 257.119 25.2249 256.298L42.0814 246.636C42.8439 246.144 43.4785 245.479 43.934 244.697C44.3894 243.915 44.6528 243.038 44.7028 242.136V222.814Z" fill="#FF0A54"/>
<path d="M15.2441 250.589C15.2879 251.494 15.5474 252.375 16.0013 253.161C16.4551 253.947 17.0903 254.615 17.8548 255.11L20.0035 256.337C20.7407 256.704 21.5479 256.912 22.372 256.947C23.1961 256.982 24.0183 256.843 24.7844 256.539C23.5489 257.008 22.6357 256.315 22.6357 254.833V235.489C22.6642 234.583 22.9309 233.701 23.4092 232.93L16.0392 228.664C15.5704 229.439 15.3079 230.32 15.2764 231.223L15.2441 250.589Z" fill="#FF0A54"/>
<path opacity="0.1" d="M15.2441 250.589C15.2879 251.494 15.5474 252.375 16.0013 253.161C16.4551 253.947 17.0903 254.615 17.8548 255.11L20.0035 256.337C20.7407 256.704 21.5479 256.912 22.372 256.947C23.1961 256.982 24.0183 256.843 24.7844 256.539C23.5489 257.008 22.6357 256.315 22.6357 254.833V235.489C22.6642 234.583 22.9309 233.701 23.4092 232.93L16.0392 228.664C15.5704 229.439 15.3079 230.32 15.2764 231.223L15.2441 250.589Z" fill="black"/>
<path d="M26.5108 236.793L40.8534 228.55C41.2294 228.326 41.541 228.55 41.541 228.944V238.542C41.5286 238.782 41.46 239.016 41.3407 239.225C41.2213 239.434 41.0545 239.613 40.8534 239.747L26.5108 248.054C26.1241 248.278 25.8125 248.054 25.8125 247.649V238.051C25.8176 237.801 25.8839 237.556 26.0055 237.337C26.1271 237.118 26.3005 236.931 26.5108 236.793V236.793Z" fill="#FAFAFA"/>
<path d="M25.8125 237.218L34.3751 239.98L41.5409 228.164L34.6114 240.971L25.8125 237.218Z" fill="#E0E0E0"/>
<path d="M17.8548 177.988L34.7221 168.327C35.5322 167.917 36.4287 167.703 37.3381 167.703C38.2475 167.703 39.144 167.917 39.9541 168.327L42.1028 169.553C42.8631 170.047 43.4949 170.712 43.9468 171.494C44.3986 172.276 44.6577 173.153 44.7028 174.053V193.376C44.6545 194.277 44.3917 195.154 43.936 195.934C43.4804 196.714 42.8447 197.376 42.0814 197.866L25.2248 207.527C24.4147 207.937 23.5182 208.151 22.6088 208.151C21.6994 208.151 20.8029 207.937 19.9928 207.527L17.8441 206.312C17.082 205.812 16.4493 205.142 15.9976 204.354C15.5458 203.567 15.2877 202.685 15.2441 201.779V182.489C15.2938 181.588 15.5559 180.711 16.0094 179.93C16.4629 179.148 17.095 178.483 17.8548 177.988Z" fill="#FF0A54"/>
<path opacity="0.5" d="M17.8548 177.988L34.7221 168.327C35.5322 167.917 36.4287 167.703 37.3381 167.703C38.2475 167.703 39.144 167.917 39.9541 168.327L42.1028 169.553C42.8631 170.047 43.4949 170.712 43.9468 171.494C44.3986 172.276 44.6577 173.153 44.7028 174.053V193.376C44.6545 194.277 44.3917 195.154 43.936 195.934C43.4804 196.714 42.8447 197.376 42.0814 197.866L25.2248 207.527C24.4147 207.937 23.5182 208.151 22.6088 208.151C21.6994 208.151 20.8029 207.937 19.9928 207.527L17.8441 206.312C17.082 205.812 16.4493 205.142 15.9976 204.354C15.5458 203.567 15.2877 202.685 15.2441 201.779V182.489C15.2938 181.588 15.5559 180.711 16.0094 179.93C16.4629 179.148 17.095 178.483 17.8548 177.988Z" fill="#FAFAFA"/>
<path d="M44.7028 174.064C44.7028 172.4 43.5318 171.728 42.0814 172.56L25.2249 182.221C24.4613 182.713 23.8257 183.377 23.3701 184.159C22.9145 184.941 22.6518 185.819 22.6035 186.721V206.055C22.6035 207.708 23.7746 208.38 25.2249 207.548L42.0814 197.886C42.8448 197.397 43.4804 196.735 43.9361 195.955C44.3918 195.174 44.6546 194.298 44.7028 193.397V174.064Z" fill="#FF0A54"/>
<path d="M15.2441 201.791C15.2938 202.692 15.5559 203.568 16.0094 204.35C16.4629 205.132 17.095 205.797 17.8548 206.291L20.0035 207.507C20.739 207.879 21.5461 208.09 22.3707 208.127C23.1952 208.164 24.0182 208.025 24.7844 207.72C23.5489 208.179 22.6357 207.496 22.6357 206.014V186.723C22.6642 185.818 22.9309 184.936 23.4092 184.164L16.0392 179.898C15.5704 180.674 15.3079 181.554 15.2764 182.458L15.2441 201.791Z" fill="#FF0A54"/>
<path opacity="0.1" d="M15.2441 201.791C15.2938 202.692 15.5559 203.568 16.0094 204.35C16.4629 205.132 17.095 205.797 17.8548 206.291L20.0035 207.507C20.739 207.879 21.5461 208.09 22.3707 208.127C23.1952 208.164 24.0182 208.025 24.7844 207.72C23.5489 208.179 22.6357 207.496 22.6357 206.014V186.723C22.6642 185.818 22.9309 184.936 23.4092 184.164L16.0392 179.898C15.5704 180.674 15.3079 181.554 15.2764 182.458L15.2441 201.791Z" fill="black"/>
<path d="M33.4852 197.519L31.7448 197.327C29.3812 197.136 26.5664 196.261 26.5664 192.859C26.6345 191.624 26.9949 190.423 27.6183 189.352C28.2418 188.281 29.1107 187.371 30.1547 186.696C31.7018 185.811 33.0125 186.173 33.5174 187.453C34.0265 185.555 35.2241 183.91 36.8801 182.835C38.8677 181.705 40.4685 182.622 40.4685 184.893C40.4685 188.178 37.6752 192.358 35.3223 195.248L33.4852 197.519Z" fill="#FAFAFA"/>
<path d="M17.8558 129.27L34.723 119.608C35.5332 119.198 36.4297 118.984 37.3391 118.984C38.2485 118.984 39.145 119.198 39.9551 119.608L42.1038 120.835C42.8672 121.324 43.5028 121.986 43.9585 122.766C44.4142 123.547 44.6769 124.423 44.7252 125.324V144.647C44.6777 145.549 44.4154 146.428 43.9597 147.21C43.5041 147.992 42.868 148.656 42.1038 149.147L25.2473 158.808C24.4371 159.219 23.5407 159.432 22.6313 159.432C21.7218 159.432 20.8254 159.219 20.0152 158.808L17.8665 157.593C17.1067 157.098 16.4746 156.433 16.0211 155.651C15.5677 154.87 15.3055 153.993 15.2559 153.093V133.738C15.3093 132.844 15.5721 131.974 16.0234 131.199C16.4748 130.423 17.1022 129.762 17.8558 129.27V129.27Z" fill="#FF0A54"/>
<path opacity="0.5" d="M17.8558 129.27L34.723 119.608C35.5332 119.198 36.4297 118.984 37.3391 118.984C38.2485 118.984 39.145 119.198 39.9551 119.608L42.1038 120.835C42.8672 121.324 43.5028 121.986 43.9585 122.766C44.4142 123.547 44.6769 124.423 44.7252 125.324V144.647C44.6777 145.549 44.4154 146.428 43.9597 147.21C43.5041 147.992 42.868 148.656 42.1038 149.147L25.2473 158.808C24.4371 159.219 23.5407 159.432 22.6313 159.432C21.7218 159.432 20.8254 159.219 20.0152 158.808L17.8665 157.593C17.1067 157.098 16.4746 156.433 16.0211 155.651C15.5677 154.87 15.3055 153.993 15.2559 153.093V133.738C15.3093 132.844 15.5721 131.974 16.0234 131.199C16.4748 130.423 17.1022 129.762 17.8558 129.27V129.27Z" fill="#FAFAFA"/>
<path d="M25.2249 158.788C23.7746 159.619 22.6035 158.947 22.6035 157.295V137.972C22.651 137.069 22.9133 136.191 23.369 135.409C23.8247 134.626 24.4607 133.963 25.2249 133.472L42.0814 123.81C43.5318 122.978 44.7028 123.65 44.7028 125.303V144.626C44.6554 145.528 44.393 146.407 43.9374 147.189C43.4817 147.971 42.8457 148.635 42.0814 149.126" fill="#FF0A54"/>
<path d="M15.2441 153.065C15.2938 153.966 15.5559 154.843 16.0094 155.624C16.4629 156.406 17.095 157.071 17.8548 157.566L20.0035 158.781C20.739 159.153 21.5461 159.364 22.3707 159.401C23.1952 159.438 24.0182 159.299 24.7844 158.995C23.5489 159.453 22.6357 158.771 22.6357 157.288V137.965C22.6642 137.06 22.9309 136.178 23.4092 135.406L16.0392 131.141C15.5704 131.916 15.3079 132.796 15.2764 133.7L15.2441 153.065Z" fill="#FF0A54"/>
<path opacity="0.1" d="M15.2441 153.065C15.2938 153.966 15.5559 154.843 16.0094 155.624C16.4629 156.406 17.095 157.071 17.8548 157.566L20.0035 158.781C20.739 159.153 21.5461 159.364 22.3707 159.401C23.1952 159.438 24.0182 159.299 24.7844 158.995C23.5489 159.453 22.6357 158.771 22.6357 157.288V137.965C22.6642 137.06 22.9309 136.178 23.4092 135.406L16.0392 131.141C15.5704 131.916 15.3079 132.796 15.2764 133.7L15.2441 153.065Z" fill="black"/>
<path d="M30.5762 141.007C30.5762 141.007 32.5422 136.507 32.7249 135.856C32.8225 134.742 32.8225 133.622 32.7249 132.508C32.7249 132.081 34.519 130.876 35.0992 132.113C35.6573 133.429 35.763 134.891 35.4 136.272L39.7726 133.745C40.6965 133.212 41.0726 133.958 41.0833 134.555C41.0533 135.236 40.8049 135.89 40.3742 136.421C40.3742 136.421 41.2552 136.165 41.2552 137.328C41.229 137.737 41.1204 138.136 40.9359 138.502C40.7513 138.869 40.4946 139.195 40.1808 139.461C40.1808 139.461 40.4602 139.674 40.4709 140.527C40.3414 141.363 39.9052 142.123 39.2462 142.66C39.3913 142.996 39.4575 143.361 39.4395 143.726C39.3855 144.237 39.2128 144.728 38.935 145.161C38.6572 145.594 38.2819 145.957 37.8388 146.221L30.6729 150.391L30.5762 141.007Z" fill="#FAFAFA"/>
<path d="M26.4248 154.068L29.5727 152.244L29.5297 141.367L26.3711 143.191L26.4248 154.068Z" fill="#FAFAFA"/>
<path d="M8.62548 72.1779L34.4743 57.3659C35.716 56.7402 37.089 56.4141 38.4816 56.4141C39.8742 56.4141 41.2472 56.7402 42.4889 57.3659L45.712 59.2321C46.8821 59.9864 47.856 61.0046 48.5543 62.2037C49.2526 63.4027 49.6555 64.7486 49.73 66.1315V95.7557C49.6497 97.1315 49.2441 98.4691 48.546 99.6604C47.8479 100.852 46.877 101.863 45.712 102.612L19.9276 117.457C18.684 118.082 17.3093 118.408 15.9149 118.408C14.5206 118.408 13.1459 118.082 11.9022 117.457L8.67919 115.59C7.51224 114.834 6.54132 113.815 5.8451 112.616C5.14888 111.417 4.74695 110.072 4.67188 108.691V79.0668C4.74091 77.6913 5.13469 76.3512 5.82145 75.1546C6.5082 73.958 7.46871 72.9384 8.62548 72.1779V72.1779Z" fill="#FF0A54"/>
<path opacity="0.1" d="M8.62548 72.1779L34.4743 57.3659C35.716 56.7402 37.089 56.4141 38.4816 56.4141C39.8742 56.4141 41.2472 56.7402 42.4889 57.3659L45.712 59.2321C46.8821 59.9864 47.856 61.0046 48.5543 62.2037C49.2526 63.4027 49.6555 64.7486 49.73 66.1315V95.7557C49.6497 97.1315 49.2441 98.4691 48.546 99.6604C47.8479 100.852 46.877 101.863 45.712 102.612L19.9276 117.457C18.684 118.082 17.3093 118.408 15.9149 118.408C14.5206 118.408 13.1459 118.082 11.9022 117.457L8.67919 115.59C7.51224 114.834 6.54132 113.815 5.8451 112.616C5.14888 111.417 4.74695 110.072 4.67188 108.691V79.0668C4.74091 77.6913 5.13469 76.3512 5.82145 75.1546C6.5082 73.958 7.46871 72.9384 8.62548 72.1779V72.1779Z" fill="black"/>
<path d="M49.7746 65.9513C49.7746 64.4691 49.044 60.7794 45.2086 63.1148C41.3732 65.4502 22.5291 76.018 19.9292 77.5536C18.1251 78.536 16.7005 80.0851 15.8789 81.9577L17.9309 84.0052L49.7746 65.9513Z" fill="#FF0A54"/>
<path opacity="0.2" d="M49.7746 65.9513C49.7746 64.4691 49.044 60.7794 45.2086 63.1148C41.3732 65.4502 22.5291 76.018 19.9292 77.5536C18.1251 78.536 16.7005 80.0851 15.8789 81.9577L17.9309 84.0052L49.7746 65.9513Z" fill="black"/>
<path d="M19.9282 117.468C17.7043 118.737 15.9102 117.713 15.9102 115.175V85.5615C15.9831 84.1767 16.3851 82.8287 17.0835 81.6276C17.7818 80.4266 18.7567 79.4067 19.9282 78.6513L45.7126 63.8393C47.9365 62.5703 49.7306 63.6046 49.7306 66.1426V95.7668C49.6503 97.1426 49.2447 98.4802 48.5466 99.6715C47.8485 100.863 46.8776 101.874 45.7126 102.624" fill="#FF0A54"/>
<path opacity="0.1" d="M19.9282 117.468C17.7043 118.737 15.9102 117.713 15.9102 115.175V85.5615C15.9831 84.1767 16.3851 82.8287 17.0835 81.6276C17.7818 80.4266 18.7567 79.4067 19.9282 78.6513L45.7126 63.8393C47.9365 62.5703 49.7306 63.6046 49.7306 66.1426V95.7668C49.6503 97.1426 49.2447 98.4802 48.5466 99.6715C47.8485 100.863 46.8776 101.874 45.7126 102.624" fill="black"/>
<path d="M4.61915 108.694C4.69422 110.076 5.09615 111.42 5.79237 112.619C6.48858 113.818 7.45951 114.837 8.62646 115.593L11.8495 117.46C12.9802 118.025 14.2189 118.346 15.4838 118.401C16.7487 118.456 18.011 118.244 19.1873 117.78C17.2965 118.494 15.8568 117.438 15.8568 115.167V85.5535C15.9057 84.1665 16.3127 82.8153 17.0386 81.6292L5.74721 75.1562C5.02416 76.343 4.62089 77.6944 4.57617 79.0805L4.61915 108.694Z" fill="#FF0A54"/>
<path opacity="0.2" d="M4.61915 108.694C4.69422 110.076 5.09615 111.42 5.79237 112.619C6.48858 113.818 7.45951 114.837 8.62646 115.593L11.8495 117.46C12.9802 118.025 14.2189 118.346 15.4838 118.401C16.7487 118.456 18.011 118.244 19.1873 117.78C17.2965 118.494 15.8568 117.438 15.8568 115.167V85.5535C15.9057 84.1665 16.3127 82.8153 17.0386 81.6292L5.74721 75.1562C5.02416 76.343 4.62089 77.6944 4.57617 79.0805L4.61915 108.694Z" fill="black"/>
<path d="M33.6141 75.1813L36.966 81.0464L44.4865 77.9966C45.1955 77.7087 45.4856 78.5404 44.9699 79.4149L39.5445 88.5858L40.8229 96.413C40.9411 97.1595 40.1998 98.1939 39.5659 98.1832L32.819 97.9806L26.1044 105.872C25.4705 106.618 24.7292 106.426 24.8474 105.541L26.1473 96.2104L20.7756 93.2565C20.2599 92.9793 20.55 91.8169 21.2591 91.2944L28.7795 85.7492L32.1315 76.0344C32.3786 75.1493 33.2918 74.6268 33.6141 75.1813Z" fill="#FAFAFA"/>
<path d="M397.02 210.523C384.128 216.612 363.286 216.612 350.415 210.523C337.544 204.434 337.523 194.527 350.415 188.48C363.307 182.434 384.15 182.391 397.02 188.48C409.891 194.57 409.848 204.434 397.02 210.523Z" fill="#E0E0E0"/>
<path d="M103.945 281.227C104.06 282.777 104.541 284.279 105.349 285.611C106.157 286.943 107.27 288.068 108.597 288.894L238.948 363.541C240.389 364.267 241.983 364.645 243.6 364.645C245.216 364.645 246.81 364.267 248.252 363.541L426.594 261.328C427.999 260.591 429.176 259.488 429.997 258.137C430.817 256.786 431.251 255.238 431.251 253.661C431.251 252.083 430.817 250.535 429.997 249.184C429.176 247.833 427.999 246.73 426.594 245.993L296.254 171.347C294.812 170.621 293.218 170.242 291.602 170.242C289.985 170.242 288.391 170.621 286.95 171.347L108.608 273.559C107.279 274.384 106.164 275.508 105.354 276.84C104.544 278.172 104.061 279.675 103.945 281.227V281.227Z" fill="#37474F"/>
<path d="M157.723 245.398L108.593 273.551C107.187 274.287 106.011 275.391 105.19 276.742C104.369 278.093 103.936 279.641 103.936 281.218C103.936 282.796 104.369 284.344 105.19 285.695C106.011 287.046 107.187 288.149 108.593 288.886L238.944 363.532C240.377 364.276 241.979 364.643 243.596 364.599V245.398H157.723Z" fill="#263238"/>
<path d="M99.5806 273.713C98.2836 272.842 97.2125 271.678 96.4544 270.318C95.6964 268.958 95.273 267.439 95.2188 265.886V111.484C95.3044 109.882 95.7704 108.322 96.5789 106.932C97.3873 105.542 98.5152 104.361 99.8707 103.486L278.212 1.32686C279.559 0.488734 281.109 0.0305265 282.698 0.00147307C284.287 -0.0275804 285.854 0.373621 287.23 1.16196C288.607 1.9503 289.74 3.09599 290.51 4.47592C291.28 5.85586 291.656 7.41788 291.599 8.99415V163.342C291.512 164.945 291.046 166.504 290.238 167.894C289.429 169.284 288.302 170.465 286.947 171.34L108.605 273.553C107.22 274.283 105.68 274.678 104.112 274.706C102.544 274.734 100.991 274.394 99.5806 273.713V273.713Z" fill="#455A64"/>
<path d="M117.035 118.629L96.6228 106.898C95.7889 108.273 95.323 109.837 95.2691 111.441V265.885C95.213 267.46 95.5897 269.02 96.3589 270.398C97.1281 271.777 98.2607 272.921 99.6354 273.709C101.01 274.497 102.575 274.899 104.162 274.871C105.749 274.844 107.299 274.388 108.645 273.553L128.982 261.897L117.035 118.629Z" fill="#263238"/>
<path d="M104 116.841V271.231C104 274.175 106.084 275.369 108.652 273.897L286.994 171.685C288.349 170.809 289.476 169.628 290.284 168.239C291.093 166.849 291.559 165.289 291.646 163.687V9.296C291.646 6.35279 289.561 5.15844 286.994 6.63005L108.652 108.832C107.297 109.711 106.17 110.894 105.362 112.285C104.554 113.676 104.087 115.237 104 116.841V116.841Z" fill="#37474F"/>
<path d="M108.592 278.891L238.943 353.591C240.385 354.317 241.978 354.696 243.595 354.696C245.212 354.696 246.805 354.317 248.247 353.591L426.589 251.379C429.167 249.907 429.167 247.518 426.589 246.047L296.249 171.347C294.807 170.621 293.213 170.242 291.597 170.242C289.98 170.242 288.387 170.621 286.945 171.347L108.603 273.559C106.025 275.031 106.025 277.42 108.592 278.891Z" fill="#455A64"/>
<path d="M111.1 117.057L284.446 17.7235C285.982 16.8384 287.239 17.5529 287.239 19.3231V152.973C287.185 153.934 286.904 154.869 286.419 155.703C285.934 156.536 285.258 157.245 284.446 157.772L111.1 257.105C109.553 257.99 108.307 257.276 108.307 255.505V121.824C108.363 120.867 108.646 119.938 109.131 119.11C109.616 118.282 110.291 117.579 111.1 117.057Z" fill="#FAFAFA"/>
<path d="M123.722 274.897L289.268 179.989C289.989 179.626 290.786 179.438 291.594 179.438C292.403 179.437 293.199 179.626 293.92 179.989L302.397 184.841C302.678 184.936 302.921 185.115 303.094 185.354C303.267 185.593 303.359 185.88 303.359 186.174C303.359 186.468 303.267 186.755 303.094 186.994C302.921 187.233 302.678 187.413 302.397 187.507L136.818 282.404C136.098 282.767 135.301 282.956 134.492 282.956C133.684 282.956 132.887 282.767 132.167 282.404L123.722 277.531C123.453 277.43 123.22 277.25 123.056 277.015C122.892 276.779 122.805 276.5 122.805 276.214C122.805 275.928 122.892 275.649 123.056 275.413C123.22 275.178 123.453 274.998 123.722 274.897V274.897Z" fill="#263238"/>
<path d="M145.54 287.397L311.086 192.489C311.807 192.126 312.604 191.938 313.412 191.938C314.22 191.937 315.017 192.126 315.738 192.489L367.823 222.348C368.103 222.442 368.347 222.622 368.519 222.861C368.692 223.1 368.785 223.387 368.785 223.681C368.785 223.975 368.692 224.262 368.519 224.501C368.347 224.74 368.103 224.919 367.823 225.014L202.47 319.772C201.747 320.135 200.948 320.324 200.138 320.324C199.328 320.324 198.53 320.135 197.807 319.772L145.551 290.042C145.272 289.949 145.03 289.772 144.858 289.535C144.686 289.299 144.593 289.015 144.592 288.723C144.591 288.432 144.681 288.147 144.851 287.909C145.021 287.671 145.262 287.492 145.54 287.397V287.397Z" fill="#263238"/>
<path d="M293.94 235.19L299.129 232.215C299.344 232.087 299.334 231.874 299.129 231.746L293.135 228.312C293.007 228.246 292.865 228.212 292.721 228.212C292.577 228.212 292.435 228.246 292.307 228.312L287.129 231.287C286.903 231.404 286.914 231.618 287.129 231.756L293.124 235.19C293.25 235.254 293.39 235.287 293.532 235.287C293.674 235.287 293.814 235.254 293.94 235.19ZM283.713 223.385L278.534 226.318C278.309 226.446 278.319 226.659 278.534 226.798L284.529 230.231C284.658 230.294 284.799 230.327 284.943 230.327C285.086 230.327 285.228 230.294 285.356 230.231L290.545 227.256C290.76 227.128 290.75 226.915 290.545 226.787L284.551 223.343C284.417 223.284 284.272 223.258 284.126 223.265C283.981 223.273 283.839 223.314 283.713 223.385V223.385ZM266.963 232.983L258.197 238.048C257.971 238.176 257.993 238.389 258.197 238.528L264.192 241.962C264.32 242.025 264.462 242.057 264.605 242.057C264.749 242.057 264.89 242.025 265.019 241.962L273.786 236.939C274 236.811 273.99 236.598 273.786 236.47L267.791 233.025C267.665 232.956 267.526 232.916 267.382 232.908C267.239 232.901 267.095 232.926 266.963 232.983V232.983ZM276.138 227.725L270.949 230.701C270.734 230.818 270.745 231.031 270.949 231.17L276.944 234.604C277.072 234.669 277.214 234.703 277.358 234.703C277.502 234.703 277.644 234.669 277.771 234.604L282.95 231.628C283.175 231.5 283.165 231.287 282.95 231.159L276.955 227.725C276.828 227.662 276.689 227.629 276.547 227.629C276.405 227.629 276.265 227.662 276.138 227.725V227.725ZM255.801 239.381L250.623 242.314C250.397 242.442 250.419 242.655 250.623 242.793L256.617 246.227C256.745 246.293 256.887 246.327 257.031 246.327C257.175 246.327 257.317 246.293 257.445 246.227L262.634 243.263C262.849 243.135 262.838 242.921 262.634 242.793L256.639 239.349C256.506 239.289 256.362 239.261 256.216 239.266C256.071 239.272 255.929 239.311 255.801 239.381V239.381ZM248.227 243.721L243.048 246.686C242.823 246.814 242.834 247.027 243.048 247.166L249.043 250.599C249.172 250.662 249.314 250.695 249.457 250.695C249.6 250.695 249.742 250.662 249.871 250.599L255.06 247.624C255.275 247.496 255.264 247.283 255.06 247.155L249.065 243.711C248.934 243.647 248.79 243.616 248.645 243.617C248.499 243.619 248.356 243.655 248.227 243.721V243.721ZM271.809 257.691L276.987 254.716C277.202 254.588 277.191 254.374 276.987 254.246L270.96 250.845C270.832 250.779 270.69 250.745 270.546 250.745C270.403 250.745 270.261 250.779 270.133 250.845L264.954 253.82C264.729 253.937 264.75 254.15 264.954 254.289L270.949 257.723C271.084 257.789 271.233 257.821 271.383 257.815C271.533 257.809 271.68 257.767 271.809 257.691V257.691ZM264.224 262.031L269.413 259.056C269.628 258.928 269.617 258.725 269.413 258.587L263.386 255.11C263.258 255.045 263.116 255.011 262.972 255.011C262.828 255.011 262.687 255.045 262.559 255.11L257.359 258.107C257.133 258.224 257.155 258.437 257.359 258.576L263.354 262.01C263.485 262.086 263.634 262.128 263.786 262.131C263.938 262.135 264.089 262.101 264.224 262.031V262.031ZM256.65 266.371L261.839 263.396C262.054 263.279 262.043 263.065 261.839 262.927L255.844 259.493C255.716 259.427 255.574 259.393 255.43 259.393C255.286 259.393 255.145 259.427 255.017 259.493L249.838 262.447C249.613 262.575 249.623 262.788 249.838 262.916L255.833 266.35C255.958 266.417 256.097 266.454 256.239 266.457C256.381 266.461 256.522 266.432 256.65 266.371V266.371ZM249.129 270.711L254.318 267.736C254.533 267.619 254.523 267.406 254.318 267.267L248.324 263.833C248.196 263.768 248.054 263.734 247.91 263.734C247.766 263.734 247.624 263.768 247.496 263.833L242.232 266.84C242.006 266.968 242.017 267.182 242.232 267.31L248.227 270.743C248.36 270.808 248.507 270.838 248.655 270.833C248.803 270.827 248.948 270.785 249.076 270.711H249.129ZM286.366 239.53L291.545 236.555C291.77 236.427 291.759 236.225 291.545 236.086L285.55 232.652C285.422 232.587 285.28 232.553 285.136 232.553C284.992 232.553 284.85 232.587 284.722 232.652L279.544 235.627C279.318 235.755 279.329 235.958 279.544 236.097L285.539 239.53C285.667 239.596 285.809 239.63 285.953 239.63C286.096 239.63 286.238 239.596 286.366 239.53ZM279.383 253.393L290.943 246.76C291.158 246.632 291.147 246.419 290.943 246.291L276.385 237.952C276.258 237.887 276.116 237.852 275.972 237.852C275.828 237.852 275.686 237.887 275.558 237.952L269.585 241.375C269.359 241.503 269.37 241.716 269.585 241.855L277.299 246.27C277.535 246.408 277.546 246.622 277.299 246.739L272.518 249.49C272.303 249.608 272.314 249.821 272.518 249.96L278.513 253.393C278.65 253.457 278.802 253.486 278.953 253.479C279.105 253.471 279.252 253.427 279.383 253.351V253.393ZM240.653 248.061L235.474 251.037C235.249 251.154 235.259 251.367 235.474 251.506L241.469 254.94C241.598 255.003 241.739 255.035 241.883 255.035C242.026 255.035 242.168 255.003 242.296 254.94L247.486 251.964C247.7 251.836 247.69 251.623 247.486 251.495L241.491 248.061C241.361 247.994 241.218 247.959 241.072 247.959C240.926 247.959 240.782 247.994 240.653 248.061V248.061ZM233.132 252.402L227.943 255.377C227.728 255.505 227.739 255.707 227.943 255.846L233.938 259.28C234.066 259.345 234.208 259.379 234.352 259.379C234.496 259.379 234.637 259.345 234.765 259.28L239.944 256.304C240.169 256.177 240.159 255.963 239.944 255.835L233.949 252.402C233.815 252.329 233.666 252.291 233.514 252.291C233.361 252.291 233.212 252.329 233.079 252.402H233.132ZM195.272 301.082C195.4 301.147 195.542 301.182 195.686 301.182C195.83 301.182 195.972 301.147 196.099 301.082L201.289 298.107C201.503 297.979 201.493 297.765 201.289 297.637L195.294 294.204C195.166 294.138 195.024 294.104 194.88 294.104C194.736 294.104 194.594 294.138 194.466 294.204L189.288 297.179C189.063 297.307 189.073 297.51 189.288 297.648L195.272 301.082ZM172.485 287.102L167.296 290.077C167.081 290.194 167.092 290.407 167.296 290.546L173.291 293.98C173.42 294.043 173.561 294.076 173.705 294.076C173.848 294.076 173.99 294.043 174.118 293.98L179.297 291.005C179.522 290.877 179.512 290.663 179.297 290.535L173.302 287.102C173.175 287.038 173.035 287.005 172.894 287.005C172.752 287.005 172.612 287.038 172.485 287.102ZM184.679 297.286C184.807 297.351 184.949 297.385 185.093 297.385C185.237 297.385 185.379 297.351 185.506 297.286L190.685 294.31C190.91 294.182 190.889 293.98 190.685 293.841L184.701 290.407C184.573 290.342 184.431 290.308 184.287 290.308C184.143 290.308 184.001 290.342 183.873 290.407L178.684 293.383C178.469 293.511 178.48 293.713 178.684 293.852L184.679 297.286ZM208.605 303.684L213.794 300.709C214.009 300.581 213.998 300.367 213.794 300.239L207.799 296.795C207.67 296.732 207.529 296.699 207.386 296.699C207.242 296.699 207.101 296.732 206.972 296.795L201.794 299.77C201.568 299.888 201.579 300.101 201.794 300.239L207.788 303.673C207.909 303.744 208.045 303.785 208.185 303.794C208.325 303.804 208.465 303.78 208.594 303.727L208.605 303.684ZM200.203 308.003C200.331 308.068 200.473 308.102 200.617 308.102C200.761 308.102 200.903 308.068 201.031 308.003L206.22 305.028C206.435 304.9 206.424 304.686 206.22 304.558L200.225 301.125C200.097 301.059 199.955 301.025 199.811 301.025C199.667 301.025 199.526 301.059 199.398 301.125L194.176 304.164C193.951 304.281 193.962 304.494 194.176 304.633L200.203 308.003ZM180.006 282.836L174.817 285.801C174.602 285.929 174.613 286.142 174.817 286.281L180.812 289.714C180.94 289.777 181.082 289.81 181.225 289.81C181.369 289.81 181.51 289.777 181.639 289.714L186.817 286.739C187.043 286.611 187.032 286.398 186.817 286.27L180.876 282.836C180.742 282.766 180.592 282.729 180.441 282.729C180.289 282.729 180.14 282.766 180.006 282.836ZM217.93 261.082L212.741 264.057C212.526 264.185 212.537 264.398 212.741 264.526L218.736 267.96C218.864 268.026 219.006 268.06 219.15 268.06C219.294 268.06 219.435 268.026 219.563 267.96L224.742 264.985C224.967 264.868 224.946 264.654 224.742 264.516L218.757 261.082C218.629 261.019 218.487 260.986 218.344 260.986C218.2 260.986 218.059 261.019 217.93 261.082V261.082ZM187.623 278.453L182.445 281.418C182.219 281.546 182.23 281.759 182.445 281.898L188.439 285.331C188.568 285.394 188.71 285.427 188.853 285.427C188.996 285.427 189.138 285.394 189.267 285.331L194.456 282.367C194.671 282.239 194.66 282.026 194.456 281.887L188.461 278.453C188.331 278.389 188.187 278.355 188.042 278.355C187.896 278.355 187.753 278.389 187.623 278.453V278.453ZM225.504 256.742L220.315 259.717C220.1 259.845 220.111 260.047 220.315 260.186L226.31 263.62C226.438 263.685 226.58 263.719 226.724 263.719C226.868 263.719 227.009 263.685 227.137 263.62L232.316 260.645C232.541 260.517 232.531 260.314 232.316 260.175L226.321 256.742C226.194 256.678 226.054 256.645 225.913 256.645C225.771 256.645 225.631 256.678 225.504 256.742ZM210.345 265.422L205.167 268.397C204.941 268.525 204.963 268.738 205.167 268.866L211.162 272.311C211.29 272.374 211.432 272.407 211.575 272.407C211.719 272.407 211.86 272.374 211.989 272.311L217.167 269.346C217.393 269.218 217.372 269.005 217.167 268.866L211.162 265.443C211.036 265.379 210.897 265.343 210.756 265.34C210.615 265.336 210.474 265.364 210.345 265.422V265.422ZM202.771 269.773L197.593 272.737C197.367 272.865 197.389 273.079 197.593 273.207L203.641 276.651C203.768 276.714 203.908 276.747 204.05 276.747C204.191 276.747 204.331 276.714 204.458 276.651L209.647 273.687C209.862 273.559 209.851 273.345 209.647 273.207L203.641 269.784C203.509 269.709 203.36 269.669 203.208 269.667C203.056 269.665 202.905 269.702 202.771 269.773V269.773ZM195.197 274.113L190.019 277.078C189.793 277.206 189.815 277.419 190.019 277.557L196.014 280.991C196.142 281.054 196.284 281.087 196.427 281.087C196.571 281.087 196.712 281.054 196.841 280.991L202.03 278.027C202.245 277.899 202.234 277.685 202.03 277.547L196.035 274.113C195.905 274.048 195.762 274.015 195.616 274.015C195.471 274.015 195.327 274.048 195.197 274.113V274.113ZM233.927 279.392L239.095 276.438C239.32 276.31 239.31 276.097 239.095 275.958L233.1 272.524C232.972 272.459 232.83 272.425 232.686 272.425C232.543 272.425 232.401 272.459 232.273 272.524L227.084 275.489C226.869 275.617 226.88 275.83 227.084 275.969L233.079 279.402C233.211 279.467 233.357 279.5 233.504 279.498C233.652 279.496 233.797 279.46 233.927 279.392V279.392ZM300.462 213.788L295.273 216.72C295.058 216.838 295.068 217.051 295.273 217.19L301.267 220.623C301.396 220.686 301.538 220.719 301.681 220.719C301.824 220.719 301.966 220.686 302.095 220.623L307.273 217.648C307.499 217.52 307.488 217.307 307.273 217.179L301.278 213.745C301.148 213.688 301.007 213.662 300.865 213.669C300.723 213.677 300.585 213.717 300.462 213.788V213.788ZM291.287 219.045L286.108 222.052C285.883 222.18 285.893 222.394 286.108 222.532L292.092 225.966C292.22 226.031 292.362 226.066 292.506 226.066C292.65 226.066 292.792 226.031 292.92 225.966L298.109 223.001C298.324 222.873 298.313 222.66 298.109 222.532L292.114 219.088C291.989 219.018 291.849 218.978 291.705 218.97C291.562 218.963 291.419 218.989 291.287 219.045V219.045ZM308.036 209.448L302.847 212.455C302.632 212.583 302.643 212.796 302.847 212.935L308.842 216.368C308.97 216.431 309.112 216.464 309.255 216.464C309.399 216.464 309.54 216.431 309.669 216.368L314.847 213.393C315.073 213.265 315.062 213.052 314.847 212.924L308.852 209.48C308.728 209.413 308.589 209.376 308.448 209.37C308.306 209.365 308.165 209.391 308.036 209.448V209.448ZM268.822 249.586L274.011 246.579C274.226 246.451 274.215 246.238 274.011 246.11L268.016 242.676C267.888 242.611 267.747 242.576 267.603 242.576C267.459 242.576 267.317 242.611 267.189 242.676L262 245.641C261.785 245.769 261.796 245.982 262 246.121L267.995 249.554C268.121 249.622 268.261 249.661 268.405 249.666C268.548 249.672 268.691 249.644 268.822 249.586V249.586ZM316.448 205.118C316.319 205.055 316.178 205.022 316.034 205.022C315.891 205.022 315.749 205.055 315.621 205.118L310.442 208.083C310.217 208.211 310.227 208.424 310.442 208.563L316.437 211.996C316.565 212.062 316.707 212.096 316.851 212.096C316.995 212.096 317.137 212.062 317.264 211.996L322.454 209.032C322.668 208.904 322.658 208.691 322.454 208.552L316.448 205.118ZM241.501 275.052L246.68 272.087C246.905 271.959 246.895 271.746 246.68 271.607L240.685 268.173C240.556 268.11 240.415 268.078 240.271 268.078C240.128 268.078 239.986 268.11 239.858 268.173L234.647 271.106C234.432 271.234 234.443 271.447 234.647 271.575L240.642 275.02C240.772 275.093 240.918 275.134 241.068 275.139C241.217 275.145 241.366 275.115 241.501 275.052V275.052ZM334.4 221.818L339.589 218.842C339.804 218.714 339.794 218.501 339.589 218.373L333.595 214.939C333.467 214.874 333.325 214.84 333.181 214.84C333.037 214.84 332.895 214.874 332.767 214.939L327.578 217.915C327.363 218.032 327.374 218.245 327.578 218.384L333.573 221.818C333.701 221.883 333.843 221.917 333.987 221.917C334.131 221.917 334.272 221.883 334.4 221.818V221.818ZM318.285 221.252L323.463 218.277C323.689 218.149 323.678 217.936 323.463 217.808L317.469 214.374C317.341 214.309 317.199 214.275 317.055 214.275C316.911 214.275 316.769 214.309 316.641 214.374L311.452 217.35C311.237 217.467 311.248 217.68 311.452 217.819L317.447 221.252C317.574 221.316 317.713 221.349 317.855 221.349C317.997 221.349 318.137 221.316 318.264 221.252H318.285ZM325.043 210.023C324.914 209.96 324.773 209.928 324.629 209.928C324.486 209.928 324.344 209.96 324.215 210.023L319.037 212.999C318.812 213.116 318.822 213.329 319.037 213.468L325.032 216.902C325.161 216.965 325.302 216.997 325.446 216.997C325.589 216.997 325.731 216.965 325.859 216.902L331.048 213.926C331.263 213.798 331.252 213.585 331.048 213.457L325.043 210.023ZM326.633 209.117L341.158 217.456C341.287 217.519 341.428 217.552 341.572 217.552C341.715 217.552 341.857 217.519 341.985 217.456L347.174 214.481C347.389 214.353 347.378 214.14 347.174 214.012L332.563 205.683C332.435 205.62 332.293 205.588 332.15 205.588C332.006 205.588 331.865 205.62 331.736 205.683L326.558 208.648C326.343 208.765 326.353 208.978 326.59 209.117H326.633ZM309.067 218.714L303.878 221.69C303.663 221.807 303.674 222.02 303.878 222.159L309.873 225.593C310.001 225.658 310.143 225.692 310.287 225.692C310.43 225.692 310.572 225.658 310.7 225.593L315.879 222.617C316.104 222.489 316.093 222.276 315.879 222.148L309.884 218.714C309.754 218.64 309.607 218.599 309.457 218.596C309.307 218.592 309.158 218.625 309.024 218.693L309.067 218.714ZM251.987 251.367L246.798 254.342C246.583 254.47 246.594 254.673 246.798 254.812L252.793 258.245C252.921 258.311 253.063 258.345 253.206 258.345C253.35 258.345 253.492 258.311 253.62 258.245L258.798 255.27C259.024 255.142 259.013 254.94 258.798 254.801L252.804 251.367C252.677 251.303 252.537 251.27 252.395 251.27C252.253 251.27 252.114 251.303 251.987 251.367ZM325.977 226.137C326.105 226.202 326.247 226.236 326.391 226.236C326.535 226.236 326.677 226.202 326.805 226.137L331.983 223.161C332.209 223.033 332.198 222.831 331.983 222.692L325.988 219.258C325.86 219.193 325.718 219.159 325.575 219.159C325.431 219.159 325.289 219.193 325.161 219.258L319.972 222.234C319.757 222.362 319.768 222.564 319.972 222.703L325.977 226.137ZM259.561 247.027L254.372 250.002C254.157 250.119 254.168 250.333 254.372 250.471L260.367 253.905C260.495 253.971 260.637 254.005 260.781 254.005C260.925 254.005 261.066 253.971 261.194 253.905L266.373 250.93C266.598 250.802 266.587 250.589 266.373 250.461L260.378 247.027C260.254 246.967 260.118 246.935 259.98 246.935C259.842 246.935 259.706 246.967 259.583 247.027H259.561ZM202.793 296.699C202.921 296.762 203.063 296.795 203.206 296.795C203.35 296.795 203.491 296.762 203.62 296.699L208.809 293.724C209.024 293.596 209.013 293.383 208.809 293.255L202.814 289.821C202.686 289.755 202.544 289.721 202.401 289.721C202.257 289.721 202.115 289.755 201.987 289.821L196.809 292.796C196.583 292.913 196.594 293.127 196.809 293.265L202.793 296.699ZM191.405 286.035L186.215 289.01C186.001 289.128 186.011 289.341 186.215 289.48L192.21 292.913C192.339 292.976 192.481 293.009 192.624 293.009C192.767 293.009 192.909 292.976 193.038 292.913L198.216 289.938C198.442 289.81 198.431 289.597 198.216 289.469L192.221 286.035C192.09 285.981 191.947 285.959 191.805 285.97C191.663 285.981 191.526 286.025 191.405 286.099V286.035ZM211.162 292.434L216.351 289.458C216.566 289.33 216.555 289.117 216.351 288.989L210.356 285.555C210.228 285.49 210.086 285.456 209.942 285.456C209.799 285.456 209.657 285.49 209.529 285.555L204.35 288.52C204.125 288.648 204.146 288.861 204.35 289L210.345 292.434C210.472 292.496 210.612 292.529 210.754 292.529C210.895 292.529 211.035 292.496 211.162 292.434V292.434ZM218.747 288.093L223.925 285.118C224.151 284.99 224.129 284.777 223.925 284.638L217.93 281.205C217.802 281.142 217.66 281.109 217.517 281.109C217.373 281.109 217.232 281.142 217.103 281.205L211.925 284.169C211.71 284.297 211.721 284.51 211.925 284.649L217.919 288.083C218.052 288.151 218.2 288.187 218.349 288.187C218.499 288.187 218.646 288.151 218.779 288.083L218.747 288.093ZM226.267 283.743L231.446 280.778C231.671 280.65 231.65 280.437 231.446 280.298L225.461 276.864C225.333 276.801 225.191 276.769 225.048 276.769C224.904 276.769 224.763 276.801 224.634 276.864L219.445 279.829C219.23 279.957 219.241 280.17 219.445 280.309L225.44 283.743C225.58 283.818 225.738 283.857 225.898 283.855C226.058 283.854 226.215 283.811 226.353 283.732L226.267 283.743ZM198.979 281.77L193.79 284.734C193.575 284.862 193.586 285.075 193.79 285.214L199.785 288.648C199.913 288.711 200.055 288.744 200.198 288.744C200.342 288.744 200.483 288.711 200.612 288.648L205.79 285.673C206.016 285.545 206.005 285.331 205.79 285.203L199.806 281.77C199.677 281.707 199.536 281.674 199.392 281.674C199.249 281.674 199.107 281.707 198.979 281.77ZM206.553 277.43L201.364 280.394C201.149 280.522 201.16 280.735 201.364 280.874L207.359 284.308C207.487 284.373 207.628 284.407 207.772 284.407C207.916 284.407 208.058 284.373 208.186 284.308L213.375 281.343C213.59 281.215 213.579 281.002 213.375 280.863L207.38 277.43C207.252 277.365 207.111 277.33 206.968 277.328C206.824 277.327 206.682 277.358 206.553 277.419V277.43ZM236.86 260.058L231.671 263.033C231.446 263.161 231.467 263.375 231.671 263.503L237.666 266.936C237.794 267.002 237.936 267.036 238.08 267.036C238.224 267.036 238.365 267.002 238.493 266.936L243.672 263.961C243.897 263.844 243.876 263.631 243.672 263.492L237.677 260.058C237.551 259.994 237.411 259.959 237.27 259.957C237.128 259.955 236.988 259.986 236.86 260.047V260.058ZM229.275 264.409L224.054 267.363C223.828 267.491 223.85 267.704 224.054 267.832L230.038 271.276C230.167 271.34 230.308 271.372 230.452 271.372C230.595 271.372 230.737 271.34 230.865 271.276L236.054 268.312C236.269 268.184 236.259 267.971 236.054 267.832L230.06 264.398C229.937 264.34 229.803 264.309 229.667 264.309C229.532 264.309 229.398 264.34 229.275 264.398V264.409ZM244.467 255.707L239.278 258.683C239.063 258.81 239.073 259.024 239.278 259.152L245.272 262.585C245.4 262.651 245.542 262.685 245.686 262.685C245.83 262.685 245.972 262.651 246.1 262.585L251.278 259.61C251.504 259.493 251.482 259.28 251.278 259.141L245.294 255.707C245.166 255.642 245.024 255.608 244.88 255.608C244.736 255.608 244.595 255.642 244.467 255.707V255.707ZM214.159 273.079L208.981 276.043C208.755 276.171 208.766 276.384 208.981 276.523L214.976 279.957C215.104 280.02 215.246 280.053 215.389 280.053C215.533 280.053 215.674 280.02 215.803 279.957L220.992 276.992C221.207 276.864 221.196 276.651 220.992 276.512L214.997 273.079C214.863 273.009 214.714 272.972 214.562 272.972C214.411 272.972 214.261 273.009 214.127 273.079H214.159ZM221.733 268.739L216.534 271.703C216.308 271.831 216.319 272.044 216.534 272.183L222.528 275.617C222.657 275.68 222.799 275.712 222.942 275.712C223.086 275.712 223.227 275.68 223.356 275.617L228.545 272.652C228.76 272.524 228.749 272.311 228.545 272.172L222.55 268.739C222.419 268.669 222.274 268.633 222.126 268.633C221.978 268.633 221.832 268.669 221.701 268.739H221.733ZM216.201 299.386L221.39 296.411C221.605 296.283 221.594 296.07 221.39 295.942L215.395 292.498C215.266 292.434 215.125 292.402 214.981 292.402C214.838 292.402 214.696 292.434 214.568 292.498L209.389 295.462C209.164 295.59 209.185 295.803 209.389 295.942L215.373 299.376C215.497 299.435 215.632 299.467 215.77 299.469C215.907 299.471 216.043 299.443 216.168 299.386H216.201ZM171.755 294.929L165.76 291.495C165.632 291.43 165.49 291.395 165.346 291.395C165.202 291.395 165.061 291.43 164.933 291.495L159.744 294.47C159.529 294.588 159.539 294.801 159.744 294.94L165.738 298.373C165.866 298.439 166.008 298.473 166.152 298.473C166.296 298.473 166.438 298.439 166.566 298.373L171.744 295.398C171.97 295.27 171.948 295.057 171.723 294.929H171.755ZM183.1 298.235L177.105 294.801C176.977 294.735 176.835 294.701 176.691 294.701C176.547 294.701 176.406 294.735 176.278 294.801L168.306 299.376C168.091 299.504 168.102 299.706 168.306 299.845L174.301 303.279C174.429 303.344 174.571 303.378 174.715 303.378C174.858 303.378 175 303.344 175.128 303.279L183.1 298.704C183.325 298.576 183.304 298.373 183.068 298.235H183.1ZM162.558 288.285L156.563 284.852C156.436 284.786 156.294 284.752 156.15 284.752C156.006 284.752 155.864 284.786 155.736 284.852L149.355 288.509C149.129 288.637 149.15 288.85 149.355 288.989L155.349 292.423C155.478 292.486 155.62 292.519 155.763 292.519C155.907 292.519 156.048 292.486 156.177 292.423L162.548 288.765C162.816 288.637 162.816 288.424 162.526 288.285H162.558ZM167.447 285.481C167.575 285.546 167.716 285.58 167.86 285.58C168.004 285.58 168.146 285.546 168.274 285.481L173.452 282.506C173.678 282.378 173.667 282.175 173.452 282.036L167.457 278.603C167.329 278.537 167.188 278.503 167.044 278.503C166.9 278.503 166.758 278.537 166.63 278.603L161.441 281.578C161.226 281.706 161.237 281.908 161.441 282.047L167.447 285.481ZM193.628 302.031L187.634 298.597C187.506 298.532 187.364 298.498 187.22 298.498C187.076 298.498 186.934 298.532 186.806 298.597L176.836 304.313C176.622 304.441 176.632 304.654 176.836 304.782L182.831 308.216C182.959 308.281 183.101 308.316 183.245 308.316C183.389 308.316 183.531 308.281 183.659 308.216L193.628 302.5C193.876 302.34 193.865 302.138 193.628 302.031ZM198.603 308.994L192.608 305.561C192.48 305.495 192.338 305.461 192.194 305.461C192.05 305.461 191.909 305.495 191.781 305.561L185.377 309.165C185.163 309.293 185.173 309.506 185.377 309.634L191.372 313.079C191.501 313.142 191.643 313.174 191.786 313.174C191.929 313.174 192.071 313.142 192.2 313.079L198.581 309.421C198.85 309.304 198.839 309.101 198.603 308.962V308.994ZM223.742 253.233C223.868 253.299 224.009 253.333 224.151 253.333C224.293 253.333 224.433 253.299 224.559 253.233L229.748 250.258C229.963 250.141 229.952 249.928 229.748 249.789L223.753 246.355C223.625 246.29 223.483 246.255 223.34 246.255C223.196 246.255 223.054 246.29 222.926 246.355L217.748 249.33C217.522 249.458 217.543 249.672 217.748 249.8L223.742 253.233ZM208.583 261.924C208.712 261.987 208.854 262.02 208.997 262.02C209.14 262.02 209.282 261.987 209.411 261.924L214.6 258.949C214.815 258.832 214.804 258.619 214.6 258.48L208.605 255.046C208.476 254.983 208.335 254.95 208.191 254.95C208.048 254.95 207.906 254.983 207.778 255.046L202.567 257.979C202.341 258.107 202.352 258.32 202.567 258.448L208.583 261.924ZM174.989 281.173C175.117 281.236 175.259 281.268 175.402 281.268C175.546 281.268 175.687 281.236 175.816 281.173L180.994 278.197C181.22 278.069 181.209 277.856 180.994 277.728L174.978 274.305C174.85 274.24 174.708 274.205 174.564 274.205C174.42 274.205 174.278 274.24 174.151 274.305L168.961 277.28C168.747 277.398 168.757 277.611 168.961 277.749L174.989 281.173ZM216.158 257.573C216.285 257.639 216.427 257.673 216.571 257.673C216.715 257.673 216.857 257.639 216.985 257.573L222.174 254.598C222.389 254.481 222.378 254.268 222.174 254.129L216.179 250.695C216.051 250.63 215.909 250.596 215.765 250.596C215.622 250.596 215.48 250.63 215.352 250.695L210.173 253.671C209.948 253.798 209.969 254.012 210.173 254.14L216.158 257.573ZM201.009 266.264C201.138 266.328 201.279 266.36 201.423 266.36C201.566 266.36 201.708 266.328 201.837 266.264L207.026 263.3C207.24 263.172 207.23 262.959 207.026 262.82L200.999 259.376C200.871 259.31 200.729 259.276 200.585 259.276C200.441 259.276 200.299 259.31 200.171 259.376L195.047 262.319C194.821 262.447 194.832 262.66 195.047 262.799L201.009 266.264ZM202.76 309.496C202.633 309.43 202.491 309.396 202.347 309.396C202.203 309.396 202.061 309.43 201.933 309.496L193.972 314.07C193.757 314.198 193.768 314.412 193.972 314.55L199.989 318.027C200.117 318.09 200.259 318.122 200.402 318.122C200.546 318.122 200.687 318.09 200.816 318.027L208.788 313.463C209.002 313.335 208.992 313.121 208.788 312.983L202.76 309.496ZM190.137 272.439C190.265 272.504 190.407 272.538 190.55 272.538C190.694 272.538 190.836 272.504 190.964 272.439L196.121 269.506C196.336 269.378 196.325 269.165 196.121 269.026L190.126 265.593C189.997 265.53 189.856 265.497 189.712 265.497C189.569 265.497 189.427 265.53 189.299 265.593L184.121 268.557C183.895 268.685 183.906 268.898 184.121 269.037L190.137 272.439ZM182.563 276.779C182.691 276.842 182.833 276.875 182.976 276.875C183.12 276.875 183.261 276.842 183.39 276.779L188.579 273.804C188.794 273.676 188.783 273.463 188.579 273.335L182.584 269.901C182.456 269.835 182.314 269.801 182.171 269.801C182.027 269.801 181.885 269.835 181.757 269.901L176.568 272.865C176.353 272.993 176.364 273.207 176.568 273.345L182.563 276.779ZM343.113 229.09C342.985 229.027 342.843 228.995 342.7 228.995C342.556 228.995 342.415 229.027 342.286 229.09L329.523 236.406C329.308 236.534 329.319 236.747 329.523 236.875L335.518 240.319C335.646 240.382 335.788 240.415 335.931 240.415C336.075 240.415 336.216 240.382 336.345 240.319L349.097 233.004C349.323 232.887 349.312 232.673 349.097 232.535L343.113 229.09ZM326.364 238.688C326.236 238.622 326.094 238.588 325.951 238.588C325.807 238.588 325.665 238.622 325.537 238.688L320.359 241.663C320.133 241.791 320.144 242.004 320.359 242.132L326.353 245.566C326.481 245.631 326.623 245.666 326.767 245.666C326.911 245.666 327.053 245.631 327.181 245.566L332.37 242.591C332.585 242.474 332.574 242.26 332.37 242.122L326.364 238.688ZM223.753 295.036L228.932 292.071C229.146 291.943 229.136 291.73 228.932 291.591L222.904 288.168C222.776 288.105 222.634 288.072 222.491 288.072C222.347 288.072 222.206 288.105 222.077 288.168L216.899 291.133C216.673 291.261 216.695 291.474 216.899 291.612L222.894 295.046C223.027 295.115 223.175 295.151 223.325 295.149C223.475 295.147 223.622 295.108 223.753 295.036V295.036ZM311.216 247.368C311.088 247.303 310.946 247.269 310.802 247.269C310.658 247.269 310.517 247.303 310.389 247.368L305.2 250.333C304.985 250.461 304.995 250.674 305.2 250.813L311.194 254.246C311.323 254.309 311.465 254.342 311.608 254.342C311.751 254.342 311.893 254.309 312.022 254.246L317.2 251.282C317.426 251.154 317.415 250.941 317.2 250.802L311.216 247.368ZM350.687 224.75C350.56 224.685 350.418 224.651 350.274 224.651C350.13 224.651 349.988 224.685 349.86 224.75L344.671 227.725C344.456 227.853 344.467 228.067 344.671 228.195L350.666 231.628C350.794 231.694 350.936 231.728 351.08 231.728C351.223 231.728 351.365 231.694 351.493 231.628L356.672 228.653C356.897 228.536 356.886 228.323 356.672 228.184L350.687 224.75ZM364.256 223.844L349.753 215.505C349.625 215.439 349.483 215.405 349.339 215.405C349.195 215.405 349.053 215.439 348.925 215.505L343.747 218.48C343.522 218.597 343.532 218.81 343.747 218.949L358.305 227.288C358.432 227.354 358.574 227.388 358.718 227.388C358.862 227.388 359.004 227.354 359.132 227.288L364.321 224.313C364.504 224.185 364.493 223.982 364.256 223.844V223.844ZM282.907 263.641C282.778 263.578 282.637 263.545 282.493 263.545C282.35 263.545 282.208 263.578 282.08 263.641L275.698 267.299C275.483 267.416 275.494 267.629 275.698 267.768L281.693 271.202C281.821 271.267 281.963 271.301 282.106 271.301C282.25 271.301 282.392 271.267 282.52 271.202L288.891 267.544C289.117 267.416 289.106 267.203 288.891 267.064L282.907 263.641ZM302.041 252.679C301.912 252.616 301.771 252.583 301.627 252.583C301.484 252.583 301.342 252.616 301.214 252.679L293.242 257.254C293.027 257.382 293.038 257.595 293.242 257.723L299.258 261.082C299.386 261.147 299.528 261.182 299.672 261.182C299.816 261.182 299.958 261.147 300.086 261.082L308.057 256.507C308.272 256.39 308.261 256.177 308.057 256.038L302.041 252.679ZM265.363 273.697C265.235 273.632 265.093 273.598 264.949 273.598C264.805 273.598 264.663 273.632 264.535 273.697L221.905 298.075C221.68 298.203 221.701 298.416 221.905 298.555L227.9 301.988C228.029 302.051 228.17 302.084 228.314 302.084C228.457 302.084 228.599 302.051 228.727 301.988L271.379 277.547C271.605 277.419 271.594 277.206 271.379 277.067L265.363 273.697ZM220.305 299.514C220.176 299.451 220.034 299.419 219.891 299.419C219.747 299.419 219.606 299.451 219.477 299.514L213.096 303.097C212.881 303.225 212.892 303.428 213.096 303.567L219.091 307C219.218 307.066 219.36 307.1 219.504 307.1C219.648 307.1 219.79 307.066 219.918 307L226.299 303.343C226.514 303.215 226.504 303.001 226.299 302.873L220.305 299.514ZM274.129 268.675C274.001 268.609 273.86 268.575 273.716 268.575C273.572 268.575 273.43 268.609 273.302 268.675L266.931 272.332C266.706 272.46 266.716 272.673 266.931 272.812L272.926 276.246C273.055 276.309 273.196 276.342 273.34 276.342C273.483 276.342 273.625 276.309 273.753 276.246L280.135 272.588C280.35 272.46 280.339 272.258 280.135 272.119L274.129 268.675ZM211.538 304.548C211.41 304.482 211.268 304.448 211.124 304.448C210.98 304.448 210.839 304.482 210.711 304.548L204.329 308.205C204.103 308.333 204.125 308.547 204.329 308.685L210.324 312.119C210.452 312.182 210.594 312.215 210.737 312.215C210.881 312.215 211.022 312.182 211.151 312.119L217.608 308.429C217.834 308.301 217.823 308.099 217.608 307.96L211.538 304.548ZM291.673 258.619C291.545 258.556 291.403 258.523 291.26 258.523C291.116 258.523 290.975 258.556 290.846 258.619L284.465 262.276C284.25 262.404 284.26 262.617 284.465 262.756L290.459 266.19C290.587 266.255 290.729 266.289 290.873 266.289C291.017 266.289 291.159 266.255 291.287 266.19L297.668 262.543C297.883 262.415 297.872 262.202 297.668 262.063L291.673 258.619ZM318.79 243.081C318.661 243.018 318.52 242.986 318.376 242.986C318.233 242.986 318.091 243.018 317.963 243.081L312.774 246.057C312.559 246.185 312.57 246.398 312.774 246.526L318.769 249.97C318.897 250.033 319.039 250.066 319.182 250.066C319.326 250.066 319.467 250.033 319.596 249.97L324.785 247.006C325 246.878 324.989 246.664 324.785 246.526L318.79 243.081ZM335.389 231.117L340.567 228.141C340.793 228.013 340.782 227.811 340.567 227.672L334.551 224.185C334.423 224.12 334.281 224.085 334.137 224.085C333.993 224.085 333.851 224.12 333.723 224.185L328.534 227.16C328.319 227.288 328.33 227.502 328.534 227.629L334.529 231.063C334.661 231.134 334.809 231.171 334.959 231.171C335.109 231.171 335.257 231.134 335.389 231.063V231.117ZM301.515 230.903L306.704 227.928C306.918 227.8 306.908 227.587 306.704 227.459L300.709 224.025C300.581 223.96 300.439 223.925 300.295 223.925C300.151 223.925 300.009 223.96 299.881 224.025L294.703 227C294.478 227.118 294.488 227.331 294.703 227.469L300.698 230.903C300.829 230.956 300.971 230.979 301.112 230.97C301.254 230.961 301.391 230.92 301.515 230.85V230.903ZM284.325 260.367L299.473 251.676C299.688 251.559 299.677 251.346 299.473 251.207L293.478 247.773C293.35 247.708 293.209 247.674 293.065 247.674C292.921 247.674 292.779 247.708 292.651 247.773L277.503 256.454C277.277 256.582 277.299 256.795 277.503 256.934L283.498 260.367C283.635 260.428 283.784 260.454 283.934 260.445C284.084 260.436 284.229 260.391 284.357 260.314L284.325 260.367ZM326.955 235.435C327.083 235.501 327.225 235.535 327.369 235.535C327.513 235.535 327.654 235.501 327.782 235.435L332.961 232.471C333.186 232.343 333.165 232.13 332.961 231.991L326.966 228.557C326.837 228.494 326.696 228.461 326.552 228.461C326.409 228.461 326.267 228.494 326.139 228.557L320.949 231.532C320.735 231.66 320.745 231.874 320.949 232.002L326.955 235.435ZM319.22 230.551L324.398 227.576C324.624 227.459 324.613 227.246 324.398 227.107L318.403 223.673C318.275 223.608 318.134 223.574 317.99 223.574C317.846 223.574 317.704 223.608 317.576 223.673L312.387 226.648C312.172 226.776 312.183 226.99 312.387 227.118L318.382 230.551C318.52 230.616 318.672 230.645 318.824 230.636C318.976 230.627 319.123 230.579 319.252 230.498L319.22 230.551ZM276.74 264.676L281.929 261.7C282.144 261.572 282.133 261.359 281.929 261.231L275.934 257.797C275.806 257.732 275.665 257.698 275.521 257.698C275.377 257.698 275.235 257.732 275.107 257.797L269.929 260.773C269.703 260.89 269.725 261.103 269.929 261.242L275.913 264.676C276.043 264.749 276.189 264.79 276.339 264.796C276.488 264.801 276.637 264.771 276.772 264.708L276.74 264.676ZM310.206 245.001C310.334 245.066 310.476 245.1 310.62 245.1C310.764 245.1 310.905 245.066 311.033 245.001L316.222 242.026C316.437 241.908 316.426 241.695 316.222 241.556L310.227 238.123C310.1 238.057 309.958 238.023 309.814 238.023C309.67 238.023 309.528 238.057 309.4 238.123L304.222 241.098C303.996 241.226 304.007 241.439 304.222 241.567L310.206 245.001ZM238.869 286.376L244.048 283.412C244.273 283.284 244.252 283.071 244.048 282.932L238.021 279.477C237.892 279.414 237.75 279.381 237.607 279.381C237.463 279.381 237.322 279.414 237.193 279.477L232.004 282.452C231.789 282.58 231.8 282.793 232.004 282.932L237.999 286.366C238.138 286.44 238.294 286.478 238.452 286.476C238.609 286.474 238.764 286.432 238.902 286.355L238.869 286.376ZM246.443 282.036L251.622 279.072C251.847 278.944 251.837 278.73 251.622 278.592L245.627 275.158C245.498 275.095 245.357 275.062 245.213 275.062C245.07 275.062 244.928 275.095 244.8 275.158L239.611 278.133C239.396 278.261 239.406 278.475 239.611 278.603L245.605 282.036C245.741 282.106 245.891 282.14 246.043 282.137C246.195 282.133 246.344 282.091 246.476 282.015L246.443 282.036ZM231.295 290.717L236.473 287.752C236.699 287.624 236.678 287.411 236.473 287.272L230.5 283.817C230.372 283.752 230.23 283.718 230.086 283.718C229.943 283.718 229.801 283.752 229.673 283.817L224.484 286.782C224.269 286.91 224.28 287.123 224.484 287.262L230.479 290.695C230.61 290.762 230.755 290.796 230.903 290.796C231.05 290.796 231.196 290.762 231.327 290.695L231.295 290.717ZM261.656 273.335L266.845 270.359C267.06 270.231 267.049 270.029 266.845 269.89L260.85 266.456C260.723 266.391 260.581 266.357 260.437 266.357C260.293 266.357 260.151 266.391 260.023 266.456L254.845 269.432C254.619 269.56 254.63 269.762 254.845 269.901L260.84 273.335C260.966 273.398 261.106 273.432 261.248 273.432C261.39 273.432 261.53 273.398 261.656 273.335ZM254.082 277.675L259.271 274.7C259.486 274.582 259.475 274.369 259.271 274.23L253.276 270.797C253.148 270.731 253.007 270.697 252.863 270.697C252.719 270.697 252.577 270.731 252.449 270.797L247.26 273.772C247.045 273.9 247.056 274.113 247.26 274.241L253.255 277.675C253.379 277.735 253.514 277.766 253.652 277.766C253.79 277.766 253.926 277.735 254.05 277.675H254.082ZM269.177 268.973L274.366 265.998C274.581 265.87 274.57 265.667 274.366 265.529L268.371 262.095C268.243 262.029 268.101 261.995 267.957 261.995C267.813 261.995 267.672 262.029 267.544 262.095L262.365 265.07C262.14 265.198 262.161 265.401 262.365 265.539L268.36 268.973C268.487 269.037 268.627 269.07 268.768 269.07C268.91 269.07 269.05 269.037 269.177 268.973ZM303.835 204.745C303.963 204.81 304.105 204.845 304.249 204.845C304.393 204.845 304.534 204.81 304.662 204.745L309.851 201.77C310.066 201.642 310.056 201.439 309.851 201.3L308.251 200.383C308.123 200.318 307.981 200.284 307.837 200.284C307.693 200.284 307.551 200.318 307.423 200.383L302.245 203.348C302.03 203.476 302.041 203.689 302.245 203.828L303.835 204.745ZM266.566 228.632C266.695 228.695 266.836 228.728 266.98 228.728C267.123 228.728 267.265 228.695 267.393 228.632L272.572 225.667C272.797 225.539 272.786 225.326 272.572 225.187L266.577 221.754C266.449 221.688 266.307 221.654 266.163 221.654C266.019 221.654 265.877 221.688 265.749 221.754L260.582 224.74C260.367 224.868 260.378 225.081 260.582 225.219L266.566 228.632ZM281.714 219.941C281.842 220.006 281.984 220.04 282.128 220.04C282.272 220.04 282.414 220.006 282.542 219.941L287.731 216.976C287.945 216.848 287.935 216.635 287.731 216.496L281.736 213.063C281.607 213 281.466 212.967 281.322 212.967C281.179 212.967 281.037 213 280.909 213.063L275.719 216.038C275.505 216.166 275.515 216.379 275.719 216.507L281.714 219.941ZM257.359 233.953C257.487 234.019 257.629 234.053 257.772 234.053C257.916 234.053 258.058 234.019 258.186 233.953L263.364 230.989C263.59 230.861 263.579 230.647 263.364 230.509L257.359 227.086C257.23 227.023 257.089 226.99 256.945 226.99C256.802 226.99 256.66 227.023 256.532 227.086L251.342 230.05C251.128 230.178 251.138 230.391 251.342 230.53L257.359 233.953ZM274.183 224.356C274.312 224.419 274.453 224.451 274.597 224.451C274.74 224.451 274.882 224.419 275.01 224.356L280.189 221.391C280.414 221.263 280.404 221.05 280.189 220.911L274.194 217.477C274.066 217.412 273.924 217.378 273.78 217.378C273.636 217.378 273.494 217.412 273.367 217.477L268.102 220.399C267.887 220.527 267.898 220.741 268.102 220.869L274.183 224.356ZM242.189 242.633C242.318 242.696 242.459 242.729 242.603 242.729C242.746 242.729 242.888 242.696 243.016 242.633L248.195 239.658C248.409 239.53 248.399 239.317 248.195 239.189L242.2 235.755C242.072 235.69 241.93 235.656 241.786 235.656C241.642 235.656 241.5 235.69 241.372 235.755L236.194 238.72C235.969 238.848 235.99 239.061 236.194 239.2L242.189 242.633ZM249.763 238.293C249.891 238.359 250.033 238.393 250.177 238.393C250.321 238.393 250.463 238.359 250.59 238.293L255.769 235.329C255.994 235.201 255.973 234.987 255.769 234.849L249.785 231.415C249.656 231.352 249.514 231.319 249.371 231.319C249.228 231.319 249.086 231.352 248.957 231.415L243.768 234.38C243.553 234.508 243.564 234.721 243.768 234.86L249.763 238.293ZM288.708 213.447C288.836 213.512 288.978 213.546 289.122 213.546C289.266 213.546 289.408 213.512 289.536 213.447L294.714 210.482C294.939 210.354 294.929 210.141 294.714 210.002L293.113 209.085C292.984 209.022 292.843 208.989 292.699 208.989C292.556 208.989 292.415 209.022 292.286 209.085L287.108 212.05C286.882 212.178 286.893 212.391 287.108 212.529L288.708 213.447ZM311.431 200.426C311.559 200.492 311.7 200.526 311.844 200.526C311.988 200.526 312.13 200.492 312.258 200.426L317.447 197.451C317.662 197.323 317.651 197.11 317.447 196.982L315.857 196.065C315.728 196.002 315.587 195.969 315.443 195.969C315.3 195.969 315.158 196.002 315.03 196.065L309.841 199.04C309.626 199.168 309.637 199.381 309.841 199.509L311.431 200.426ZM324.022 207.645C324.151 207.708 324.292 207.741 324.436 207.741C324.579 207.741 324.721 207.708 324.849 207.645L330.038 204.681C330.253 204.553 330.243 204.34 330.038 204.201L323.968 200.778C323.84 200.715 323.698 200.682 323.555 200.682C323.411 200.682 323.27 200.715 323.141 200.778L317.963 203.742C317.737 203.87 317.748 204.084 317.963 204.222L324.022 207.645ZM342.963 226.723L348.141 223.748C348.367 223.62 348.356 223.417 348.141 223.279L342.146 219.845C342.018 219.779 341.877 219.745 341.733 219.745C341.589 219.745 341.447 219.779 341.319 219.845L336.13 222.82C335.915 222.948 335.926 223.151 336.13 223.289L342.125 226.723C342.254 226.79 342.398 226.825 342.544 226.825C342.69 226.825 342.834 226.79 342.963 226.723V226.723ZM296.282 209.106C296.41 209.172 296.552 209.206 296.696 209.206C296.84 209.206 296.982 209.172 297.11 209.106L302.299 206.131C302.514 206.014 302.503 205.801 302.299 205.662L300.698 204.745C300.569 204.682 300.428 204.649 300.284 204.649C300.141 204.649 299.999 204.682 299.871 204.745L294.692 207.709C294.467 207.837 294.488 208.051 294.692 208.189L296.282 209.106ZM234.604 246.974C234.733 247.037 234.874 247.069 235.018 247.069C235.161 247.069 235.303 247.037 235.431 246.974L240.62 243.998C240.835 243.87 240.825 243.657 240.62 243.529L234.626 240.095C234.498 240.03 234.356 239.996 234.212 239.996C234.068 239.996 233.926 240.03 233.798 240.095L228.62 243.071C228.394 243.188 228.416 243.401 228.62 243.54L234.604 246.974Z" fill="#E0E0E0"/>
<path d="M265.408 293.725L322.145 261.211L357.061 281.216L300.325 313.73L265.408 293.725Z" fill="#263238"/>
<path d="M151.448 100.886L320.496 4.00491C323.805 2.10675 326.513 3.66366 326.513 7.44932V137.42C326.456 138.381 326.174 139.315 325.689 140.148C325.204 140.981 324.53 141.69 323.719 142.219L150.373 241.552C148.837 242.427 147.58 241.712 147.58 239.953V107.529C147.657 106.199 148.047 104.905 148.719 103.752C149.391 102.598 150.325 101.616 151.448 100.886V100.886Z" fill="#F5F5F5"/>
<path d="M326.513 10.5663V7.45246C326.513 3.6668 323.805 2.12055 320.496 4.00804L151.448 100.889C150.325 101.62 149.391 102.601 148.719 103.755C148.047 104.908 147.657 106.202 147.58 107.532V113.11L326.513 10.5663Z" fill="#263238"/>
<path d="M301.295 17.6444C300.699 18.0396 300.205 18.5674 299.85 19.1857C299.496 19.804 299.292 20.4958 299.254 21.2061C299.254 22.5177 300.189 23.0509 301.327 22.3898C301.932 22.0035 302.435 21.48 302.796 20.8625C303.156 20.2451 303.364 19.5514 303.401 18.8387C303.369 17.5271 302.477 16.9939 301.295 17.6444Z" fill="#E0E0E0"/>
<path d="M309.517 12.9492C308.912 13.3378 308.409 13.8633 308.048 14.4824C307.688 15.1016 307.481 15.7967 307.443 16.5109C307.443 17.8225 308.367 18.345 309.517 17.6946C310.125 17.2998 310.631 16.7672 310.991 16.1405C311.352 15.5138 311.557 14.8111 311.59 14.0902C311.59 12.8212 310.656 12.288 309.517 12.9492Z" fill="#E0E0E0"/>
<path d="M317.736 8.25373C317.132 8.64364 316.63 9.1694 316.269 9.78829C315.909 10.4072 315.701 11.1017 315.662 11.8154C315.662 13.1271 316.586 13.6603 317.736 12.9991C318.337 12.6104 318.837 12.0861 319.196 11.469C319.554 10.8519 319.761 10.1594 319.798 9.44808C319.798 8.13643 318.874 7.60324 317.736 8.25373Z" fill="#E0E0E0"/>
<path d="M147.58 113.09V138.097L326.502 35.5642V10.5469L147.58 113.09Z" fill="#FF0A54"/>
<path opacity="0.1" d="M147.58 113.09V138.097L326.502 35.5642V10.5469L147.58 113.09Z" fill="black"/>
<path d="M159.298 125.071C158.697 125.257 158.058 125.29 157.44 125.167V112.914C157.435 112.682 157.486 112.451 157.59 112.243C157.718 112.042 157.896 111.876 158.106 111.763L159.03 111.24C159.266 111.102 159.438 111.059 159.546 111.123C159.653 111.187 159.707 111.347 159.707 111.613V115.644C160.049 115.116 160.461 114.636 160.931 114.215C161.431 113.766 161.978 113.372 162.564 113.042C163.918 112.264 164.96 112.083 165.702 112.52C166.443 112.957 166.776 113.949 166.776 115.484C166.794 117.208 166.349 118.905 165.487 120.4C164.568 121.942 163.251 123.212 161.673 124.079C160.931 124.517 160.132 124.851 159.298 125.071V125.071ZM163.789 120.07C164.295 119.08 164.542 117.98 164.509 116.871C164.509 115.804 164.316 115.164 163.94 114.898C163.564 114.631 162.93 114.738 162.038 115.25C161.402 115.621 160.85 116.118 160.416 116.711C159.97 117.262 159.72 117.945 159.707 118.651V122.853C159.991 122.883 160.278 122.847 160.545 122.746C160.918 122.626 161.277 122.469 161.619 122.277C162.539 121.761 163.292 120.995 163.789 120.07V120.07Z" fill="#FAFAFA"/>
<path d="M168.718 119.569C168.611 119.494 168.557 119.345 168.557 119.089V106.548C168.551 106.314 168.606 106.082 168.718 105.876C168.84 105.671 169.019 105.504 169.234 105.396L170.19 104.853C170.427 104.714 170.598 104.682 170.706 104.735C170.813 104.789 170.867 104.959 170.867 105.226V117.767C170.877 117.993 170.825 118.218 170.717 118.417C170.591 118.626 170.408 118.796 170.19 118.908L169.234 119.451C168.987 119.59 168.815 119.665 168.718 119.569Z" fill="#FAFAFA"/>
<path d="M173.91 115.668C173.062 115.209 172.643 114.175 172.643 112.543C172.638 110.929 173.076 109.344 173.91 107.958C174.787 106.5 176.036 105.297 177.531 104.47C179.089 103.575 180.303 103.404 181.151 103.809C182 104.215 182.43 105.302 182.43 106.934C182.436 108.55 181.994 110.136 181.151 111.519C180.275 112.981 179.026 114.187 177.531 115.017C175.962 115.913 174.759 116.126 173.91 115.668ZM179.475 111.103C179.934 110.221 180.163 109.238 180.142 108.245C180.142 107.179 179.916 106.486 179.475 106.177C179.035 105.867 178.401 105.963 177.531 106.454C176.712 106.911 176.038 107.587 175.586 108.405C175.122 109.279 174.889 110.255 174.909 111.242C174.909 112.323 175.135 113.034 175.586 113.375C176.038 113.695 176.661 113.609 177.531 113.13C178.357 112.662 179.031 111.97 179.475 111.135V111.103Z" fill="#FAFAFA"/>
<path d="M186.76 112.698C186.28 112.892 185.764 112.983 185.246 112.965C185.052 112.965 185.009 112.826 185.106 112.591L185.622 111.28C185.662 111.153 185.736 111.038 185.836 110.949C185.896 110.933 185.959 110.933 186.019 110.949C186.941 110.879 187.829 110.575 188.598 110.064C189.326 109.67 189.938 109.093 190.37 108.39C190.776 107.599 190.968 106.717 190.929 105.831C190.611 106.415 190.214 106.954 189.747 107.43C189.262 107.915 188.713 108.331 188.114 108.667C186.771 109.435 185.718 109.616 184.966 109.211C184.214 108.806 183.838 107.825 183.838 106.3C183.824 104.617 184.29 102.965 185.181 101.533C186.15 100.019 187.487 98.7721 189.07 97.9074C189.787 97.4844 190.562 97.1649 191.369 96.9583C191.962 96.7836 192.586 96.7435 193.196 96.841V103.932C193.213 105.511 192.844 107.069 192.121 108.475C191.359 109.884 190.203 111.043 188.791 111.813C188.141 112.166 187.462 112.462 186.76 112.698V112.698ZM190.295 104.807C190.705 104.201 190.926 103.489 190.929 102.759V99.0804C190.629 99.1049 190.335 99.1769 190.059 99.2937C189.687 99.4379 189.327 99.6127 188.984 99.8162C188.085 100.29 187.34 101.008 186.836 101.886C186.332 102.764 186.09 103.766 186.137 104.775C186.137 105.841 186.341 106.438 186.76 106.705C187.179 106.972 187.835 106.844 188.673 106.364C189.331 105.98 189.887 105.447 190.295 104.807V104.807Z" fill="#FAFAFA"/>
<path d="M178.121 131.665V219.567C178.121 220.153 178.433 220.452 178.809 220.228C179.027 220.046 179.201 219.819 179.32 219.563C179.439 219.307 179.499 219.028 179.496 218.745V130.844C179.496 130.257 179.185 129.969 178.809 130.193C178.59 130.371 178.415 130.596 178.296 130.851C178.177 131.106 178.117 131.384 178.121 131.665Z" fill="#FF0A54"/>
<path d="M125.758 165.772L164.746 143.378C166.035 142.642 167.078 143.239 167.078 144.711V171.935C167.034 172.737 166.8 173.517 166.395 174.212C165.989 174.907 165.425 175.497 164.746 175.934L125.758 198.275C124.48 199.011 123.438 198.414 123.438 196.942V169.781C123.48 168.979 123.712 168.198 124.116 167.501C124.519 166.805 125.081 166.212 125.758 165.772V165.772Z" fill="#E0E0E0"/>
<path d="M167.107 144.75C167.107 143.278 166.032 142.681 164.775 143.417L125.787 165.811C125.112 166.25 124.55 166.841 124.147 167.536C123.744 168.23 123.511 169.009 123.467 169.81V172.124L167.107 147.074V144.75Z" fill="#FF0A54"/>
<path d="M127.789 174.596L145.247 164.594V182.104L127.789 192.106V174.596Z" fill="#FAFAFA"/>
<path d="M127.799 189.564L134.342 178.025C134.393 177.909 134.475 177.808 134.578 177.733C134.681 177.657 134.802 177.61 134.93 177.596C135.057 177.582 135.186 177.602 135.303 177.653C135.421 177.704 135.523 177.784 135.599 177.887L137.887 180.382L141.83 171.35C142.066 170.806 142.528 170.753 142.904 171.243L145.289 174.602V182.067L127.831 192.07L127.799 189.564Z" fill="#FF0A54"/>
<path d="M149.621 163.601C149.621 164.433 150.244 164.753 151.018 164.305L161.31 158.408C161.709 158.158 162.043 157.818 162.286 157.416C162.528 157.014 162.672 156.561 162.707 156.094C162.707 155.262 162.084 154.942 161.321 155.39L150.996 161.255C150.595 161.51 150.261 161.855 150.022 162.263C149.783 162.671 149.646 163.13 149.621 163.601V163.601Z" fill="#FAFAFA"/>
<path d="M149.621 170.862C149.621 171.694 150.244 172.014 151.018 171.577L161.31 165.669C161.71 165.42 162.045 165.08 162.288 164.678C162.53 164.276 162.674 163.823 162.707 163.355C162.707 162.523 162.084 162.214 161.321 162.651L150.996 168.495C150.594 168.753 150.26 169.102 150.021 169.514C149.782 169.926 149.645 170.388 149.621 170.862V170.862Z" fill="#FAFAFA"/>
<path d="M149.621 178.001C149.621 178.843 150.244 179.152 151.018 178.715L161.31 172.807C161.71 172.56 162.045 172.223 162.288 171.822C162.53 171.422 162.674 170.97 162.707 170.504C162.707 169.672 162.084 169.352 161.321 169.789L150.996 175.697C150.6 175.947 150.27 176.285 150.031 176.685C149.792 177.086 149.651 177.536 149.621 178.001V178.001Z" fill="#FAFAFA"/>
<path d="M125.758 207.914L164.746 185.573C166.035 184.837 167.078 185.434 167.078 186.906V214.131C167.034 214.932 166.8 215.712 166.395 216.407C165.989 217.102 165.425 217.692 164.746 218.129L125.758 240.524C124.48 241.259 123.438 240.662 123.438 239.191V211.912C123.482 211.112 123.715 210.333 124.118 209.639C124.521 208.944 125.083 208.353 125.758 207.914V207.914Z" fill="#E0E0E0"/>
<path d="M167.107 186.906C167.107 185.434 166.032 184.837 164.775 185.573L125.787 207.914C125.112 208.353 124.55 208.944 124.147 209.639C123.744 210.333 123.511 211.112 123.467 211.912V214.237L167.107 189.22V186.906Z" fill="#FF0A54"/>
<path d="M127.789 216.745L145.247 206.742V224.252L127.789 234.255V216.745Z" fill="#FAFAFA"/>
<path d="M127.799 231.711L134.342 220.172C134.393 220.056 134.475 219.955 134.578 219.88C134.681 219.804 134.802 219.757 134.93 219.743C135.057 219.729 135.186 219.749 135.303 219.8C135.421 219.851 135.523 219.931 135.599 220.034L137.887 222.518L141.83 213.486C142.066 212.942 142.528 212.9 142.904 213.379L145.289 216.739V224.203L127.831 234.206L127.799 231.711Z" fill="#FF0A54"/>
<path d="M149.621 205.737C149.621 206.569 150.244 206.889 151.018 206.452L161.31 200.544C161.71 200.297 162.045 199.959 162.288 199.559C162.53 199.159 162.674 198.707 162.707 198.24C162.707 197.398 162.084 197.089 161.321 197.526L150.996 203.434C150.6 203.683 150.27 204.022 150.031 204.422C149.792 204.822 149.651 205.273 149.621 205.737V205.737Z" fill="#FAFAFA"/>
<path d="M149.621 212.938C149.621 213.781 150.244 214.09 151.018 213.653L161.31 207.745C161.71 207.498 162.045 207.16 162.288 206.76C162.53 206.36 162.674 205.908 162.707 205.441C162.707 204.61 162.084 204.29 161.321 204.727L150.996 210.635C150.6 210.884 150.27 211.223 150.031 211.623C149.792 212.023 149.651 212.474 149.621 212.938Z" fill="#FAFAFA"/>
<path d="M149.621 220.156C149.621 220.988 150.244 221.308 151.018 220.86L161.31 214.963C161.709 214.712 162.043 214.373 162.286 213.971C162.528 213.569 162.672 213.116 162.707 212.649C162.707 211.817 162.084 211.497 161.321 211.945L150.996 217.842C150.601 218.095 150.271 218.436 150.033 218.838C149.794 219.239 149.653 219.691 149.621 220.156V220.156Z" fill="#FAFAFA"/>
<path d="M193.552 166.79L313.417 98.1041C314.695 97.3683 315.738 97.9655 315.738 99.4371V134.126C315.693 134.927 315.46 135.706 315.057 136.4C314.654 137.095 314.092 137.686 313.417 138.125L193.552 206.811C192.263 207.547 191.221 206.95 191.221 205.478V170.789C191.265 169.987 191.499 169.207 191.904 168.512C192.309 167.817 192.874 167.227 193.552 166.79V166.79Z" fill="#E0E0E0"/>
<path d="M315.738 99.4136C315.738 97.942 314.663 97.3448 313.417 98.0806L193.552 166.798C192.874 167.236 192.309 167.826 191.904 168.521C191.499 169.215 191.265 169.996 191.221 170.797V173.111L315.738 101.76V99.4136Z" fill="#FF0A54"/>
<path d="M220.828 159.578L196.613 173.441C196.073 173.794 195.624 174.267 195.301 174.822C194.979 175.378 194.791 176 194.754 176.641V200.4C194.754 201.573 195.592 202.052 196.613 201.466L220.828 187.603C221.368 187.251 221.818 186.778 222.14 186.223C222.463 185.667 222.65 185.044 222.687 184.404V160.645C222.644 159.472 221.806 158.992 220.828 159.578Z" fill="#FAFAFA"/>
<path d="M203.252 180.443L194.711 198.571V200.448C194.711 201.621 195.549 202.101 196.57 201.514L220.785 187.651C221.325 187.299 221.775 186.827 222.098 186.271C222.42 185.716 222.607 185.093 222.644 184.452V176.177L218.067 167.646C217.509 166.58 216.681 166.633 216.219 167.721L209.011 184.516L205.508 180.187C205.392 179.974 205.214 179.801 204.997 179.689C204.781 179.577 204.536 179.532 204.293 179.56C204.051 179.587 203.822 179.686 203.637 179.843C203.451 180.001 203.317 180.209 203.252 180.443V180.443Z" fill="#FF0A54"/>
<path d="M197.515 180.242C198.732 179.454 199.744 178.393 200.47 177.144C201.197 175.896 201.616 174.494 201.694 173.055C201.725 172.294 201.502 171.544 201.06 170.922L196.57 173.492C196.03 173.845 195.581 174.318 195.259 174.873C194.936 175.428 194.748 176.051 194.711 176.691V180.647C195.176 180.81 195.675 180.858 196.163 180.787C196.652 180.717 197.115 180.53 197.515 180.242V180.242Z" fill="#FF0A54"/>
<path d="M233.581 154.343L308.42 111.463C309.495 110.866 310.279 111.271 310.279 112.359C310.23 112.973 310.036 113.567 309.713 114.093C309.39 114.619 308.947 115.063 308.42 115.388L233.581 158.278C232.507 158.864 231.723 158.459 231.723 157.371C231.772 156.757 231.966 156.163 232.289 155.637C232.612 155.111 233.054 154.668 233.581 154.343V154.343Z" fill="#FAFAFA"/>
<path d="M233.581 164.366L308.42 121.487C309.495 120.89 310.279 121.295 310.279 122.383C310.23 122.997 310.036 123.59 309.713 124.117C309.39 124.643 308.947 125.086 308.42 125.411L233.581 168.301C232.507 168.888 231.723 168.482 231.723 167.395C231.773 166.781 231.967 166.187 232.29 165.661C232.613 165.136 233.055 164.692 233.581 164.366V164.366Z" fill="#FAFAFA"/>
<path d="M233.581 174.35L308.42 131.471C309.495 130.874 310.279 131.279 310.279 132.367C310.229 132.982 310.035 133.577 309.712 134.105C309.389 134.632 308.947 135.078 308.42 135.406L233.581 178.307C232.507 178.893 231.723 178.488 231.723 177.4C231.77 176.783 231.962 176.185 232.285 175.655C232.608 175.125 233.052 174.678 233.581 174.35V174.35Z" fill="#FAFAFA"/>
<path d="M356.027 57.1002L345.047 56.7696C344.306 56.1511 332.767 43.2266 332.767 43.2266C332.767 43.2266 328.62 49.7208 328.545 50.1367C328.47 50.5526 339.858 62.6347 340.986 63.8504C341.303 64.2588 341.709 64.5896 342.175 64.817C342.641 65.0444 343.153 65.1625 343.672 65.162C346.648 65.3327 357.789 66.1111 357.789 66.1111L356.027 57.1002Z" fill="#F28F8F"/>
<path d="M371.639 69.6316L354.707 68.3839L356.018 57.1016L373.497 57.4855L371.639 69.6316Z" fill="#FF0A54"/>
<path opacity="0.2" d="M371.639 69.6316L354.707 68.3839L356.018 57.1016L373.497 57.4855L371.639 69.6316Z" fill="black"/>
<path d="M215.372 106.751L335.237 38.065C336.516 37.3292 337.558 37.9264 337.558 39.398V74.0981C337.513 74.8983 337.279 75.6768 336.876 76.3712C336.473 77.0657 335.912 77.6568 335.237 78.097L215.372 146.783C214.083 147.519 213.041 146.921 213.041 145.45V110.75C213.085 109.948 213.319 109.168 213.724 108.473C214.129 107.778 214.694 107.188 215.372 106.751V106.751Z" fill="#E0E0E0"/>
<path d="M337.558 39.398C337.558 37.9264 336.484 37.3292 335.237 38.065L215.372 106.751C214.694 107.188 214.129 107.778 213.724 108.473C213.319 109.168 213.085 109.948 213.041 110.75V113.064L337.558 41.7121V39.398Z" fill="#FF0A54"/>
<path d="M242.604 99.5569L218.388 113.42C217.847 113.771 217.396 114.243 217.074 114.799C216.751 115.355 216.564 115.978 216.529 116.619V140.367C216.529 141.54 217.367 142.02 218.388 141.434L242.604 127.571C243.145 127.22 243.595 126.747 243.918 126.192C244.241 125.636 244.427 125.012 244.462 124.372V100.623C244.462 99.4396 243.624 98.9704 242.604 99.5569Z" fill="#FAFAFA"/>
<path d="M225.124 120.418L216.529 138.493V140.37C216.529 141.543 217.367 142.022 218.388 141.436L242.604 127.573C243.145 127.222 243.595 126.75 243.918 126.194C244.241 125.638 244.427 125.015 244.462 124.374V116.173L239.886 107.642C239.327 106.576 238.5 106.64 238.038 107.717L230.829 124.544L227.326 120.204C227.205 120.011 227.031 119.855 226.824 119.754C226.618 119.653 226.388 119.611 226.159 119.634C225.93 119.656 225.712 119.741 225.529 119.879C225.346 120.018 225.206 120.204 225.124 120.418V120.418Z" fill="#FF0A54"/>
<path d="M219.333 120.206C220.55 119.415 221.562 118.352 222.288 117.102C223.014 115.851 223.433 114.449 223.513 113.008C223.541 112.247 223.319 111.498 222.879 110.875L218.388 113.456C217.847 113.807 217.396 114.279 217.074 114.835C216.751 115.391 216.564 116.014 216.529 116.655V120.6C216.994 120.765 217.492 120.814 217.98 120.746C218.469 120.677 218.933 120.492 219.333 120.206Z" fill="#FF0A54"/>
<path d="M255.402 94.3039L330.241 51.4353C331.315 50.8488 332.099 51.2433 332.099 52.331C332.05 52.9464 331.856 53.5418 331.533 54.0695C331.211 54.5973 330.768 55.0427 330.241 55.3702L255.402 98.2495C254.381 98.836 253.543 98.4414 253.543 97.3537C253.592 96.7367 253.785 96.1395 254.108 95.6099C254.43 95.0803 254.874 94.6331 255.402 94.3039Z" fill="#FAFAFA"/>
<path d="M255.402 104.32L330.241 61.4409C331.315 60.8544 332.099 61.2597 332.099 62.3367C332.05 62.9521 331.856 63.5475 331.533 64.0752C331.211 64.6029 330.768 65.0484 330.241 65.3759L255.402 108.255C254.381 108.852 253.543 108.447 253.543 107.359C253.593 106.744 253.787 106.149 254.11 105.622C254.433 105.094 254.875 104.648 255.402 104.32V104.32Z" fill="#FAFAFA"/>
<path d="M255.402 114.359L330.241 71.48C331.315 70.8935 332.099 71.2987 332.099 72.3758C332.05 72.9912 331.856 73.5865 331.533 74.1143C331.211 74.642 330.768 75.0874 330.241 75.415L255.402 118.294C254.381 118.891 253.543 118.486 253.543 117.398C253.593 116.783 253.787 116.188 254.11 115.661C254.433 115.133 254.875 114.687 255.402 114.359V114.359Z" fill="#FAFAFA"/>
<path d="M393.255 188.914H386.916V198.085H393.255V188.914Z" fill="#FFA8A7"/>
<path d="M370.956 177.549L364.621 177.766L364.939 186.931L371.274 186.715L370.956 177.549Z" fill="#FFA8A7"/>
<path d="M392.844 99.4297C392.844 105.444 393.629 144.335 393.629 144.335C393.779 146.063 395.412 149.251 395.058 155.905C394.585 164.927 393.79 190.03 393.79 190.03C393.79 190.03 390.825 192.962 386.624 190.03C386.624 190.03 380.876 155.959 379.737 147.022C378.749 139.216 377.062 118.006 377.062 118.006L371.239 142.917C371.239 142.917 372.314 148.782 372.507 152.93C372.7 157.078 371.433 180.987 371.433 180.987C370.407 181.626 369.23 181.988 368.02 182.035C366.81 182.081 365.608 181.812 364.535 181.253C364.535 181.253 359.422 146.351 358.723 142.554C358.025 138.758 363.182 99.4297 363.182 99.4297H392.844Z" fill="#455A64"/>
<path d="M383.306 57.7723H383.392C386.106 58.4615 388.511 60.031 390.224 62.2316C391.936 64.4321 392.86 67.1376 392.846 69.9184V99.4359C388.399 104.235 372.896 106.474 363.184 99.4359V68.724C363.184 63.8187 365.923 57.9216 373.508 57.4844L383.306 57.7723Z" fill="#FF0A54"/>
<path d="M385.431 32.6632C385.943 32.604 386.461 32.6617 386.947 32.8317C387.433 33.0017 387.874 33.2796 388.235 33.6442C389.438 34.8599 389.18 37.1206 388.235 42.3033L384.518 42.7298L385.431 32.6632Z" fill="#263238"/>
<path d="M363.796 31.1844C362.995 31.1877 362.202 31.028 361.465 30.7152C360.326 30.0647 360.036 31.3443 360.659 32.464C361.07 33.264 361.681 33.9458 362.434 34.4444C363.186 34.9429 364.055 35.2414 364.957 35.3113C364.957 35.1513 366.031 32.432 366.031 32.432L363.796 31.1844Z" fill="#263238"/>
<path d="M383.693 42.7342C384.251 43.0648 385.036 42.009 385.712 41.3052C385.981 41.0028 386.322 40.773 386.704 40.6373C387.086 40.5016 387.497 40.4646 387.897 40.5296C388.298 40.5946 388.675 40.7596 388.994 41.009C389.313 41.2585 389.563 41.5843 389.72 41.9557C390.848 44.3124 388.291 47.4476 386.787 48.482C386.365 48.8449 385.839 49.0661 385.283 49.114C384.728 49.1619 384.171 49.034 383.693 48.7486L383.306 57.7702C382.641 59.2173 381.625 60.4777 380.348 61.4382C379.07 62.3986 377.573 63.029 375.99 63.2727C370.618 63.9979 371.757 59.6257 373.508 57.4823V54.2085C372.174 54.4901 370.803 54.5585 369.447 54.4111C368.748 54.2298 367.094 52.2783 366.02 50.0069C364.816 47.5009 362.797 43.0541 364.591 35.5361C366.514 27.4636 375.248 27.2183 380.459 30.4708C385.669 33.7233 383.693 42.7342 383.693 42.7342Z" fill="#FFA8A7"/>
<path d="M383.689 43.6636C383.969 43.6636 385.022 41.9254 385.709 41.3069C386.665 40.4538 385.43 32.6692 385.43 32.6692C385.43 32.6692 386.397 29.726 384.517 27.7639C382.637 25.8017 378.995 26.143 376.33 26.047C373.06 26.0667 369.82 25.4206 366.812 24.1489C363.041 22.5173 362.75 22.3253 362.289 23.9782C361.827 25.6311 361.633 29.3955 363.9 31.9334L365.769 32.6159C365.769 32.6159 366.79 33.5117 370.314 33.9382C373.568 34.1819 376.838 34.1177 380.08 33.7463C381.1 33.6077 381.326 34.5994 381.874 37.2867C382.357 39.6434 382.766 43.6423 383.689 43.6636Z" fill="#263238"/>
<path d="M385.432 33.3236L388.763 31.5534C388.656 31.3301 388.506 31.1305 388.32 30.9667C388.133 30.803 387.916 30.6784 387.68 30.6007C387.444 30.5229 387.194 30.4935 386.946 30.5143C386.698 30.5351 386.457 30.6056 386.238 30.7216C385.792 30.9696 385.46 31.3781 385.31 31.8626C385.16 32.347 385.204 32.8702 385.432 33.3236V33.3236Z" fill="#263238"/>
<path d="M373.52 54.2208C375.797 53.7893 378.03 53.154 380.191 52.3226C381.202 51.791 382.032 50.9748 382.576 49.9766C382.316 50.9779 381.856 51.9171 381.223 52.7385C379.955 54.3381 373.52 55.5217 373.52 55.5217V54.2208Z" fill="#F28F8F"/>
<path d="M374.703 41.5117C374.717 41.7045 374.788 41.8888 374.907 42.0419C375.026 42.1951 375.187 42.3105 375.371 42.3739C375.555 42.4373 375.754 42.446 375.943 42.3988C376.132 42.3517 376.302 42.2508 376.434 42.1085C376.566 41.9663 376.653 41.7889 376.685 41.5981C376.716 41.4074 376.691 41.2116 376.612 41.0349C376.533 40.8582 376.404 40.7083 376.24 40.6036C376.077 40.4988 375.886 40.4438 375.691 40.4453C375.555 40.4494 375.421 40.4804 375.298 40.5365C375.174 40.5926 375.063 40.6727 374.971 40.772C374.879 40.8714 374.807 40.988 374.761 41.115C374.715 41.242 374.695 41.3769 374.703 41.5117Z" fill="#263238"/>
<path d="M375.752 37.8046L377.901 38.967C378.052 38.6786 378.085 38.3432 377.993 38.0311C377.901 37.7189 377.691 37.4543 377.406 37.2928C377.266 37.2108 377.109 37.1589 376.947 37.1404C376.785 37.1219 376.621 37.1373 376.465 37.1855C376.309 37.2337 376.165 37.3136 376.043 37.4203C375.92 37.5269 375.821 37.6578 375.752 37.8046Z" fill="#263238"/>
<path d="M374.774 48.1797L372.518 49.0221C372.566 49.1735 372.644 49.3135 372.749 49.4338C372.853 49.5541 372.981 49.6521 373.125 49.7218C373.268 49.7916 373.425 49.8318 373.584 49.8398C373.744 49.8478 373.904 49.8236 374.054 49.7686C374.357 49.6471 374.601 49.4139 374.736 49.1178C374.87 48.8217 374.883 48.4856 374.774 48.1797V48.1797Z" fill="#F28F8F"/>
<path d="M365.868 38.6598L367.801 37.1776C367.711 37.0484 367.595 36.9389 367.46 36.8557C367.326 36.7724 367.175 36.7171 367.019 36.6932C366.862 36.6693 366.702 36.6772 366.548 36.7164C366.395 36.7557 366.251 36.8255 366.125 36.9216C365.867 37.124 365.696 37.4167 365.649 37.7399C365.601 38.063 365.679 38.3922 365.868 38.6598V38.6598Z" fill="#263238"/>
<path d="M366.471 41.227C366.459 41.3628 366.475 41.4997 366.52 41.6287C366.564 41.7578 366.635 41.8763 366.728 41.9766C366.821 42.0769 366.934 42.1569 367.06 42.2115C367.186 42.266 367.322 42.2939 367.459 42.2934C367.674 42.3106 367.89 42.2629 368.077 42.1566C368.265 42.0504 368.416 41.8904 368.511 41.6977C368.605 41.505 368.639 41.2884 368.608 41.0763C368.577 40.8641 368.482 40.6662 368.336 40.5084C368.189 40.3507 367.999 40.2403 367.788 40.1918C367.578 40.1432 367.357 40.1587 367.156 40.2363C366.955 40.3139 366.782 40.45 366.659 40.6267C366.537 40.8034 366.471 41.0126 366.471 41.227V41.227Z" fill="#263238"/>
<path d="M371.508 40.3203L371.186 46.2281L368.07 45.183L371.508 40.3203Z" fill="#F28F8F"/>
<path d="M386.927 194.988V194.092C386.314 194.348 384.907 199.691 382.393 201.973C380.384 203.786 377.655 205.876 376.967 207.891C376.28 209.907 380.771 211.154 382.64 210.824C384.789 210.44 388.57 208.926 389.516 207.518C390.461 206.11 390.902 204.031 391.665 203.007C392.427 201.983 394.2 200.821 394.619 199.627C394.743 198.512 394.619 197.383 394.254 196.321C393.964 195.255 393.641 193.986 393.255 194.092V194.775C392.354 195.484 391.234 195.861 390.085 195.841C389.172 195.873 386.916 195.692 386.927 194.988Z" fill="#263238"/>
<path d="M364.869 185.013C364.536 185.013 364.268 185.482 363.537 186.271C362.453 187.36 361.193 188.261 359.809 188.937C357.435 190.11 352.815 191.923 350.731 192.861C349.42 193.448 349.485 194.994 350.828 195.9C352.171 196.807 355.437 197.436 359.358 196.561C361.507 196.092 364.257 194.141 366.019 194.247C367.781 194.354 371.058 194.322 372.358 193.437C373.657 192.552 373.131 190.654 372.766 189.033C372.368 187.252 371.788 184.533 371.197 184.661V185.215C370.434 186.356 366.556 186.825 364.88 185.983L364.869 185.013Z" fill="#263238"/>
<path d="M385.205 61.875L365.609 81.987C365.609 81.987 348.419 78.9371 342.553 77.2629C340.705 76.7404 339.416 73.9998 339.008 71.931C338.903 70.8538 338.374 69.8612 337.536 69.1691C337.536 69.1691 337.536 70.6727 337.149 73.136C336.999 74.2024 335.301 74.341 333.786 74.6716C328.415 75.8233 326.588 74.6716 324.364 76.2072C322.645 77.4229 324.805 80.5793 328.726 81.6457C334.238 83.1493 337.321 82.4028 340.63 83.224C343.219 83.8638 361.848 89.6223 365.394 90.4327C367.263 90.8379 368.692 90.71 370.765 88.7158C372.839 86.7217 388.267 73.3279 388.267 73.3279L385.205 61.875Z" fill="#FFA8A7"/>
<path d="M386.074 61.1703C383.925 60.6264 370.818 76.0996 370.818 76.0996L378.038 82.114C378.038 82.114 387.385 76.0356 389.039 73.5829C390.694 71.1303 392.574 62.7805 386.074 61.1703Z" fill="#FF0A54"/>
<path d="M378.512 82.5139C378.512 82.5139 388.374 73.7483 388.836 72.7885C389.728 70.9437 389.481 67.5312 389.481 67.5312C389.481 67.5312 390.555 70.4958 389.481 72.7885C388.407 75.0812 380.886 81.5968 379.694 82.7165L378.48 83.8469L377.309 82.7805L378.007 82.1727L378.512 82.5139Z" fill="#FF0A54"/>
<path opacity="0.2" d="M378.512 82.5139C378.512 82.5139 388.374 73.7483 388.836 72.7885C389.728 70.9437 389.481 67.5312 389.481 67.5312C389.481 67.5312 390.555 70.4958 389.481 72.7885C388.407 75.0812 380.886 81.5968 379.694 82.7165L378.48 83.8469L377.309 82.7805L378.007 82.1727L378.512 82.5139Z" fill="black"/>
<path d="M328.961 39.1158C331.11 38.8812 332.539 37.303 333.022 37.7402C333.218 37.9473 333.333 38.2175 333.344 38.5014C333.356 38.7853 333.265 39.0639 333.087 39.2865C332.095 40.0341 331.012 40.6539 329.864 41.1313C329.595 42.2152 329.401 43.3161 329.284 44.4264C329.101 46.058 329.165 49.3211 327.758 50.4302C323.557 53.7786 322.483 48.468 322.644 44.9063C322.891 40.4808 326.716 39.3611 328.961 39.1158Z" fill="#F28F8F"/>
</svg>
