<svg width="401" height="28" viewBox="0 0 401 28" fill="none" xmlns="http://www.w3.org/2000/svg">
<path d="M0 14L401 14" stroke="#2B2E51" stroke-width="3"/>
<circle cx="47" cy="14" r="14" fill="#FF0A54"/>
<circle cx="198" cy="14" r="14" fill="#FF0A54"/>
<circle cx="355" cy="14" r="14" fill="#FF0A54"/>
<path d="M354.745 20.14C354.418 20.14 354.039 20.1167 353.607 20.07C353.176 20.0233 352.756 19.9475 352.347 19.8425C351.951 19.7258 351.618 19.5742 351.35 19.3875C351.082 19.2008 350.947 18.9733 350.947 18.705C350.947 18.5883 350.988 18.425 351.07 18.215C351.163 18.005 351.274 17.8125 351.402 17.6375C351.542 17.4625 351.677 17.375 351.805 17.375C351.91 17.375 352.067 17.4333 352.277 17.55C352.499 17.6667 352.779 17.7892 353.117 17.9175C353.467 18.0342 353.876 18.0925 354.342 18.0925C354.692 18.0925 354.996 18.0283 355.252 17.9C355.509 17.76 355.707 17.5675 355.847 17.3225C355.999 17.0658 356.075 16.7567 356.075 16.395C356.075 15.8117 355.917 15.3683 355.602 15.065C355.287 14.7617 354.762 14.61 354.027 14.61H353.537C353.187 14.61 353.012 14.3183 353.012 13.735V13.42C353.012 12.8367 353.187 12.545 353.537 12.545H353.87C354.255 12.545 354.582 12.4867 354.85 12.37C355.118 12.2417 355.322 12.0725 355.462 11.8625C355.602 11.6408 355.672 11.3842 355.672 11.0925C355.672 10.8008 355.62 10.55 355.515 10.34C355.41 10.13 355.252 9.96667 355.042 9.85C354.832 9.73333 354.57 9.675 354.255 9.675C353.812 9.675 353.456 9.72167 353.187 9.815C352.931 9.89667 352.727 9.98417 352.575 10.0775C352.423 10.1708 352.295 10.2175 352.19 10.2175C352.073 10.2175 351.945 10.1417 351.805 9.99C351.677 9.82667 351.56 9.64 351.455 9.43C351.362 9.22 351.315 9.03917 351.315 8.8875C351.315 8.66583 351.408 8.47917 351.595 8.3275C351.782 8.16417 352.032 8.03 352.347 7.925C352.674 7.82 353.042 7.74417 353.45 7.6975C353.858 7.63917 354.278 7.61 354.71 7.61C355.807 7.61 356.676 7.89 357.317 8.45C357.971 8.99833 358.297 9.73917 358.297 10.6725C358.297 11.2792 358.152 11.8042 357.86 12.2475C357.568 12.6908 357.172 13.0175 356.67 13.2275V13.2975C357.137 13.4725 357.516 13.7175 357.807 14.0325C358.111 14.3358 358.332 14.6917 358.472 15.1C358.624 15.5083 358.7 15.9517 358.7 16.43C358.7 17.0133 358.601 17.5325 358.402 17.9875C358.216 18.4425 357.947 18.8333 357.597 19.16C357.247 19.475 356.827 19.72 356.337 19.895C355.859 20.0583 355.328 20.14 354.745 20.14Z" fill="#F2F2F2"/>
<path d="M194.42 20C194.338 20 194.257 19.9067 194.175 19.72C194.105 19.5333 194.047 19.3175 194 19.0725C193.953 18.8275 193.93 18.6233 193.93 18.46C193.93 18.3317 193.947 18.2442 193.982 18.1975L198.41 12.7725C198.538 12.6092 198.649 12.44 198.742 12.265C198.847 12.09 198.929 11.9033 198.987 11.705C199.046 11.5067 199.075 11.3025 199.075 11.0925C199.075 10.6142 198.917 10.2583 198.602 10.025C198.299 9.79167 197.914 9.675 197.447 9.675C197.074 9.675 196.753 9.73917 196.485 9.8675C196.217 9.98417 195.995 10.1067 195.82 10.235C195.645 10.3633 195.505 10.4275 195.4 10.4275C195.225 10.4275 195.062 10.3575 194.91 10.2175C194.758 10.0775 194.636 9.91417 194.542 9.7275C194.449 9.54083 194.402 9.37167 194.402 9.22C194.402 8.96333 194.502 8.73583 194.7 8.5375C194.91 8.33917 195.184 8.17 195.522 8.03C195.861 7.89 196.234 7.785 196.642 7.715C197.062 7.645 197.477 7.61 197.885 7.61C199.122 7.61 200.067 7.93083 200.72 8.5725C201.373 9.21417 201.7 10.0367 201.7 11.04C201.7 11.2617 201.682 11.4775 201.647 11.6875C201.612 11.8975 201.566 12.1017 201.507 12.3C201.449 12.4983 201.373 12.6908 201.28 12.8775C201.187 13.0642 201.087 13.245 200.982 13.42C200.877 13.5833 200.761 13.7408 200.632 13.8925L197.342 17.9525H201.385C201.735 17.9525 201.91 18.2442 201.91 18.8275V19.125C201.91 19.7083 201.735 20 201.385 20H194.42Z" fill="#F2F2F2"/>
<path d="M43.7874 20C43.4374 20 43.2624 19.7083 43.2624 19.125V18.8275C43.2624 18.2442 43.4374 17.9525 43.7874 17.9525H46.1149V10.095L43.7349 10.445C43.5832 10.445 43.4665 10.3575 43.3849 10.1825C43.3032 10.0075 43.2449 9.80333 43.2099 9.57C43.1865 9.33667 43.1749 9.13833 43.1749 8.975C43.1749 8.70667 43.3265 8.54333 43.6299 8.485L47.9874 7.68C48.1274 7.68 48.279 7.72667 48.4424 7.82C48.6174 7.90167 48.7049 7.995 48.7049 8.1V17.9525H50.4024C50.7524 17.9525 50.9274 18.2442 50.9274 18.8275V19.125C50.9274 19.7083 50.7524 20 50.4024 20H43.7874Z" fill="#F2F2F2"/>
</svg>
