<svg width="150" height="150" viewBox="0 0 150 150" fill="none" xmlns="http://www.w3.org/2000/svg">
<path d="M91.1875 50L75 66.1875L58.8125 50L50 58.8125L66.1875 75L50 91.1875L58.8125 100L75 83.8125L91.1875 100L100 91.1875L83.8125 75L100 58.8125L91.1875 50ZM75 12.5C40.4375 12.5 12.5 40.4375 12.5 75C12.5 109.563 40.4375 137.5 75 137.5C109.563 137.5 137.5 109.563 137.5 75C137.5 40.4375 109.563 12.5 75 12.5ZM75 125C47.4375 125 25 102.562 25 75C25 47.4375 47.4375 25 75 25C102.562 25 125 47.4375 125 75C125 102.562 102.562 125 75 125Z" fill="#E71D36"/>
</svg>
