<svg width="1920" height="856" viewBox="0 0 1920 856" fill="none" xmlns="http://www.w3.org/2000/svg">
<circle cx="-67.5" cy="234.5" r="222" stroke="white" stroke-width="25"/>
<circle cx="1616.77" cy="673.887" r="11.4536" transform="rotate(-39.1316 1616.77 673.887)" fill="white" fill-opacity="0.7"/>
<circle cx="1583.04" cy="632.428" r="11.4536" transform="rotate(-39.1316 1583.04 632.428)" fill="white" fill-opacity="0.7"/>
<circle cx="1684.23" cy="756.808" r="11.4536" transform="rotate(-39.1316 1684.23 756.808)" fill="white" fill-opacity="0.7"/>
<circle cx="1650.5" cy="715.351" r="11.4536" transform="rotate(-39.1316 1650.5 715.351)" fill="white" fill-opacity="0.7"/>
<circle cx="1717.97" cy="798.269" r="11.4536" transform="rotate(-39.1316 1717.97 798.269)" fill="white" fill-opacity="0.7"/>
<circle cx="1751.7" cy="839.728" r="11.4536" transform="rotate(-39.1316 1751.7 839.728)" fill="white" fill-opacity="0.7"/>
<circle cx="1782.61" cy="538.953" r="11.4536" transform="rotate(-39.1316 1782.61 538.953)" fill="white" fill-opacity="0.7"/>
<circle cx="1748.88" cy="497.496" r="11.4536" transform="rotate(-39.1316 1748.88 497.496)" fill="white" fill-opacity="0.7"/>
<circle cx="1850.08" cy="621.879" r="11.4536" transform="rotate(-39.1316 1850.08 621.879)" fill="white" fill-opacity="0.7"/>
<circle cx="1816.35" cy="580.42" r="11.4536" transform="rotate(-39.1316 1816.35 580.42)" fill="white" fill-opacity="0.7"/>
<circle cx="1883.81" cy="663.342" r="11.4536" transform="rotate(-39.1316 1883.81 663.342)" fill="white" fill-opacity="0.7"/>
<circle cx="1917.54" cy="704.803" r="11.4536" transform="rotate(-39.1316 1917.54 704.803)" fill="white" fill-opacity="0.7"/>
<circle cx="1699.69" cy="606.424" r="11.4536" transform="rotate(-39.1316 1699.69 606.424)" fill="white" fill-opacity="0.7"/>
<circle cx="1665.96" cy="564.959" r="11.4536" transform="rotate(-39.1316 1665.96 564.959)" fill="white" fill-opacity="0.7"/>
<circle cx="1767.16" cy="689.348" r="11.4536" transform="rotate(-39.1316 1767.16 689.348)" fill="white" fill-opacity="0.7"/>
<circle cx="1733.42" cy="647.885" r="11.4536" transform="rotate(-39.1316 1733.42 647.885)" fill="white" fill-opacity="0.7"/>
<circle cx="1800.89" cy="730.807" r="11.4536" transform="rotate(-39.1316 1800.89 730.807)" fill="white" fill-opacity="0.7"/>
<circle cx="1834.62" cy="772.267" r="11.4536" transform="rotate(-39.1316 1834.62 772.267)" fill="white" fill-opacity="0.7"/>
<circle cx="1865.53" cy="471.492" r="11.4536" transform="rotate(-39.1316 1865.53 471.492)" fill="white" fill-opacity="0.7"/>
<circle cx="1831.8" cy="430.029" r="11.4536" transform="rotate(-39.1316 1831.8 430.029)" fill="white" fill-opacity="0.7"/>
<circle cx="1933" cy="554.418" r="11.4536" transform="rotate(-39.1316 1933 554.418)" fill="white" fill-opacity="0.7"/>
<circle cx="1899.27" cy="512.957" r="11.4536" transform="rotate(-39.1316 1899.27 512.957)" fill="white" fill-opacity="0.7"/>
<circle cx="1658.23" cy="640.154" r="11.4536" transform="rotate(-39.1316 1658.23 640.154)" fill="white" fill-opacity="0.7"/>
<circle cx="1624.5" cy="598.693" r="11.4536" transform="rotate(-39.1316 1624.5 598.693)" fill="white" fill-opacity="0.7"/>
<circle cx="1725.7" cy="723.076" r="11.4536" transform="rotate(-39.1316 1725.7 723.076)" fill="white" fill-opacity="0.7"/>
<circle cx="1691.96" cy="681.617" r="11.4536" transform="rotate(-39.1316 1691.96 681.617)" fill="white" fill-opacity="0.7"/>
<circle cx="1759.43" cy="764.539" r="11.4536" transform="rotate(-39.1316 1759.43 764.539)" fill="white" fill-opacity="0.7"/>
<circle cx="1793.16" cy="805.998" r="11.4536" transform="rotate(-39.1316 1793.16 805.998)" fill="white" fill-opacity="0.7"/>
<circle cx="1824.07" cy="505.226" r="11.4536" transform="rotate(-39.1316 1824.07 505.226)" fill="white" fill-opacity="0.7"/>
<circle cx="1790.34" cy="463.762" r="11.4536" transform="rotate(-39.1316 1790.34 463.762)" fill="white" fill-opacity="0.7"/>
<circle cx="1891.54" cy="588.144" r="11.4536" transform="rotate(-39.1316 1891.54 588.144)" fill="white" fill-opacity="0.7"/>
<circle cx="1857.81" cy="546.687" r="11.4536" transform="rotate(-39.1316 1857.81 546.687)" fill="white" fill-opacity="0.7"/>
<circle cx="1925.27" cy="629.609" r="11.4536" transform="rotate(-39.1316 1925.27 629.609)" fill="white" fill-opacity="0.7"/>
<circle cx="1741.15" cy="572.689" r="11.4536" transform="rotate(-39.1316 1741.15 572.689)" fill="white" fill-opacity="0.7"/>
<circle cx="1707.42" cy="531.228" r="11.4536" transform="rotate(-39.1316 1707.42 531.228)" fill="white" fill-opacity="0.7"/>
<circle cx="1808.62" cy="655.611" r="11.4536" transform="rotate(-39.1316 1808.62 655.611)" fill="white" fill-opacity="0.7"/>
<circle cx="1774.89" cy="614.15" r="11.4536" transform="rotate(-39.1316 1774.89 614.15)" fill="white" fill-opacity="0.7"/>
<circle cx="1842.35" cy="697.072" r="11.4536" transform="rotate(-39.1316 1842.35 697.072)" fill="white" fill-opacity="0.7"/>
<circle cx="1876.08" cy="738.533" r="11.4536" transform="rotate(-39.1316 1876.08 738.533)" fill="white" fill-opacity="0.7"/>
<circle cx="1907" cy="437.76" r="11.4536" transform="rotate(-39.1316 1907 437.76)" fill="white" fill-opacity="0.7"/>
<circle cx="1873.26" cy="396.299" r="11.4536" transform="rotate(-39.1316 1873.26 396.299)" fill="white" fill-opacity="0.7"/>
<circle cx="1914.72" cy="362.564" r="11.4536" transform="rotate(-39.1316 1914.72 362.564)" fill="white" fill-opacity="0.7"/>
</svg>
