<svg width="52" height="52" viewBox="0 0 52 52" fill="none" xmlns="http://www.w3.org/2000/svg">
<g id="Frame 117">
<g id="Frame 118">
<path id="Vector" d="M20.8092 51.8145C17.6824 51.8145 14.5554 50.6865 12.2818 48.6721C11.334 47.8661 11.4292 46.5773 12.2818 45.8517C13.2296 45.0457 14.7452 45.1267 15.5985 45.8517C17.0195 47.0601 18.9152 47.8661 20.81 47.7856C21.9469 47.7856 23.5575 47.4636 24.9793 46.2546C25.169 46.0933 25.2635 46.0129 25.4532 45.9325L41.7507 31.7515C49.0468 25.5471 49.0468 14.9919 41.7507 8.78769C34.4546 2.58329 22.5159 2.58329 15.1252 8.78769C14.1774 9.59367 12.6618 9.59367 11.8085 8.78769C10.8607 7.98171 10.8607 6.69289 11.8085 5.96729C20.9995 -1.84847 35.8757 -1.84847 45.0667 5.96729C54.1633 13.7028 54.1633 26.8362 45.0667 34.5713L28.3904 49.0748C28.2959 49.1552 28.1062 49.3165 27.9165 49.3969C26.0216 51.0082 23.4631 51.8945 20.7155 51.8945C20.9038 51.8142 20.9038 51.8142 20.8093 51.8142L20.8092 51.8145Z" fill="#FF0A54"/>
<path id="Vector_2" d="M2.52063 31.1946C2.14188 31.1946 1.66796 31.1142 1.28857 30.9529C0.151679 30.3886 -0.22771 29.1801 0.4359 28.2133C1.00435 27.3269 1.00435 26.1184 0.4359 25.2321C-0.227727 24.2653 0.151679 23.0563 1.28857 22.4925C2.42546 21.9282 3.8472 22.2508 4.51017 23.2176C6.02645 25.3934 6.02645 28.0526 4.51017 30.2278C4.13143 30.8725 3.37396 31.1946 2.52059 31.1946L2.52063 31.1946Z" fill="#FF0A54"/>
<path id="Vector_3" d="M10.5717 34.9809C10.1929 34.9809 9.81352 34.9005 9.43478 34.7392C8.2979 34.1749 7.91851 32.9665 8.48694 31.9997C10.6662 28.6153 10.6662 24.6668 8.48694 21.2827C7.82332 20.3159 8.29724 19.1069 9.43478 18.5431C10.5717 17.9788 11.9934 18.3818 12.6563 19.3491C15.5936 23.9424 15.5936 29.3411 12.6563 33.9339C12.1824 34.5781 11.4243 34.9811 10.5717 34.9811L10.5717 34.9809Z" fill="#FF0A54"/>
<path id="Vector_4" d="M18.8214 38.9104C18.4427 38.9104 18.0633 38.83 17.6845 38.6687C16.5476 38.1044 16.1683 36.896 16.7367 35.9292C20.5266 30.2078 20.5266 23.1173 16.7367 17.3961C16.0731 16.4293 16.4525 15.2203 17.5893 14.6566C18.7262 14.0922 20.148 14.4149 20.8109 15.3816C25.3591 22.2311 25.3591 30.8527 20.8109 37.7825C20.4322 38.5076 19.674 38.9106 18.8214 38.9106L18.8214 38.9104Z" fill="#FF0A54"/>
</g>
</g>
</svg>
