<svg width="56" height="56" viewBox="0 0 56 56" fill="none" xmlns="http://www.w3.org/2000/svg">
<g id="Frame 117">
<g id="Frame 127">
<path id="Vector" d="M52.0168 19.882H50.7841L33.0998 6.48881C33.1668 6.16995 33.2027 5.84002 33.2027 5.50197C33.2023 2.74399 30.8686 0.5 27.9997 0.5C25.1307 0.5 22.7971 2.74388 22.7971 5.50197C22.7971 5.84002 22.8335 6.1691 22.9 6.48839L5.2157 19.8816H3.9843C2.06342 19.8816 0.5 21.383 0.5 23.2301V52.1511C0.5 53.9973 2.06308 55.5 3.9843 55.5H52.0165C53.9369 55.5 55.5 53.9977 55.5 52.1511V23.229C55.5 21.3823 53.9374 19.881 52.0169 19.881L52.0168 19.882ZM28.0007 3.94505C28.8937 3.94505 29.6209 4.64414 29.6209 5.50263C29.6209 6.36116 28.8937 7.06021 28.0007 7.06021C27.1077 7.06021 26.3805 6.36111 26.3805 5.50263C26.3805 4.6441 27.1077 3.94505 28.0007 3.94505ZM24.2654 8.97638C25.2121 9.91675 26.5352 10.5042 28.0007 10.5042C29.4657 10.5042 30.7893 9.91633 31.736 8.97594L46.1352 19.8819L9.86528 19.8815L24.2654 8.97638ZM51.1012 51.2732H4.89883V24.1113H51.1012V51.2732Z" fill="#FF0A54"/>
</g>
</g>
</svg>
