<svg width="56" height="56" viewBox="0 0 56 56" fill="none" xmlns="http://www.w3.org/2000/svg">
<g id="Frame 117">
<g id="Frame 121">
<path id="Vector" d="M55.6836 25.2338H44.1404L53.1092 16.2649L49.2061 12.3341L36.3064 25.2338H30.7701V19.6975L43.6698 6.79782L39.739 2.89471L30.7701 11.8636V0.320312H25.2338V11.8636L16.2649 2.89471L12.3341 6.79782L25.2338 19.6975V25.2338H19.6975L6.79782 12.3341L2.89471 16.2649L11.8636 25.2338H0.320312V30.7701H11.8636L2.89471 39.739L6.79782 43.6698L19.6975 30.7701H25.2338V36.3064L12.3341 49.2061L16.2649 53.1092L25.2338 44.1404V55.6836H30.7701V44.1404L39.739 53.1092L43.6698 49.2061L30.7701 36.3064V30.7701H36.3064L49.2061 43.6698L53.1092 39.739L44.1404 30.7701H55.6836V25.2338Z" fill="#FF0A54"/>
</g>
</g>
</svg>
