<svg width="354" height="510" viewBox="0 0 354 510" fill="none" xmlns="http://www.w3.org/2000/svg">
<g id="Circulos ">
<circle id="Ellipse 2" cx="50.7653" cy="327.887" r="11.4536" transform="rotate(-39.1316 50.7653 327.887)" fill="white" fill-opacity="0.7"/>
<circle id="Ellipse 47" cx="17.0349" cy="286.426" r="11.4536" transform="rotate(-39.1316 17.0349 286.426)" fill="white" fill-opacity="0.7"/>
<circle id="Ellipse 20" cx="118.234" cy="410.808" r="11.4536" transform="rotate(-39.1316 118.234 410.808)" fill="white" fill-opacity="0.7"/>
<circle id="Ellipse 11" cx="84.5017" cy="369.351" r="11.4536" transform="rotate(-39.1316 84.5017 369.351)" fill="white" fill-opacity="0.7"/>
<circle id="Ellipse 21" cx="151.965" cy="452.269" r="11.4536" transform="rotate(-39.1316 151.965 452.269)" fill="white" fill-opacity="0.7"/>
<circle id="Ellipse 38" cx="185.699" cy="493.726" r="11.4536" transform="rotate(-39.1316 185.699 493.726)" fill="white" fill-opacity="0.7"/>
<circle id="Ellipse 6" cx="216.613" cy="192.953" r="11.4536" transform="rotate(-39.1316 216.613 192.953)" fill="white" fill-opacity="0.7"/>
<circle id="Ellipse 48" cx="182.881" cy="151.496" r="11.4536" transform="rotate(-39.1316 182.881 151.496)" fill="white" fill-opacity="0.7"/>
<circle id="Ellipse 22" cx="284.078" cy="275.879" r="11.4536" transform="rotate(-39.1316 284.078 275.879)" fill="white" fill-opacity="0.7"/>
<circle id="Ellipse 12" cx="250.345" cy="234.422" r="11.4536" transform="rotate(-39.1316 250.345 234.422)" fill="white" fill-opacity="0.7"/>
<circle id="Ellipse 23" cx="317.81" cy="317.344" r="11.4536" transform="rotate(-39.1316 317.81 317.344)" fill="white" fill-opacity="0.7"/>
<circle id="Ellipse 39" cx="351.543" cy="358.805" r="11.4536" transform="rotate(-39.1316 351.543 358.805)" fill="white" fill-opacity="0.7"/>
<circle id="Ellipse 4" cx="133.689" cy="260.422" r="11.4536" transform="rotate(-39.1316 133.689 260.422)" fill="white" fill-opacity="0.7"/>
<circle id="Ellipse 49" cx="99.9567" cy="218.961" r="11.4536" transform="rotate(-39.1316 99.9567 218.961)" fill="white" fill-opacity="0.7"/>
<circle id="Ellipse 24" cx="201.156" cy="343.348" r="11.4536" transform="rotate(-39.1316 201.156 343.348)" fill="white" fill-opacity="0.7"/>
<circle id="Ellipse 13" cx="167.424" cy="301.883" r="11.4536" transform="rotate(-39.1316 167.424 301.883)" fill="white" fill-opacity="0.7"/>
<circle id="Ellipse 25" cx="234.888" cy="384.805" r="11.4536" transform="rotate(-39.1316 234.888 384.805)" fill="white" fill-opacity="0.7"/>
<circle id="Ellipse 40" cx="268.619" cy="426.266" r="11.4536" transform="rotate(-39.1316 268.619 426.266)" fill="white" fill-opacity="0.7"/>
<circle id="Ellipse 7" cx="299.535" cy="125.492" r="11.4536" transform="rotate(-39.1316 299.535 125.492)" fill="white" fill-opacity="0.7"/>
<circle id="Ellipse 50" cx="265.802" cy="84.0272" r="11.4536" transform="rotate(-39.1316 265.802 84.0272)" fill="white" fill-opacity="0.7"/>
<circle id="Ellipse 26" cx="367" cy="208.418" r="11.4536" transform="rotate(-39.1316 367 208.418)" fill="white" fill-opacity="0.7"/>
<circle id="Ellipse 14" cx="333.267" cy="166.957" r="11.4536" transform="rotate(-39.1316 333.267 166.957)" fill="white" fill-opacity="0.7"/>
<circle id="Ellipse 3" cx="92.2282" cy="294.152" r="11.4536" transform="rotate(-39.1316 92.2282 294.152)" fill="white" fill-opacity="0.7"/>
<circle id="Ellipse 51" cx="58.4978" cy="252.691" r="11.4536" transform="rotate(-39.1316 58.4978 252.691)" fill="white" fill-opacity="0.7"/>
<circle id="Ellipse 28" cx="159.695" cy="377.074" r="11.4536" transform="rotate(-39.1316 159.695 377.074)" fill="white" fill-opacity="0.7"/>
<circle id="Ellipse 15" cx="125.963" cy="335.617" r="11.4536" transform="rotate(-39.1316 125.963 335.617)" fill="white" fill-opacity="0.7"/>
<circle id="Ellipse 29" cx="193.427" cy="418.539" r="11.4536" transform="rotate(-39.1316 193.427 418.539)" fill="white" fill-opacity="0.7"/>
<circle id="Ellipse 42" cx="227.158" cy="459.996" r="11.4536" transform="rotate(-39.1316 227.158 459.996)" fill="white" fill-opacity="0.7"/>
<circle id="Ellipse 8" cx="258.074" cy="159.226" r="11.4536" transform="rotate(-39.1316 258.074 159.226)" fill="white" fill-opacity="0.7"/>
<circle id="Ellipse 52" cx="224.34" cy="117.762" r="11.4536" transform="rotate(-39.1316 224.34 117.762)" fill="white" fill-opacity="0.7"/>
<circle id="Ellipse 30" cx="325.539" cy="242.144" r="11.4536" transform="rotate(-39.1316 325.539 242.144)" fill="white" fill-opacity="0.7"/>
<circle id="Ellipse 16" cx="291.808" cy="200.687" r="11.4536" transform="rotate(-39.1316 291.808 200.687)" fill="white" fill-opacity="0.7"/>
<circle id="Ellipse 31" cx="359.273" cy="283.609" r="11.4536" transform="rotate(-39.1316 359.273 283.609)" fill="white" fill-opacity="0.7"/>
<circle id="Ellipse 5" cx="175.15" cy="226.691" r="11.4536" transform="rotate(-39.1316 175.15 226.691)" fill="white" fill-opacity="0.7"/>
<circle id="Ellipse 53" cx="141.42" cy="185.23" r="11.4536" transform="rotate(-39.1316 141.42 185.23)" fill="white" fill-opacity="0.7"/>
<circle id="Ellipse 32" cx="242.615" cy="309.613" r="11.4536" transform="rotate(-39.1316 242.615 309.613)" fill="white" fill-opacity="0.7"/>
<circle id="Ellipse 17" cx="208.884" cy="268.152" r="11.4536" transform="rotate(-39.1316 208.884 268.152)" fill="white" fill-opacity="0.7"/>
<circle id="Ellipse 33" cx="276.351" cy="351.074" r="11.4536" transform="rotate(-39.1316 276.351 351.074)" fill="white" fill-opacity="0.7"/>
<circle id="Ellipse 44" cx="310.082" cy="392.535" r="11.4536" transform="rotate(-39.1316 310.082 392.535)" fill="white" fill-opacity="0.7"/>
<circle id="Ellipse 9" cx="340.998" cy="91.7577" r="11.4536" transform="rotate(-39.1316 340.998 91.7577)" fill="white" fill-opacity="0.7"/>
<circle id="Ellipse 54" cx="307.263" cy="50.2967" r="11.4536" transform="rotate(-39.1316 307.263 50.2967)" fill="white" fill-opacity="0.7"/>
<circle id="Ellipse 55" cx="348.724" cy="16.5624" r="11.4536" transform="rotate(-39.1316 348.724 16.5624)" fill="white" fill-opacity="0.7"/>
</g>
</svg>
