<svg width="1156" height="283" viewBox="0 0 1156 283" fill="none" xmlns="http://www.w3.org/2000/svg">
<path d="M367.615 114.389C370.647 109.298 374.649 105.358 379.62 102.57C384.715 99.6606 390.716 98.206 397.63 98.206V119.662H392.355C384.229 119.662 378.045 121.723 373.8 125.844C369.676 129.966 367.615 137.118 367.615 147.3V200.031H346.877V99.8425H367.615V114.389ZM456.347 150.028L502.55 200.031H474.538L437.429 156.937V200.031H416.691V65.4766H437.429V143.664L473.81 99.8425H502.55L456.347 150.028Z" fill="white"/>
<path d="M559.07 201.304C550.582 201.304 542.943 199.849 536.151 196.939C529.359 193.909 524.024 189.666 520.144 184.211C516.263 178.756 514.322 172.393 514.322 165.12H536.515C537 170.575 539.123 175.06 542.881 178.574C546.763 182.091 552.158 183.849 559.07 183.849C566.226 183.849 571.805 182.151 575.806 178.756C579.808 175.241 581.809 170.757 581.809 165.302C581.809 161.059 580.537 157.604 577.989 154.936C575.564 152.27 572.472 150.209 568.712 148.755C565.074 147.3 559.981 145.724 553.433 144.027C545.186 141.845 538.454 139.663 533.241 137.481C528.146 135.178 523.782 131.663 520.144 126.935C516.505 122.208 514.686 115.904 514.686 108.025C514.686 100.752 516.505 94.3876 520.144 88.9327C523.782 83.4776 528.875 79.2956 535.423 76.3863C541.972 73.477 549.551 72.0224 558.162 72.0224C570.411 72.0224 580.415 75.1135 588.177 81.2957C596.059 87.3567 600.424 95.721 601.273 106.388H578.353C577.989 101.782 575.806 97.8423 571.805 94.5694C567.803 91.2964 562.528 89.66 555.978 89.66C550.037 89.66 545.186 91.1752 541.426 94.2057C537.668 97.2362 535.787 101.6 535.787 107.297C535.787 111.176 536.939 114.389 539.243 116.935C541.668 119.359 544.7 121.298 548.338 122.753C551.976 124.208 556.949 125.784 563.255 127.481C571.623 129.784 578.414 132.087 583.628 134.39C588.964 136.693 593.452 140.269 597.09 145.118C600.849 149.846 602.729 156.21 602.729 164.21C602.729 170.635 600.97 176.696 597.454 182.393C594.058 188.091 589.025 192.696 582.356 196.213C575.806 199.607 568.045 201.304 559.07 201.304ZM651.392 116.753V172.211C651.392 175.969 652.24 178.696 653.939 180.393C655.758 181.969 658.79 182.757 663.034 182.757H675.768V200.031H659.396C650.057 200.031 642.903 197.849 637.93 193.485C632.959 189.122 630.472 182.03 630.472 172.211V116.753H618.649V99.8424H630.472V74.9316H651.392V99.8424H675.768V116.753H651.392ZM687.967 149.482C687.967 139.421 690.029 130.511 694.153 122.753C698.397 114.995 704.097 108.995 711.252 104.752C718.529 100.388 726.532 98.206 735.263 98.206C743.145 98.206 749.997 99.7818 755.818 102.934C761.762 105.964 766.491 109.782 770.007 114.389V99.8424H790.927V200.031H770.007V185.121C766.491 189.848 761.7 193.788 755.636 196.939C749.573 200.092 742.661 201.668 734.9 201.668C726.289 201.668 718.407 199.485 711.252 195.121C704.097 190.636 698.397 184.455 694.153 176.576C690.029 168.574 687.967 159.543 687.967 149.482ZM770.007 149.846C770.007 142.936 768.552 136.936 765.642 131.845C762.853 126.753 759.154 122.874 754.546 120.207C749.937 117.541 744.964 116.207 739.629 116.207C734.294 116.207 729.321 117.541 724.712 120.207C720.104 122.753 716.345 126.572 713.434 131.663C710.646 136.633 709.251 142.573 709.251 149.482C709.251 156.392 710.646 162.453 713.434 167.664C716.345 172.877 720.104 176.878 724.712 179.666C729.443 182.333 734.414 183.667 739.629 183.667C744.964 183.667 749.937 182.333 754.546 179.666C759.154 177 762.853 173.119 765.642 168.028C768.552 162.816 770.007 156.755 770.007 149.846ZM842.359 116.753V172.211C842.359 175.969 843.207 178.696 844.904 180.393C846.724 181.969 849.755 182.757 854 182.757H866.733V200.031H850.362C841.024 200.031 833.87 197.849 828.897 193.485C823.924 189.122 821.439 182.03 821.439 172.211V116.753H809.614V99.8424H821.439V74.9316H842.359V99.8424H866.733V116.753H842.359ZM896.397 86.5687C892.638 86.5687 889.484 85.2959 886.939 82.7503C884.391 80.2047 883.118 77.053 883.118 73.2952C883.118 69.5374 884.391 66.3857 886.939 63.8401C889.484 61.2944 892.638 60.0215 896.397 60.0215C900.035 60.0215 903.128 61.2944 905.674 63.8401C908.221 66.3857 909.494 69.5374 909.494 73.2952C909.494 77.053 908.221 80.2047 905.674 82.7503C903.128 85.2959 900.035 86.5687 896.397 86.5687ZM906.584 99.8424V200.031H885.846V99.8424H906.584ZM977.285 201.668C967.827 201.668 959.277 199.546 951.636 195.303C943.997 190.94 937.994 184.879 933.628 177.12C929.263 169.241 927.08 160.149 927.08 149.846C927.08 139.663 929.323 130.632 933.81 122.753C938.297 114.874 944.422 108.813 952.182 104.57C959.945 100.327 968.616 98.206 978.195 98.206C987.775 98.206 996.446 100.327 1004.21 104.57C1011.97 108.813 1018.09 114.874 1022.58 122.753C1027.07 130.632 1029.31 139.663 1029.31 149.846C1029.31 160.029 1027.01 169.059 1022.4 176.938C1017.79 184.817 1011.48 190.94 1003.48 195.303C995.598 199.546 986.866 201.668 977.285 201.668ZM977.285 183.667C982.622 183.667 987.595 182.393 992.202 179.848C996.932 177.302 1000.75 173.483 1003.66 168.392C1006.57 163.302 1008.03 157.119 1008.03 149.846C1008.03 142.572 1006.63 136.451 1003.84 131.481C1001.05 126.39 997.356 122.571 992.748 120.026C988.139 117.48 983.168 116.207 977.831 116.207C972.496 116.207 967.523 117.48 962.915 120.026C958.428 122.571 954.85 126.39 952.182 131.481C949.515 136.451 948.18 142.572 948.18 149.846C948.18 160.635 950.91 168.999 956.367 174.938C961.946 180.757 968.918 183.667 977.285 183.667ZM1100.38 98.206C1108.26 98.206 1115.3 99.8424 1121.48 103.115C1127.79 106.388 1132.7 111.237 1136.22 117.662C1139.73 124.087 1141.49 131.845 1141.49 140.936V200.031H1120.94V144.027C1120.94 135.057 1118.69 128.208 1114.21 123.48C1109.72 118.632 1103.59 116.207 1095.83 116.207C1088.07 116.207 1081.89 118.632 1077.28 123.48C1072.79 128.208 1070.55 135.057 1070.55 144.027V200.031H1049.81V99.8424H1070.55V111.298C1073.94 107.176 1078.25 103.964 1083.46 101.661C1088.8 99.3576 1094.44 98.206 1100.38 98.206Z" fill="#FF0A54"/>
<path d="M179.289 82.8906L141.739 209.524H118.224L91.6109 113.683L63.3571 209.524L40.0249 209.706L4.11523 82.8906H26.1715L52.4202 186.019L80.8563 82.8906H104.188L130.619 185.473L157.05 82.8906H179.289Z" fill="white"/>
<path d="M251.285 70.8438L197.459 104.373V171.432L251.285 204.962L305.098 171.432V104.373L251.285 70.8438Z" stroke="white" stroke-width="7.94024" stroke-miterlimit="10"/>
<path d="M251.57 73.6973L251.684 141.227L198.429 171.032L251.57 141.47L302.957 170.005" stroke="white" stroke-width="7.94024" stroke-miterlimit="10"/>
</svg>
