<svg width="108" height="16" viewBox="0 0 108 16" fill="none" xmlns="http://www.w3.org/2000/svg">
<g id="Group 36">
<g id="star_rate_black_24dp">
<g id="Group">
<path id="Vector" d="M9.30405 7.07402L7.78832 2.08398L6.2726 7.07402H1.55078L5.40558 9.82477L3.93976 14.5591L7.78832 11.6337L11.6431 14.5591L10.1773 9.82477L14.0259 7.07402H9.30405Z" fill="#FF0A54"/>
</g>
</g>
<g id="star_rate_black_24dp_2">
<g id="Group_2">
<path id="Vector_2" d="M32.2572 7.07402L30.7414 2.08398L29.2257 7.07402H24.5039L28.3587 9.82477L26.8929 14.5591L30.7414 11.6337L34.5962 14.5591L33.1304 9.82477L36.979 7.07402H32.2572Z" fill="#FF0A54"/>
</g>
</g>
<g id="star_rate_black_24dp_3">
<g id="Group_3">
<path id="Vector_3" d="M78.1673 7.07402L76.6516 2.08398L75.1359 7.07402H70.4141L74.2689 9.82477L72.803 14.5591L76.6516 11.6337L80.5064 14.5591L79.0406 9.82477L82.8891 7.07402H78.1673Z" fill="#FF0A54"/>
</g>
</g>
<g id="star_rate_black_24dp_4">
<g id="Group_4">
<path id="Vector_4" d="M55.2122 7.07402L53.6965 2.08398L52.1808 7.07402H47.459L51.3138 9.82477L49.848 14.5591L53.6965 11.6337L57.5513 14.5591L56.0855 9.82477L59.9341 7.07402H55.2122Z" fill="#FF0A54"/>
</g>
</g>
<g id="star_rate_black_24dp_5">
<g id="Group_5">
<path id="Vector_5" d="M101.12 7.07402L99.6047 2.08398L98.089 7.07402H93.3672L97.222 9.82477L95.7562 14.5591L99.6047 11.6337L103.46 14.5591L101.994 9.82477L105.842 7.07402H101.12Z" fill="#FF0A54"/>
</g>
</g>
</g>
</svg>
