<svg width="290" height="187" viewBox="0 0 290 187" fill="none" xmlns="http://www.w3.org/2000/svg">
<circle cx="7.37288" cy="41.7791" r="7.37288" fill="white"/>
<circle cx="7.37288" cy="7.37288" r="7.37288" fill="white"/>
<circle cx="7.37288" cy="110.594" r="7.37288" fill="white"/>
<circle cx="7.37288" cy="76.1873" r="7.37288" fill="white"/>
<circle cx="7.37288" cy="145" r="7.37288" fill="white"/>
<circle cx="7.37288" cy="179.406" r="7.37288" fill="white"/>
<circle cx="145" cy="41.7791" r="7.37288" fill="white"/>
<circle cx="145" cy="7.37288" r="7.37288" fill="white"/>
<circle cx="145" cy="110.594" r="7.37288" fill="white"/>
<circle cx="145" cy="76.1873" r="7.37288" fill="white"/>
<circle cx="145" cy="145" r="7.37288" fill="white"/>
<circle cx="145" cy="179.406" r="7.37288" fill="white"/>
<circle cx="76.1864" cy="41.7791" r="7.37288" fill="white"/>
<circle cx="76.1864" cy="7.37288" r="7.37288" fill="white"/>
<circle cx="76.1864" cy="110.594" r="7.37288" fill="white"/>
<circle cx="76.1864" cy="76.1873" r="7.37288" fill="white"/>
<circle cx="76.1864" cy="145" r="7.37288" fill="white"/>
<circle cx="76.1864" cy="179.406" r="7.37288" fill="white"/>
<circle cx="213.813" cy="41.7791" r="7.37288" fill="white"/>
<circle cx="213.813" cy="7.37288" r="7.37288" fill="white"/>
<circle cx="213.813" cy="110.594" r="7.37288" fill="white"/>
<circle cx="213.813" cy="76.1873" r="7.37288" fill="white"/>
<circle cx="213.813" cy="145" r="7.37288" fill="white"/>
<circle cx="213.813" cy="179.406" r="7.37288" fill="white"/>
<circle cx="41.7801" cy="41.7791" r="7.37288" fill="white"/>
<circle cx="41.7801" cy="7.37288" r="7.37288" fill="white"/>
<circle cx="41.7801" cy="110.594" r="7.37288" fill="white"/>
<circle cx="41.7801" cy="76.1873" r="7.37288" fill="white"/>
<circle cx="41.7801" cy="145" r="7.37288" fill="white"/>
<circle cx="41.7801" cy="179.406" r="7.37288" fill="white"/>
<circle cx="179.407" cy="41.7791" r="7.37288" fill="white"/>
<circle cx="179.407" cy="7.37288" r="7.37288" fill="white"/>
<circle cx="179.407" cy="110.594" r="7.37288" fill="white"/>
<circle cx="179.407" cy="76.1873" r="7.37288" fill="white"/>
<circle cx="179.407" cy="145" r="7.37288" fill="white"/>
<circle cx="179.407" cy="179.406" r="7.37288" fill="white"/>
<circle cx="110.594" cy="41.7791" r="7.37288" fill="white"/>
<circle cx="110.594" cy="7.37288" r="7.37288" fill="white"/>
<circle cx="110.594" cy="110.594" r="7.37288" fill="white"/>
<circle cx="110.594" cy="76.1873" r="7.37288" fill="white"/>
<circle cx="110.594" cy="145" r="7.37288" fill="white"/>
<circle cx="110.594" cy="179.406" r="7.37288" fill="white"/>
<circle cx="248.221" cy="41.7791" r="7.37288" fill="white"/>
<circle cx="248.221" cy="7.37288" r="7.37288" fill="white"/>
<circle cx="248.221" cy="110.594" r="7.37288" fill="white"/>
<circle cx="248.221" cy="76.1873" r="7.37288" fill="white"/>
<circle cx="248.221" cy="145" r="7.37288" fill="white"/>
<circle cx="248.221" cy="179.406" r="7.37288" fill="white"/>
<circle cx="282.627" cy="41.7791" r="7.37288" fill="white"/>
<circle cx="282.627" cy="7.37288" r="7.37288" fill="white"/>
<circle cx="282.627" cy="110.594" r="7.37288" fill="white"/>
<circle cx="282.627" cy="76.1873" r="7.37288" fill="white"/>
<circle cx="282.627" cy="145" r="7.37288" fill="white"/>
<circle cx="282.627" cy="179.406" r="7.37288" fill="white"/>
</svg>
