<svg width="540" height="133" viewBox="0 0 540 133" fill="none" xmlns="http://www.w3.org/2000/svg">
<path d="M171.638 53.5285C173.055 51.1461 174.927 49.3026 177.251 47.998C179.633 46.6366 182.439 45.956 185.671 45.956V55.996H183.205C179.405 55.996 176.514 56.9603 174.53 58.8889C172.602 60.8175 171.638 64.1642 171.638 68.929V93.6039H161.942V46.7217H171.638V53.5285ZM213.123 70.2053L234.725 93.6039H221.628L204.278 73.4383V93.6039H194.583V30.6406H204.278V67.2273L221.288 46.7217H234.725L213.123 70.2053Z" fill="#FF0A54"/>
<path d="M261.15 94.1972C257.181 94.1972 253.609 93.5167 250.434 92.1549C247.259 90.7368 244.764 88.7515 242.95 86.1989C241.136 83.6464 240.229 80.6688 240.229 77.2654H250.604C250.831 79.8179 251.823 81.9166 253.581 83.5612C255.396 85.2066 257.918 86.0293 261.15 86.0293C264.495 86.0293 267.104 85.2348 268.974 83.6464C270.845 82.0017 271.781 79.9031 271.781 77.3505C271.781 75.3652 271.186 73.7487 269.995 72.5002C268.861 71.2526 267.415 70.2883 265.657 69.6076C263.956 68.9269 261.575 68.1895 258.514 67.3954C254.658 66.3743 251.511 65.3533 249.074 64.3323C246.692 63.2545 244.651 61.6096 242.95 59.3974C241.249 57.1852 240.399 54.2356 240.399 50.5485C240.399 47.1451 241.249 44.1671 242.95 41.6146C244.651 39.062 247.032 37.105 250.094 35.7436C253.156 34.3823 256.699 33.7016 260.725 33.7016C266.452 33.7016 271.129 35.148 274.758 38.0409C278.443 40.8771 280.484 44.7911 280.881 49.7827H270.165C269.995 47.6272 268.974 45.7837 267.104 44.2522C265.233 42.7207 262.766 41.9549 259.704 41.9549C256.926 41.9549 254.658 42.6639 252.9 44.082C251.143 45.5001 250.264 47.5421 250.264 50.2081C250.264 52.0233 250.803 53.5264 251.88 54.7177C253.014 55.8522 254.431 56.7597 256.132 57.4404C257.833 58.1211 260.158 58.8585 263.106 59.6526C267.019 60.7304 270.193 61.8081 272.631 62.8858C275.126 63.9636 277.224 65.6369 278.925 67.9059C280.682 70.1181 281.562 73.0963 281.562 76.8396C281.562 79.8461 280.739 82.6822 279.095 85.3481C277.508 88.0147 275.155 90.1696 272.036 91.815C268.974 93.4034 265.346 94.1972 261.15 94.1972ZM304.313 54.6326V80.5836C304.313 82.3423 304.71 83.6183 305.504 84.4121C306.354 85.1496 307.772 85.5184 309.756 85.5184H315.71V93.6018H308.055C303.689 93.6018 300.344 92.5807 298.019 90.5383C295.695 88.4967 294.532 85.1785 294.532 80.5836V54.6326H289.005V46.7197H294.532V35.063H304.313V46.7197H315.71V54.6326H304.313ZM321.413 69.948C321.413 65.2399 322.377 61.0707 324.305 57.4404C326.29 53.8101 328.954 51.0023 332.3 49.0169C335.702 46.9749 339.443 45.9539 343.525 45.9539C347.211 45.9539 350.414 46.6913 353.136 48.1661C355.914 49.5842 358.125 51.371 359.769 53.5264V46.7197H369.55V93.6018H359.769V86.6247C358.125 88.8366 355.886 90.6805 353.051 92.1549C350.216 93.63 346.984 94.3675 343.356 94.3675C339.33 94.3675 335.645 93.3464 332.3 91.304C328.954 89.2054 326.29 86.313 324.305 82.626C322.377 78.8819 321.413 74.6558 321.413 69.948ZM359.769 70.1181C359.769 66.8848 359.089 64.077 357.729 61.6947C356.424 59.3123 354.695 57.4971 352.541 56.2492C350.386 55.0013 348.061 54.3774 345.567 54.3774C343.072 54.3774 340.747 55.0013 338.593 56.2492C336.438 57.4404 334.681 59.2272 333.32 61.6096C332.016 63.9352 331.364 66.7147 331.364 69.948C331.364 73.1815 332.016 76.0176 333.32 78.4562C334.681 80.8954 336.438 82.7674 338.593 84.0722C340.804 85.3199 343.129 85.9442 345.567 85.9442C348.061 85.9442 350.386 85.3199 352.541 84.0722C354.695 82.8244 356.424 81.0087 357.729 78.6265C359.089 76.1872 359.769 73.3511 359.769 70.1181ZM393.596 54.6326V80.5836C393.596 82.3423 393.993 83.6183 394.786 84.4121C395.637 85.1496 397.054 85.5184 399.039 85.5184H404.992V93.6018H397.338C392.972 93.6018 389.627 92.5807 387.302 90.5383C384.978 88.4967 383.815 85.1785 383.815 80.5836V54.6326H378.287V46.7197H383.815V35.063H393.596V46.7197H404.992V54.6326H393.596ZM418.861 40.5084C417.103 40.5084 415.629 39.9128 414.439 38.7216C413.248 37.5304 412.653 36.0556 412.653 34.2972C412.653 32.5388 413.248 31.064 414.439 29.8728C415.629 28.6816 417.103 28.0859 418.861 28.0859C420.562 28.0859 422.008 28.6816 423.198 29.8728C424.389 31.064 424.984 32.5388 424.984 34.2972C424.984 36.0556 424.389 37.5304 423.198 38.7216C422.008 39.9128 420.562 40.5084 418.861 40.5084ZM423.624 46.7197V93.6018H413.928V46.7197H423.624ZM456.679 94.3675C452.257 94.3675 448.259 93.3745 444.687 91.3892C441.116 89.3476 438.309 86.5114 436.267 82.8807C434.227 79.1937 433.206 74.9395 433.206 70.1181C433.206 65.3533 434.255 61.1274 436.353 57.4404C438.45 53.7533 441.314 50.9172 444.942 48.9319C448.571 46.9465 452.625 45.9539 457.104 45.9539C461.583 45.9539 465.637 46.9465 469.266 48.9319C472.895 50.9172 475.758 53.7533 477.856 57.4404C479.954 61.1274 481.003 65.3533 481.003 70.1181C481.003 74.8832 479.926 79.1085 477.771 82.7955C475.616 86.4826 472.668 89.3476 468.926 91.3892C465.24 93.3745 461.158 94.3675 456.679 94.3675ZM456.679 85.9442C459.174 85.9442 461.499 85.3481 463.653 84.1573C465.864 82.9659 467.65 81.179 469.011 78.7968C470.371 76.4145 471.052 73.5214 471.052 70.1181C471.052 66.7147 470.4 63.8501 469.096 61.5245C467.792 59.1421 466.063 57.3553 463.908 56.1641C461.753 54.973 459.429 54.3774 456.934 54.3774C454.44 54.3774 452.115 54.973 449.96 56.1641C447.862 57.3553 446.19 59.1421 444.942 61.5245C443.695 63.8501 443.071 66.7147 443.071 70.1181C443.071 75.1668 444.347 79.0804 446.899 81.8595C449.507 84.5824 452.767 85.9442 456.679 85.9442ZM514.23 45.9539C517.915 45.9539 521.204 46.7197 524.096 48.2512C527.044 49.7827 529.34 52.0516 530.985 55.058C532.629 58.0644 533.451 61.6947 533.451 65.9489V93.6018H523.84V67.3954C523.84 63.1978 522.792 59.993 520.694 57.7808C518.596 55.5118 515.732 54.3774 512.104 54.3774C508.475 54.3774 505.584 55.5118 503.429 57.7808C501.331 59.993 500.283 63.1978 500.283 67.3954V93.6018H490.587V46.7197H500.283V52.08C501.87 50.1514 503.883 48.6482 506.321 47.5705C508.815 46.4928 511.452 45.9539 514.23 45.9539Z" fill="#FF0A54"/>
<path d="M83.5898 38.7891L66.0338 98.0456H55.0401L42.5975 53.1982L29.3879 98.0456L18.4794 98.1308L1.69043 38.7891H12.0025L24.2746 87.0467L37.5694 38.7891H48.4779L60.8352 86.7912L73.1923 38.7891H83.5898Z" fill="#FF0A54"/>
<path d="M117.251 33.1484L92.085 48.8382V80.2176L117.251 95.9074L142.41 80.2176V48.8382L117.251 33.1484Z" stroke="#FF0A54" stroke-width="3.71554" stroke-miterlimit="10"/>
<path d="M117.383 34.4844L117.437 66.0843L92.5381 80.0312L117.383 66.1978L141.409 79.5505" stroke="#FF0A54" stroke-width="3.71554" stroke-miterlimit="10"/>
</svg>
