<svg width="827" height="617" viewBox="0 0 827 617" fill="none" xmlns="http://www.w3.org/2000/svg">
<path d="M827 541.512H0V541.925H827V541.512Z" fill="#E0E0E0"/>
<path d="M650.324 554.09H622.438V554.503H650.324V554.09Z" fill="#E0E0E0"/>
<path d="M741.917 553.891H668.215V554.304H741.917V553.891Z" fill="#E0E0E0"/>
<path d="M530.482 556.668H438.734V557.081H530.482V556.668Z" fill="#E0E0E0"/>
<path d="M429.212 556.668H394.941V557.081H429.212V556.668Z" fill="#E0E0E0"/>
<path d="M250.68 553.473H235.629V553.886H250.68V553.473Z" fill="#E0E0E0"/>
<path d="M284.736 553.473H259.859V553.886H284.736V553.473Z" fill="#E0E0E0"/>
<path d="M220.727 560.941H110.637V561.355H220.727V560.941Z" fill="#E0E0E0"/>
<path d="M391.998 467.751H72.627C70.1251 467.747 67.7271 466.75 65.9596 464.979C64.192 463.209 63.1992 460.809 63.1992 458.307V9.36164C63.221 6.87407 64.2234 4.49554 65.9886 2.74269C67.7538 0.98985 70.1394 0.00426135 72.627 0H391.998C394.503 0 396.905 0.995026 398.676 2.76618C400.447 4.53734 401.442 6.93954 401.442 9.44434V458.307C401.442 460.812 400.447 463.214 398.676 464.985C396.905 466.756 394.503 467.751 391.998 467.751ZM72.627 0.330801C70.2348 0.335183 67.942 1.28857 66.2519 2.98171C64.5619 4.67485 63.6127 6.96938 63.6127 9.36164V458.307C63.6127 460.699 64.5619 462.994 66.2519 464.687C67.942 466.38 70.2348 467.333 72.627 467.338H391.998C394.392 467.333 396.686 466.38 398.379 464.688C400.071 462.995 401.024 460.701 401.029 458.307V9.36164C401.024 6.96786 400.071 4.67337 398.379 2.9807C396.686 1.28804 394.392 0.335174 391.998 0.330801H72.627Z" fill="#E0E0E0"/>
<path d="M749.777 467.751H430.39C427.886 467.747 425.487 466.75 423.716 464.98C421.946 463.21 420.95 460.81 420.945 458.307V9.36164C420.971 6.87256 421.977 4.49405 423.745 2.74166C425.513 0.989272 427.9 0.00421487 430.39 0H749.777C752.262 0.00860824 754.643 0.99612 756.405 2.7485C758.166 4.50088 759.167 6.87692 759.188 9.36164V458.307C759.188 460.806 758.198 463.203 756.434 464.973C754.67 466.744 752.276 467.742 749.777 467.751ZM430.39 0.330801C427.996 0.335174 425.701 1.28804 424.009 2.9807C422.316 4.67337 421.363 6.96786 421.359 9.36164V458.307C421.363 460.701 422.316 462.995 424.009 464.688C425.701 466.38 427.996 467.333 430.39 467.338H749.777C752.171 467.333 754.465 466.38 756.158 464.688C757.851 462.995 758.803 460.701 758.808 458.307V9.36164C758.803 6.96786 757.851 4.67337 756.158 2.9807C754.465 1.28804 752.171 0.335174 749.777 0.330801H430.39Z" fill="#E0E0E0"/>
<path d="M525.626 339.961H447.293V541.517H525.626V339.961Z" fill="#E0E0E0"/>
<path d="M510.742 541.525H525.628V499.199H495.145L510.742 541.525Z" fill="#F0F0F0"/>
<path d="M232.869 339.961H154.535V541.517H232.869V339.961Z" fill="#E0E0E0"/>
<path d="M525.608 339.961H219.883V515.55H525.608V339.961Z" fill="#F0F0F0"/>
<path d="M377.746 352.72V462.645H514.085V352.72H377.746Z" fill="#E0E0E0"/>
<path d="M231.43 352.727V462.652H367.769V352.727H231.43Z" fill="#E0E0E0"/>
<path d="M514.078 499.194V491.105H377.739V499.194H514.078Z" fill="#E0E0E0"/>
<path d="M367.766 499.194V491.105H231.426V499.194H367.766Z" fill="#E0E0E0"/>
<path d="M514.062 483.565V475.477H377.723V483.565H514.062Z" fill="#E0E0E0"/>
<path d="M367.75 483.58V475.492H231.411V483.58H367.75Z" fill="#E0E0E0"/>
<path d="M313.087 364.553H286.143C280.346 364.553 274.61 363.373 269.283 361.084C263.957 358.795 259.153 355.445 255.164 351.238H344.033C340.049 355.442 335.251 358.791 329.93 361.08C324.61 363.369 318.879 364.551 313.087 364.553Z" fill="#F0F0F0"/>
<path d="M460.768 364.553H433.808C428.01 364.555 422.273 363.376 416.946 361.087C411.62 358.797 406.816 355.446 402.828 351.238H491.747C487.759 355.446 482.955 358.797 477.629 361.087C472.302 363.376 466.565 364.555 460.768 364.553Z" fill="#F0F0F0"/>
<path d="M234.769 541.525H219.883V499.199H250.366L234.769 541.525Z" fill="#F0F0F0"/>
<path d="M523.941 31.4141H113.055V266.117H523.941V31.4141Z" fill="#E0E0E0"/>
<path d="M546.669 24.1602H99.2452C98.6881 24.1602 98.1538 24.3815 97.7598 24.7754C97.3659 25.1693 97.1446 25.7036 97.1446 26.2607C97.1424 26.538 97.1951 26.8129 97.2997 27.0697C97.4043 27.3264 97.5587 27.56 97.754 27.7568C97.9492 27.9536 98.1815 28.1098 98.4375 28.2164C98.6934 28.323 98.9679 28.3779 99.2452 28.3779H546.669C546.946 28.3779 547.22 28.323 547.476 28.2164C547.732 28.1098 547.965 27.9536 548.16 27.7568C548.355 27.56 548.51 27.3264 548.614 27.0697C548.719 26.8129 548.772 26.538 548.769 26.2607C548.769 25.7036 548.548 25.1693 548.154 24.7754C547.76 24.3815 547.226 24.1602 546.669 24.1602Z" fill="#E0E0E0"/>
<path d="M532.937 31.4141H117.254V266.117H532.937V31.4141Z" fill="#E6E6E6"/>
<path d="M523.941 266.113H113.055V282.835H523.941V266.113Z" fill="#E0E0E0"/>
<path d="M547.914 266.113H132.23V282.835H547.914V266.113Z" fill="#E6E6E6"/>
<path d="M520.312 253.507V44.0117L129.836 44.0117V253.507L520.312 253.507Z" fill="#F5F5F5"/>
<path d="M323.09 253.507L397.04 44.0117H431.94L357.989 253.507H323.09Z" fill="#FAFAFA"/>
<path d="M365.5 253.507L439.45 44.0117H453.046L379.112 253.507H365.5Z" fill="#FAFAFA"/>
<path d="M520.312 253.507V44.0117H518.708V253.507H520.312Z" fill="#E0E0E0"/>
<path d="M129.985 20.3945H108.301V222.546H129.985V20.3945Z" fill="#EBEBEB"/>
<path d="M138.442 20.3945H121.555V222.546H138.442V20.3945Z" fill="#E0E0E0"/>
<path d="M151.672 20.3945H129.988V222.546H151.672V20.3945Z" fill="#EBEBEB"/>
<path d="M160.122 20.3945H143.234V222.546H160.122V20.3945Z" fill="#E0E0E0"/>
<path d="M173.36 20.3945H151.676V222.546H173.36V20.3945Z" fill="#EBEBEB"/>
<path d="M512.246 20.3945H499.758V222.546H512.246V20.3945Z" fill="#EBEBEB"/>
<path d="M517.144 20.3945H507.402V222.546H517.144V20.3945Z" fill="#E0E0E0"/>
<path d="M524.746 20.3945H512.258V222.546H524.746V20.3945Z" fill="#EBEBEB"/>
<path d="M529.629 20.3945H519.887V222.546H529.629V20.3945Z" fill="#E0E0E0"/>
<path d="M537.238 20.3945H524.75V222.546H537.238V20.3945Z" fill="#EBEBEB"/>
<path d="M650.897 108.09H623.176V183.727H650.897V108.09Z" fill="#E6E6E6"/>
<path d="M612.648 196.348L606.23 213.83H612.648L651.897 196.348H612.648Z" fill="#F0F0F0"/>
<path d="M606.23 196.348V213.83L645.496 196.348H606.23Z" fill="#E0E0E0"/>
<path d="M679.773 196.348L673.355 213.83H679.773L719.022 196.348H679.773Z" fill="#F0F0F0"/>
<path d="M673.355 196.348V213.83L712.621 196.348H673.355Z" fill="#E0E0E0"/>
<path d="M577.427 197.152H620.117V183.838H577.427V197.152Z" fill="#E0E0E0"/>
<path d="M741.919 183.844H620.102V197.158H741.919V183.844Z" fill="#F0F0F0"/>
<path d="M697.073 183.726H629.607L621.254 92.0781H688.721L697.073 183.726Z" fill="#E0E0E0"/>
<path d="M700.572 183.726H633.106L624.77 92.0781H692.236L700.572 183.726Z" fill="#F0F0F0"/>
<path d="M642.332 173.589L635.832 102.219H683.004L689.504 173.589H642.332Z" fill="#FAFAFA"/>
<path d="M260.358 310.54C260.358 310.54 231.265 260.407 271.622 220.496C271.622 220.496 282.158 227.36 281.993 236.59C281.827 245.819 270.712 248.168 273.111 255.842C275.509 263.517 285.995 271.108 279.098 277.476C272.201 283.844 280.206 289.501 279.743 297.324C279.28 305.148 260.358 310.54 260.358 310.54Z" fill="#E0E0E0"/>
<path d="M262.561 315.121C262.561 315.121 274.354 258.372 223.477 233.215C223.477 233.215 215.654 243.056 218.714 251.756C221.774 260.456 233.054 259.183 233.219 267.238C233.385 275.293 225.809 285.779 234.344 289.649C242.879 293.52 237.09 301.426 240.001 308.67C242.912 315.915 262.561 315.121 262.561 315.121Z" fill="#E0E0E0"/>
<path d="M218.004 302.547C218.004 302.547 218.963 339.96 256.046 339.96C293.129 339.96 294.088 302.547 294.088 302.547H218.004Z" fill="#F0F0F0"/>
<path d="M655.562 541.517H659.35L670.134 488.325L672.036 479.013L683.796 421.123H728.934L753.397 541.517H757.184L732.258 418.824C732.171 418.406 731.942 418.032 731.611 417.764C731.279 417.496 730.865 417.35 730.439 417.352H682.291C681.866 417.348 681.453 417.493 681.124 417.762C680.794 418.031 680.569 418.406 680.488 418.824L670.151 469.734L668.216 479.046L655.562 541.517Z" fill="#EBEBEB"/>
<path d="M583.102 541.517H586.889L611.352 421.057H656.49L668.216 479.046L670.102 488.325L680.903 541.517H684.756L672.07 479.013L670.152 469.734L659.814 418.824C659.727 418.406 659.498 418.032 659.166 417.764C658.835 417.496 658.421 417.35 657.995 417.352H609.847C609.42 417.35 609.007 417.496 608.675 417.764C608.344 418.032 608.115 418.406 608.027 418.824L583.102 541.517Z" fill="#EBEBEB"/>
<path d="M694.366 419.209H611.434C603.823 419.206 596.516 416.221 591.08 410.893C585.644 405.566 582.513 398.32 582.357 390.71L579.264 264.643C579.222 261.838 579.738 259.053 580.781 256.449C581.824 253.846 583.374 251.475 585.34 249.475C587.307 247.475 589.65 245.885 592.236 244.797C594.822 243.71 597.597 243.147 600.402 243.141H652.387C657.592 243.14 662.615 245.054 666.498 248.52C670.382 251.985 672.854 256.759 673.443 261.93L694.366 419.209Z" fill="#E6E6E6"/>
<path d="M649.129 403.32H730.291C733.304 403.32 736.195 404.517 738.326 406.648C740.456 408.779 741.654 411.67 741.654 414.683V415.08C741.654 416.177 741.218 417.229 740.443 418.004C739.667 418.78 738.615 419.215 737.519 419.215H649.129V403.32Z" fill="#E6E6E6"/>
<path d="M413.503 616.208C590.617 616.208 734.197 607.826 734.197 597.485C734.197 587.144 590.617 578.762 413.503 578.762C236.388 578.762 92.8086 587.144 92.8086 597.485C92.8086 607.826 236.388 616.208 413.503 616.208Z" fill="#F5F5F5"/>
<path d="M308.559 121.213C308.565 118.132 308.316 115.056 307.815 112.017C305.598 98.5822 298.716 86.3589 288.38 77.4955C278.043 68.6321 264.913 63.6959 251.297 63.5547H250.801C241.667 63.5602 232.664 65.7378 224.537 69.9078C216.41 74.0778 209.391 80.1207 204.059 87.5377C203.183 88.7451 202.405 89.9856 201.611 91.2261C201.547 91.308 201.491 91.3967 201.446 91.4907C196.016 100.471 193.156 110.769 193.176 121.263V121.379C193.21 133.575 197.108 145.447 204.311 155.289C211.514 165.131 221.651 172.437 233.266 176.158C244.881 179.879 257.377 179.824 268.958 175.999C280.539 172.175 290.61 164.778 297.725 154.872C298.585 153.665 299.379 152.441 300.157 151.184C300.221 151.102 300.277 151.013 300.322 150.919C305.745 141.962 308.595 131.684 308.559 121.213ZM195.64 119.906C195.832 110.463 198.47 101.23 203.298 93.1117H221.344C218.586 101.779 217.142 110.811 217.06 119.906H195.64ZM223.874 93.1117H249.61V119.906H219.541C219.595 110.805 221.057 101.767 223.874 93.1117ZM252.091 90.6307V65.953C255.669 66.2773 259.095 67.5506 262.015 69.6414C268.152 73.8426 273.296 81.2194 276.901 90.6307H252.091ZM277.795 93.1117C279.841 99.3077 281.173 105.717 281.764 112.215C282.012 114.796 282.128 117.359 282.161 119.906H252.091V93.1117H277.795ZM245.972 66.6477C247.159 66.3103 248.379 66.0996 249.61 66.0192V90.6803H224.8C229.432 78.2091 236.941 69.1452 245.972 66.5981V66.6477ZM249.61 122.437V149.232H223.924C221.877 143.021 220.556 136.593 219.987 130.079C219.756 127.498 219.623 124.935 219.59 122.387L249.61 122.437ZM249.61 151.713V176.391C246.034 176.064 242.608 174.791 239.686 172.702C233.567 168.501 228.423 161.124 224.8 151.713H249.61ZM255.73 175.746C254.543 176.084 253.323 176.295 252.091 176.374V151.663H276.901C272.27 164.085 264.761 173.165 255.73 175.696V175.746ZM252.091 149.282V122.404H282.161C282.114 131.506 280.652 140.546 277.828 149.199L252.091 149.282ZM284.642 122.404H306.144C305.944 131.846 303.306 141.077 298.486 149.199H280.358C283.116 140.531 284.56 131.499 284.642 122.404ZM306.144 119.923H284.642C284.642 117.31 284.477 114.663 284.229 112C283.664 105.589 282.394 99.2605 280.441 93.1282H298.453C301.934 99.0382 304.284 105.544 305.383 112.315C305.777 114.828 306.009 117.364 306.078 119.906L306.144 119.923ZM283.203 76.3732C288.609 80.2673 293.271 85.1023 296.964 90.6472H279.531C275.826 80.409 270.252 72.3044 263.421 67.607L262.892 67.2597C270.186 68.8929 277.073 71.9876 283.137 76.3567L283.203 76.3732ZM238.76 67.2927C231.797 71.8743 226.074 80.2105 222.22 90.6472H204.853L206.061 88.8774C213.915 77.9125 225.532 70.2231 238.694 67.2762L238.76 67.2927ZM195.756 122.404H217.175C217.175 125.017 217.341 127.664 217.589 130.327C218.162 136.736 219.432 143.065 221.377 149.199H203.265C199.777 143.292 197.427 136.785 196.335 130.012C195.923 127.496 195.691 124.953 195.64 122.404H195.756ZM204.919 151.68H222.22C225.925 161.918 231.499 170.023 238.33 174.72L238.876 175.067C224.978 171.911 212.823 163.539 204.919 151.68ZM262.991 175.018C269.938 170.453 275.661 162.1 279.531 151.663H296.865C296.468 152.259 296.071 152.854 295.658 153.433C287.796 164.403 276.165 172.088 262.991 175.018Z" fill="#2B2E51"/>
<path opacity="0.8" d="M308.559 121.213C308.565 118.132 308.316 115.056 307.815 112.017C305.598 98.5822 298.716 86.3589 288.38 77.4955C278.043 68.6321 264.913 63.6959 251.297 63.5547H250.801C241.667 63.5602 232.664 65.7378 224.537 69.9078C216.41 74.0778 209.391 80.1207 204.059 87.5377C203.183 88.7451 202.405 89.9856 201.611 91.2261C201.547 91.308 201.491 91.3967 201.446 91.4907C196.016 100.471 193.156 110.769 193.176 121.263V121.379C193.21 133.575 197.108 145.447 204.311 155.289C211.514 165.131 221.651 172.437 233.266 176.158C244.881 179.879 257.377 179.824 268.958 175.999C280.539 172.175 290.61 164.778 297.725 154.872C298.585 153.665 299.379 152.441 300.157 151.184C300.221 151.102 300.277 151.013 300.322 150.919C305.745 141.962 308.595 131.684 308.559 121.213ZM195.64 119.906C195.832 110.463 198.47 101.23 203.298 93.1117H221.344C218.586 101.779 217.142 110.811 217.06 119.906H195.64ZM223.874 93.1117H249.61V119.906H219.541C219.595 110.805 221.057 101.767 223.874 93.1117ZM252.091 90.6307V65.953C255.669 66.2773 259.095 67.5506 262.015 69.6414C268.152 73.8426 273.296 81.2194 276.901 90.6307H252.091ZM277.795 93.1117C279.841 99.3077 281.173 105.717 281.764 112.215C282.012 114.796 282.128 117.359 282.161 119.906H252.091V93.1117H277.795ZM245.972 66.6477C247.159 66.3103 248.379 66.0996 249.61 66.0192V90.6803H224.8C229.432 78.2091 236.941 69.1452 245.972 66.5981V66.6477ZM249.61 122.437V149.232H223.924C221.877 143.021 220.556 136.593 219.987 130.079C219.756 127.498 219.623 124.935 219.59 122.387L249.61 122.437ZM249.61 151.713V176.391C246.034 176.064 242.608 174.791 239.686 172.702C233.567 168.501 228.423 161.124 224.8 151.713H249.61ZM255.73 175.746C254.543 176.084 253.323 176.295 252.091 176.374V151.663H276.901C272.27 164.085 264.761 173.165 255.73 175.696V175.746ZM252.091 149.282V122.404H282.161C282.114 131.506 280.652 140.546 277.828 149.199L252.091 149.282ZM284.642 122.404H306.144C305.944 131.846 303.306 141.077 298.486 149.199H280.358C283.116 140.531 284.56 131.499 284.642 122.404ZM306.144 119.923H284.642C284.642 117.31 284.477 114.663 284.229 112C283.664 105.589 282.394 99.2605 280.441 93.1282H298.453C301.934 99.0382 304.284 105.544 305.383 112.315C305.777 114.828 306.009 117.364 306.078 119.906L306.144 119.923ZM283.203 76.3732C288.609 80.2673 293.271 85.1023 296.964 90.6472H279.531C275.826 80.409 270.252 72.3044 263.421 67.607L262.892 67.2597C270.186 68.8929 277.073 71.9876 283.137 76.3567L283.203 76.3732ZM238.76 67.2927C231.797 71.8743 226.074 80.2105 222.22 90.6472H204.853L206.061 88.8774C213.915 77.9125 225.532 70.2231 238.694 67.2762L238.76 67.2927ZM195.756 122.404H217.175C217.175 125.017 217.341 127.664 217.589 130.327C218.162 136.736 219.432 143.065 221.377 149.199H203.265C199.777 143.292 197.427 136.785 196.335 130.012C195.923 127.496 195.691 124.953 195.64 122.404H195.756ZM204.919 151.68H222.22C225.925 161.918 231.499 170.023 238.33 174.72L238.876 175.067C224.978 171.911 212.823 163.539 204.919 151.68ZM262.991 175.018C269.938 170.453 275.661 162.1 279.531 151.663H296.865C296.468 152.259 296.071 152.854 295.658 153.433C287.796 164.403 276.165 172.088 262.991 175.018Z" fill="#FF0A54"/>
<path d="M685.24 148.699H165.223V274.701H685.24V148.699Z" fill="#2B2E51"/>
<path opacity="0.6" d="M685.24 148.699H165.223V274.701H685.24V148.699Z" fill="#FAFAFA"/>
<path d="M673.514 160.426H153.496V286.427H673.514V160.426Z" fill="#2B2E51"/>
<path opacity="0.3" d="M673.514 160.426H153.496V286.427H673.514V160.426Z" fill="black"/>
<path d="M661.787 172.148H141.77V298.15H661.787V172.148Z" fill="#2B2E51"/>
<path opacity="0.1" d="M661.787 172.148H141.77V298.15H661.787V172.148Z" fill="#FAFAFA"/>
<path d="M636.977 273.343V196.961L166.579 196.961V273.343H636.977Z" fill="#2B2E51"/>
<path opacity="0.9" d="M636.977 273.343V196.961L166.579 196.961V273.343H636.977Z" fill="#FAFAFA"/>
<path d="M557.848 196.958V273.34H560.61V196.958H557.848Z" fill="#2B2E51"/>
<path opacity="0.6" d="M557.848 196.958V273.34H560.61V196.958H557.848Z" fill="#FAFAFA"/>
<path d="M178.301 207.499V262.809H181.063V207.499H178.301Z" fill="#2B2E51"/>
<path opacity="0.6" d="M178.301 207.499V262.809H181.063V207.499H178.301Z" fill="#FAFAFA"/>
<path d="M596.155 244.796C594.147 244.795 592.172 244.299 590.402 243.353C588.632 242.406 587.123 241.037 586.009 239.368C584.894 237.699 584.208 235.781 584.012 233.784C583.815 231.787 584.114 229.772 584.883 227.917C585.651 226.063 586.864 224.427 588.416 223.154C589.967 221.881 591.808 221.009 593.777 220.618C595.745 220.226 597.78 220.325 599.701 220.908C601.621 221.49 603.369 222.537 604.788 223.955C606.497 225.663 607.66 227.838 608.131 230.207C608.603 232.575 608.361 235.03 607.437 237.261C606.512 239.492 604.947 241.399 602.939 242.74C600.93 244.082 598.569 244.797 596.155 244.796ZM596.155 223.707C594.095 223.708 592.1 224.423 590.509 225.73C588.918 227.037 587.829 228.855 587.428 230.875C587.028 232.895 587.34 234.991 588.312 236.806C589.284 238.622 590.856 240.044 592.759 240.83C594.662 241.616 596.779 241.718 598.749 241.118C600.719 240.519 602.42 239.254 603.562 237.541C604.704 235.827 605.216 233.771 605.012 231.722C604.807 229.673 603.898 227.758 602.44 226.304C601.623 225.462 600.646 224.791 599.567 224.331C598.488 223.871 597.328 223.631 596.155 223.625V223.707Z" fill="#2B2E51"/>
<path d="M611.98 249.994C611.761 249.993 611.545 249.948 611.343 249.863C611.142 249.778 610.959 249.654 610.806 249.497L602.453 241.145C602.28 240.996 602.139 240.814 602.04 240.609C601.941 240.404 601.885 240.18 601.876 239.952C601.867 239.724 601.906 239.497 601.989 239.285C602.072 239.073 602.198 238.88 602.359 238.719C602.521 238.558 602.713 238.431 602.926 238.348C603.138 238.265 603.365 238.227 603.593 238.236C603.821 238.244 604.044 238.3 604.249 238.399C604.455 238.499 604.637 238.639 604.785 238.813L613.138 247.165C613.446 247.475 613.619 247.894 613.619 248.331C613.619 248.768 613.446 249.187 613.138 249.497C612.833 249.809 612.416 249.987 611.98 249.994Z" fill="#2B2E51"/>
<g opacity="0.6">
<path opacity="0.6" d="M596.162 244.792C594.155 244.791 592.18 244.295 590.41 243.349C588.64 242.402 587.131 241.034 586.016 239.365C584.902 237.696 584.216 235.777 584.02 233.78C583.823 231.783 584.122 229.768 584.89 227.914C585.659 226.059 586.872 224.423 588.423 223.15C589.975 221.877 591.816 221.006 593.785 220.614C595.753 220.222 597.788 220.322 599.708 220.904C601.629 221.486 603.377 222.533 604.796 223.952C606.504 225.659 607.668 227.834 608.139 230.203C608.611 232.571 608.369 235.026 607.445 237.257C606.52 239.488 604.955 241.395 602.947 242.736C600.938 244.078 598.577 244.793 596.162 244.792ZM596.162 223.703C594.103 223.704 592.108 224.419 590.517 225.726C588.925 227.033 587.837 228.851 587.436 230.871C587.036 232.891 587.348 234.987 588.32 236.803C589.292 238.618 590.864 240.04 592.767 240.826C594.67 241.612 596.787 241.714 598.757 241.115C600.727 240.515 602.428 239.25 603.57 237.537C604.712 235.823 605.224 233.767 605.019 231.718C604.815 229.669 603.906 227.754 602.448 226.3C601.631 225.458 600.654 224.787 599.575 224.327C598.496 223.867 597.336 223.627 596.162 223.621V223.703Z" fill="#FAFAFA"/>
<path opacity="0.6" d="M611.992 249.99C611.773 249.989 611.557 249.944 611.355 249.859C611.153 249.774 610.971 249.65 610.818 249.493L602.465 241.141C602.292 240.992 602.151 240.81 602.052 240.605C601.953 240.4 601.897 240.176 601.888 239.948C601.879 239.721 601.918 239.493 602.001 239.281C602.084 239.069 602.21 238.876 602.371 238.715C602.532 238.554 602.725 238.428 602.937 238.344C603.15 238.261 603.377 238.223 603.605 238.232C603.832 238.24 604.056 238.296 604.261 238.396C604.466 238.495 604.649 238.635 604.797 238.809L613.15 247.161C613.458 247.471 613.631 247.89 613.631 248.327C613.631 248.764 613.458 249.184 613.15 249.493C612.844 249.805 612.428 249.983 611.992 249.99Z" fill="#FAFAFA"/>
</g>
<path d="M483.947 72.5312H431.945V73.8214H483.947V72.5312Z" fill="#2B2E51"/>
<path d="M483.947 78.0078H431.945V79.2979H483.947V78.0078Z" fill="#2B2E51"/>
<path d="M483.947 83.4961H431.945V84.7862H483.947V83.4961Z" fill="#2B2E51"/>
<path d="M483.947 88.9688H431.945V90.2589H483.947V88.9688Z" fill="#2B2E51"/>
<path d="M483.947 94.4453H431.945V95.7354H483.947V94.4453Z" fill="#2B2E51"/>
<path d="M465.852 99.9375H431.945V101.228H465.852V99.9375Z" fill="#2B2E51"/>
<g opacity="0.5">
<path opacity="0.5" d="M483.951 72.5352H431.949V73.8253H483.951V72.5352Z" fill="#FAFAFA"/>
<path opacity="0.5" d="M483.951 78.0117H431.949V79.3018H483.951V78.0117Z" fill="#FAFAFA"/>
<path opacity="0.5" d="M483.951 83.5H431.949V84.7901H483.951V83.5Z" fill="#FAFAFA"/>
<path opacity="0.5" d="M483.951 88.9688H431.949V90.2589H483.951V88.9688Z" fill="#FAFAFA"/>
<path opacity="0.5" d="M483.951 94.4492H431.949V95.7393H483.951V94.4492Z" fill="#FAFAFA"/>
<path opacity="0.5" d="M465.856 99.9492H431.949V101.239H465.856V99.9492Z" fill="#FAFAFA"/>
</g>
<path d="M170.94 309.031H115.531V309.858H170.94V309.031Z" fill="#2B2E51"/>
<path d="M170.94 312.539H115.531V313.366H170.94V312.539Z" fill="#2B2E51"/>
<path d="M170.94 316.047H115.531V316.874H170.94V316.047Z" fill="#2B2E51"/>
<path d="M170.94 319.559H115.531V320.386H170.94V319.559Z" fill="#2B2E51"/>
<path d="M170.94 323.066H115.531V323.893H170.94V323.066Z" fill="#2B2E51"/>
<path d="M150.364 326.586H115.531V327.413H150.364V326.586Z" fill="#2B2E51"/>
<g opacity="0.4">
<path opacity="0.4" d="M170.94 309.039H115.531V309.866H170.94V309.039Z" fill="#FAFAFA"/>
<path opacity="0.4" d="M170.94 312.547H115.531V313.374H170.94V312.547Z" fill="#FAFAFA"/>
<path opacity="0.4" d="M170.94 316.051H115.531V316.878H170.94V316.051Z" fill="#FAFAFA"/>
<path opacity="0.4" d="M170.94 319.559H115.531V320.386H170.94V319.559Z" fill="#FAFAFA"/>
<path opacity="0.4" d="M170.94 323.059H115.531V323.886H170.94V323.059Z" fill="#FAFAFA"/>
<path opacity="0.4" d="M150.364 326.59H115.531V327.417H150.364V326.59Z" fill="#FAFAFA"/>
</g>
<path d="M353.055 80.6484C350.282 80.6484 347.624 81.7498 345.663 83.7101C343.703 85.6705 342.602 88.3293 342.602 91.1017V125.588C342.602 128.36 343.703 131.019 345.663 132.979C347.624 134.94 350.282 136.041 353.055 136.041C355.827 136.041 358.486 134.94 360.446 132.979C362.407 131.019 363.508 128.36 363.508 125.588V91.1017C363.508 88.3293 362.407 85.6705 360.446 83.7101C358.486 81.7498 355.827 80.6484 353.055 80.6484Z" fill="#2B2E51"/>
<path opacity="0.2" d="M353.055 80.6484C350.282 80.6484 347.624 81.7498 345.663 83.7101C343.703 85.6705 342.602 88.3293 342.602 91.1017V125.588C342.602 128.36 343.703 131.019 345.663 132.979C347.624 134.94 350.282 136.041 353.055 136.041C355.827 136.041 358.486 134.94 360.446 132.979C362.407 131.019 363.508 128.36 363.508 125.588V91.1017C363.508 88.3293 362.407 85.6705 360.446 83.7101C358.486 81.7498 355.827 80.6484 353.055 80.6484Z" fill="#FAFAFA"/>
<path d="M379.247 60.0978C376.484 60.1109 373.838 61.218 371.888 63.177C369.938 65.1359 368.844 67.7872 368.844 70.5511V125.596C368.844 128.369 369.945 131.027 371.905 132.988C373.866 134.948 376.525 136.049 379.297 136.049C382.069 136.049 384.728 134.948 386.689 132.988C388.649 131.027 389.75 128.369 389.75 125.596V70.5511C389.75 69.1741 389.478 67.8108 388.95 66.5393C388.421 65.2678 387.647 64.1132 386.671 63.1419C385.695 62.1705 384.537 61.4016 383.263 60.8792C381.989 60.3568 380.624 60.0912 379.247 60.0978Z" fill="#2B2E51"/>
<path opacity="0.3" d="M379.247 60.0978C376.484 60.1109 373.838 61.218 371.888 63.177C369.938 65.1359 368.844 67.7872 368.844 70.5511V125.596C368.844 128.369 369.945 131.027 371.905 132.988C373.866 134.948 376.525 136.049 379.297 136.049C382.069 136.049 384.728 134.948 386.689 132.988C388.649 131.027 389.75 128.369 389.75 125.596V70.5511C389.75 69.1741 389.478 67.8108 388.95 66.5393C388.421 65.2678 387.647 64.1132 386.671 63.1419C385.695 62.1705 384.537 61.4016 383.263 60.8792C381.989 60.3568 380.624 60.0912 379.247 60.0978Z" fill="black"/>
<path d="M405.43 101.211C402.657 101.211 399.999 102.312 398.038 104.273C396.078 106.233 394.977 108.892 394.977 111.664V125.591C394.977 128.363 396.078 131.022 398.038 132.982C399.999 134.943 402.657 136.044 405.43 136.044C406.804 136.046 408.165 135.778 409.435 135.253C410.705 134.729 411.86 133.959 412.832 132.988C413.805 132.017 414.576 130.864 415.102 129.595C415.629 128.326 415.9 126.965 415.9 125.591V111.664C415.9 110.29 415.629 108.929 415.102 107.66C414.576 106.391 413.805 105.238 412.832 104.267C411.86 103.296 410.705 102.526 409.435 102.002C408.165 101.478 406.804 101.209 405.43 101.211Z" fill="#2B2E51"/>
<path opacity="0.6" d="M405.43 101.211C402.657 101.211 399.999 102.312 398.038 104.273C396.078 106.233 394.977 108.892 394.977 111.664V125.591C394.977 128.363 396.078 131.022 398.038 132.982C399.999 134.943 402.657 136.044 405.43 136.044C406.804 136.046 408.165 135.778 409.435 135.253C410.705 134.729 411.86 133.959 412.832 132.988C413.805 132.017 414.576 130.864 415.102 129.595C415.629 128.326 415.9 126.965 415.9 125.591V111.664C415.9 110.29 415.629 108.929 415.102 107.66C414.576 106.391 413.805 105.238 412.832 104.267C411.86 103.296 410.705 102.526 409.435 102.002C408.165 101.478 406.804 101.209 405.43 101.211Z" fill="#FAFAFA"/>
<path d="M626.224 337.636H668.483L596.336 262.809L626.224 337.636Z" fill="#2B2E51"/>
<g opacity="0.1">
<path opacity="0.1" d="M626.22 337.636H668.479L596.332 262.809L626.22 337.636Z" fill="black"/>
</g>
<g style="mix-blend-mode:multiply">
<path d="M585.602 298.138L596.336 262.809L602.423 298.138H585.602Z" fill="#2B2E51"/>
</g>
<path d="M596.336 262.809V367.507L603.812 360.047L626.224 337.636L596.336 262.809Z" fill="#2B2E51"/>
<path opacity="0.3" d="M596.336 262.809V367.507L603.812 360.047L626.224 337.636L596.336 262.809Z" fill="#FAFAFA"/>
<path d="M671.066 38.2266H578.442C573.748 38.244 569.25 40.1153 565.929 43.4332C562.608 46.751 560.733 51.2466 560.711 55.9409V103.775C560.733 108.466 562.606 112.959 565.923 116.276C569.241 119.594 573.734 121.467 578.425 121.489H646.388L645.892 138.211L663.044 121.489H671.033C675.727 121.472 680.224 119.6 683.545 116.282C686.866 112.964 688.742 108.469 688.764 103.775V55.9409C688.742 51.2523 686.871 46.7617 683.557 43.4448C680.243 40.1279 675.754 38.2527 671.066 38.2266ZM576.358 58.6038C576.358 57.2878 576.881 56.0257 577.811 55.0952C578.742 54.1646 580.004 53.6418 581.32 53.6418H602.64C603.956 53.6418 605.218 54.1646 606.148 55.0952C607.079 56.0257 607.602 57.2878 607.602 58.6038C607.602 59.9198 607.079 61.182 606.148 62.1125C605.218 63.0431 603.956 63.5658 602.64 63.5658H581.303C579.99 63.5615 578.732 63.0367 577.805 62.1067C576.878 61.1766 576.358 59.917 576.358 58.6038ZM665.806 104.916H628.955C628.242 105.041 627.51 105.008 626.811 104.82C626.111 104.632 625.462 104.293 624.907 103.828C624.353 103.362 623.907 102.78 623.601 102.124C623.295 101.468 623.137 100.752 623.137 100.028C623.137 99.3042 623.295 98.5888 623.601 97.9325C623.907 97.2761 624.353 96.6947 624.907 96.2289C625.462 95.7632 626.111 95.4244 626.811 95.2364C627.51 95.0484 628.242 95.0157 628.955 95.1407H665.806C666.519 95.0157 667.251 95.0484 667.951 95.2364C668.65 95.4244 669.3 95.7632 669.854 96.2289C670.408 96.6947 670.854 97.2761 671.16 97.9325C671.466 98.5888 671.624 99.3042 671.624 100.028C671.624 100.752 671.466 101.468 671.16 102.124C670.854 102.78 670.408 103.362 669.854 103.828C669.3 104.293 668.65 104.632 667.951 104.82C667.251 105.008 666.519 105.041 665.806 104.916ZM665.806 84.2243H586.265C585.552 84.3492 584.82 84.3166 584.121 84.1286C583.422 83.9406 582.772 83.6018 582.217 83.1361C581.663 82.6703 581.217 82.0889 580.911 81.4325C580.606 80.7762 580.447 80.0608 580.447 79.3367C580.447 78.6126 580.606 77.8973 580.911 77.2409C581.217 76.5846 581.663 76.0031 582.217 75.5374C582.772 75.0716 583.422 74.7329 584.121 74.5449C584.82 74.3569 585.552 74.3242 586.265 74.4492H665.806C666.519 74.3242 667.251 74.3569 667.951 74.5449C668.65 74.7329 669.3 75.0716 669.854 75.5374C670.408 76.0031 670.854 76.5846 671.16 77.2409C671.466 77.8973 671.624 78.6126 671.624 79.3367C671.624 80.0608 671.466 80.7762 671.16 81.4325C670.854 82.0889 670.408 82.6703 669.854 83.1361C669.3 83.6018 668.65 83.9406 667.951 84.1286C667.251 84.3166 666.519 84.3492 665.806 84.2243ZM665.806 63.5328H618.717C617.401 63.5328 616.139 63.01 615.208 62.0794C614.277 61.1489 613.755 59.8868 613.755 58.5708C613.755 57.2548 614.277 55.9927 615.208 55.0621C616.139 54.1315 617.401 53.6088 618.717 53.6088H665.806C667.122 53.6088 668.384 54.1315 669.315 55.0621C670.245 55.9927 670.768 57.2548 670.768 58.5708C670.768 59.8868 670.245 61.1489 669.315 62.0794C668.384 63.01 667.122 63.5328 665.806 63.5328Z" fill="#2B2E51"/>
<path d="M526.203 189.85C522.248 178.983 516.208 168.993 508.423 160.441H376.913C369.129 168.993 363.089 178.983 359.133 189.85L377.327 280.423C391.245 295.511 409.958 305.316 430.287 308.171C450.615 311.027 471.305 306.756 488.842 296.086C506.378 285.416 519.681 269.004 526.488 249.638C533.296 230.272 533.19 209.146 526.187 189.85H526.203Z" fill="#2B2E51"/>
<path opacity="0.1" d="M526.203 189.85C522.248 178.983 516.208 168.993 508.423 160.441H376.913C369.129 168.993 363.089 178.983 359.133 189.85L377.327 280.423C391.245 295.511 409.958 305.316 430.287 308.171C450.615 311.027 471.305 306.756 488.842 296.086C506.378 285.416 519.681 269.004 526.488 249.638C533.296 230.272 533.19 209.146 526.187 189.85H526.203Z" fill="#FAFAFA"/>
<path d="M531.446 224.297C530.507 245.181 522.211 265.06 508.026 280.417H377.36C366.329 268.43 358.799 253.646 355.591 237.676C352.383 221.705 353.619 205.16 359.166 189.844H526.22C530.232 200.867 532.008 212.579 531.446 224.297Z" fill="#2B2E51"/>
<path opacity="0.9" d="M531.446 224.297C530.507 245.181 522.211 265.06 508.026 280.417H377.36C366.329 268.43 358.799 253.646 355.591 237.676C352.383 221.705 353.619 205.16 359.166 189.844H526.22C530.232 200.867 532.008 212.579 531.446 224.297Z" fill="#FAFAFA"/>
<path opacity="0.3" d="M531.448 224.301C530.42 246.278 521.257 267.088 505.742 282.687C490.226 298.286 469.466 307.56 447.494 308.706C425.523 309.852 403.91 302.789 386.856 288.89C369.801 274.99 358.523 255.247 355.213 233.496C351.903 211.745 356.797 189.541 368.945 171.197C381.092 152.853 399.626 139.681 420.943 134.239C442.261 128.798 464.84 131.476 484.294 141.753C503.747 152.03 518.685 169.172 526.205 189.848C530.217 200.872 531.999 212.583 531.448 224.301Z" fill="white"/>
<path opacity="0.4" d="M492.76 146.813L364.972 263.354C364.332 262.174 363.704 260.983 363.086 259.781C359.179 251.959 356.464 243.596 355.031 234.971L465.403 134.309C475.169 136.882 484.423 141.112 492.76 146.813Z" fill="white"/>
<path opacity="0.4" d="M526.94 191.984L406.876 301.545C394.422 296.05 383.398 287.765 374.656 277.33L505.852 157.68C515.412 167.351 522.627 179.087 526.94 191.984Z" fill="white"/>
<path d="M531.417 168.957C521.281 151.382 506.16 137.209 487.967 128.23C469.774 119.251 449.326 115.871 429.211 118.516C409.097 121.162 390.218 129.714 374.966 143.092C359.713 156.469 348.771 174.07 343.524 193.668C338.277 213.266 338.961 233.98 345.49 253.189C352.019 272.398 364.099 289.239 380.201 301.58C396.304 313.922 415.705 321.21 435.951 322.522C456.196 323.834 476.376 319.112 493.937 308.952C517.457 295.344 534.615 272.958 541.643 246.709C548.67 220.461 544.992 192.496 531.417 168.957ZM372.633 260.655C364.636 246.805 360.925 230.894 361.97 214.935C363.016 198.977 368.77 183.686 378.505 170.997C388.24 158.309 401.519 148.792 416.663 143.65C431.807 138.508 448.135 137.972 463.584 142.11C479.032 146.248 492.907 154.874 503.453 166.897C513.999 178.92 520.743 193.8 522.833 209.656C524.922 225.512 522.263 241.632 515.191 255.976C508.119 270.321 496.953 282.246 483.103 290.245C473.908 295.556 463.757 299.003 453.229 300.39C442.702 301.778 432.004 301.077 421.747 298.329C411.49 295.582 401.875 290.84 393.451 284.376C385.026 277.912 377.958 269.851 372.649 260.655H372.633Z" fill="#FF0A54"/>
<path d="M206.847 325.66L219.517 328.604L209.014 336.444C209.014 336.444 201.488 333.037 201.141 327.695L206.847 325.66Z" fill="#E4897B"/>
<path d="M226.3 337.04L217.17 343.127L209.016 336.445L219.519 328.621L226.3 337.04Z" fill="#E4897B"/>
<path d="M369.618 274.205C356.155 284.129 342.344 293.557 328.467 302.77C314.59 311.983 300.531 320.964 286.406 329.78C272.28 338.595 258.023 347.229 243.716 355.615C236.571 359.882 229.359 364.017 222.214 368.218C218.664 370.478 214.795 372.19 210.735 373.296C208.569 373.871 206.354 374.242 204.119 374.404C201.638 374.607 199.14 374.479 196.693 374.024C194.943 373.678 193.28 372.99 191.796 372.001C190.313 371.011 189.039 369.738 188.049 368.256C187.058 366.773 186.369 365.11 186.022 363.361C185.674 361.612 185.675 359.812 186.024 358.063C186.138 357.501 186.292 356.948 186.487 356.409C187.286 354.064 188.399 351.839 189.795 349.793C191.041 347.954 192.459 346.237 194.03 344.666C197.021 341.704 200.438 339.206 204.169 337.256C211.397 333.137 218.575 328.986 225.853 324.9C240.342 316.713 254.963 308.741 269.617 300.868C284.272 292.995 299.108 285.37 314.027 277.927C328.946 270.484 343.981 263.239 359.33 256.557C361.647 255.533 364.26 255.401 366.668 256.186C369.076 256.971 371.109 258.618 372.376 260.81C373.644 263.003 374.057 265.587 373.535 268.065C373.014 270.543 371.596 272.742 369.552 274.238L369.618 274.205Z" fill="#FF0A54"/>
<path d="M225.204 247.304C224.377 248.644 223.434 250.265 222.541 251.786C221.647 253.308 220.771 254.896 219.944 256.5C218.29 259.659 216.636 262.868 214.982 266.127C213.328 269.385 211.988 272.743 210.632 276.051C209.97 277.705 209.276 279.359 208.664 281.013L207.737 283.543C207.555 284.023 207.522 284.221 207.406 284.569C207.291 284.916 207.241 285.247 207.142 285.578C206.496 288.846 206.169 292.17 206.166 295.502C206.083 299.058 206.166 302.68 206.364 306.335C206.563 309.991 206.761 313.663 207.092 317.334C207.423 321.006 207.754 324.744 208.101 328.383L201.717 329.69C200.592 326.001 199.715 322.329 198.839 318.608C197.962 314.886 197.301 311.148 196.655 307.344C196.01 303.54 195.58 299.719 195.299 295.766C194.955 291.627 195.061 287.462 195.613 283.345C195.713 282.766 195.795 282.22 195.944 281.691C196.093 281.161 196.242 280.417 196.374 280.037L197.185 277.225C197.714 275.356 198.326 273.503 198.955 271.667C200.228 267.979 201.617 264.357 203.172 260.784C204.727 257.211 206.381 253.722 208.134 250.281C209.044 248.627 210.003 246.857 210.979 245.154C211.955 243.45 212.931 241.846 214.155 240.043L225.204 247.304Z" fill="#E4897B"/>
<path d="M218.146 588.825C217.03 588.789 215.921 588.634 214.838 588.361C214.78 588.352 214.726 588.324 214.685 588.283C214.643 588.241 214.616 588.188 214.606 588.13C214.596 588.07 214.603 588.009 214.626 587.953C214.65 587.898 214.689 587.85 214.739 587.816C215.185 587.518 219.089 585.004 220.594 585.682C220.761 585.759 220.905 585.879 221.009 586.03C221.114 586.182 221.176 586.358 221.189 586.542C221.267 586.837 221.262 587.147 221.174 587.439C221.087 587.731 220.92 587.993 220.693 588.196C219.948 588.706 219.043 588.93 218.146 588.825ZM215.615 587.931C217.865 588.378 219.552 588.295 220.197 587.7C220.339 587.564 220.442 587.393 220.497 587.204C220.553 587.016 220.557 586.816 220.511 586.625C220.509 586.54 220.483 586.458 220.436 586.388C220.389 586.318 220.324 586.262 220.247 586.228C219.469 585.88 217.203 586.972 215.615 587.931Z" fill="#2B2E51"/>
<path d="M214.822 588.377C214.773 588.391 214.721 588.391 214.673 588.377C214.625 588.351 214.586 588.313 214.56 588.266C214.533 588.219 214.521 588.166 214.524 588.112C214.524 587.963 214.524 584.258 215.93 583.018C216.103 582.861 216.308 582.744 216.531 582.673C216.753 582.601 216.988 582.578 217.22 582.604C217.464 582.607 217.699 582.695 217.886 582.852C218.073 583.008 218.2 583.225 218.245 583.464C218.543 584.903 216.194 587.682 214.937 588.426C214.895 588.419 214.856 588.402 214.822 588.377ZM217.021 583.15C216.771 583.152 216.529 583.246 216.343 583.415C215.53 584.613 215.114 586.036 215.152 587.483C216.376 586.491 217.832 584.407 217.65 583.53C217.65 583.381 217.534 583.216 217.154 583.166L217.021 583.15Z" fill="#2B2E51"/>
<path d="M276.732 588.827C275.369 588.807 274.012 588.652 272.68 588.364C272.617 588.357 272.557 588.329 272.512 588.284C272.467 588.239 272.439 588.18 272.432 588.116C272.424 588.053 272.436 587.99 272.466 587.933C272.495 587.877 272.541 587.832 272.597 587.802C273.176 587.504 278.303 584.891 279.875 585.751C280.026 585.828 280.154 585.944 280.247 586.086C280.34 586.228 280.394 586.392 280.404 586.561C280.44 586.834 280.408 587.112 280.309 587.369C280.211 587.626 280.05 587.854 279.842 588.033C278.927 588.647 277.829 588.928 276.732 588.827ZM273.689 587.934C276.55 588.414 278.651 588.282 279.445 587.587C279.577 587.464 279.677 587.311 279.737 587.141C279.798 586.972 279.817 586.79 279.792 586.611C279.792 586.543 279.773 586.477 279.738 586.419C279.703 586.36 279.653 586.313 279.594 586.28C278.734 585.817 275.789 586.925 273.689 587.934Z" fill="#2B2E51"/>
<path d="M272.723 588.376C272.697 588.387 272.669 588.393 272.641 588.393C272.612 588.393 272.584 588.387 272.558 588.376C272.51 588.352 272.472 588.313 272.448 588.266C272.424 588.218 272.416 588.164 272.426 588.111C272.426 587.963 272.74 584.489 274.344 583.149C274.805 582.764 275.399 582.574 275.998 582.62C276.842 582.703 277.073 583.133 277.14 583.48C277.371 584.936 274.344 587.715 272.806 588.442L272.723 588.376ZM275.8 583.149C275.411 583.153 275.037 583.294 274.741 583.546C273.793 584.667 273.215 586.054 273.087 587.516C274.642 586.573 276.71 584.39 276.561 583.513C276.561 583.513 276.561 583.216 275.965 583.166L275.8 583.149Z" fill="#2B2E51"/>
<path d="M244.79 197.633C245.799 205.357 248.098 221.02 242.508 225.751C242.508 225.751 244.162 233.624 258.254 234.534C273.835 235.542 266.193 227.289 266.193 227.289C257.824 224.709 258.452 218.407 260.321 212.585L244.79 197.633Z" fill="#E4897B"/>
<path d="M273.69 181.936C273.591 181.934 273.493 181.906 273.409 181.854C273.337 181.817 273.273 181.767 273.221 181.705C273.169 181.643 273.13 181.571 273.107 181.494C273.084 181.416 273.077 181.335 273.086 181.255C273.095 181.174 273.121 181.097 273.161 181.027C273.59 180.152 274.225 179.394 275.012 178.818C275.798 178.242 276.712 177.865 277.676 177.719C277.824 177.724 277.965 177.784 278.073 177.885C278.18 177.987 278.247 178.124 278.262 178.272C278.276 178.419 278.236 178.567 278.15 178.687C278.063 178.808 277.936 178.892 277.792 178.926C277.038 179.058 276.324 179.362 275.707 179.816C275.09 180.269 274.587 180.859 274.236 181.539C274.189 181.649 274.113 181.743 274.017 181.813C273.921 181.883 273.808 181.925 273.69 181.936Z" fill="#263238"/>
<path d="M278.137 188.723C279.276 190.994 280.723 193.098 282.437 194.975C281.946 195.402 281.367 195.717 280.741 195.897C280.116 196.077 279.458 196.118 278.815 196.017L278.137 188.723Z" fill="#DE5753"/>
<path d="M277.041 187.036C277.14 188.078 277.768 188.855 278.43 188.789C279.092 188.723 279.588 187.846 279.489 186.804C279.389 185.762 278.761 184.985 278.083 185.051C277.405 185.117 276.941 186.01 277.041 187.036Z" fill="#263238"/>
<path d="M277.871 185.134L280.286 184.191C280.286 184.191 279.128 186.242 277.871 185.134Z" fill="#263238"/>
<path d="M258.57 588.059H271.455L272.315 558.254H259.43L258.57 588.059Z" fill="#E4897B"/>
<path d="M200.066 588.059H212.951L217.086 558.254H204.218L200.066 588.059Z" fill="#E4897B"/>
<path d="M213.751 586.574H199.278C199.03 586.572 198.79 586.659 198.601 586.82C198.413 586.981 198.289 587.205 198.253 587.451L196.599 598.897C196.566 599.185 196.595 599.478 196.683 599.755C196.771 600.032 196.917 600.287 197.111 600.504C197.304 600.721 197.541 600.895 197.807 601.014C198.072 601.133 198.359 601.195 198.65 601.196C203.612 601.113 206.126 600.815 212.494 600.815C216.397 600.815 222.12 601.212 227.529 601.212C232.937 601.212 233.219 595.87 230.969 595.39C220.88 593.223 219.292 590.23 215.885 587.368C215.29 586.859 214.534 586.578 213.751 586.574Z" fill="#263238"/>
<path d="M271.885 586.575H257.429C257.18 586.568 256.937 586.654 256.748 586.816C256.559 586.978 256.436 587.204 256.403 587.451L254.749 598.897C254.719 599.187 254.75 599.479 254.841 599.757C254.931 600.034 255.078 600.289 255.273 600.505C255.468 600.722 255.706 600.895 255.972 601.014C256.238 601.133 256.526 601.195 256.817 601.196C261.779 601.113 264.293 600.815 270.644 600.815C274.564 600.815 282.652 601.212 288.061 601.212C293.47 601.212 293.751 595.87 291.501 595.39C281.412 593.224 277.442 590.23 274.035 587.368C273.436 586.856 272.673 586.574 271.885 586.575Z" fill="#263238"/>
<path d="M272.299 558.254L271.869 573.62H258.984L259.431 558.254H272.299Z" fill="#CE6F64"/>
<path d="M204.196 558.254H217.081L214.947 573.62H202.062L204.196 558.254Z" fill="#CE6F64"/>
<path d="M230.697 249.294C228.252 253.114 225.42 256.673 222.245 259.913L220.773 258.937L204.465 248.103C204.465 248.103 213.363 228.255 220.062 227.246C226.463 226.221 231.127 232.837 233.294 239.916C234.121 242.479 232.748 245.953 230.697 249.294Z" fill="#2B2E51"/>
<path opacity="0.6" d="M230.697 249.294C228.252 253.114 225.42 256.673 222.245 259.913L220.773 258.937L204.465 248.103C204.465 248.103 213.363 228.255 220.062 227.246C226.463 226.221 231.127 232.837 233.294 239.916C234.121 242.479 232.748 245.953 230.697 249.294Z" fill="#FAFAFA"/>
<path d="M230.697 249.285C228.252 253.105 225.42 256.663 222.245 259.903L220.773 258.927C221.501 252.973 223.817 247.068 226.463 245.199C228.084 245.365 229.523 247.085 230.697 249.285Z" fill="#2B2E51"/>
<path opacity="0.4" d="M230.697 249.285C228.252 253.105 225.42 256.663 222.245 259.903L220.773 258.927C221.501 252.973 223.817 247.068 226.463 245.199C228.084 245.365 229.523 247.085 230.697 249.285Z" fill="#FAFAFA"/>
<path d="M286.491 259.201C285.714 264.163 284.705 270.002 283.348 276.932C281.694 285.798 279.379 296.433 276.451 309.152L224.268 305.844C226.517 284.656 227.394 271.557 220.066 227.312C227.475 226.277 234.949 225.785 242.428 225.84C250.35 225.788 258.265 226.302 266.114 227.378C276.236 229.032 287.616 232.076 287.616 232.076C287.616 232.076 290.527 233.217 286.491 259.201Z" fill="#2B2E51"/>
<path opacity="0.6" d="M286.491 259.201C285.714 264.163 284.705 270.002 283.348 276.932C281.694 285.798 279.379 296.433 276.451 309.152L224.268 305.844C226.517 284.656 227.394 271.557 220.066 227.312C227.475 226.277 234.949 225.785 242.428 225.84C250.35 225.788 258.265 226.302 266.114 227.378C276.236 229.032 287.616 232.076 287.616 232.076C287.616 232.076 290.527 233.217 286.491 259.201Z" fill="#FAFAFA"/>
<path d="M286.49 259.202C285.713 264.164 284.704 270.002 283.347 276.933C280.477 270.828 278.094 264.507 276.219 258.027H285.911L286.49 259.202Z" fill="#2B2E51"/>
<path opacity="0.4" d="M286.49 259.202C285.713 264.164 284.704 270.002 283.347 276.933C280.477 270.828 278.094 264.507 276.219 258.027H285.911L286.49 259.202Z" fill="#FAFAFA"/>
<path d="M241.945 186.77C243.913 199.39 244.492 204.782 251.522 210.687C262.091 219.586 277.159 214.392 278.995 201.425C280.649 189.764 277.142 171.074 264.224 167.204C261.383 166.332 258.366 166.202 255.46 166.826C252.554 167.449 249.856 168.807 247.623 170.768C245.39 172.729 243.696 175.229 242.702 178.03C241.708 180.831 241.447 183.84 241.945 186.77Z" fill="#E4897B"/>
<path d="M262.657 308.251C262.657 308.251 261.83 331.225 259.846 360.203C258.192 384.517 255.694 413.032 252.204 435.758L252.105 436.387C245.836 476.612 218.065 570.625 218.065 570.625H200.5C200.5 570.625 214.972 479.821 218.148 439.959C226.203 339.28 206.024 327.884 224.268 305.688L262.657 308.251Z" fill="#2B2E51"/>
<path opacity="0.3" d="M262.657 308.251C262.657 308.251 261.83 331.225 259.846 360.203C258.192 384.517 255.694 413.032 252.204 435.758L252.105 436.387C245.836 476.612 218.065 570.625 218.065 570.625H200.5C200.5 570.625 214.972 479.821 218.148 439.959C226.203 339.28 206.024 327.884 224.268 305.688L262.657 308.251Z" fill="black"/>
<path d="M259.842 360.21C258.188 384.524 255.69 413.039 252.2 435.765C246.262 406.241 236.504 363.121 249.603 334.871C252.729 342.893 256.368 351.957 259.842 360.21Z" fill="#2B2E51"/>
<path opacity="0.4" d="M259.842 360.21C258.188 384.524 255.69 413.039 252.2 435.765C246.262 406.241 236.504 363.121 249.603 334.871C252.729 342.893 256.368 351.957 259.842 360.21Z" fill="black"/>
<path d="M276.451 309.165C276.451 309.165 291.337 397.39 290.443 436.656C289.567 477.51 274.598 570.63 274.598 570.63H257.198C257.198 570.63 259.944 479.875 258.405 439.765C256.751 396.034 238.227 306.668 238.227 306.668L276.451 309.165Z" fill="#2B2E51"/>
<path opacity="0.3" d="M276.451 309.165C276.451 309.165 291.337 397.39 290.443 436.656C289.567 477.51 274.598 570.63 274.598 570.63H257.198C257.198 570.63 259.944 479.875 258.405 439.765C256.751 396.034 238.227 306.668 238.227 306.668L276.451 309.165Z" fill="black"/>
<path d="M254.218 571.46H277.556L279.375 563.637L253.391 563.819L254.218 571.46Z" fill="#263238"/>
<path d="M197.949 571.46H221.287L223.107 563.637L198.115 563.819L197.949 571.46Z" fill="#263238"/>
<path d="M223.669 302.683L221.022 307.215C220.807 307.563 221.221 307.96 221.816 307.993L276.547 311.549C277.01 311.549 277.424 311.383 277.473 311.086L278.251 306.438C278.251 306.124 277.904 305.826 277.391 305.793L224.463 302.353C224.314 302.346 224.166 302.372 224.029 302.429C223.892 302.486 223.769 302.573 223.669 302.683Z" fill="#263238"/>
<path d="M230.384 309.036L228.978 308.937C228.697 308.937 228.482 308.755 228.515 308.589L229.574 302.552C229.574 302.387 229.855 302.254 230.136 302.271L231.558 302.354C231.84 302.354 232.038 302.536 232.022 302.718L230.963 308.738C230.93 308.92 230.665 309.052 230.384 309.036Z" fill="#2B2E51"/>
<path opacity="0.3" d="M230.384 309.036L228.978 308.937C228.697 308.937 228.482 308.755 228.515 308.589L229.574 302.552C229.574 302.387 229.855 302.254 230.136 302.271L231.558 302.354C231.84 302.354 232.038 302.536 232.022 302.718L230.963 308.738C230.93 308.92 230.665 309.052 230.384 309.036Z" fill="black"/>
<path d="M264.634 311.25L263.228 311.167C262.947 311.167 262.732 310.985 262.765 310.803L263.824 304.783C263.824 304.601 264.105 304.485 264.403 304.502L265.808 304.584C266.09 304.584 266.305 304.766 266.272 304.948L265.213 310.969C265.23 311.151 264.965 311.266 264.634 311.25Z" fill="#2B2E51"/>
<path opacity="0.3" d="M264.634 311.25L263.228 311.167C262.947 311.167 262.732 310.985 262.765 310.803L263.824 304.783C263.824 304.601 264.105 304.485 264.403 304.502L265.808 304.584C266.09 304.584 266.305 304.766 266.272 304.948L265.213 310.969C265.23 311.151 264.965 311.266 264.634 311.25Z" fill="black"/>
<path d="M290.574 245.309C292.558 251.925 294.444 258.623 296.28 265.305L301.821 285.302L302.515 287.783L302.697 288.395L302.78 288.71V288.875C302.839 289.094 302.911 289.309 302.995 289.52C303.401 290.525 303.959 291.463 304.649 292.299C306.624 294.383 308.912 296.146 311.43 297.525C317.2 300.648 323.304 303.111 329.624 304.869L328.665 311.32C321.248 310.938 313.942 309.357 307.031 306.639C303.207 305.14 299.683 302.966 296.627 300.221C294.877 298.599 293.422 296.685 292.327 294.565C292.031 293.992 291.771 293.4 291.549 292.795L291.367 292.348L291.252 292.034L291.037 291.422L290.16 288.925C287.844 282.309 285.694 275.693 283.66 268.977C281.625 262.262 279.624 255.646 277.805 248.898L290.574 245.309Z" fill="#E4897B"/>
<path d="M287.611 232.01C294.227 234.177 301.174 255.811 301.174 255.811L277.29 266.099C277.29 266.099 267.366 241.818 271.766 236.327C276.165 230.836 280.019 229.529 287.611 232.01Z" fill="#2B2E51"/>
<path opacity="0.6" d="M287.611 232.01C294.227 234.177 301.174 255.811 301.174 255.811L277.29 266.099C277.29 266.099 267.366 241.818 271.766 236.327C276.165 230.836 280.019 229.529 287.611 232.01Z" fill="#FAFAFA"/>
<path d="M274.843 166.478C270.625 161.267 238.041 157.546 236.304 171.737C224.726 179.842 235.709 200.782 237.363 206.107C229.374 208.324 203.638 217.123 222.477 234.225C241.316 251.328 269.566 248.417 275.091 230.719C278.961 218.347 266.672 197.639 266.936 190.394C267.201 183.15 282.071 175.326 274.843 166.478Z" fill="#263238"/>
<path d="M239.649 208.716C239.589 208.718 239.529 208.706 239.474 208.68C239.42 208.654 239.372 208.615 239.335 208.567C236.341 204.929 225.921 185.808 229.576 176.711C230.143 175.3 231.104 174.082 232.345 173.202C233.586 172.322 235.053 171.818 236.573 171.749C236.626 171.742 236.681 171.747 236.732 171.761C236.784 171.776 236.833 171.801 236.874 171.835C236.916 171.869 236.951 171.912 236.976 171.959C237 172.007 237.015 172.059 237.019 172.113C237.034 172.221 237.005 172.329 236.94 172.416C236.875 172.502 236.779 172.56 236.672 172.576C235.306 172.627 233.983 173.068 232.86 173.848C231.737 174.628 230.862 175.713 230.337 176.976C226.814 185.775 237.036 204.449 239.964 208.022C240.016 208.08 240.05 208.152 240.061 208.23C240.072 208.307 240.06 208.386 240.027 208.457C239.993 208.528 239.939 208.587 239.872 208.627C239.805 208.667 239.727 208.687 239.649 208.683V208.716Z" fill="#263238"/>
<path d="M264.354 189.616C264.723 192.031 265.887 194.255 267.662 195.934C270.011 198.184 272.227 196.646 272.442 193.784C272.641 191.22 271.648 186.97 268.87 185.779C266.091 184.588 264.007 186.755 264.354 189.616Z" fill="#E4897B"/>
<path d="M321.52 303.079L330.915 299.887L329.442 311.184C329.442 311.184 325.738 312.838 320.941 308.669L316.359 305.742L319.965 303.774C320.459 303.492 320.98 303.259 321.52 303.079Z" fill="#E4897B"/>
<path d="M337.476 299.855L334.598 309.73L329.438 311.169L330.91 299.889L337.476 299.855Z" fill="#E4897B"/>
</svg>
